%TF.GenerationSoftware,KiCad,Pcbnew,10.0.4-rc1*%
%TF.CreationDate,2026-08-08T15:07:00+05:30*%
%TF.ProjectId,ESC_v2,4553435f-7632-42e6-9b69-6361645f7063,rev?*%
%TF.SameCoordinates,Original*%
%TF.FileFunction,Paste,Bot*%
%TF.FilePolarity,Positive*%
%FSLAX46Y46*%
G04 Gerber Fmt 4.6, Leading zero omitted, Abs format (unit mm)*
G04 Created by KiCad (PCBNEW 10.0.4-rc1) date 2026-08-08 15:07:00*
%MOMM*%
%LPD*%
G01*
G04 APERTURE LIST*
G04 Aperture macros list*
%AMRoundRect*
0 Rectangle with rounded corners*
0 $1 Rounding radius*
0 $2 $3 $4 $5 $6 $7 $8 $9 X,Y pos of 4 corners*
0 Add a 4 corners polygon primitive as box body*
4,1,4,$2,$3,$4,$5,$6,$7,$8,$9,$2,$3,0*
0 Add four circle primitives for the rounded corners*
1,1,$1+$1,$2,$3*
1,1,$1+$1,$4,$5*
1,1,$1+$1,$6,$7*
1,1,$1+$1,$8,$9*
0 Add four rect primitives between the rounded corners*
20,1,$1+$1,$2,$3,$4,$5,0*
20,1,$1+$1,$4,$5,$6,$7,0*
20,1,$1+$1,$6,$7,$8,$9,0*
20,1,$1+$1,$8,$9,$2,$3,0*%
G04 Aperture macros list end*
%ADD10C,0.010000*%
%ADD11RoundRect,0.225000X-0.225000X-0.250000X0.225000X-0.250000X0.225000X0.250000X-0.225000X0.250000X0*%
%ADD12RoundRect,0.250000X-0.250000X-0.475000X0.250000X-0.475000X0.250000X0.475000X-0.250000X0.475000X0*%
%ADD13RoundRect,0.200000X-0.200000X-0.275000X0.200000X-0.275000X0.200000X0.275000X-0.200000X0.275000X0*%
%ADD14RoundRect,0.200000X0.200000X0.275000X-0.200000X0.275000X-0.200000X-0.275000X0.200000X-0.275000X0*%
%ADD15RoundRect,0.225000X0.225000X0.250000X-0.225000X0.250000X-0.225000X-0.250000X0.225000X-0.250000X0*%
%ADD16RoundRect,0.140000X0.170000X-0.140000X0.170000X0.140000X-0.170000X0.140000X-0.170000X-0.140000X0*%
%ADD17RoundRect,0.250000X0.475000X-0.250000X0.475000X0.250000X-0.475000X0.250000X-0.475000X-0.250000X0*%
%ADD18RoundRect,0.200000X-0.275000X0.200000X-0.275000X-0.200000X0.275000X-0.200000X0.275000X0.200000X0*%
%ADD19RoundRect,0.225000X0.250000X-0.225000X0.250000X0.225000X-0.250000X0.225000X-0.250000X-0.225000X0*%
%ADD20RoundRect,0.135000X0.185000X-0.135000X0.185000X0.135000X-0.185000X0.135000X-0.185000X-0.135000X0*%
%ADD21RoundRect,0.237500X0.250000X0.237500X-0.250000X0.237500X-0.250000X-0.237500X0.250000X-0.237500X0*%
%ADD22RoundRect,0.250000X-0.475000X0.250000X-0.475000X-0.250000X0.475000X-0.250000X0.475000X0.250000X0*%
%ADD23RoundRect,0.200000X0.275000X-0.200000X0.275000X0.200000X-0.275000X0.200000X-0.275000X-0.200000X0*%
%ADD24RoundRect,0.225000X-0.250000X0.225000X-0.250000X-0.225000X0.250000X-0.225000X0.250000X0.225000X0*%
%ADD25RoundRect,0.140000X-0.140000X-0.170000X0.140000X-0.170000X0.140000X0.170000X-0.140000X0.170000X0*%
%ADD26RoundRect,0.200000X0.200000X0.800000X-0.200000X0.800000X-0.200000X-0.800000X0.200000X-0.800000X0*%
%ADD27RoundRect,0.182500X0.272500X-0.182500X0.272500X0.182500X-0.272500X0.182500X-0.272500X-0.182500X0*%
%ADD28RoundRect,0.062500X0.062500X-0.450000X0.062500X0.450000X-0.062500X0.450000X-0.062500X-0.450000X0*%
%ADD29RoundRect,0.062500X0.325000X-0.062500X0.325000X0.062500X-0.325000X0.062500X-0.325000X-0.062500X0*%
%ADD30RoundRect,0.200000X-0.200000X-0.800000X0.200000X-0.800000X0.200000X0.800000X-0.200000X0.800000X0*%
%ADD31RoundRect,0.150000X-0.150000X-0.200000X0.150000X-0.200000X0.150000X0.200000X-0.150000X0.200000X0*%
%ADD32RoundRect,0.049600X-0.105400X0.250400X-0.105400X-0.250400X0.105400X-0.250400X0.105400X0.250400X0*%
%ADD33RoundRect,0.250000X-1.600000X0.300000X-1.600000X-0.300000X1.600000X-0.300000X1.600000X0.300000X0*%
%ADD34RoundRect,0.200000X0.250000X0.200000X-0.250000X0.200000X-0.250000X-0.200000X0.250000X-0.200000X0*%
%ADD35RoundRect,0.140000X-0.170000X0.140000X-0.170000X-0.140000X0.170000X-0.140000X0.170000X0.140000X0*%
%ADD36RoundRect,0.075000X-0.662500X-0.075000X0.662500X-0.075000X0.662500X0.075000X-0.662500X0.075000X0*%
%ADD37RoundRect,0.075000X-0.075000X-0.662500X0.075000X-0.662500X0.075000X0.662500X-0.075000X0.662500X0*%
%ADD38RoundRect,0.155000X0.212500X0.155000X-0.212500X0.155000X-0.212500X-0.155000X0.212500X-0.155000X0*%
%ADD39RoundRect,0.218750X-0.256250X0.218750X-0.256250X-0.218750X0.256250X-0.218750X0.256250X0.218750X0*%
%ADD40RoundRect,0.218750X0.256250X-0.218750X0.256250X0.218750X-0.256250X0.218750X-0.256250X-0.218750X0*%
%ADD41RoundRect,0.150000X-0.150000X0.512500X-0.150000X-0.512500X0.150000X-0.512500X0.150000X0.512500X0*%
%ADD42RoundRect,0.237500X-0.237500X0.250000X-0.237500X-0.250000X0.237500X-0.250000X0.237500X0.250000X0*%
%ADD43R,1.409700X0.355600*%
%ADD44RoundRect,0.242500X-0.242500X-0.382500X0.242500X-0.382500X0.242500X0.382500X-0.242500X0.382500X0*%
%ADD45RoundRect,0.150000X-0.650000X-0.150000X0.650000X-0.150000X0.650000X0.150000X-0.650000X0.150000X0*%
%ADD46RoundRect,0.218750X-0.218750X-0.256250X0.218750X-0.256250X0.218750X0.256250X-0.218750X0.256250X0*%
G04 APERTURE END LIST*
D10*
%TO.C,U3*%
X80840000Y-92795000D02*
X80840000Y-94205000D01*
X80840000Y-94208000D01*
X80840000Y-94210000D01*
X80841000Y-94213000D01*
X80841000Y-94215000D01*
X80842000Y-94218000D01*
X80842000Y-94220000D01*
X80843000Y-94223000D01*
X80844000Y-94225000D01*
X80845000Y-94228000D01*
X80847000Y-94230000D01*
X80848000Y-94232000D01*
X80850000Y-94234000D01*
X80851000Y-94236000D01*
X80853000Y-94238000D01*
X80855000Y-94240000D01*
X80857000Y-94242000D01*
X80859000Y-94244000D01*
X80861000Y-94245000D01*
X80863000Y-94247000D01*
X80865000Y-94248000D01*
X80867000Y-94250000D01*
X80870000Y-94251000D01*
X80872000Y-94252000D01*
X80875000Y-94253000D01*
X80877000Y-94253000D01*
X80880000Y-94254000D01*
X80882000Y-94254000D01*
X80885000Y-94255000D01*
X80887000Y-94255000D01*
X80890000Y-94255000D01*
X81850000Y-94255000D01*
X81853000Y-94255000D01*
X81855000Y-94255000D01*
X81858000Y-94254000D01*
X81860000Y-94254000D01*
X81863000Y-94253000D01*
X81865000Y-94253000D01*
X81868000Y-94252000D01*
X81870000Y-94251000D01*
X81873000Y-94250000D01*
X81875000Y-94248000D01*
X81877000Y-94247000D01*
X81879000Y-94245000D01*
X81881000Y-94244000D01*
X81883000Y-94242000D01*
X81885000Y-94240000D01*
X81887000Y-94238000D01*
X81889000Y-94236000D01*
X81890000Y-94234000D01*
X81892000Y-94232000D01*
X81893000Y-94230000D01*
X81895000Y-94228000D01*
X81896000Y-94225000D01*
X81897000Y-94223000D01*
X81898000Y-94220000D01*
X81898000Y-94218000D01*
X81899000Y-94215000D01*
X81899000Y-94213000D01*
X81900000Y-94210000D01*
X81900000Y-94208000D01*
X81900000Y-94205000D01*
X81900000Y-92795000D01*
X81900000Y-92792000D01*
X81900000Y-92790000D01*
X81899000Y-92787000D01*
X81899000Y-92785000D01*
X81898000Y-92782000D01*
X81898000Y-92780000D01*
X81897000Y-92777000D01*
X81896000Y-92775000D01*
X81895000Y-92772000D01*
X81893000Y-92770000D01*
X81892000Y-92768000D01*
X81890000Y-92766000D01*
X81889000Y-92764000D01*
X81887000Y-92762000D01*
X81885000Y-92760000D01*
X81883000Y-92758000D01*
X81881000Y-92756000D01*
X81879000Y-92755000D01*
X81877000Y-92753000D01*
X81875000Y-92752000D01*
X81873000Y-92750000D01*
X81870000Y-92749000D01*
X81868000Y-92748000D01*
X81865000Y-92747000D01*
X81863000Y-92747000D01*
X81860000Y-92746000D01*
X81858000Y-92746000D01*
X81855000Y-92745000D01*
X81853000Y-92745000D01*
X81850000Y-92745000D01*
X80890000Y-92745000D01*
X80887000Y-92745000D01*
X80885000Y-92745000D01*
X80882000Y-92746000D01*
X80880000Y-92746000D01*
X80877000Y-92747000D01*
X80875000Y-92747000D01*
X80872000Y-92748000D01*
X80870000Y-92749000D01*
X80867000Y-92750000D01*
X80865000Y-92752000D01*
X80863000Y-92753000D01*
X80861000Y-92755000D01*
X80859000Y-92756000D01*
X80857000Y-92758000D01*
X80855000Y-92760000D01*
X80853000Y-92762000D01*
X80851000Y-92764000D01*
X80850000Y-92766000D01*
X80848000Y-92768000D01*
X80847000Y-92770000D01*
X80845000Y-92772000D01*
X80844000Y-92775000D01*
X80843000Y-92777000D01*
X80842000Y-92780000D01*
X80842000Y-92782000D01*
X80841000Y-92785000D01*
X80841000Y-92787000D01*
X80840000Y-92790000D01*
X80840000Y-92792000D01*
X80840000Y-92795000D01*
G36*
X81858000Y-92746000D02*
G01*
X81860000Y-92746000D01*
X81863000Y-92747000D01*
X81865000Y-92747000D01*
X81868000Y-92748000D01*
X81870000Y-92749000D01*
X81873000Y-92750000D01*
X81875000Y-92752000D01*
X81877000Y-92753000D01*
X81879000Y-92755000D01*
X81881000Y-92756000D01*
X81883000Y-92758000D01*
X81885000Y-92760000D01*
X81887000Y-92762000D01*
X81889000Y-92764000D01*
X81890000Y-92766000D01*
X81892000Y-92768000D01*
X81893000Y-92770000D01*
X81895000Y-92772000D01*
X81896000Y-92775000D01*
X81897000Y-92777000D01*
X81898000Y-92780000D01*
X81898000Y-92782000D01*
X81899000Y-92785000D01*
X81899000Y-92787000D01*
X81900000Y-92790000D01*
X81900000Y-92792000D01*
X81900000Y-92795000D01*
X81900000Y-94205000D01*
X81900000Y-94208000D01*
X81900000Y-94210000D01*
X81899000Y-94213000D01*
X81899000Y-94215000D01*
X81898000Y-94218000D01*
X81898000Y-94220000D01*
X81897000Y-94223000D01*
X81896000Y-94225000D01*
X81895000Y-94228000D01*
X81893000Y-94230000D01*
X81892000Y-94232000D01*
X81890000Y-94234000D01*
X81889000Y-94236000D01*
X81887000Y-94238000D01*
X81885000Y-94240000D01*
X81883000Y-94242000D01*
X81881000Y-94244000D01*
X81879000Y-94245000D01*
X81877000Y-94247000D01*
X81875000Y-94248000D01*
X81873000Y-94250000D01*
X81870000Y-94251000D01*
X81868000Y-94252000D01*
X81865000Y-94253000D01*
X81863000Y-94253000D01*
X81860000Y-94254000D01*
X81858000Y-94254000D01*
X81855000Y-94255000D01*
X81853000Y-94255000D01*
X81850000Y-94255000D01*
X80890000Y-94255000D01*
X80887000Y-94255000D01*
X80885000Y-94255000D01*
X80882000Y-94254000D01*
X80880000Y-94254000D01*
X80877000Y-94253000D01*
X80875000Y-94253000D01*
X80872000Y-94252000D01*
X80870000Y-94251000D01*
X80867000Y-94250000D01*
X80865000Y-94248000D01*
X80863000Y-94247000D01*
X80861000Y-94245000D01*
X80859000Y-94244000D01*
X80857000Y-94242000D01*
X80855000Y-94240000D01*
X80853000Y-94238000D01*
X80851000Y-94236000D01*
X80850000Y-94234000D01*
X80848000Y-94232000D01*
X80847000Y-94230000D01*
X80845000Y-94228000D01*
X80844000Y-94225000D01*
X80843000Y-94223000D01*
X80842000Y-94220000D01*
X80842000Y-94218000D01*
X80841000Y-94215000D01*
X80841000Y-94213000D01*
X80840000Y-94210000D01*
X80840000Y-94208000D01*
X80840000Y-94205000D01*
X80840000Y-92795000D01*
X80840000Y-92792000D01*
X80840000Y-92790000D01*
X80841000Y-92787000D01*
X80841000Y-92785000D01*
X80842000Y-92782000D01*
X80842000Y-92780000D01*
X80843000Y-92777000D01*
X80844000Y-92775000D01*
X80845000Y-92772000D01*
X80847000Y-92770000D01*
X80848000Y-92768000D01*
X80850000Y-92766000D01*
X80851000Y-92764000D01*
X80853000Y-92762000D01*
X80855000Y-92760000D01*
X80857000Y-92758000D01*
X80859000Y-92756000D01*
X80861000Y-92755000D01*
X80863000Y-92753000D01*
X80865000Y-92752000D01*
X80867000Y-92750000D01*
X80870000Y-92749000D01*
X80872000Y-92748000D01*
X80875000Y-92747000D01*
X80877000Y-92747000D01*
X80880000Y-92746000D01*
X80882000Y-92746000D01*
X80885000Y-92745000D01*
X80887000Y-92745000D01*
X80890000Y-92745000D01*
X81850000Y-92745000D01*
X81853000Y-92745000D01*
X81855000Y-92745000D01*
X81858000Y-92746000D01*
G37*
X82100000Y-92795000D02*
X82100000Y-94205000D01*
X82100000Y-94208000D01*
X82100000Y-94210000D01*
X82101000Y-94213000D01*
X82101000Y-94215000D01*
X82102000Y-94218000D01*
X82102000Y-94220000D01*
X82103000Y-94223000D01*
X82104000Y-94225000D01*
X82105000Y-94228000D01*
X82107000Y-94230000D01*
X82108000Y-94232000D01*
X82110000Y-94234000D01*
X82111000Y-94236000D01*
X82113000Y-94238000D01*
X82115000Y-94240000D01*
X82117000Y-94242000D01*
X82119000Y-94244000D01*
X82121000Y-94245000D01*
X82123000Y-94247000D01*
X82125000Y-94248000D01*
X82127000Y-94250000D01*
X82130000Y-94251000D01*
X82132000Y-94252000D01*
X82135000Y-94253000D01*
X82137000Y-94253000D01*
X82140000Y-94254000D01*
X82142000Y-94254000D01*
X82145000Y-94255000D01*
X82147000Y-94255000D01*
X82150000Y-94255000D01*
X83110000Y-94255000D01*
X83113000Y-94255000D01*
X83115000Y-94255000D01*
X83118000Y-94254000D01*
X83120000Y-94254000D01*
X83123000Y-94253000D01*
X83125000Y-94253000D01*
X83128000Y-94252000D01*
X83130000Y-94251000D01*
X83133000Y-94250000D01*
X83135000Y-94248000D01*
X83137000Y-94247000D01*
X83139000Y-94245000D01*
X83141000Y-94244000D01*
X83143000Y-94242000D01*
X83145000Y-94240000D01*
X83147000Y-94238000D01*
X83149000Y-94236000D01*
X83150000Y-94234000D01*
X83152000Y-94232000D01*
X83153000Y-94230000D01*
X83155000Y-94228000D01*
X83156000Y-94225000D01*
X83157000Y-94223000D01*
X83158000Y-94220000D01*
X83158000Y-94218000D01*
X83159000Y-94215000D01*
X83159000Y-94213000D01*
X83160000Y-94210000D01*
X83160000Y-94208000D01*
X83160000Y-94205000D01*
X83160000Y-92795000D01*
X83160000Y-92792000D01*
X83160000Y-92790000D01*
X83159000Y-92787000D01*
X83159000Y-92785000D01*
X83158000Y-92782000D01*
X83158000Y-92780000D01*
X83157000Y-92777000D01*
X83156000Y-92775000D01*
X83155000Y-92772000D01*
X83153000Y-92770000D01*
X83152000Y-92768000D01*
X83150000Y-92766000D01*
X83149000Y-92764000D01*
X83147000Y-92762000D01*
X83145000Y-92760000D01*
X83143000Y-92758000D01*
X83141000Y-92756000D01*
X83139000Y-92755000D01*
X83137000Y-92753000D01*
X83135000Y-92752000D01*
X83133000Y-92750000D01*
X83130000Y-92749000D01*
X83128000Y-92748000D01*
X83125000Y-92747000D01*
X83123000Y-92747000D01*
X83120000Y-92746000D01*
X83118000Y-92746000D01*
X83115000Y-92745000D01*
X83113000Y-92745000D01*
X83110000Y-92745000D01*
X82150000Y-92745000D01*
X82147000Y-92745000D01*
X82145000Y-92745000D01*
X82142000Y-92746000D01*
X82140000Y-92746000D01*
X82137000Y-92747000D01*
X82135000Y-92747000D01*
X82132000Y-92748000D01*
X82130000Y-92749000D01*
X82127000Y-92750000D01*
X82125000Y-92752000D01*
X82123000Y-92753000D01*
X82121000Y-92755000D01*
X82119000Y-92756000D01*
X82117000Y-92758000D01*
X82115000Y-92760000D01*
X82113000Y-92762000D01*
X82111000Y-92764000D01*
X82110000Y-92766000D01*
X82108000Y-92768000D01*
X82107000Y-92770000D01*
X82105000Y-92772000D01*
X82104000Y-92775000D01*
X82103000Y-92777000D01*
X82102000Y-92780000D01*
X82102000Y-92782000D01*
X82101000Y-92785000D01*
X82101000Y-92787000D01*
X82100000Y-92790000D01*
X82100000Y-92792000D01*
X82100000Y-92795000D01*
G36*
X83118000Y-92746000D02*
G01*
X83120000Y-92746000D01*
X83123000Y-92747000D01*
X83125000Y-92747000D01*
X83128000Y-92748000D01*
X83130000Y-92749000D01*
X83133000Y-92750000D01*
X83135000Y-92752000D01*
X83137000Y-92753000D01*
X83139000Y-92755000D01*
X83141000Y-92756000D01*
X83143000Y-92758000D01*
X83145000Y-92760000D01*
X83147000Y-92762000D01*
X83149000Y-92764000D01*
X83150000Y-92766000D01*
X83152000Y-92768000D01*
X83153000Y-92770000D01*
X83155000Y-92772000D01*
X83156000Y-92775000D01*
X83157000Y-92777000D01*
X83158000Y-92780000D01*
X83158000Y-92782000D01*
X83159000Y-92785000D01*
X83159000Y-92787000D01*
X83160000Y-92790000D01*
X83160000Y-92792000D01*
X83160000Y-92795000D01*
X83160000Y-94205000D01*
X83160000Y-94208000D01*
X83160000Y-94210000D01*
X83159000Y-94213000D01*
X83159000Y-94215000D01*
X83158000Y-94218000D01*
X83158000Y-94220000D01*
X83157000Y-94223000D01*
X83156000Y-94225000D01*
X83155000Y-94228000D01*
X83153000Y-94230000D01*
X83152000Y-94232000D01*
X83150000Y-94234000D01*
X83149000Y-94236000D01*
X83147000Y-94238000D01*
X83145000Y-94240000D01*
X83143000Y-94242000D01*
X83141000Y-94244000D01*
X83139000Y-94245000D01*
X83137000Y-94247000D01*
X83135000Y-94248000D01*
X83133000Y-94250000D01*
X83130000Y-94251000D01*
X83128000Y-94252000D01*
X83125000Y-94253000D01*
X83123000Y-94253000D01*
X83120000Y-94254000D01*
X83118000Y-94254000D01*
X83115000Y-94255000D01*
X83113000Y-94255000D01*
X83110000Y-94255000D01*
X82150000Y-94255000D01*
X82147000Y-94255000D01*
X82145000Y-94255000D01*
X82142000Y-94254000D01*
X82140000Y-94254000D01*
X82137000Y-94253000D01*
X82135000Y-94253000D01*
X82132000Y-94252000D01*
X82130000Y-94251000D01*
X82127000Y-94250000D01*
X82125000Y-94248000D01*
X82123000Y-94247000D01*
X82121000Y-94245000D01*
X82119000Y-94244000D01*
X82117000Y-94242000D01*
X82115000Y-94240000D01*
X82113000Y-94238000D01*
X82111000Y-94236000D01*
X82110000Y-94234000D01*
X82108000Y-94232000D01*
X82107000Y-94230000D01*
X82105000Y-94228000D01*
X82104000Y-94225000D01*
X82103000Y-94223000D01*
X82102000Y-94220000D01*
X82102000Y-94218000D01*
X82101000Y-94215000D01*
X82101000Y-94213000D01*
X82100000Y-94210000D01*
X82100000Y-94208000D01*
X82100000Y-94205000D01*
X82100000Y-92795000D01*
X82100000Y-92792000D01*
X82100000Y-92790000D01*
X82101000Y-92787000D01*
X82101000Y-92785000D01*
X82102000Y-92782000D01*
X82102000Y-92780000D01*
X82103000Y-92777000D01*
X82104000Y-92775000D01*
X82105000Y-92772000D01*
X82107000Y-92770000D01*
X82108000Y-92768000D01*
X82110000Y-92766000D01*
X82111000Y-92764000D01*
X82113000Y-92762000D01*
X82115000Y-92760000D01*
X82117000Y-92758000D01*
X82119000Y-92756000D01*
X82121000Y-92755000D01*
X82123000Y-92753000D01*
X82125000Y-92752000D01*
X82127000Y-92750000D01*
X82130000Y-92749000D01*
X82132000Y-92748000D01*
X82135000Y-92747000D01*
X82137000Y-92747000D01*
X82140000Y-92746000D01*
X82142000Y-92746000D01*
X82145000Y-92745000D01*
X82147000Y-92745000D01*
X82150000Y-92745000D01*
X83110000Y-92745000D01*
X83113000Y-92745000D01*
X83115000Y-92745000D01*
X83118000Y-92746000D01*
G37*
%TD*%
D11*
%TO.C,C30*%
X67350000Y-81000000D03*
X68900000Y-81000000D03*
%TD*%
D12*
%TO.C,C53*%
X103050000Y-97000000D03*
X104950000Y-97000000D03*
%TD*%
D13*
%TO.C,R24*%
X117175000Y-97500000D03*
X118825000Y-97500000D03*
%TD*%
D14*
%TO.C,R39*%
X109325000Y-110825000D03*
X107675000Y-110825000D03*
%TD*%
D13*
%TO.C,R18*%
X79175000Y-101500000D03*
X80825000Y-101500000D03*
%TD*%
D15*
%TO.C,C42*%
X75050000Y-94000000D03*
X73500000Y-94000000D03*
%TD*%
D14*
%TO.C,R6*%
X81825000Y-85000000D03*
X80175000Y-85000000D03*
%TD*%
D16*
%TO.C,C7*%
X91000000Y-91980000D03*
X91000000Y-91020000D03*
%TD*%
D17*
%TO.C,C45*%
X68300000Y-107150000D03*
X68300000Y-105250000D03*
%TD*%
D15*
%TO.C,C47*%
X68900000Y-101600000D03*
X67350000Y-101600000D03*
%TD*%
D18*
%TO.C,R36*%
X110500000Y-93350000D03*
X110500000Y-95000000D03*
%TD*%
D19*
%TO.C,C41*%
X73150000Y-104375000D03*
X73150000Y-102825000D03*
%TD*%
D20*
%TO.C,R28*%
X91500000Y-85510000D03*
X91500000Y-84490000D03*
%TD*%
D21*
%TO.C,R35*%
X109412500Y-78000000D03*
X107587500Y-78000000D03*
%TD*%
D20*
%TO.C,R32*%
X93000000Y-92000000D03*
X93000000Y-90980000D03*
%TD*%
%TO.C,R29*%
X92500000Y-85510000D03*
X92500000Y-84490000D03*
%TD*%
D14*
%TO.C,R37*%
X109000000Y-95500000D03*
X107350000Y-95500000D03*
%TD*%
D22*
%TO.C,C1*%
X84640000Y-88050000D03*
X84640000Y-89950000D03*
%TD*%
D19*
%TO.C,C34*%
X95500000Y-92275000D03*
X95500000Y-90725000D03*
%TD*%
D23*
%TO.C,R40*%
X111000000Y-81500000D03*
X111000000Y-79850000D03*
%TD*%
D20*
%TO.C,R31*%
X94000000Y-92000000D03*
X94000000Y-90980000D03*
%TD*%
D13*
%TO.C,R10*%
X67200000Y-79500000D03*
X68850000Y-79500000D03*
%TD*%
D24*
%TO.C,C40*%
X70100000Y-105500000D03*
X70100000Y-107050000D03*
%TD*%
D25*
%TO.C,C6*%
X85820000Y-97570000D03*
X86780000Y-97570000D03*
%TD*%
D12*
%TO.C,C35*%
X80600000Y-90500000D03*
X82500000Y-90500000D03*
%TD*%
%TO.C,C51*%
X103050000Y-82500000D03*
X104950000Y-82500000D03*
%TD*%
D13*
%TO.C,R20*%
X67250000Y-103300000D03*
X68900000Y-103300000D03*
%TD*%
D19*
%TO.C,C59*%
X87000000Y-89000000D03*
X87000000Y-87450000D03*
%TD*%
D11*
%TO.C,C57*%
X107775000Y-112325000D03*
X109325000Y-112325000D03*
%TD*%
D19*
%TO.C,C32*%
X84500000Y-96775000D03*
X84500000Y-95225000D03*
%TD*%
D13*
%TO.C,R13*%
X81175000Y-96225000D03*
X82825000Y-96225000D03*
%TD*%
D12*
%TO.C,C54*%
X103000000Y-110000000D03*
X104900000Y-110000000D03*
%TD*%
D13*
%TO.C,R16*%
X73000000Y-72940000D03*
X74650000Y-72940000D03*
%TD*%
D26*
%TO.C,SW2*%
X85600000Y-111500000D03*
X81400000Y-111500000D03*
%TD*%
D11*
%TO.C,C56*%
X107500000Y-97000000D03*
X109050000Y-97000000D03*
%TD*%
D27*
%TO.C,U4*%
X71620000Y-99900000D03*
X72740000Y-99900000D03*
X73860000Y-99900000D03*
X74980000Y-99900000D03*
X71620000Y-99000000D03*
X72740000Y-99000000D03*
X73860000Y-99000000D03*
X74980000Y-99000000D03*
D28*
X75800000Y-101312500D03*
X75300000Y-101312500D03*
X74800000Y-101312500D03*
X74300000Y-101312500D03*
X73800000Y-101312500D03*
X73300000Y-101312500D03*
X72800000Y-101312500D03*
X72300000Y-101312500D03*
X71800000Y-101312500D03*
X71300000Y-101312500D03*
X70800000Y-101312500D03*
D29*
X70312500Y-100200000D03*
X70312500Y-99700000D03*
X70312500Y-99200000D03*
X70312500Y-98700000D03*
D28*
X70800000Y-97587500D03*
X71300000Y-97587500D03*
X71800000Y-97587500D03*
X72300000Y-97587500D03*
X72800000Y-97587500D03*
X73300000Y-97587500D03*
X73800000Y-97587500D03*
X74300000Y-97587500D03*
X74800000Y-97587500D03*
X75300000Y-97587500D03*
X75800000Y-97587500D03*
D29*
X76287500Y-98700000D03*
X76287500Y-99200000D03*
X76287500Y-99700000D03*
X76287500Y-100200000D03*
%TD*%
D14*
%TO.C,R26*%
X109500000Y-100000000D03*
X107850000Y-100000000D03*
%TD*%
D19*
%TO.C,C52*%
X87000000Y-95550000D03*
X87000000Y-94000000D03*
%TD*%
D13*
%TO.C,R17*%
X73425000Y-92500000D03*
X75075000Y-92500000D03*
%TD*%
D18*
%TO.C,R38*%
X111000000Y-109500000D03*
X111000000Y-111150000D03*
%TD*%
D11*
%TO.C,C29*%
X67350000Y-82500000D03*
X68900000Y-82500000D03*
%TD*%
D14*
%TO.C,R11*%
X74725000Y-71000000D03*
X73075000Y-71000000D03*
%TD*%
D30*
%TO.C,SW1*%
X87900000Y-111500000D03*
X92100000Y-111500000D03*
%TD*%
D19*
%TO.C,C58*%
X93500000Y-75550000D03*
X93500000Y-74000000D03*
%TD*%
D31*
%TO.C,D4*%
X101750000Y-82500000D03*
X100350000Y-82500000D03*
%TD*%
D32*
%TO.C,U3*%
X81025000Y-92100000D03*
X81675000Y-92100000D03*
X82325000Y-92100000D03*
X82975000Y-92100000D03*
X82975000Y-94900000D03*
X82325000Y-94900000D03*
X81675000Y-94900000D03*
X81025000Y-94900000D03*
%TD*%
D19*
%TO.C,C49*%
X88500000Y-79500000D03*
X88500000Y-77950000D03*
%TD*%
D13*
%TO.C,R27*%
X113675000Y-98500000D03*
X115325000Y-98500000D03*
%TD*%
D23*
%TO.C,R41*%
X110500000Y-98000000D03*
X110500000Y-96350000D03*
%TD*%
D13*
%TO.C,R22*%
X67325000Y-97200000D03*
X68975000Y-97200000D03*
%TD*%
D24*
%TO.C,C28*%
X78250000Y-76125000D03*
X78250000Y-77675000D03*
%TD*%
D11*
%TO.C,C33*%
X81225000Y-98000000D03*
X82775000Y-98000000D03*
%TD*%
%TO.C,C55*%
X107725000Y-79500000D03*
X109275000Y-79500000D03*
%TD*%
D15*
%TO.C,C43*%
X75275000Y-95500000D03*
X73725000Y-95500000D03*
%TD*%
D33*
%TO.C,L2*%
X76200000Y-103300000D03*
X76200000Y-106300000D03*
%TD*%
D18*
%TO.C,R3*%
X96000000Y-104700000D03*
X96000000Y-106350000D03*
%TD*%
D25*
%TO.C,C5*%
X86020000Y-101450000D03*
X86980000Y-101450000D03*
%TD*%
D15*
%TO.C,C38*%
X68325000Y-74500000D03*
X66775000Y-74500000D03*
%TD*%
D13*
%TO.C,R56*%
X86675000Y-74000000D03*
X88325000Y-74000000D03*
%TD*%
%TO.C,R25*%
X117175000Y-99000000D03*
X118825000Y-99000000D03*
%TD*%
D33*
%TO.C,L1*%
X72850000Y-81000000D03*
X72850000Y-84000000D03*
%TD*%
D19*
%TO.C,C50*%
X87000000Y-79500000D03*
X87000000Y-77950000D03*
%TD*%
D31*
%TO.C,D5*%
X101700000Y-97000000D03*
X100300000Y-97000000D03*
%TD*%
D34*
%TO.C,Y1*%
X86500000Y-100000000D03*
X85100000Y-100000000D03*
X85100000Y-98900000D03*
X86500000Y-98900000D03*
%TD*%
D13*
%TO.C,R9*%
X80170000Y-83500000D03*
X81820000Y-83500000D03*
%TD*%
D15*
%TO.C,C44*%
X80475000Y-99700000D03*
X78925000Y-99700000D03*
%TD*%
D20*
%TO.C,R4*%
X94800000Y-105510000D03*
X94800000Y-104490000D03*
%TD*%
D35*
%TO.C,C31*%
X77500000Y-83020000D03*
X77500000Y-83980000D03*
%TD*%
D20*
%TO.C,R33*%
X92000000Y-92010000D03*
X92000000Y-90990000D03*
%TD*%
D23*
%TO.C,R42*%
X111000000Y-114150000D03*
X111000000Y-112500000D03*
%TD*%
D11*
%TO.C,C4*%
X81225000Y-87000000D03*
X82775000Y-87000000D03*
%TD*%
D13*
%TO.C,R14*%
X66675000Y-76000000D03*
X68325000Y-76000000D03*
%TD*%
D36*
%TO.C,U1*%
X88837500Y-101500000D03*
X88837500Y-101000000D03*
X88837500Y-100500000D03*
X88837500Y-100000000D03*
X88837500Y-99500000D03*
X88837500Y-99000000D03*
X88837500Y-98500000D03*
X88837500Y-98000000D03*
X88837500Y-97500000D03*
X88837500Y-97000000D03*
X88837500Y-96500000D03*
X88837500Y-96000000D03*
D37*
X90250000Y-94587500D03*
X90750000Y-94587500D03*
X91250000Y-94587500D03*
X91750000Y-94587500D03*
X92250000Y-94587500D03*
X92750000Y-94587500D03*
X93250000Y-94587500D03*
X93750000Y-94587500D03*
X94250000Y-94587500D03*
X94750000Y-94587500D03*
X95250000Y-94587500D03*
X95750000Y-94587500D03*
D36*
X97162500Y-96000000D03*
X97162500Y-96500000D03*
X97162500Y-97000000D03*
X97162500Y-97500000D03*
X97162500Y-98000000D03*
X97162500Y-98500000D03*
X97162500Y-99000000D03*
X97162500Y-99500000D03*
X97162500Y-100000000D03*
X97162500Y-100500000D03*
X97162500Y-101000000D03*
X97162500Y-101500000D03*
D37*
X95750000Y-102912500D03*
X95250000Y-102912500D03*
X94750000Y-102912500D03*
X94250000Y-102912500D03*
X93750000Y-102912500D03*
X93250000Y-102912500D03*
X92750000Y-102912500D03*
X92250000Y-102912500D03*
X91750000Y-102912500D03*
X91250000Y-102912500D03*
X90750000Y-102912500D03*
X90250000Y-102912500D03*
%TD*%
D20*
%TO.C,R30*%
X90530000Y-85510000D03*
X90530000Y-84490000D03*
%TD*%
D24*
%TO.C,C48*%
X71600000Y-104275000D03*
X71600000Y-105825000D03*
%TD*%
D18*
%TO.C,R8*%
X83500000Y-83675000D03*
X83500000Y-85325000D03*
%TD*%
D13*
%TO.C,R15*%
X68500000Y-73000000D03*
X70150000Y-73000000D03*
%TD*%
D38*
%TO.C,C39*%
X79067500Y-74500000D03*
X77932500Y-74500000D03*
%TD*%
D39*
%TO.C,D2*%
X87000000Y-91000000D03*
X87000000Y-92575000D03*
%TD*%
D40*
%TO.C,D1*%
X93500000Y-108500000D03*
X93500000Y-106925000D03*
%TD*%
D41*
%TO.C,U6*%
X90050000Y-71725000D03*
X91000000Y-71725000D03*
X91950000Y-71725000D03*
X91950000Y-74000000D03*
X91000000Y-74000000D03*
X90050000Y-74000000D03*
%TD*%
D18*
%TO.C,R12*%
X78000000Y-80175000D03*
X78000000Y-81825000D03*
%TD*%
D13*
%TO.C,R21*%
X67300000Y-99300000D03*
X68950000Y-99300000D03*
%TD*%
D11*
%TO.C,C3*%
X88750000Y-105000000D03*
X90300000Y-105000000D03*
%TD*%
D14*
%TO.C,R19*%
X72100000Y-94000000D03*
X70450000Y-94000000D03*
%TD*%
D11*
%TO.C,C46*%
X70500000Y-95500000D03*
X72050000Y-95500000D03*
%TD*%
D20*
%TO.C,R5*%
X93800000Y-105500000D03*
X93800000Y-104480000D03*
%TD*%
D42*
%TO.C,R34*%
X111000000Y-76587500D03*
X111000000Y-78412500D03*
%TD*%
D23*
%TO.C,R7*%
X85500000Y-93325000D03*
X85500000Y-91675000D03*
%TD*%
%TO.C,R2*%
X87000000Y-106825000D03*
X87000000Y-105175000D03*
%TD*%
D13*
%TO.C,R23*%
X117175000Y-96000000D03*
X118825000Y-96000000D03*
%TD*%
D19*
%TO.C,C37*%
X76250000Y-84075000D03*
X76250000Y-82525000D03*
%TD*%
D43*
%TO.C,U5*%
X90594500Y-82924937D03*
X90594500Y-82274951D03*
X90594500Y-81624965D03*
X90594500Y-80974979D03*
X90594500Y-80324993D03*
X90594500Y-79675007D03*
X90594500Y-79025021D03*
X90594500Y-78375035D03*
X90594500Y-77725049D03*
X90594500Y-77075063D03*
X96500000Y-77075063D03*
X96500000Y-77725049D03*
X96500000Y-78375035D03*
X96500000Y-79025021D03*
X96500000Y-79675007D03*
X96500000Y-80324993D03*
X96500000Y-80974979D03*
X96500000Y-81624965D03*
X96500000Y-82274951D03*
X96500000Y-82924937D03*
%TD*%
D44*
%TO.C,U2*%
X72800000Y-76000000D03*
X72800000Y-77550000D03*
X74000000Y-76000000D03*
X74000000Y-77550000D03*
D45*
X70750000Y-78680000D03*
X70750000Y-77410000D03*
X70750000Y-76140000D03*
X70750000Y-74870000D03*
X76050000Y-74870000D03*
X76050000Y-76140000D03*
X76050000Y-77410000D03*
X76050000Y-78680000D03*
%TD*%
D19*
%TO.C,C2*%
X97000000Y-92275000D03*
X97000000Y-90725000D03*
%TD*%
D46*
%TO.C,FB1*%
X81212500Y-88500000D03*
X82787500Y-88500000D03*
%TD*%
D31*
%TO.C,D6*%
X101452750Y-109875007D03*
X100052750Y-109875007D03*
%TD*%
D12*
%TO.C,C36*%
X73900000Y-86500000D03*
X75800000Y-86500000D03*
%TD*%
D14*
%TO.C,R1*%
X90500000Y-114500000D03*
X88850000Y-114500000D03*
%TD*%
M02*
