%TF.GenerationSoftware,KiCad,Pcbnew,10.0.4-rc1*%
%TF.CreationDate,2026-08-08T15:07:00+05:30*%
%TF.ProjectId,ESC_v2,4553435f-7632-42e6-9b69-6361645f7063,rev?*%
%TF.SameCoordinates,Original*%
%TF.FileFunction,Profile,NP*%
%FSLAX46Y46*%
G04 Gerber Fmt 4.6, Leading zero omitted, Abs format (unit mm)*
G04 Created by KiCad (PCBNEW 10.0.4-rc1) date 2026-08-08 15:07:00*
%MOMM*%
%LPD*%
G01*
G04 APERTURE LIST*
%TA.AperFunction,Profile*%
%ADD10C,0.050000*%
%TD*%
G04 APERTURE END LIST*
D10*
X58000000Y-89500000D02*
X58000000Y-78500000D01*
X58000000Y-89500000D02*
X59500000Y-89500000D01*
X58000000Y-93000000D02*
X58000000Y-104000000D01*
X58000000Y-93000000D02*
X59500000Y-93000000D01*
X58000000Y-104000000D02*
X59500000Y-104000000D01*
X59500000Y-65500000D02*
X59500000Y-78500000D01*
X59500000Y-78500000D02*
X58000000Y-78500000D01*
X59500000Y-89500000D02*
X59500000Y-93000000D01*
X59500000Y-117000000D02*
X59500000Y-104000000D01*
X59500000Y-117000000D02*
X131000000Y-117000000D01*
X131000000Y-65500000D02*
X59500000Y-65500000D01*
X131000000Y-75500000D02*
X131000000Y-65500000D01*
X131000000Y-84500000D02*
X132000000Y-84500000D01*
X131000000Y-87000000D02*
X131000000Y-84500000D01*
X131000000Y-96000000D02*
X132000000Y-96000000D01*
X131000000Y-99500000D02*
X131000000Y-96000000D01*
X131000000Y-108500000D02*
X132000000Y-108500000D01*
X131000000Y-117000000D02*
X131000000Y-108500000D01*
X132000000Y-75500000D02*
X131000000Y-75500000D01*
X132000000Y-84500000D02*
X132000000Y-75500000D01*
X132000000Y-87000000D02*
X131000000Y-87000000D01*
X132000000Y-96000000D02*
X132000000Y-87000000D01*
X132000000Y-99500000D02*
X131000000Y-99500000D01*
X132000000Y-108500000D02*
X132000000Y-99500000D01*
M02*
