M48
; DRILL file KiCad 10.0.4-rc1 date 2026-08-08T15:07:02
; FORMAT={-:-/ absolute / metric / decimal}
; #@! TF.CreationDate,2026-08-08T15:07:02+05:30
; #@! TF.GenerationSoftware,Kicad,Pcbnew,10.0.4-rc1
; #@! TF.FileFunction,Plated,1,4,PTH
FMAT,2
METRIC
; #@! TA.AperFunction,Plated,PTH,ViaDrill
T1C0.300
; #@! TA.AperFunction,Plated,PTH,ViaDrill
T2C0.400
; #@! TA.AperFunction,Plated,PTH,ComponentDrill
T3C0.400
; #@! TA.AperFunction,Plated,PTH,ComponentDrill
T4C2.200
%
G90
G05
T1
X68.0Y-78.0
X68.5Y-77.5
X68.5Y-100.5
X69.0Y-78.0
X69.5Y-77.5
X71.5Y-85.0
X71.5Y-86.0
X72.5Y-85.0
X72.5Y-86.0
X72.5Y-99.0
X72.5Y-100.0
X73.5Y-69.0
X74.0Y-90.5
X74.0Y-91.5
X74.0Y-99.0
X74.0Y-100.0
X74.5Y-107.0
X75.075Y-90.5
X75.075Y-91.5
X76.0Y-107.0
X77.5Y-107.0
X78.0Y-86.5
X78.0Y-87.5
X78.0Y-88.5
X78.0Y-99.5
X80.5Y-100.5
X80.5Y-103.0
X80.5Y-114.0
X81.5Y-93.5
X81.5Y-100.5
X81.5Y-103.0
X82.5Y-93.5
X84.0Y-76.0
X84.0Y-99.0
X84.0Y-100.0
X84.5Y-92.5
X84.5Y-98.0
X84.5Y-101.0
X84.5Y-109.0
X84.71Y-73.41
X85.5Y-109.0
X86.0Y-90.5
X86.0Y-103.0
X86.0Y-104.0
X87.0Y-76.0
X87.0Y-83.0
X87.0Y-84.0
X87.0Y-85.0
X87.0Y-103.0
X87.0Y-104.0
X88.0Y-103.0
X88.0Y-104.0
X88.5Y-90.5
X89.4Y-91.5
X91.0Y-91.02
X91.0Y-96.0
X91.0Y-97.0
X91.5Y-87.0
X91.5Y-88.0
X91.5Y-99.5
X92.486Y-81.85
X92.5Y-96.0
X92.5Y-100.0
X93.0Y-89.5
X93.5Y-100.5
X93.5Y-100.5
X93.5Y-110.5
X93.5Y-111.5
X94.0Y-78.0
X94.0Y-116.0
X94.525Y-80.975
X95.0Y-77.5
X95.0Y-79.5
X95.0Y-82.0
X95.0Y-100.0
X95.0Y-114.0
X95.107Y-101.5
X95.142Y-84.5
X95.5Y-111.0
X96.0Y-72.5
X96.0Y-85.0
X96.0Y-108.0
X96.0Y-110.0
X96.0Y-112.0
X96.5Y-86.0
X96.775Y-115.5
X97.0Y-84.0
X97.0Y-94.0
X97.29Y-73.41
X97.5Y-105.0
X97.512Y-88.0
X98.0Y-81.5
X98.5Y-100.5
X101.0Y-99.15
X102.5Y-83.5
X102.5Y-100.0
X105.0Y-97.0
X105.0Y-110.0
X106.0Y-78.0
X106.0Y-116.0
X106.65Y-82.35
X107.5Y-98.5
X111.5Y-75.0
X111.5Y-108.5
X112.0Y-66.5
X112.0Y-91.5
X123.5Y-98.325
X128.0Y-83.5
X128.0Y-95.0
X128.0Y-107.5
T2
X61.5Y-75.0
X61.5Y-76.5
X61.5Y-78.0
X61.5Y-80.0
X61.5Y-81.5
X61.5Y-83.0
X61.5Y-84.5
X61.5Y-86.0
X61.5Y-87.5
X61.5Y-94.5
X61.5Y-96.0
X61.5Y-97.5
X61.5Y-99.0
X61.5Y-100.5
X61.5Y-102.0
X61.5Y-103.5
X61.5Y-105.0
X61.5Y-106.5
X61.5Y-108.0
X63.0Y-75.0
X63.0Y-76.5
X63.0Y-78.0
X63.0Y-80.0
X63.0Y-81.5
X63.0Y-83.0
X63.0Y-84.5
X63.0Y-86.0
X63.0Y-87.5
X63.0Y-94.5
X63.0Y-96.0
X63.0Y-97.5
X63.0Y-99.0
X63.0Y-100.5
X63.0Y-102.0
X63.0Y-103.5
X63.0Y-105.0
X63.0Y-106.5
X63.0Y-108.0
X64.5Y-75.0
X64.5Y-76.5
X64.5Y-78.0
X64.5Y-80.0
X64.5Y-81.5
X64.5Y-83.0
X64.5Y-84.5
X64.5Y-86.0
X64.5Y-87.5
X64.5Y-94.5
X64.5Y-96.0
X64.5Y-97.5
X64.5Y-99.0
X64.5Y-100.5
X64.5Y-102.0
X64.5Y-103.5
X64.5Y-105.0
X64.5Y-106.5
X64.5Y-108.0
X68.3Y-105.25
X79.0Y-115.5
X80.5Y-91.0
X80.6Y-89.112
X80.6Y-90.0
X81.5Y-68.0
X81.5Y-69.5
X81.5Y-71.0
X81.5Y-72.5
X81.5Y-79.5
X82.5Y-106.0
X83.0Y-68.0
X83.0Y-69.5
X83.0Y-71.0
X83.0Y-72.5
X84.5Y-68.0
X84.5Y-69.5
X84.5Y-71.0
X84.5Y-72.5
X86.0Y-68.0
X86.0Y-69.5
X86.0Y-71.0
X86.0Y-72.5
X87.0Y-79.5
X87.0Y-81.0
X93.35Y-87.5
X94.5Y-68.0
X94.5Y-69.5
X94.5Y-71.0
X94.5Y-72.5
X95.5Y-87.5
X96.0Y-68.0
X96.0Y-69.5
X96.0Y-71.0
X96.0Y-72.5
X97.5Y-68.0
X97.5Y-69.5
X97.5Y-71.0
X97.5Y-72.5
X101.0Y-69.0
X101.0Y-70.5
X101.0Y-72.0
X101.0Y-73.5
X101.0Y-75.0
X101.5Y-85.0
X101.5Y-86.5
X101.5Y-88.0
X101.5Y-89.5
X101.5Y-91.0
X101.5Y-102.0
X101.5Y-103.5
X101.5Y-105.0
X101.5Y-106.5
X101.5Y-108.0
X102.5Y-69.0
X102.5Y-70.5
X102.5Y-72.0
X102.5Y-73.5
X102.5Y-75.0
X103.0Y-85.0
X103.0Y-86.5
X103.0Y-88.0
X103.0Y-89.5
X103.0Y-91.0
X103.0Y-102.0
X103.0Y-103.5
X103.0Y-105.0
X103.0Y-106.5
X103.0Y-108.0
X104.0Y-69.0
X104.0Y-70.5
X104.0Y-72.0
X104.0Y-73.5
X104.0Y-75.0
X104.5Y-85.0
X104.5Y-86.5
X104.5Y-88.0
X104.5Y-89.5
X104.5Y-91.0
X104.5Y-102.0
X104.5Y-103.5
X104.5Y-105.0
X104.5Y-106.5
X104.5Y-108.0
X105.5Y-69.0
X105.5Y-70.5
X105.5Y-72.0
X105.5Y-73.5
X105.5Y-75.0
X106.0Y-85.0
X106.0Y-86.5
X106.0Y-88.0
X106.0Y-89.5
X106.0Y-91.0
X106.0Y-102.0
X106.0Y-103.5
X106.0Y-105.0
X106.0Y-106.5
X106.0Y-108.0
X106.5Y-66.5
X107.0Y-69.0
X107.0Y-70.5
X107.0Y-72.0
X107.0Y-73.5
X107.0Y-75.0
X107.5Y-85.0
X107.5Y-86.5
X107.5Y-88.0
X107.5Y-89.5
X107.5Y-91.0
X107.5Y-102.0
X107.5Y-103.5
X107.5Y-105.0
X107.5Y-106.5
X107.5Y-108.0
X109.5Y-82.5
X110.0Y-115.5
X110.5Y-104.5
X111.0Y-88.0
X112.0Y-98.5
X114.0Y-68.0
X114.0Y-69.0
X114.0Y-70.0
X114.0Y-84.5
X114.0Y-85.5
X114.0Y-86.5
X114.5Y-101.0
X114.5Y-102.0
X114.5Y-103.0
X115.5Y-68.0
X115.5Y-69.0
X115.5Y-70.0
X115.5Y-84.5
X115.5Y-85.5
X115.5Y-86.5
X116.0Y-101.0
X116.0Y-102.0
X116.0Y-103.0
X117.0Y-68.0
X117.0Y-69.0
X117.0Y-70.0
X117.0Y-84.5
X117.0Y-85.5
X117.0Y-86.5
X117.5Y-101.0
X117.5Y-102.0
X117.5Y-103.0
X118.5Y-68.0
X118.5Y-69.0
X118.5Y-70.0
X118.5Y-84.5
X118.5Y-85.5
X118.5Y-86.5
X119.0Y-101.0
X119.0Y-102.0
X119.0Y-103.0
X128.0Y-77.0
X128.0Y-78.5
X128.0Y-80.0
X128.0Y-81.5
X128.0Y-88.0
X128.0Y-89.5
X128.0Y-91.0
X128.0Y-92.5
X128.0Y-100.5
X128.0Y-102.0
X128.0Y-103.5
X128.0Y-105.0
X129.5Y-77.0
X129.5Y-78.5
X129.5Y-80.0
X129.5Y-81.5
X129.5Y-88.0
X129.5Y-89.5
X129.5Y-91.0
X129.5Y-92.5
X129.5Y-100.5
X129.5Y-102.0
X129.5Y-103.5
X129.5Y-105.0
X131.0Y-77.0
X131.0Y-78.5
X131.0Y-80.0
X131.0Y-81.5
X131.0Y-88.0
X131.0Y-89.5
X131.0Y-91.0
X131.0Y-92.5
X131.0Y-100.5
X131.0Y-102.0
X131.0Y-103.5
X131.0Y-105.0
T3
X63.85Y-70.0
X63.85Y-112.1
X64.333Y-68.833
X64.333Y-71.167
X64.333Y-110.933
X64.333Y-113.267
X65.5Y-68.35
X65.5Y-71.65
X65.5Y-110.45
X65.5Y-113.75
X66.667Y-68.833
X66.667Y-71.167
X66.667Y-110.933
X66.667Y-113.267
X67.15Y-70.0
X67.15Y-112.1
X125.683Y-112.833
X125.85Y-69.7
X126.167Y-111.667
X126.167Y-114.0
X126.333Y-68.533
X126.333Y-70.867
X127.333Y-111.183
X127.333Y-114.483
X127.5Y-68.05
X127.5Y-71.35
X128.5Y-111.667
X128.5Y-114.0
X128.667Y-68.533
X128.667Y-70.867
X128.983Y-112.833
X129.15Y-69.7
T4
X65.5Y-70.0
X65.5Y-112.1
X127.333Y-112.833
X127.5Y-69.7
M30
