%TF.GenerationSoftware,KiCad,Pcbnew,10.0.4-rc1*%
%TF.CreationDate,2026-08-08T15:07:00+05:30*%
%TF.ProjectId,ESC_v2,4553435f-7632-42e6-9b69-6361645f7063,rev?*%
%TF.SameCoordinates,Original*%
%TF.FileFunction,Legend,Top*%
%TF.FilePolarity,Positive*%
%FSLAX46Y46*%
G04 Gerber Fmt 4.6, Leading zero omitted, Abs format (unit mm)*
G04 Created by KiCad (PCBNEW 10.0.4-rc1) date 2026-08-08 15:07:00*
%MOMM*%
%LPD*%
G01*
G04 APERTURE LIST*
%ADD10C,0.200000*%
%ADD11C,0.500000*%
%ADD12C,0.150000*%
%ADD13C,0.120000*%
%ADD14C,0.100000*%
%ADD15C,0.000000*%
G04 APERTURE END LIST*
D10*
X75517066Y-110607768D02*
X75517066Y-112131578D01*
X75517066Y-95107768D02*
X75517066Y-96631578D01*
X75517066Y-79607768D02*
X75517066Y-81131578D01*
X74607768Y-72482933D02*
X76131578Y-72482933D01*
X75369673Y-73244838D02*
X75369673Y-71721028D01*
X74607768Y-87982933D02*
X76131578Y-87982933D01*
X75369673Y-88744838D02*
X75369673Y-87221028D01*
X74607768Y-103482933D02*
X76131578Y-103482933D01*
X75369673Y-104244838D02*
X75369673Y-102721028D01*
D11*
X66536000Y-105043232D02*
X66536000Y-107328947D01*
X65543232Y-76464000D02*
X67828947Y-76464000D01*
X66686089Y-77606857D02*
X66686089Y-75321142D01*
D12*
X66454819Y-91738094D02*
X65454819Y-91738094D01*
X65454819Y-91738094D02*
X65454819Y-91499999D01*
X65454819Y-91499999D02*
X65502438Y-91357142D01*
X65502438Y-91357142D02*
X65597676Y-91261904D01*
X65597676Y-91261904D02*
X65692914Y-91214285D01*
X65692914Y-91214285D02*
X65883390Y-91166666D01*
X65883390Y-91166666D02*
X66026247Y-91166666D01*
X66026247Y-91166666D02*
X66216723Y-91214285D01*
X66216723Y-91214285D02*
X66311961Y-91261904D01*
X66311961Y-91261904D02*
X66407200Y-91357142D01*
X66407200Y-91357142D02*
X66454819Y-91499999D01*
X66454819Y-91499999D02*
X66454819Y-91738094D01*
X65454819Y-90833332D02*
X65454819Y-90214285D01*
X65454819Y-90214285D02*
X65835771Y-90547618D01*
X65835771Y-90547618D02*
X65835771Y-90404761D01*
X65835771Y-90404761D02*
X65883390Y-90309523D01*
X65883390Y-90309523D02*
X65931009Y-90261904D01*
X65931009Y-90261904D02*
X66026247Y-90214285D01*
X66026247Y-90214285D02*
X66264342Y-90214285D01*
X66264342Y-90214285D02*
X66359580Y-90261904D01*
X66359580Y-90261904D02*
X66407200Y-90309523D01*
X66407200Y-90309523D02*
X66454819Y-90404761D01*
X66454819Y-90404761D02*
X66454819Y-90690475D01*
X66454819Y-90690475D02*
X66407200Y-90785713D01*
X66407200Y-90785713D02*
X66359580Y-90833332D01*
X96192080Y-89592857D02*
X96239700Y-89640476D01*
X96239700Y-89640476D02*
X96287319Y-89783333D01*
X96287319Y-89783333D02*
X96287319Y-89878571D01*
X96287319Y-89878571D02*
X96239700Y-90021428D01*
X96239700Y-90021428D02*
X96144461Y-90116666D01*
X96144461Y-90116666D02*
X96049223Y-90164285D01*
X96049223Y-90164285D02*
X95858747Y-90211904D01*
X95858747Y-90211904D02*
X95715890Y-90211904D01*
X95715890Y-90211904D02*
X95525414Y-90164285D01*
X95525414Y-90164285D02*
X95430176Y-90116666D01*
X95430176Y-90116666D02*
X95334938Y-90021428D01*
X95334938Y-90021428D02*
X95287319Y-89878571D01*
X95287319Y-89878571D02*
X95287319Y-89783333D01*
X95287319Y-89783333D02*
X95334938Y-89640476D01*
X95334938Y-89640476D02*
X95382557Y-89592857D01*
X96287319Y-88640476D02*
X96287319Y-89211904D01*
X96287319Y-88926190D02*
X95287319Y-88926190D01*
X95287319Y-88926190D02*
X95430176Y-89021428D01*
X95430176Y-89021428D02*
X95525414Y-89116666D01*
X95525414Y-89116666D02*
X95573033Y-89211904D01*
X95287319Y-87783333D02*
X95287319Y-87973809D01*
X95287319Y-87973809D02*
X95334938Y-88069047D01*
X95334938Y-88069047D02*
X95382557Y-88116666D01*
X95382557Y-88116666D02*
X95525414Y-88211904D01*
X95525414Y-88211904D02*
X95715890Y-88259523D01*
X95715890Y-88259523D02*
X96096842Y-88259523D01*
X96096842Y-88259523D02*
X96192080Y-88211904D01*
X96192080Y-88211904D02*
X96239700Y-88164285D01*
X96239700Y-88164285D02*
X96287319Y-88069047D01*
X96287319Y-88069047D02*
X96287319Y-87878571D01*
X96287319Y-87878571D02*
X96239700Y-87783333D01*
X96239700Y-87783333D02*
X96192080Y-87735714D01*
X96192080Y-87735714D02*
X96096842Y-87688095D01*
X96096842Y-87688095D02*
X95858747Y-87688095D01*
X95858747Y-87688095D02*
X95763509Y-87735714D01*
X95763509Y-87735714D02*
X95715890Y-87783333D01*
X95715890Y-87783333D02*
X95668271Y-87878571D01*
X95668271Y-87878571D02*
X95668271Y-88069047D01*
X95668271Y-88069047D02*
X95715890Y-88164285D01*
X95715890Y-88164285D02*
X95763509Y-88211904D01*
X95763509Y-88211904D02*
X95858747Y-88259523D01*
X110550057Y-74095238D02*
X110502438Y-74190476D01*
X110502438Y-74190476D02*
X110407200Y-74285714D01*
X110407200Y-74285714D02*
X110264342Y-74428571D01*
X110264342Y-74428571D02*
X110216723Y-74523809D01*
X110216723Y-74523809D02*
X110216723Y-74619047D01*
X110454819Y-74571428D02*
X110407200Y-74666666D01*
X110407200Y-74666666D02*
X110311961Y-74761904D01*
X110311961Y-74761904D02*
X110121485Y-74809523D01*
X110121485Y-74809523D02*
X109788152Y-74809523D01*
X109788152Y-74809523D02*
X109597676Y-74761904D01*
X109597676Y-74761904D02*
X109502438Y-74666666D01*
X109502438Y-74666666D02*
X109454819Y-74571428D01*
X109454819Y-74571428D02*
X109454819Y-74380952D01*
X109454819Y-74380952D02*
X109502438Y-74285714D01*
X109502438Y-74285714D02*
X109597676Y-74190476D01*
X109597676Y-74190476D02*
X109788152Y-74142857D01*
X109788152Y-74142857D02*
X110121485Y-74142857D01*
X110121485Y-74142857D02*
X110311961Y-74190476D01*
X110311961Y-74190476D02*
X110407200Y-74285714D01*
X110407200Y-74285714D02*
X110454819Y-74380952D01*
X110454819Y-74380952D02*
X110454819Y-74571428D01*
X110454819Y-73190476D02*
X110454819Y-73761904D01*
X110454819Y-73476190D02*
X109454819Y-73476190D01*
X109454819Y-73476190D02*
X109597676Y-73571428D01*
X109597676Y-73571428D02*
X109692914Y-73666666D01*
X109692914Y-73666666D02*
X109740533Y-73761904D01*
X110550057Y-93595238D02*
X110502438Y-93690476D01*
X110502438Y-93690476D02*
X110407200Y-93785714D01*
X110407200Y-93785714D02*
X110264342Y-93928571D01*
X110264342Y-93928571D02*
X110216723Y-94023809D01*
X110216723Y-94023809D02*
X110216723Y-94119047D01*
X110454819Y-94071428D02*
X110407200Y-94166666D01*
X110407200Y-94166666D02*
X110311961Y-94261904D01*
X110311961Y-94261904D02*
X110121485Y-94309523D01*
X110121485Y-94309523D02*
X109788152Y-94309523D01*
X109788152Y-94309523D02*
X109597676Y-94261904D01*
X109597676Y-94261904D02*
X109502438Y-94166666D01*
X109502438Y-94166666D02*
X109454819Y-94071428D01*
X109454819Y-94071428D02*
X109454819Y-93880952D01*
X109454819Y-93880952D02*
X109502438Y-93785714D01*
X109502438Y-93785714D02*
X109597676Y-93690476D01*
X109597676Y-93690476D02*
X109788152Y-93642857D01*
X109788152Y-93642857D02*
X110121485Y-93642857D01*
X110121485Y-93642857D02*
X110311961Y-93690476D01*
X110311961Y-93690476D02*
X110407200Y-93785714D01*
X110407200Y-93785714D02*
X110454819Y-93880952D01*
X110454819Y-93880952D02*
X110454819Y-94071428D01*
X109550057Y-93261904D02*
X109502438Y-93214285D01*
X109502438Y-93214285D02*
X109454819Y-93119047D01*
X109454819Y-93119047D02*
X109454819Y-92880952D01*
X109454819Y-92880952D02*
X109502438Y-92785714D01*
X109502438Y-92785714D02*
X109550057Y-92738095D01*
X109550057Y-92738095D02*
X109645295Y-92690476D01*
X109645295Y-92690476D02*
X109740533Y-92690476D01*
X109740533Y-92690476D02*
X109883390Y-92738095D01*
X109883390Y-92738095D02*
X110454819Y-93309523D01*
X110454819Y-93309523D02*
X110454819Y-92690476D01*
X111359580Y-99142857D02*
X111407200Y-99190476D01*
X111407200Y-99190476D02*
X111454819Y-99333333D01*
X111454819Y-99333333D02*
X111454819Y-99428571D01*
X111454819Y-99428571D02*
X111407200Y-99571428D01*
X111407200Y-99571428D02*
X111311961Y-99666666D01*
X111311961Y-99666666D02*
X111216723Y-99714285D01*
X111216723Y-99714285D02*
X111026247Y-99761904D01*
X111026247Y-99761904D02*
X110883390Y-99761904D01*
X110883390Y-99761904D02*
X110692914Y-99714285D01*
X110692914Y-99714285D02*
X110597676Y-99666666D01*
X110597676Y-99666666D02*
X110502438Y-99571428D01*
X110502438Y-99571428D02*
X110454819Y-99428571D01*
X110454819Y-99428571D02*
X110454819Y-99333333D01*
X110454819Y-99333333D02*
X110502438Y-99190476D01*
X110502438Y-99190476D02*
X110550057Y-99142857D01*
X110550057Y-98761904D02*
X110502438Y-98714285D01*
X110502438Y-98714285D02*
X110454819Y-98619047D01*
X110454819Y-98619047D02*
X110454819Y-98380952D01*
X110454819Y-98380952D02*
X110502438Y-98285714D01*
X110502438Y-98285714D02*
X110550057Y-98238095D01*
X110550057Y-98238095D02*
X110645295Y-98190476D01*
X110645295Y-98190476D02*
X110740533Y-98190476D01*
X110740533Y-98190476D02*
X110883390Y-98238095D01*
X110883390Y-98238095D02*
X111454819Y-98809523D01*
X111454819Y-98809523D02*
X111454819Y-98190476D01*
X110454819Y-97571428D02*
X110454819Y-97476190D01*
X110454819Y-97476190D02*
X110502438Y-97380952D01*
X110502438Y-97380952D02*
X110550057Y-97333333D01*
X110550057Y-97333333D02*
X110645295Y-97285714D01*
X110645295Y-97285714D02*
X110835771Y-97238095D01*
X110835771Y-97238095D02*
X111073866Y-97238095D01*
X111073866Y-97238095D02*
X111264342Y-97285714D01*
X111264342Y-97285714D02*
X111359580Y-97333333D01*
X111359580Y-97333333D02*
X111407200Y-97380952D01*
X111407200Y-97380952D02*
X111454819Y-97476190D01*
X111454819Y-97476190D02*
X111454819Y-97571428D01*
X111454819Y-97571428D02*
X111407200Y-97666666D01*
X111407200Y-97666666D02*
X111359580Y-97714285D01*
X111359580Y-97714285D02*
X111264342Y-97761904D01*
X111264342Y-97761904D02*
X111073866Y-97809523D01*
X111073866Y-97809523D02*
X110835771Y-97809523D01*
X110835771Y-97809523D02*
X110645295Y-97761904D01*
X110645295Y-97761904D02*
X110550057Y-97714285D01*
X110550057Y-97714285D02*
X110502438Y-97666666D01*
X110502438Y-97666666D02*
X110454819Y-97571428D01*
X96859580Y-103367857D02*
X96907200Y-103415476D01*
X96907200Y-103415476D02*
X96954819Y-103558333D01*
X96954819Y-103558333D02*
X96954819Y-103653571D01*
X96954819Y-103653571D02*
X96907200Y-103796428D01*
X96907200Y-103796428D02*
X96811961Y-103891666D01*
X96811961Y-103891666D02*
X96716723Y-103939285D01*
X96716723Y-103939285D02*
X96526247Y-103986904D01*
X96526247Y-103986904D02*
X96383390Y-103986904D01*
X96383390Y-103986904D02*
X96192914Y-103939285D01*
X96192914Y-103939285D02*
X96097676Y-103891666D01*
X96097676Y-103891666D02*
X96002438Y-103796428D01*
X96002438Y-103796428D02*
X95954819Y-103653571D01*
X95954819Y-103653571D02*
X95954819Y-103558333D01*
X95954819Y-103558333D02*
X96002438Y-103415476D01*
X96002438Y-103415476D02*
X96050057Y-103367857D01*
X96050057Y-102986904D02*
X96002438Y-102939285D01*
X96002438Y-102939285D02*
X95954819Y-102844047D01*
X95954819Y-102844047D02*
X95954819Y-102605952D01*
X95954819Y-102605952D02*
X96002438Y-102510714D01*
X96002438Y-102510714D02*
X96050057Y-102463095D01*
X96050057Y-102463095D02*
X96145295Y-102415476D01*
X96145295Y-102415476D02*
X96240533Y-102415476D01*
X96240533Y-102415476D02*
X96383390Y-102463095D01*
X96383390Y-102463095D02*
X96954819Y-103034523D01*
X96954819Y-103034523D02*
X96954819Y-102415476D01*
X95954819Y-102082142D02*
X95954819Y-101463095D01*
X95954819Y-101463095D02*
X96335771Y-101796428D01*
X96335771Y-101796428D02*
X96335771Y-101653571D01*
X96335771Y-101653571D02*
X96383390Y-101558333D01*
X96383390Y-101558333D02*
X96431009Y-101510714D01*
X96431009Y-101510714D02*
X96526247Y-101463095D01*
X96526247Y-101463095D02*
X96764342Y-101463095D01*
X96764342Y-101463095D02*
X96859580Y-101510714D01*
X96859580Y-101510714D02*
X96907200Y-101558333D01*
X96907200Y-101558333D02*
X96954819Y-101653571D01*
X96954819Y-101653571D02*
X96954819Y-101939285D01*
X96954819Y-101939285D02*
X96907200Y-102034523D01*
X96907200Y-102034523D02*
X96859580Y-102082142D01*
X97024819Y-93642857D02*
X96548628Y-93976190D01*
X97024819Y-94214285D02*
X96024819Y-94214285D01*
X96024819Y-94214285D02*
X96024819Y-93833333D01*
X96024819Y-93833333D02*
X96072438Y-93738095D01*
X96072438Y-93738095D02*
X96120057Y-93690476D01*
X96120057Y-93690476D02*
X96215295Y-93642857D01*
X96215295Y-93642857D02*
X96358152Y-93642857D01*
X96358152Y-93642857D02*
X96453390Y-93690476D01*
X96453390Y-93690476D02*
X96501009Y-93738095D01*
X96501009Y-93738095D02*
X96548628Y-93833333D01*
X96548628Y-93833333D02*
X96548628Y-94214285D01*
X96358152Y-92785714D02*
X97024819Y-92785714D01*
X95977200Y-93023809D02*
X96691485Y-93261904D01*
X96691485Y-93261904D02*
X96691485Y-92642857D01*
X96358152Y-91833333D02*
X97024819Y-91833333D01*
X95977200Y-92071428D02*
X96691485Y-92309523D01*
X96691485Y-92309523D02*
X96691485Y-91690476D01*
X125454819Y-99642857D02*
X124978628Y-99976190D01*
X125454819Y-100214285D02*
X124454819Y-100214285D01*
X124454819Y-100214285D02*
X124454819Y-99833333D01*
X124454819Y-99833333D02*
X124502438Y-99738095D01*
X124502438Y-99738095D02*
X124550057Y-99690476D01*
X124550057Y-99690476D02*
X124645295Y-99642857D01*
X124645295Y-99642857D02*
X124788152Y-99642857D01*
X124788152Y-99642857D02*
X124883390Y-99690476D01*
X124883390Y-99690476D02*
X124931009Y-99738095D01*
X124931009Y-99738095D02*
X124978628Y-99833333D01*
X124978628Y-99833333D02*
X124978628Y-100214285D01*
X124454819Y-98738095D02*
X124454819Y-99214285D01*
X124454819Y-99214285D02*
X124931009Y-99261904D01*
X124931009Y-99261904D02*
X124883390Y-99214285D01*
X124883390Y-99214285D02*
X124835771Y-99119047D01*
X124835771Y-99119047D02*
X124835771Y-98880952D01*
X124835771Y-98880952D02*
X124883390Y-98785714D01*
X124883390Y-98785714D02*
X124931009Y-98738095D01*
X124931009Y-98738095D02*
X125026247Y-98690476D01*
X125026247Y-98690476D02*
X125264342Y-98690476D01*
X125264342Y-98690476D02*
X125359580Y-98738095D01*
X125359580Y-98738095D02*
X125407200Y-98785714D01*
X125407200Y-98785714D02*
X125454819Y-98880952D01*
X125454819Y-98880952D02*
X125454819Y-99119047D01*
X125454819Y-99119047D02*
X125407200Y-99214285D01*
X125407200Y-99214285D02*
X125359580Y-99261904D01*
X125454819Y-97738095D02*
X125454819Y-98309523D01*
X125454819Y-98023809D02*
X124454819Y-98023809D01*
X124454819Y-98023809D02*
X124597676Y-98119047D01*
X124597676Y-98119047D02*
X124692914Y-98214285D01*
X124692914Y-98214285D02*
X124740533Y-98309523D01*
X112249366Y-71450000D02*
X112282700Y-71483333D01*
X112282700Y-71483333D02*
X112316033Y-71583333D01*
X112316033Y-71583333D02*
X112316033Y-71650000D01*
X112316033Y-71650000D02*
X112282700Y-71750000D01*
X112282700Y-71750000D02*
X112216033Y-71816667D01*
X112216033Y-71816667D02*
X112149366Y-71850000D01*
X112149366Y-71850000D02*
X112016033Y-71883333D01*
X112016033Y-71883333D02*
X111916033Y-71883333D01*
X111916033Y-71883333D02*
X111782700Y-71850000D01*
X111782700Y-71850000D02*
X111716033Y-71816667D01*
X111716033Y-71816667D02*
X111649366Y-71750000D01*
X111649366Y-71750000D02*
X111616033Y-71650000D01*
X111616033Y-71650000D02*
X111616033Y-71583333D01*
X111616033Y-71583333D02*
X111649366Y-71483333D01*
X111649366Y-71483333D02*
X111682700Y-71450000D01*
X111682700Y-71183333D02*
X111649366Y-71150000D01*
X111649366Y-71150000D02*
X111616033Y-71083333D01*
X111616033Y-71083333D02*
X111616033Y-70916667D01*
X111616033Y-70916667D02*
X111649366Y-70850000D01*
X111649366Y-70850000D02*
X111682700Y-70816667D01*
X111682700Y-70816667D02*
X111749366Y-70783333D01*
X111749366Y-70783333D02*
X111816033Y-70783333D01*
X111816033Y-70783333D02*
X111916033Y-70816667D01*
X111916033Y-70816667D02*
X112316033Y-71216667D01*
X112316033Y-71216667D02*
X112316033Y-70783333D01*
X111849366Y-70183333D02*
X112316033Y-70183333D01*
X111582700Y-70350000D02*
X112082700Y-70516666D01*
X112082700Y-70516666D02*
X112082700Y-70083333D01*
X87359580Y-84642857D02*
X87407200Y-84690476D01*
X87407200Y-84690476D02*
X87454819Y-84833333D01*
X87454819Y-84833333D02*
X87454819Y-84928571D01*
X87454819Y-84928571D02*
X87407200Y-85071428D01*
X87407200Y-85071428D02*
X87311961Y-85166666D01*
X87311961Y-85166666D02*
X87216723Y-85214285D01*
X87216723Y-85214285D02*
X87026247Y-85261904D01*
X87026247Y-85261904D02*
X86883390Y-85261904D01*
X86883390Y-85261904D02*
X86692914Y-85214285D01*
X86692914Y-85214285D02*
X86597676Y-85166666D01*
X86597676Y-85166666D02*
X86502438Y-85071428D01*
X86502438Y-85071428D02*
X86454819Y-84928571D01*
X86454819Y-84928571D02*
X86454819Y-84833333D01*
X86454819Y-84833333D02*
X86502438Y-84690476D01*
X86502438Y-84690476D02*
X86550057Y-84642857D01*
X87454819Y-83690476D02*
X87454819Y-84261904D01*
X87454819Y-83976190D02*
X86454819Y-83976190D01*
X86454819Y-83976190D02*
X86597676Y-84071428D01*
X86597676Y-84071428D02*
X86692914Y-84166666D01*
X86692914Y-84166666D02*
X86740533Y-84261904D01*
X86454819Y-83071428D02*
X86454819Y-82976190D01*
X86454819Y-82976190D02*
X86502438Y-82880952D01*
X86502438Y-82880952D02*
X86550057Y-82833333D01*
X86550057Y-82833333D02*
X86645295Y-82785714D01*
X86645295Y-82785714D02*
X86835771Y-82738095D01*
X86835771Y-82738095D02*
X87073866Y-82738095D01*
X87073866Y-82738095D02*
X87264342Y-82785714D01*
X87264342Y-82785714D02*
X87359580Y-82833333D01*
X87359580Y-82833333D02*
X87407200Y-82880952D01*
X87407200Y-82880952D02*
X87454819Y-82976190D01*
X87454819Y-82976190D02*
X87454819Y-83071428D01*
X87454819Y-83071428D02*
X87407200Y-83166666D01*
X87407200Y-83166666D02*
X87359580Y-83214285D01*
X87359580Y-83214285D02*
X87264342Y-83261904D01*
X87264342Y-83261904D02*
X87073866Y-83309523D01*
X87073866Y-83309523D02*
X86835771Y-83309523D01*
X86835771Y-83309523D02*
X86645295Y-83261904D01*
X86645295Y-83261904D02*
X86550057Y-83214285D01*
X86550057Y-83214285D02*
X86502438Y-83166666D01*
X86502438Y-83166666D02*
X86454819Y-83071428D01*
X87359580Y-80166666D02*
X87407200Y-80214285D01*
X87407200Y-80214285D02*
X87454819Y-80357142D01*
X87454819Y-80357142D02*
X87454819Y-80452380D01*
X87454819Y-80452380D02*
X87407200Y-80595237D01*
X87407200Y-80595237D02*
X87311961Y-80690475D01*
X87311961Y-80690475D02*
X87216723Y-80738094D01*
X87216723Y-80738094D02*
X87026247Y-80785713D01*
X87026247Y-80785713D02*
X86883390Y-80785713D01*
X86883390Y-80785713D02*
X86692914Y-80738094D01*
X86692914Y-80738094D02*
X86597676Y-80690475D01*
X86597676Y-80690475D02*
X86502438Y-80595237D01*
X86502438Y-80595237D02*
X86454819Y-80452380D01*
X86454819Y-80452380D02*
X86454819Y-80357142D01*
X86454819Y-80357142D02*
X86502438Y-80214285D01*
X86502438Y-80214285D02*
X86550057Y-80166666D01*
X87454819Y-79690475D02*
X87454819Y-79499999D01*
X87454819Y-79499999D02*
X87407200Y-79404761D01*
X87407200Y-79404761D02*
X87359580Y-79357142D01*
X87359580Y-79357142D02*
X87216723Y-79261904D01*
X87216723Y-79261904D02*
X87026247Y-79214285D01*
X87026247Y-79214285D02*
X86645295Y-79214285D01*
X86645295Y-79214285D02*
X86550057Y-79261904D01*
X86550057Y-79261904D02*
X86502438Y-79309523D01*
X86502438Y-79309523D02*
X86454819Y-79404761D01*
X86454819Y-79404761D02*
X86454819Y-79595237D01*
X86454819Y-79595237D02*
X86502438Y-79690475D01*
X86502438Y-79690475D02*
X86550057Y-79738094D01*
X86550057Y-79738094D02*
X86645295Y-79785713D01*
X86645295Y-79785713D02*
X86883390Y-79785713D01*
X86883390Y-79785713D02*
X86978628Y-79738094D01*
X86978628Y-79738094D02*
X87026247Y-79690475D01*
X87026247Y-79690475D02*
X87073866Y-79595237D01*
X87073866Y-79595237D02*
X87073866Y-79404761D01*
X87073866Y-79404761D02*
X87026247Y-79309523D01*
X87026247Y-79309523D02*
X86978628Y-79261904D01*
X86978628Y-79261904D02*
X86883390Y-79214285D01*
X111359580Y-89142857D02*
X111407200Y-89190476D01*
X111407200Y-89190476D02*
X111454819Y-89333333D01*
X111454819Y-89333333D02*
X111454819Y-89428571D01*
X111454819Y-89428571D02*
X111407200Y-89571428D01*
X111407200Y-89571428D02*
X111311961Y-89666666D01*
X111311961Y-89666666D02*
X111216723Y-89714285D01*
X111216723Y-89714285D02*
X111026247Y-89761904D01*
X111026247Y-89761904D02*
X110883390Y-89761904D01*
X110883390Y-89761904D02*
X110692914Y-89714285D01*
X110692914Y-89714285D02*
X110597676Y-89666666D01*
X110597676Y-89666666D02*
X110502438Y-89571428D01*
X110502438Y-89571428D02*
X110454819Y-89428571D01*
X110454819Y-89428571D02*
X110454819Y-89333333D01*
X110454819Y-89333333D02*
X110502438Y-89190476D01*
X110502438Y-89190476D02*
X110550057Y-89142857D01*
X110550057Y-88761904D02*
X110502438Y-88714285D01*
X110502438Y-88714285D02*
X110454819Y-88619047D01*
X110454819Y-88619047D02*
X110454819Y-88380952D01*
X110454819Y-88380952D02*
X110502438Y-88285714D01*
X110502438Y-88285714D02*
X110550057Y-88238095D01*
X110550057Y-88238095D02*
X110645295Y-88190476D01*
X110645295Y-88190476D02*
X110740533Y-88190476D01*
X110740533Y-88190476D02*
X110883390Y-88238095D01*
X110883390Y-88238095D02*
X111454819Y-88809523D01*
X111454819Y-88809523D02*
X111454819Y-88190476D01*
X111454819Y-87238095D02*
X111454819Y-87809523D01*
X111454819Y-87523809D02*
X110454819Y-87523809D01*
X110454819Y-87523809D02*
X110597676Y-87619047D01*
X110597676Y-87619047D02*
X110692914Y-87714285D01*
X110692914Y-87714285D02*
X110740533Y-87809523D01*
X96679580Y-106692857D02*
X96727200Y-106740476D01*
X96727200Y-106740476D02*
X96774819Y-106883333D01*
X96774819Y-106883333D02*
X96774819Y-106978571D01*
X96774819Y-106978571D02*
X96727200Y-107121428D01*
X96727200Y-107121428D02*
X96631961Y-107216666D01*
X96631961Y-107216666D02*
X96536723Y-107264285D01*
X96536723Y-107264285D02*
X96346247Y-107311904D01*
X96346247Y-107311904D02*
X96203390Y-107311904D01*
X96203390Y-107311904D02*
X96012914Y-107264285D01*
X96012914Y-107264285D02*
X95917676Y-107216666D01*
X95917676Y-107216666D02*
X95822438Y-107121428D01*
X95822438Y-107121428D02*
X95774819Y-106978571D01*
X95774819Y-106978571D02*
X95774819Y-106883333D01*
X95774819Y-106883333D02*
X95822438Y-106740476D01*
X95822438Y-106740476D02*
X95870057Y-106692857D01*
X96774819Y-105740476D02*
X96774819Y-106311904D01*
X96774819Y-106026190D02*
X95774819Y-106026190D01*
X95774819Y-106026190D02*
X95917676Y-106121428D01*
X95917676Y-106121428D02*
X96012914Y-106216666D01*
X96012914Y-106216666D02*
X96060533Y-106311904D01*
X95774819Y-105407142D02*
X95774819Y-104740476D01*
X95774819Y-104740476D02*
X96774819Y-105169047D01*
X123550057Y-107095238D02*
X123502438Y-107190476D01*
X123502438Y-107190476D02*
X123407200Y-107285714D01*
X123407200Y-107285714D02*
X123264342Y-107428571D01*
X123264342Y-107428571D02*
X123216723Y-107523809D01*
X123216723Y-107523809D02*
X123216723Y-107619047D01*
X123454819Y-107571428D02*
X123407200Y-107666666D01*
X123407200Y-107666666D02*
X123311961Y-107761904D01*
X123311961Y-107761904D02*
X123121485Y-107809523D01*
X123121485Y-107809523D02*
X122788152Y-107809523D01*
X122788152Y-107809523D02*
X122597676Y-107761904D01*
X122597676Y-107761904D02*
X122502438Y-107666666D01*
X122502438Y-107666666D02*
X122454819Y-107571428D01*
X122454819Y-107571428D02*
X122454819Y-107380952D01*
X122454819Y-107380952D02*
X122502438Y-107285714D01*
X122502438Y-107285714D02*
X122597676Y-107190476D01*
X122597676Y-107190476D02*
X122788152Y-107142857D01*
X122788152Y-107142857D02*
X123121485Y-107142857D01*
X123121485Y-107142857D02*
X123311961Y-107190476D01*
X123311961Y-107190476D02*
X123407200Y-107285714D01*
X123407200Y-107285714D02*
X123454819Y-107380952D01*
X123454819Y-107380952D02*
X123454819Y-107571428D01*
X122454819Y-106285714D02*
X122454819Y-106476190D01*
X122454819Y-106476190D02*
X122502438Y-106571428D01*
X122502438Y-106571428D02*
X122550057Y-106619047D01*
X122550057Y-106619047D02*
X122692914Y-106714285D01*
X122692914Y-106714285D02*
X122883390Y-106761904D01*
X122883390Y-106761904D02*
X123264342Y-106761904D01*
X123264342Y-106761904D02*
X123359580Y-106714285D01*
X123359580Y-106714285D02*
X123407200Y-106666666D01*
X123407200Y-106666666D02*
X123454819Y-106571428D01*
X123454819Y-106571428D02*
X123454819Y-106380952D01*
X123454819Y-106380952D02*
X123407200Y-106285714D01*
X123407200Y-106285714D02*
X123359580Y-106238095D01*
X123359580Y-106238095D02*
X123264342Y-106190476D01*
X123264342Y-106190476D02*
X123026247Y-106190476D01*
X123026247Y-106190476D02*
X122931009Y-106238095D01*
X122931009Y-106238095D02*
X122883390Y-106285714D01*
X122883390Y-106285714D02*
X122835771Y-106380952D01*
X122835771Y-106380952D02*
X122835771Y-106571428D01*
X122835771Y-106571428D02*
X122883390Y-106666666D01*
X122883390Y-106666666D02*
X122931009Y-106714285D01*
X122931009Y-106714285D02*
X123026247Y-106761904D01*
X90357142Y-70954819D02*
X90023809Y-70478628D01*
X89785714Y-70954819D02*
X89785714Y-69954819D01*
X89785714Y-69954819D02*
X90166666Y-69954819D01*
X90166666Y-69954819D02*
X90261904Y-70002438D01*
X90261904Y-70002438D02*
X90309523Y-70050057D01*
X90309523Y-70050057D02*
X90357142Y-70145295D01*
X90357142Y-70145295D02*
X90357142Y-70288152D01*
X90357142Y-70288152D02*
X90309523Y-70383390D01*
X90309523Y-70383390D02*
X90261904Y-70431009D01*
X90261904Y-70431009D02*
X90166666Y-70478628D01*
X90166666Y-70478628D02*
X89785714Y-70478628D01*
X91261904Y-69954819D02*
X90785714Y-69954819D01*
X90785714Y-69954819D02*
X90738095Y-70431009D01*
X90738095Y-70431009D02*
X90785714Y-70383390D01*
X90785714Y-70383390D02*
X90880952Y-70335771D01*
X90880952Y-70335771D02*
X91119047Y-70335771D01*
X91119047Y-70335771D02*
X91214285Y-70383390D01*
X91214285Y-70383390D02*
X91261904Y-70431009D01*
X91261904Y-70431009D02*
X91309523Y-70526247D01*
X91309523Y-70526247D02*
X91309523Y-70764342D01*
X91309523Y-70764342D02*
X91261904Y-70859580D01*
X91261904Y-70859580D02*
X91214285Y-70907200D01*
X91214285Y-70907200D02*
X91119047Y-70954819D01*
X91119047Y-70954819D02*
X90880952Y-70954819D01*
X90880952Y-70954819D02*
X90785714Y-70907200D01*
X90785714Y-70907200D02*
X90738095Y-70859580D01*
X92214285Y-69954819D02*
X91738095Y-69954819D01*
X91738095Y-69954819D02*
X91690476Y-70431009D01*
X91690476Y-70431009D02*
X91738095Y-70383390D01*
X91738095Y-70383390D02*
X91833333Y-70335771D01*
X91833333Y-70335771D02*
X92071428Y-70335771D01*
X92071428Y-70335771D02*
X92166666Y-70383390D01*
X92166666Y-70383390D02*
X92214285Y-70431009D01*
X92214285Y-70431009D02*
X92261904Y-70526247D01*
X92261904Y-70526247D02*
X92261904Y-70764342D01*
X92261904Y-70764342D02*
X92214285Y-70859580D01*
X92214285Y-70859580D02*
X92166666Y-70907200D01*
X92166666Y-70907200D02*
X92071428Y-70954819D01*
X92071428Y-70954819D02*
X91833333Y-70954819D01*
X91833333Y-70954819D02*
X91738095Y-70907200D01*
X91738095Y-70907200D02*
X91690476Y-70859580D01*
X123550057Y-91095238D02*
X123502438Y-91190476D01*
X123502438Y-91190476D02*
X123407200Y-91285714D01*
X123407200Y-91285714D02*
X123264342Y-91428571D01*
X123264342Y-91428571D02*
X123216723Y-91523809D01*
X123216723Y-91523809D02*
X123216723Y-91619047D01*
X123454819Y-91571428D02*
X123407200Y-91666666D01*
X123407200Y-91666666D02*
X123311961Y-91761904D01*
X123311961Y-91761904D02*
X123121485Y-91809523D01*
X123121485Y-91809523D02*
X122788152Y-91809523D01*
X122788152Y-91809523D02*
X122597676Y-91761904D01*
X122597676Y-91761904D02*
X122502438Y-91666666D01*
X122502438Y-91666666D02*
X122454819Y-91571428D01*
X122454819Y-91571428D02*
X122454819Y-91380952D01*
X122454819Y-91380952D02*
X122502438Y-91285714D01*
X122502438Y-91285714D02*
X122597676Y-91190476D01*
X122597676Y-91190476D02*
X122788152Y-91142857D01*
X122788152Y-91142857D02*
X123121485Y-91142857D01*
X123121485Y-91142857D02*
X123311961Y-91190476D01*
X123311961Y-91190476D02*
X123407200Y-91285714D01*
X123407200Y-91285714D02*
X123454819Y-91380952D01*
X123454819Y-91380952D02*
X123454819Y-91571428D01*
X122454819Y-90238095D02*
X122454819Y-90714285D01*
X122454819Y-90714285D02*
X122931009Y-90761904D01*
X122931009Y-90761904D02*
X122883390Y-90714285D01*
X122883390Y-90714285D02*
X122835771Y-90619047D01*
X122835771Y-90619047D02*
X122835771Y-90380952D01*
X122835771Y-90380952D02*
X122883390Y-90285714D01*
X122883390Y-90285714D02*
X122931009Y-90238095D01*
X122931009Y-90238095D02*
X123026247Y-90190476D01*
X123026247Y-90190476D02*
X123264342Y-90190476D01*
X123264342Y-90190476D02*
X123359580Y-90238095D01*
X123359580Y-90238095D02*
X123407200Y-90285714D01*
X123407200Y-90285714D02*
X123454819Y-90380952D01*
X123454819Y-90380952D02*
X123454819Y-90619047D01*
X123454819Y-90619047D02*
X123407200Y-90714285D01*
X123407200Y-90714285D02*
X123359580Y-90761904D01*
X125454819Y-83142857D02*
X124978628Y-83476190D01*
X125454819Y-83714285D02*
X124454819Y-83714285D01*
X124454819Y-83714285D02*
X124454819Y-83333333D01*
X124454819Y-83333333D02*
X124502438Y-83238095D01*
X124502438Y-83238095D02*
X124550057Y-83190476D01*
X124550057Y-83190476D02*
X124645295Y-83142857D01*
X124645295Y-83142857D02*
X124788152Y-83142857D01*
X124788152Y-83142857D02*
X124883390Y-83190476D01*
X124883390Y-83190476D02*
X124931009Y-83238095D01*
X124931009Y-83238095D02*
X124978628Y-83333333D01*
X124978628Y-83333333D02*
X124978628Y-83714285D01*
X124454819Y-82238095D02*
X124454819Y-82714285D01*
X124454819Y-82714285D02*
X124931009Y-82761904D01*
X124931009Y-82761904D02*
X124883390Y-82714285D01*
X124883390Y-82714285D02*
X124835771Y-82619047D01*
X124835771Y-82619047D02*
X124835771Y-82380952D01*
X124835771Y-82380952D02*
X124883390Y-82285714D01*
X124883390Y-82285714D02*
X124931009Y-82238095D01*
X124931009Y-82238095D02*
X125026247Y-82190476D01*
X125026247Y-82190476D02*
X125264342Y-82190476D01*
X125264342Y-82190476D02*
X125359580Y-82238095D01*
X125359580Y-82238095D02*
X125407200Y-82285714D01*
X125407200Y-82285714D02*
X125454819Y-82380952D01*
X125454819Y-82380952D02*
X125454819Y-82619047D01*
X125454819Y-82619047D02*
X125407200Y-82714285D01*
X125407200Y-82714285D02*
X125359580Y-82761904D01*
X124454819Y-81571428D02*
X124454819Y-81476190D01*
X124454819Y-81476190D02*
X124502438Y-81380952D01*
X124502438Y-81380952D02*
X124550057Y-81333333D01*
X124550057Y-81333333D02*
X124645295Y-81285714D01*
X124645295Y-81285714D02*
X124835771Y-81238095D01*
X124835771Y-81238095D02*
X125073866Y-81238095D01*
X125073866Y-81238095D02*
X125264342Y-81285714D01*
X125264342Y-81285714D02*
X125359580Y-81333333D01*
X125359580Y-81333333D02*
X125407200Y-81380952D01*
X125407200Y-81380952D02*
X125454819Y-81476190D01*
X125454819Y-81476190D02*
X125454819Y-81571428D01*
X125454819Y-81571428D02*
X125407200Y-81666666D01*
X125407200Y-81666666D02*
X125359580Y-81714285D01*
X125359580Y-81714285D02*
X125264342Y-81761904D01*
X125264342Y-81761904D02*
X125073866Y-81809523D01*
X125073866Y-81809523D02*
X124835771Y-81809523D01*
X124835771Y-81809523D02*
X124645295Y-81761904D01*
X124645295Y-81761904D02*
X124550057Y-81714285D01*
X124550057Y-81714285D02*
X124502438Y-81666666D01*
X124502438Y-81666666D02*
X124454819Y-81571428D01*
X97024819Y-77317857D02*
X96548628Y-77651190D01*
X97024819Y-77889285D02*
X96024819Y-77889285D01*
X96024819Y-77889285D02*
X96024819Y-77508333D01*
X96024819Y-77508333D02*
X96072438Y-77413095D01*
X96072438Y-77413095D02*
X96120057Y-77365476D01*
X96120057Y-77365476D02*
X96215295Y-77317857D01*
X96215295Y-77317857D02*
X96358152Y-77317857D01*
X96358152Y-77317857D02*
X96453390Y-77365476D01*
X96453390Y-77365476D02*
X96501009Y-77413095D01*
X96501009Y-77413095D02*
X96548628Y-77508333D01*
X96548628Y-77508333D02*
X96548628Y-77889285D01*
X96358152Y-76460714D02*
X97024819Y-76460714D01*
X95977200Y-76698809D02*
X96691485Y-76936904D01*
X96691485Y-76936904D02*
X96691485Y-76317857D01*
X96024819Y-75508333D02*
X96024819Y-75698809D01*
X96024819Y-75698809D02*
X96072438Y-75794047D01*
X96072438Y-75794047D02*
X96120057Y-75841666D01*
X96120057Y-75841666D02*
X96262914Y-75936904D01*
X96262914Y-75936904D02*
X96453390Y-75984523D01*
X96453390Y-75984523D02*
X96834342Y-75984523D01*
X96834342Y-75984523D02*
X96929580Y-75936904D01*
X96929580Y-75936904D02*
X96977200Y-75889285D01*
X96977200Y-75889285D02*
X97024819Y-75794047D01*
X97024819Y-75794047D02*
X97024819Y-75603571D01*
X97024819Y-75603571D02*
X96977200Y-75508333D01*
X96977200Y-75508333D02*
X96929580Y-75460714D01*
X96929580Y-75460714D02*
X96834342Y-75413095D01*
X96834342Y-75413095D02*
X96596247Y-75413095D01*
X96596247Y-75413095D02*
X96501009Y-75460714D01*
X96501009Y-75460714D02*
X96453390Y-75508333D01*
X96453390Y-75508333D02*
X96405771Y-75603571D01*
X96405771Y-75603571D02*
X96405771Y-75794047D01*
X96405771Y-75794047D02*
X96453390Y-75889285D01*
X96453390Y-75889285D02*
X96501009Y-75936904D01*
X96501009Y-75936904D02*
X96596247Y-75984523D01*
X96954819Y-110372857D02*
X96478628Y-110706190D01*
X96954819Y-110944285D02*
X95954819Y-110944285D01*
X95954819Y-110944285D02*
X95954819Y-110563333D01*
X95954819Y-110563333D02*
X96002438Y-110468095D01*
X96002438Y-110468095D02*
X96050057Y-110420476D01*
X96050057Y-110420476D02*
X96145295Y-110372857D01*
X96145295Y-110372857D02*
X96288152Y-110372857D01*
X96288152Y-110372857D02*
X96383390Y-110420476D01*
X96383390Y-110420476D02*
X96431009Y-110468095D01*
X96431009Y-110468095D02*
X96478628Y-110563333D01*
X96478628Y-110563333D02*
X96478628Y-110944285D01*
X96288152Y-109515714D02*
X96954819Y-109515714D01*
X95907200Y-109753809D02*
X96621485Y-109991904D01*
X96621485Y-109991904D02*
X96621485Y-109372857D01*
X95954819Y-108515714D02*
X95954819Y-108991904D01*
X95954819Y-108991904D02*
X96431009Y-109039523D01*
X96431009Y-109039523D02*
X96383390Y-108991904D01*
X96383390Y-108991904D02*
X96335771Y-108896666D01*
X96335771Y-108896666D02*
X96335771Y-108658571D01*
X96335771Y-108658571D02*
X96383390Y-108563333D01*
X96383390Y-108563333D02*
X96431009Y-108515714D01*
X96431009Y-108515714D02*
X96526247Y-108468095D01*
X96526247Y-108468095D02*
X96764342Y-108468095D01*
X96764342Y-108468095D02*
X96859580Y-108515714D01*
X96859580Y-108515714D02*
X96907200Y-108563333D01*
X96907200Y-108563333D02*
X96954819Y-108658571D01*
X96954819Y-108658571D02*
X96954819Y-108896666D01*
X96954819Y-108896666D02*
X96907200Y-108991904D01*
X96907200Y-108991904D02*
X96859580Y-109039523D01*
X96954819Y-81317857D02*
X96478628Y-81651190D01*
X96954819Y-81889285D02*
X95954819Y-81889285D01*
X95954819Y-81889285D02*
X95954819Y-81508333D01*
X95954819Y-81508333D02*
X96002438Y-81413095D01*
X96002438Y-81413095D02*
X96050057Y-81365476D01*
X96050057Y-81365476D02*
X96145295Y-81317857D01*
X96145295Y-81317857D02*
X96288152Y-81317857D01*
X96288152Y-81317857D02*
X96383390Y-81365476D01*
X96383390Y-81365476D02*
X96431009Y-81413095D01*
X96431009Y-81413095D02*
X96478628Y-81508333D01*
X96478628Y-81508333D02*
X96478628Y-81889285D01*
X96288152Y-80460714D02*
X96954819Y-80460714D01*
X95907200Y-80698809D02*
X96621485Y-80936904D01*
X96621485Y-80936904D02*
X96621485Y-80317857D01*
X95954819Y-80032142D02*
X95954819Y-79413095D01*
X95954819Y-79413095D02*
X96335771Y-79746428D01*
X96335771Y-79746428D02*
X96335771Y-79603571D01*
X96335771Y-79603571D02*
X96383390Y-79508333D01*
X96383390Y-79508333D02*
X96431009Y-79460714D01*
X96431009Y-79460714D02*
X96526247Y-79413095D01*
X96526247Y-79413095D02*
X96764342Y-79413095D01*
X96764342Y-79413095D02*
X96859580Y-79460714D01*
X96859580Y-79460714D02*
X96907200Y-79508333D01*
X96907200Y-79508333D02*
X96954819Y-79603571D01*
X96954819Y-79603571D02*
X96954819Y-79889285D01*
X96954819Y-79889285D02*
X96907200Y-79984523D01*
X96907200Y-79984523D02*
X96859580Y-80032142D01*
X78359580Y-92642857D02*
X78407200Y-92690476D01*
X78407200Y-92690476D02*
X78454819Y-92833333D01*
X78454819Y-92833333D02*
X78454819Y-92928571D01*
X78454819Y-92928571D02*
X78407200Y-93071428D01*
X78407200Y-93071428D02*
X78311961Y-93166666D01*
X78311961Y-93166666D02*
X78216723Y-93214285D01*
X78216723Y-93214285D02*
X78026247Y-93261904D01*
X78026247Y-93261904D02*
X77883390Y-93261904D01*
X77883390Y-93261904D02*
X77692914Y-93214285D01*
X77692914Y-93214285D02*
X77597676Y-93166666D01*
X77597676Y-93166666D02*
X77502438Y-93071428D01*
X77502438Y-93071428D02*
X77454819Y-92928571D01*
X77454819Y-92928571D02*
X77454819Y-92833333D01*
X77454819Y-92833333D02*
X77502438Y-92690476D01*
X77502438Y-92690476D02*
X77550057Y-92642857D01*
X77550057Y-92261904D02*
X77502438Y-92214285D01*
X77502438Y-92214285D02*
X77454819Y-92119047D01*
X77454819Y-92119047D02*
X77454819Y-91880952D01*
X77454819Y-91880952D02*
X77502438Y-91785714D01*
X77502438Y-91785714D02*
X77550057Y-91738095D01*
X77550057Y-91738095D02*
X77645295Y-91690476D01*
X77645295Y-91690476D02*
X77740533Y-91690476D01*
X77740533Y-91690476D02*
X77883390Y-91738095D01*
X77883390Y-91738095D02*
X78454819Y-92309523D01*
X78454819Y-92309523D02*
X78454819Y-91690476D01*
X77454819Y-90785714D02*
X77454819Y-91261904D01*
X77454819Y-91261904D02*
X77931009Y-91309523D01*
X77931009Y-91309523D02*
X77883390Y-91261904D01*
X77883390Y-91261904D02*
X77835771Y-91166666D01*
X77835771Y-91166666D02*
X77835771Y-90928571D01*
X77835771Y-90928571D02*
X77883390Y-90833333D01*
X77883390Y-90833333D02*
X77931009Y-90785714D01*
X77931009Y-90785714D02*
X78026247Y-90738095D01*
X78026247Y-90738095D02*
X78264342Y-90738095D01*
X78264342Y-90738095D02*
X78359580Y-90785714D01*
X78359580Y-90785714D02*
X78407200Y-90833333D01*
X78407200Y-90833333D02*
X78454819Y-90928571D01*
X78454819Y-90928571D02*
X78454819Y-91166666D01*
X78454819Y-91166666D02*
X78407200Y-91261904D01*
X78407200Y-91261904D02*
X78359580Y-91309523D01*
X111050057Y-107595238D02*
X111002438Y-107690476D01*
X111002438Y-107690476D02*
X110907200Y-107785714D01*
X110907200Y-107785714D02*
X110764342Y-107928571D01*
X110764342Y-107928571D02*
X110716723Y-108023809D01*
X110716723Y-108023809D02*
X110716723Y-108119047D01*
X110954819Y-108071428D02*
X110907200Y-108166666D01*
X110907200Y-108166666D02*
X110811961Y-108261904D01*
X110811961Y-108261904D02*
X110621485Y-108309523D01*
X110621485Y-108309523D02*
X110288152Y-108309523D01*
X110288152Y-108309523D02*
X110097676Y-108261904D01*
X110097676Y-108261904D02*
X110002438Y-108166666D01*
X110002438Y-108166666D02*
X109954819Y-108071428D01*
X109954819Y-108071428D02*
X109954819Y-107880952D01*
X109954819Y-107880952D02*
X110002438Y-107785714D01*
X110002438Y-107785714D02*
X110097676Y-107690476D01*
X110097676Y-107690476D02*
X110288152Y-107642857D01*
X110288152Y-107642857D02*
X110621485Y-107642857D01*
X110621485Y-107642857D02*
X110811961Y-107690476D01*
X110811961Y-107690476D02*
X110907200Y-107785714D01*
X110907200Y-107785714D02*
X110954819Y-107880952D01*
X110954819Y-107880952D02*
X110954819Y-108071428D01*
X109954819Y-107309523D02*
X109954819Y-106690476D01*
X109954819Y-106690476D02*
X110335771Y-107023809D01*
X110335771Y-107023809D02*
X110335771Y-106880952D01*
X110335771Y-106880952D02*
X110383390Y-106785714D01*
X110383390Y-106785714D02*
X110431009Y-106738095D01*
X110431009Y-106738095D02*
X110526247Y-106690476D01*
X110526247Y-106690476D02*
X110764342Y-106690476D01*
X110764342Y-106690476D02*
X110859580Y-106738095D01*
X110859580Y-106738095D02*
X110907200Y-106785714D01*
X110907200Y-106785714D02*
X110954819Y-106880952D01*
X110954819Y-106880952D02*
X110954819Y-107166666D01*
X110954819Y-107166666D02*
X110907200Y-107261904D01*
X110907200Y-107261904D02*
X110859580Y-107309523D01*
X125384819Y-74142857D02*
X124908628Y-74476190D01*
X125384819Y-74714285D02*
X124384819Y-74714285D01*
X124384819Y-74714285D02*
X124384819Y-74333333D01*
X124384819Y-74333333D02*
X124432438Y-74238095D01*
X124432438Y-74238095D02*
X124480057Y-74190476D01*
X124480057Y-74190476D02*
X124575295Y-74142857D01*
X124575295Y-74142857D02*
X124718152Y-74142857D01*
X124718152Y-74142857D02*
X124813390Y-74190476D01*
X124813390Y-74190476D02*
X124861009Y-74238095D01*
X124861009Y-74238095D02*
X124908628Y-74333333D01*
X124908628Y-74333333D02*
X124908628Y-74714285D01*
X124384819Y-73238095D02*
X124384819Y-73714285D01*
X124384819Y-73714285D02*
X124861009Y-73761904D01*
X124861009Y-73761904D02*
X124813390Y-73714285D01*
X124813390Y-73714285D02*
X124765771Y-73619047D01*
X124765771Y-73619047D02*
X124765771Y-73380952D01*
X124765771Y-73380952D02*
X124813390Y-73285714D01*
X124813390Y-73285714D02*
X124861009Y-73238095D01*
X124861009Y-73238095D02*
X124956247Y-73190476D01*
X124956247Y-73190476D02*
X125194342Y-73190476D01*
X125194342Y-73190476D02*
X125289580Y-73238095D01*
X125289580Y-73238095D02*
X125337200Y-73285714D01*
X125337200Y-73285714D02*
X125384819Y-73380952D01*
X125384819Y-73380952D02*
X125384819Y-73619047D01*
X125384819Y-73619047D02*
X125337200Y-73714285D01*
X125337200Y-73714285D02*
X125289580Y-73761904D01*
X124480057Y-72809523D02*
X124432438Y-72761904D01*
X124432438Y-72761904D02*
X124384819Y-72666666D01*
X124384819Y-72666666D02*
X124384819Y-72428571D01*
X124384819Y-72428571D02*
X124432438Y-72333333D01*
X124432438Y-72333333D02*
X124480057Y-72285714D01*
X124480057Y-72285714D02*
X124575295Y-72238095D01*
X124575295Y-72238095D02*
X124670533Y-72238095D01*
X124670533Y-72238095D02*
X124813390Y-72285714D01*
X124813390Y-72285714D02*
X125384819Y-72857142D01*
X125384819Y-72857142D02*
X125384819Y-72238095D01*
X92134580Y-77142857D02*
X92182200Y-77190476D01*
X92182200Y-77190476D02*
X92229819Y-77333333D01*
X92229819Y-77333333D02*
X92229819Y-77428571D01*
X92229819Y-77428571D02*
X92182200Y-77571428D01*
X92182200Y-77571428D02*
X92086961Y-77666666D01*
X92086961Y-77666666D02*
X91991723Y-77714285D01*
X91991723Y-77714285D02*
X91801247Y-77761904D01*
X91801247Y-77761904D02*
X91658390Y-77761904D01*
X91658390Y-77761904D02*
X91467914Y-77714285D01*
X91467914Y-77714285D02*
X91372676Y-77666666D01*
X91372676Y-77666666D02*
X91277438Y-77571428D01*
X91277438Y-77571428D02*
X91229819Y-77428571D01*
X91229819Y-77428571D02*
X91229819Y-77333333D01*
X91229819Y-77333333D02*
X91277438Y-77190476D01*
X91277438Y-77190476D02*
X91325057Y-77142857D01*
X92229819Y-76190476D02*
X92229819Y-76761904D01*
X92229819Y-76476190D02*
X91229819Y-76476190D01*
X91229819Y-76476190D02*
X91372676Y-76571428D01*
X91372676Y-76571428D02*
X91467914Y-76666666D01*
X91467914Y-76666666D02*
X91515533Y-76761904D01*
X91229819Y-75285714D02*
X91229819Y-75761904D01*
X91229819Y-75761904D02*
X91706009Y-75809523D01*
X91706009Y-75809523D02*
X91658390Y-75761904D01*
X91658390Y-75761904D02*
X91610771Y-75666666D01*
X91610771Y-75666666D02*
X91610771Y-75428571D01*
X91610771Y-75428571D02*
X91658390Y-75333333D01*
X91658390Y-75333333D02*
X91706009Y-75285714D01*
X91706009Y-75285714D02*
X91801247Y-75238095D01*
X91801247Y-75238095D02*
X92039342Y-75238095D01*
X92039342Y-75238095D02*
X92134580Y-75285714D01*
X92134580Y-75285714D02*
X92182200Y-75333333D01*
X92182200Y-75333333D02*
X92229819Y-75428571D01*
X92229819Y-75428571D02*
X92229819Y-75666666D01*
X92229819Y-75666666D02*
X92182200Y-75761904D01*
X92182200Y-75761904D02*
X92134580Y-75809523D01*
X92246247Y-84642857D02*
X92293867Y-84690476D01*
X92293867Y-84690476D02*
X92341486Y-84833333D01*
X92341486Y-84833333D02*
X92341486Y-84928571D01*
X92341486Y-84928571D02*
X92293867Y-85071428D01*
X92293867Y-85071428D02*
X92198628Y-85166666D01*
X92198628Y-85166666D02*
X92103390Y-85214285D01*
X92103390Y-85214285D02*
X91912914Y-85261904D01*
X91912914Y-85261904D02*
X91770057Y-85261904D01*
X91770057Y-85261904D02*
X91579581Y-85214285D01*
X91579581Y-85214285D02*
X91484343Y-85166666D01*
X91484343Y-85166666D02*
X91389105Y-85071428D01*
X91389105Y-85071428D02*
X91341486Y-84928571D01*
X91341486Y-84928571D02*
X91341486Y-84833333D01*
X91341486Y-84833333D02*
X91389105Y-84690476D01*
X91389105Y-84690476D02*
X91436724Y-84642857D01*
X92341486Y-83690476D02*
X92341486Y-84261904D01*
X92341486Y-83976190D02*
X91341486Y-83976190D01*
X91341486Y-83976190D02*
X91484343Y-84071428D01*
X91484343Y-84071428D02*
X91579581Y-84166666D01*
X91579581Y-84166666D02*
X91627200Y-84261904D01*
X91341486Y-83357142D02*
X91341486Y-82738095D01*
X91341486Y-82738095D02*
X91722438Y-83071428D01*
X91722438Y-83071428D02*
X91722438Y-82928571D01*
X91722438Y-82928571D02*
X91770057Y-82833333D01*
X91770057Y-82833333D02*
X91817676Y-82785714D01*
X91817676Y-82785714D02*
X91912914Y-82738095D01*
X91912914Y-82738095D02*
X92151009Y-82738095D01*
X92151009Y-82738095D02*
X92246247Y-82785714D01*
X92246247Y-82785714D02*
X92293867Y-82833333D01*
X92293867Y-82833333D02*
X92341486Y-82928571D01*
X92341486Y-82928571D02*
X92341486Y-83214285D01*
X92341486Y-83214285D02*
X92293867Y-83309523D01*
X92293867Y-83309523D02*
X92246247Y-83357142D01*
X123550057Y-75095238D02*
X123502438Y-75190476D01*
X123502438Y-75190476D02*
X123407200Y-75285714D01*
X123407200Y-75285714D02*
X123264342Y-75428571D01*
X123264342Y-75428571D02*
X123216723Y-75523809D01*
X123216723Y-75523809D02*
X123216723Y-75619047D01*
X123454819Y-75571428D02*
X123407200Y-75666666D01*
X123407200Y-75666666D02*
X123311961Y-75761904D01*
X123311961Y-75761904D02*
X123121485Y-75809523D01*
X123121485Y-75809523D02*
X122788152Y-75809523D01*
X122788152Y-75809523D02*
X122597676Y-75761904D01*
X122597676Y-75761904D02*
X122502438Y-75666666D01*
X122502438Y-75666666D02*
X122454819Y-75571428D01*
X122454819Y-75571428D02*
X122454819Y-75380952D01*
X122454819Y-75380952D02*
X122502438Y-75285714D01*
X122502438Y-75285714D02*
X122597676Y-75190476D01*
X122597676Y-75190476D02*
X122788152Y-75142857D01*
X122788152Y-75142857D02*
X123121485Y-75142857D01*
X123121485Y-75142857D02*
X123311961Y-75190476D01*
X123311961Y-75190476D02*
X123407200Y-75285714D01*
X123407200Y-75285714D02*
X123454819Y-75380952D01*
X123454819Y-75380952D02*
X123454819Y-75571428D01*
X122788152Y-74285714D02*
X123454819Y-74285714D01*
X122407200Y-74523809D02*
X123121485Y-74761904D01*
X123121485Y-74761904D02*
X123121485Y-74142857D01*
X87359580Y-76166666D02*
X87407200Y-76214285D01*
X87407200Y-76214285D02*
X87454819Y-76357142D01*
X87454819Y-76357142D02*
X87454819Y-76452380D01*
X87454819Y-76452380D02*
X87407200Y-76595237D01*
X87407200Y-76595237D02*
X87311961Y-76690475D01*
X87311961Y-76690475D02*
X87216723Y-76738094D01*
X87216723Y-76738094D02*
X87026247Y-76785713D01*
X87026247Y-76785713D02*
X86883390Y-76785713D01*
X86883390Y-76785713D02*
X86692914Y-76738094D01*
X86692914Y-76738094D02*
X86597676Y-76690475D01*
X86597676Y-76690475D02*
X86502438Y-76595237D01*
X86502438Y-76595237D02*
X86454819Y-76452380D01*
X86454819Y-76452380D02*
X86454819Y-76357142D01*
X86454819Y-76357142D02*
X86502438Y-76214285D01*
X86502438Y-76214285D02*
X86550057Y-76166666D01*
X86883390Y-75595237D02*
X86835771Y-75690475D01*
X86835771Y-75690475D02*
X86788152Y-75738094D01*
X86788152Y-75738094D02*
X86692914Y-75785713D01*
X86692914Y-75785713D02*
X86645295Y-75785713D01*
X86645295Y-75785713D02*
X86550057Y-75738094D01*
X86550057Y-75738094D02*
X86502438Y-75690475D01*
X86502438Y-75690475D02*
X86454819Y-75595237D01*
X86454819Y-75595237D02*
X86454819Y-75404761D01*
X86454819Y-75404761D02*
X86502438Y-75309523D01*
X86502438Y-75309523D02*
X86550057Y-75261904D01*
X86550057Y-75261904D02*
X86645295Y-75214285D01*
X86645295Y-75214285D02*
X86692914Y-75214285D01*
X86692914Y-75214285D02*
X86788152Y-75261904D01*
X86788152Y-75261904D02*
X86835771Y-75309523D01*
X86835771Y-75309523D02*
X86883390Y-75404761D01*
X86883390Y-75404761D02*
X86883390Y-75595237D01*
X86883390Y-75595237D02*
X86931009Y-75690475D01*
X86931009Y-75690475D02*
X86978628Y-75738094D01*
X86978628Y-75738094D02*
X87073866Y-75785713D01*
X87073866Y-75785713D02*
X87264342Y-75785713D01*
X87264342Y-75785713D02*
X87359580Y-75738094D01*
X87359580Y-75738094D02*
X87407200Y-75690475D01*
X87407200Y-75690475D02*
X87454819Y-75595237D01*
X87454819Y-75595237D02*
X87454819Y-75404761D01*
X87454819Y-75404761D02*
X87407200Y-75309523D01*
X87407200Y-75309523D02*
X87359580Y-75261904D01*
X87359580Y-75261904D02*
X87264342Y-75214285D01*
X87264342Y-75214285D02*
X87073866Y-75214285D01*
X87073866Y-75214285D02*
X86978628Y-75261904D01*
X86978628Y-75261904D02*
X86931009Y-75309523D01*
X86931009Y-75309523D02*
X86883390Y-75404761D01*
X78859580Y-76842857D02*
X78907200Y-76890476D01*
X78907200Y-76890476D02*
X78954819Y-77033333D01*
X78954819Y-77033333D02*
X78954819Y-77128571D01*
X78954819Y-77128571D02*
X78907200Y-77271428D01*
X78907200Y-77271428D02*
X78811961Y-77366666D01*
X78811961Y-77366666D02*
X78716723Y-77414285D01*
X78716723Y-77414285D02*
X78526247Y-77461904D01*
X78526247Y-77461904D02*
X78383390Y-77461904D01*
X78383390Y-77461904D02*
X78192914Y-77414285D01*
X78192914Y-77414285D02*
X78097676Y-77366666D01*
X78097676Y-77366666D02*
X78002438Y-77271428D01*
X78002438Y-77271428D02*
X77954819Y-77128571D01*
X77954819Y-77128571D02*
X77954819Y-77033333D01*
X77954819Y-77033333D02*
X78002438Y-76890476D01*
X78002438Y-76890476D02*
X78050057Y-76842857D01*
X78050057Y-76461904D02*
X78002438Y-76414285D01*
X78002438Y-76414285D02*
X77954819Y-76319047D01*
X77954819Y-76319047D02*
X77954819Y-76080952D01*
X77954819Y-76080952D02*
X78002438Y-75985714D01*
X78002438Y-75985714D02*
X78050057Y-75938095D01*
X78050057Y-75938095D02*
X78145295Y-75890476D01*
X78145295Y-75890476D02*
X78240533Y-75890476D01*
X78240533Y-75890476D02*
X78383390Y-75938095D01*
X78383390Y-75938095D02*
X78954819Y-76509523D01*
X78954819Y-76509523D02*
X78954819Y-75890476D01*
X77954819Y-75557142D02*
X77954819Y-74890476D01*
X77954819Y-74890476D02*
X78954819Y-75319047D01*
X92359580Y-88142857D02*
X92407200Y-88190476D01*
X92407200Y-88190476D02*
X92454819Y-88333333D01*
X92454819Y-88333333D02*
X92454819Y-88428571D01*
X92454819Y-88428571D02*
X92407200Y-88571428D01*
X92407200Y-88571428D02*
X92311961Y-88666666D01*
X92311961Y-88666666D02*
X92216723Y-88714285D01*
X92216723Y-88714285D02*
X92026247Y-88761904D01*
X92026247Y-88761904D02*
X91883390Y-88761904D01*
X91883390Y-88761904D02*
X91692914Y-88714285D01*
X91692914Y-88714285D02*
X91597676Y-88666666D01*
X91597676Y-88666666D02*
X91502438Y-88571428D01*
X91502438Y-88571428D02*
X91454819Y-88428571D01*
X91454819Y-88428571D02*
X91454819Y-88333333D01*
X91454819Y-88333333D02*
X91502438Y-88190476D01*
X91502438Y-88190476D02*
X91550057Y-88142857D01*
X92454819Y-87190476D02*
X92454819Y-87761904D01*
X92454819Y-87476190D02*
X91454819Y-87476190D01*
X91454819Y-87476190D02*
X91597676Y-87571428D01*
X91597676Y-87571428D02*
X91692914Y-87666666D01*
X91692914Y-87666666D02*
X91740533Y-87761904D01*
X91550057Y-86809523D02*
X91502438Y-86761904D01*
X91502438Y-86761904D02*
X91454819Y-86666666D01*
X91454819Y-86666666D02*
X91454819Y-86428571D01*
X91454819Y-86428571D02*
X91502438Y-86333333D01*
X91502438Y-86333333D02*
X91550057Y-86285714D01*
X91550057Y-86285714D02*
X91645295Y-86238095D01*
X91645295Y-86238095D02*
X91740533Y-86238095D01*
X91740533Y-86238095D02*
X91883390Y-86285714D01*
X91883390Y-86285714D02*
X92454819Y-86857142D01*
X92454819Y-86857142D02*
X92454819Y-86238095D01*
X123954819Y-83142857D02*
X123478628Y-83476190D01*
X123954819Y-83714285D02*
X122954819Y-83714285D01*
X122954819Y-83714285D02*
X122954819Y-83333333D01*
X122954819Y-83333333D02*
X123002438Y-83238095D01*
X123002438Y-83238095D02*
X123050057Y-83190476D01*
X123050057Y-83190476D02*
X123145295Y-83142857D01*
X123145295Y-83142857D02*
X123288152Y-83142857D01*
X123288152Y-83142857D02*
X123383390Y-83190476D01*
X123383390Y-83190476D02*
X123431009Y-83238095D01*
X123431009Y-83238095D02*
X123478628Y-83333333D01*
X123478628Y-83333333D02*
X123478628Y-83714285D01*
X122954819Y-82238095D02*
X122954819Y-82714285D01*
X122954819Y-82714285D02*
X123431009Y-82761904D01*
X123431009Y-82761904D02*
X123383390Y-82714285D01*
X123383390Y-82714285D02*
X123335771Y-82619047D01*
X123335771Y-82619047D02*
X123335771Y-82380952D01*
X123335771Y-82380952D02*
X123383390Y-82285714D01*
X123383390Y-82285714D02*
X123431009Y-82238095D01*
X123431009Y-82238095D02*
X123526247Y-82190476D01*
X123526247Y-82190476D02*
X123764342Y-82190476D01*
X123764342Y-82190476D02*
X123859580Y-82238095D01*
X123859580Y-82238095D02*
X123907200Y-82285714D01*
X123907200Y-82285714D02*
X123954819Y-82380952D01*
X123954819Y-82380952D02*
X123954819Y-82619047D01*
X123954819Y-82619047D02*
X123907200Y-82714285D01*
X123907200Y-82714285D02*
X123859580Y-82761904D01*
X123288152Y-81333333D02*
X123954819Y-81333333D01*
X122907200Y-81571428D02*
X123621485Y-81809523D01*
X123621485Y-81809523D02*
X123621485Y-81190476D01*
X96954819Y-96817857D02*
X96478628Y-97151190D01*
X96954819Y-97389285D02*
X95954819Y-97389285D01*
X95954819Y-97389285D02*
X95954819Y-97008333D01*
X95954819Y-97008333D02*
X96002438Y-96913095D01*
X96002438Y-96913095D02*
X96050057Y-96865476D01*
X96050057Y-96865476D02*
X96145295Y-96817857D01*
X96145295Y-96817857D02*
X96288152Y-96817857D01*
X96288152Y-96817857D02*
X96383390Y-96865476D01*
X96383390Y-96865476D02*
X96431009Y-96913095D01*
X96431009Y-96913095D02*
X96478628Y-97008333D01*
X96478628Y-97008333D02*
X96478628Y-97389285D01*
X96288152Y-95960714D02*
X96954819Y-95960714D01*
X95907200Y-96198809D02*
X96621485Y-96436904D01*
X96621485Y-96436904D02*
X96621485Y-95817857D01*
X95954819Y-95532142D02*
X95954819Y-94865476D01*
X95954819Y-94865476D02*
X96954819Y-95294047D01*
X103857142Y-66859580D02*
X103809523Y-66907200D01*
X103809523Y-66907200D02*
X103666666Y-66954819D01*
X103666666Y-66954819D02*
X103571428Y-66954819D01*
X103571428Y-66954819D02*
X103428571Y-66907200D01*
X103428571Y-66907200D02*
X103333333Y-66811961D01*
X103333333Y-66811961D02*
X103285714Y-66716723D01*
X103285714Y-66716723D02*
X103238095Y-66526247D01*
X103238095Y-66526247D02*
X103238095Y-66383390D01*
X103238095Y-66383390D02*
X103285714Y-66192914D01*
X103285714Y-66192914D02*
X103333333Y-66097676D01*
X103333333Y-66097676D02*
X103428571Y-66002438D01*
X103428571Y-66002438D02*
X103571428Y-65954819D01*
X103571428Y-65954819D02*
X103666666Y-65954819D01*
X103666666Y-65954819D02*
X103809523Y-66002438D01*
X103809523Y-66002438D02*
X103857142Y-66050057D01*
X104809523Y-66954819D02*
X104238095Y-66954819D01*
X104523809Y-66954819D02*
X104523809Y-65954819D01*
X104523809Y-65954819D02*
X104428571Y-66097676D01*
X104428571Y-66097676D02*
X104333333Y-66192914D01*
X104333333Y-66192914D02*
X104238095Y-66240533D01*
X105380952Y-66383390D02*
X105285714Y-66335771D01*
X105285714Y-66335771D02*
X105238095Y-66288152D01*
X105238095Y-66288152D02*
X105190476Y-66192914D01*
X105190476Y-66192914D02*
X105190476Y-66145295D01*
X105190476Y-66145295D02*
X105238095Y-66050057D01*
X105238095Y-66050057D02*
X105285714Y-66002438D01*
X105285714Y-66002438D02*
X105380952Y-65954819D01*
X105380952Y-65954819D02*
X105571428Y-65954819D01*
X105571428Y-65954819D02*
X105666666Y-66002438D01*
X105666666Y-66002438D02*
X105714285Y-66050057D01*
X105714285Y-66050057D02*
X105761904Y-66145295D01*
X105761904Y-66145295D02*
X105761904Y-66192914D01*
X105761904Y-66192914D02*
X105714285Y-66288152D01*
X105714285Y-66288152D02*
X105666666Y-66335771D01*
X105666666Y-66335771D02*
X105571428Y-66383390D01*
X105571428Y-66383390D02*
X105380952Y-66383390D01*
X105380952Y-66383390D02*
X105285714Y-66431009D01*
X105285714Y-66431009D02*
X105238095Y-66478628D01*
X105238095Y-66478628D02*
X105190476Y-66573866D01*
X105190476Y-66573866D02*
X105190476Y-66764342D01*
X105190476Y-66764342D02*
X105238095Y-66859580D01*
X105238095Y-66859580D02*
X105285714Y-66907200D01*
X105285714Y-66907200D02*
X105380952Y-66954819D01*
X105380952Y-66954819D02*
X105571428Y-66954819D01*
X105571428Y-66954819D02*
X105666666Y-66907200D01*
X105666666Y-66907200D02*
X105714285Y-66859580D01*
X105714285Y-66859580D02*
X105761904Y-66764342D01*
X105761904Y-66764342D02*
X105761904Y-66573866D01*
X105761904Y-66573866D02*
X105714285Y-66478628D01*
X105714285Y-66478628D02*
X105666666Y-66431009D01*
X105666666Y-66431009D02*
X105571428Y-66383390D01*
X97357142Y-83859580D02*
X97309523Y-83907200D01*
X97309523Y-83907200D02*
X97166666Y-83954819D01*
X97166666Y-83954819D02*
X97071428Y-83954819D01*
X97071428Y-83954819D02*
X96928571Y-83907200D01*
X96928571Y-83907200D02*
X96833333Y-83811961D01*
X96833333Y-83811961D02*
X96785714Y-83716723D01*
X96785714Y-83716723D02*
X96738095Y-83526247D01*
X96738095Y-83526247D02*
X96738095Y-83383390D01*
X96738095Y-83383390D02*
X96785714Y-83192914D01*
X96785714Y-83192914D02*
X96833333Y-83097676D01*
X96833333Y-83097676D02*
X96928571Y-83002438D01*
X96928571Y-83002438D02*
X97071428Y-82954819D01*
X97071428Y-82954819D02*
X97166666Y-82954819D01*
X97166666Y-82954819D02*
X97309523Y-83002438D01*
X97309523Y-83002438D02*
X97357142Y-83050057D01*
X98309523Y-83954819D02*
X97738095Y-83954819D01*
X98023809Y-83954819D02*
X98023809Y-82954819D01*
X98023809Y-82954819D02*
X97928571Y-83097676D01*
X97928571Y-83097676D02*
X97833333Y-83192914D01*
X97833333Y-83192914D02*
X97738095Y-83240533D01*
X98785714Y-83954819D02*
X98976190Y-83954819D01*
X98976190Y-83954819D02*
X99071428Y-83907200D01*
X99071428Y-83907200D02*
X99119047Y-83859580D01*
X99119047Y-83859580D02*
X99214285Y-83716723D01*
X99214285Y-83716723D02*
X99261904Y-83526247D01*
X99261904Y-83526247D02*
X99261904Y-83145295D01*
X99261904Y-83145295D02*
X99214285Y-83050057D01*
X99214285Y-83050057D02*
X99166666Y-83002438D01*
X99166666Y-83002438D02*
X99071428Y-82954819D01*
X99071428Y-82954819D02*
X98880952Y-82954819D01*
X98880952Y-82954819D02*
X98785714Y-83002438D01*
X98785714Y-83002438D02*
X98738095Y-83050057D01*
X98738095Y-83050057D02*
X98690476Y-83145295D01*
X98690476Y-83145295D02*
X98690476Y-83383390D01*
X98690476Y-83383390D02*
X98738095Y-83478628D01*
X98738095Y-83478628D02*
X98785714Y-83526247D01*
X98785714Y-83526247D02*
X98880952Y-83573866D01*
X98880952Y-83573866D02*
X99071428Y-83573866D01*
X99071428Y-83573866D02*
X99166666Y-83526247D01*
X99166666Y-83526247D02*
X99214285Y-83478628D01*
X99214285Y-83478628D02*
X99261904Y-83383390D01*
X96954819Y-113492857D02*
X96478628Y-113826190D01*
X96954819Y-114064285D02*
X95954819Y-114064285D01*
X95954819Y-114064285D02*
X95954819Y-113683333D01*
X95954819Y-113683333D02*
X96002438Y-113588095D01*
X96002438Y-113588095D02*
X96050057Y-113540476D01*
X96050057Y-113540476D02*
X96145295Y-113492857D01*
X96145295Y-113492857D02*
X96288152Y-113492857D01*
X96288152Y-113492857D02*
X96383390Y-113540476D01*
X96383390Y-113540476D02*
X96431009Y-113588095D01*
X96431009Y-113588095D02*
X96478628Y-113683333D01*
X96478628Y-113683333D02*
X96478628Y-114064285D01*
X96288152Y-112635714D02*
X96954819Y-112635714D01*
X95907200Y-112873809D02*
X96621485Y-113111904D01*
X96621485Y-113111904D02*
X96621485Y-112492857D01*
X96383390Y-111969047D02*
X96335771Y-112064285D01*
X96335771Y-112064285D02*
X96288152Y-112111904D01*
X96288152Y-112111904D02*
X96192914Y-112159523D01*
X96192914Y-112159523D02*
X96145295Y-112159523D01*
X96145295Y-112159523D02*
X96050057Y-112111904D01*
X96050057Y-112111904D02*
X96002438Y-112064285D01*
X96002438Y-112064285D02*
X95954819Y-111969047D01*
X95954819Y-111969047D02*
X95954819Y-111778571D01*
X95954819Y-111778571D02*
X96002438Y-111683333D01*
X96002438Y-111683333D02*
X96050057Y-111635714D01*
X96050057Y-111635714D02*
X96145295Y-111588095D01*
X96145295Y-111588095D02*
X96192914Y-111588095D01*
X96192914Y-111588095D02*
X96288152Y-111635714D01*
X96288152Y-111635714D02*
X96335771Y-111683333D01*
X96335771Y-111683333D02*
X96383390Y-111778571D01*
X96383390Y-111778571D02*
X96383390Y-111969047D01*
X96383390Y-111969047D02*
X96431009Y-112064285D01*
X96431009Y-112064285D02*
X96478628Y-112111904D01*
X96478628Y-112111904D02*
X96573866Y-112159523D01*
X96573866Y-112159523D02*
X96764342Y-112159523D01*
X96764342Y-112159523D02*
X96859580Y-112111904D01*
X96859580Y-112111904D02*
X96907200Y-112064285D01*
X96907200Y-112064285D02*
X96954819Y-111969047D01*
X96954819Y-111969047D02*
X96954819Y-111778571D01*
X96954819Y-111778571D02*
X96907200Y-111683333D01*
X96907200Y-111683333D02*
X96859580Y-111635714D01*
X96859580Y-111635714D02*
X96764342Y-111588095D01*
X96764342Y-111588095D02*
X96573866Y-111588095D01*
X96573866Y-111588095D02*
X96478628Y-111635714D01*
X96478628Y-111635714D02*
X96431009Y-111683333D01*
X96431009Y-111683333D02*
X96383390Y-111778571D01*
X87359580Y-88142857D02*
X87407200Y-88190476D01*
X87407200Y-88190476D02*
X87454819Y-88333333D01*
X87454819Y-88333333D02*
X87454819Y-88428571D01*
X87454819Y-88428571D02*
X87407200Y-88571428D01*
X87407200Y-88571428D02*
X87311961Y-88666666D01*
X87311961Y-88666666D02*
X87216723Y-88714285D01*
X87216723Y-88714285D02*
X87026247Y-88761904D01*
X87026247Y-88761904D02*
X86883390Y-88761904D01*
X86883390Y-88761904D02*
X86692914Y-88714285D01*
X86692914Y-88714285D02*
X86597676Y-88666666D01*
X86597676Y-88666666D02*
X86502438Y-88571428D01*
X86502438Y-88571428D02*
X86454819Y-88428571D01*
X86454819Y-88428571D02*
X86454819Y-88333333D01*
X86454819Y-88333333D02*
X86502438Y-88190476D01*
X86502438Y-88190476D02*
X86550057Y-88142857D01*
X87454819Y-87190476D02*
X87454819Y-87761904D01*
X87454819Y-87476190D02*
X86454819Y-87476190D01*
X86454819Y-87476190D02*
X86597676Y-87571428D01*
X86597676Y-87571428D02*
X86692914Y-87666666D01*
X86692914Y-87666666D02*
X86740533Y-87761904D01*
X87454819Y-86238095D02*
X87454819Y-86809523D01*
X87454819Y-86523809D02*
X86454819Y-86523809D01*
X86454819Y-86523809D02*
X86597676Y-86619047D01*
X86597676Y-86619047D02*
X86692914Y-86714285D01*
X86692914Y-86714285D02*
X86740533Y-86809523D01*
X125454819Y-102642857D02*
X124978628Y-102976190D01*
X125454819Y-103214285D02*
X124454819Y-103214285D01*
X124454819Y-103214285D02*
X124454819Y-102833333D01*
X124454819Y-102833333D02*
X124502438Y-102738095D01*
X124502438Y-102738095D02*
X124550057Y-102690476D01*
X124550057Y-102690476D02*
X124645295Y-102642857D01*
X124645295Y-102642857D02*
X124788152Y-102642857D01*
X124788152Y-102642857D02*
X124883390Y-102690476D01*
X124883390Y-102690476D02*
X124931009Y-102738095D01*
X124931009Y-102738095D02*
X124978628Y-102833333D01*
X124978628Y-102833333D02*
X124978628Y-103214285D01*
X124454819Y-101738095D02*
X124454819Y-102214285D01*
X124454819Y-102214285D02*
X124931009Y-102261904D01*
X124931009Y-102261904D02*
X124883390Y-102214285D01*
X124883390Y-102214285D02*
X124835771Y-102119047D01*
X124835771Y-102119047D02*
X124835771Y-101880952D01*
X124835771Y-101880952D02*
X124883390Y-101785714D01*
X124883390Y-101785714D02*
X124931009Y-101738095D01*
X124931009Y-101738095D02*
X125026247Y-101690476D01*
X125026247Y-101690476D02*
X125264342Y-101690476D01*
X125264342Y-101690476D02*
X125359580Y-101738095D01*
X125359580Y-101738095D02*
X125407200Y-101785714D01*
X125407200Y-101785714D02*
X125454819Y-101880952D01*
X125454819Y-101880952D02*
X125454819Y-102119047D01*
X125454819Y-102119047D02*
X125407200Y-102214285D01*
X125407200Y-102214285D02*
X125359580Y-102261904D01*
X124454819Y-101357142D02*
X124454819Y-100738095D01*
X124454819Y-100738095D02*
X124835771Y-101071428D01*
X124835771Y-101071428D02*
X124835771Y-100928571D01*
X124835771Y-100928571D02*
X124883390Y-100833333D01*
X124883390Y-100833333D02*
X124931009Y-100785714D01*
X124931009Y-100785714D02*
X125026247Y-100738095D01*
X125026247Y-100738095D02*
X125264342Y-100738095D01*
X125264342Y-100738095D02*
X125359580Y-100785714D01*
X125359580Y-100785714D02*
X125407200Y-100833333D01*
X125407200Y-100833333D02*
X125454819Y-100928571D01*
X125454819Y-100928571D02*
X125454819Y-101214285D01*
X125454819Y-101214285D02*
X125407200Y-101309523D01*
X125407200Y-101309523D02*
X125359580Y-101357142D01*
X124857142Y-66954819D02*
X124523809Y-66478628D01*
X124285714Y-66954819D02*
X124285714Y-65954819D01*
X124285714Y-65954819D02*
X124666666Y-65954819D01*
X124666666Y-65954819D02*
X124761904Y-66002438D01*
X124761904Y-66002438D02*
X124809523Y-66050057D01*
X124809523Y-66050057D02*
X124857142Y-66145295D01*
X124857142Y-66145295D02*
X124857142Y-66288152D01*
X124857142Y-66288152D02*
X124809523Y-66383390D01*
X124809523Y-66383390D02*
X124761904Y-66431009D01*
X124761904Y-66431009D02*
X124666666Y-66478628D01*
X124666666Y-66478628D02*
X124285714Y-66478628D01*
X125714285Y-66288152D02*
X125714285Y-66954819D01*
X125476190Y-65907200D02*
X125238095Y-66621485D01*
X125238095Y-66621485D02*
X125857142Y-66621485D01*
X126285714Y-66954819D02*
X126476190Y-66954819D01*
X126476190Y-66954819D02*
X126571428Y-66907200D01*
X126571428Y-66907200D02*
X126619047Y-66859580D01*
X126619047Y-66859580D02*
X126714285Y-66716723D01*
X126714285Y-66716723D02*
X126761904Y-66526247D01*
X126761904Y-66526247D02*
X126761904Y-66145295D01*
X126761904Y-66145295D02*
X126714285Y-66050057D01*
X126714285Y-66050057D02*
X126666666Y-66002438D01*
X126666666Y-66002438D02*
X126571428Y-65954819D01*
X126571428Y-65954819D02*
X126380952Y-65954819D01*
X126380952Y-65954819D02*
X126285714Y-66002438D01*
X126285714Y-66002438D02*
X126238095Y-66050057D01*
X126238095Y-66050057D02*
X126190476Y-66145295D01*
X126190476Y-66145295D02*
X126190476Y-66383390D01*
X126190476Y-66383390D02*
X126238095Y-66478628D01*
X126238095Y-66478628D02*
X126285714Y-66526247D01*
X126285714Y-66526247D02*
X126380952Y-66573866D01*
X126380952Y-66573866D02*
X126571428Y-66573866D01*
X126571428Y-66573866D02*
X126666666Y-66526247D01*
X126666666Y-66526247D02*
X126714285Y-66478628D01*
X126714285Y-66478628D02*
X126761904Y-66383390D01*
X92122914Y-80642857D02*
X92170534Y-80690476D01*
X92170534Y-80690476D02*
X92218153Y-80833333D01*
X92218153Y-80833333D02*
X92218153Y-80928571D01*
X92218153Y-80928571D02*
X92170534Y-81071428D01*
X92170534Y-81071428D02*
X92075295Y-81166666D01*
X92075295Y-81166666D02*
X91980057Y-81214285D01*
X91980057Y-81214285D02*
X91789581Y-81261904D01*
X91789581Y-81261904D02*
X91646724Y-81261904D01*
X91646724Y-81261904D02*
X91456248Y-81214285D01*
X91456248Y-81214285D02*
X91361010Y-81166666D01*
X91361010Y-81166666D02*
X91265772Y-81071428D01*
X91265772Y-81071428D02*
X91218153Y-80928571D01*
X91218153Y-80928571D02*
X91218153Y-80833333D01*
X91218153Y-80833333D02*
X91265772Y-80690476D01*
X91265772Y-80690476D02*
X91313391Y-80642857D01*
X92218153Y-79690476D02*
X92218153Y-80261904D01*
X92218153Y-79976190D02*
X91218153Y-79976190D01*
X91218153Y-79976190D02*
X91361010Y-80071428D01*
X91361010Y-80071428D02*
X91456248Y-80166666D01*
X91456248Y-80166666D02*
X91503867Y-80261904D01*
X91551486Y-78833333D02*
X92218153Y-78833333D01*
X91170534Y-79071428D02*
X91884819Y-79309523D01*
X91884819Y-79309523D02*
X91884819Y-78690476D01*
X79359580Y-108142857D02*
X79407200Y-108190476D01*
X79407200Y-108190476D02*
X79454819Y-108333333D01*
X79454819Y-108333333D02*
X79454819Y-108428571D01*
X79454819Y-108428571D02*
X79407200Y-108571428D01*
X79407200Y-108571428D02*
X79311961Y-108666666D01*
X79311961Y-108666666D02*
X79216723Y-108714285D01*
X79216723Y-108714285D02*
X79026247Y-108761904D01*
X79026247Y-108761904D02*
X78883390Y-108761904D01*
X78883390Y-108761904D02*
X78692914Y-108714285D01*
X78692914Y-108714285D02*
X78597676Y-108666666D01*
X78597676Y-108666666D02*
X78502438Y-108571428D01*
X78502438Y-108571428D02*
X78454819Y-108428571D01*
X78454819Y-108428571D02*
X78454819Y-108333333D01*
X78454819Y-108333333D02*
X78502438Y-108190476D01*
X78502438Y-108190476D02*
X78550057Y-108142857D01*
X78550057Y-107761904D02*
X78502438Y-107714285D01*
X78502438Y-107714285D02*
X78454819Y-107619047D01*
X78454819Y-107619047D02*
X78454819Y-107380952D01*
X78454819Y-107380952D02*
X78502438Y-107285714D01*
X78502438Y-107285714D02*
X78550057Y-107238095D01*
X78550057Y-107238095D02*
X78645295Y-107190476D01*
X78645295Y-107190476D02*
X78740533Y-107190476D01*
X78740533Y-107190476D02*
X78883390Y-107238095D01*
X78883390Y-107238095D02*
X79454819Y-107809523D01*
X79454819Y-107809523D02*
X79454819Y-107190476D01*
X78454819Y-106333333D02*
X78454819Y-106523809D01*
X78454819Y-106523809D02*
X78502438Y-106619047D01*
X78502438Y-106619047D02*
X78550057Y-106666666D01*
X78550057Y-106666666D02*
X78692914Y-106761904D01*
X78692914Y-106761904D02*
X78883390Y-106809523D01*
X78883390Y-106809523D02*
X79264342Y-106809523D01*
X79264342Y-106809523D02*
X79359580Y-106761904D01*
X79359580Y-106761904D02*
X79407200Y-106714285D01*
X79407200Y-106714285D02*
X79454819Y-106619047D01*
X79454819Y-106619047D02*
X79454819Y-106428571D01*
X79454819Y-106428571D02*
X79407200Y-106333333D01*
X79407200Y-106333333D02*
X79359580Y-106285714D01*
X79359580Y-106285714D02*
X79264342Y-106238095D01*
X79264342Y-106238095D02*
X79026247Y-106238095D01*
X79026247Y-106238095D02*
X78931009Y-106285714D01*
X78931009Y-106285714D02*
X78883390Y-106333333D01*
X78883390Y-106333333D02*
X78835771Y-106428571D01*
X78835771Y-106428571D02*
X78835771Y-106619047D01*
X78835771Y-106619047D02*
X78883390Y-106714285D01*
X78883390Y-106714285D02*
X78931009Y-106761904D01*
X78931009Y-106761904D02*
X79026247Y-106809523D01*
X112249366Y-67950000D02*
X112282700Y-67983333D01*
X112282700Y-67983333D02*
X112316033Y-68083333D01*
X112316033Y-68083333D02*
X112316033Y-68150000D01*
X112316033Y-68150000D02*
X112282700Y-68250000D01*
X112282700Y-68250000D02*
X112216033Y-68316667D01*
X112216033Y-68316667D02*
X112149366Y-68350000D01*
X112149366Y-68350000D02*
X112016033Y-68383333D01*
X112016033Y-68383333D02*
X111916033Y-68383333D01*
X111916033Y-68383333D02*
X111782700Y-68350000D01*
X111782700Y-68350000D02*
X111716033Y-68316667D01*
X111716033Y-68316667D02*
X111649366Y-68250000D01*
X111649366Y-68250000D02*
X111616033Y-68150000D01*
X111616033Y-68150000D02*
X111616033Y-68083333D01*
X111616033Y-68083333D02*
X111649366Y-67983333D01*
X111649366Y-67983333D02*
X111682700Y-67950000D01*
X111682700Y-67683333D02*
X111649366Y-67650000D01*
X111649366Y-67650000D02*
X111616033Y-67583333D01*
X111616033Y-67583333D02*
X111616033Y-67416667D01*
X111616033Y-67416667D02*
X111649366Y-67350000D01*
X111649366Y-67350000D02*
X111682700Y-67316667D01*
X111682700Y-67316667D02*
X111749366Y-67283333D01*
X111749366Y-67283333D02*
X111816033Y-67283333D01*
X111816033Y-67283333D02*
X111916033Y-67316667D01*
X111916033Y-67316667D02*
X112316033Y-67716667D01*
X112316033Y-67716667D02*
X112316033Y-67283333D01*
X111682700Y-67016666D02*
X111649366Y-66983333D01*
X111649366Y-66983333D02*
X111616033Y-66916666D01*
X111616033Y-66916666D02*
X111616033Y-66750000D01*
X111616033Y-66750000D02*
X111649366Y-66683333D01*
X111649366Y-66683333D02*
X111682700Y-66650000D01*
X111682700Y-66650000D02*
X111749366Y-66616666D01*
X111749366Y-66616666D02*
X111816033Y-66616666D01*
X111816033Y-66616666D02*
X111916033Y-66650000D01*
X111916033Y-66650000D02*
X112316033Y-67050000D01*
X112316033Y-67050000D02*
X112316033Y-66616666D01*
%TO.C,C16*%
D13*
X96777500Y-89211252D02*
X96777500Y-88688748D01*
X98247500Y-89211252D02*
X98247500Y-88688748D01*
%TO.C,Q1*%
X99140000Y-79600000D02*
X99140000Y-69330000D01*
X109260000Y-79600000D02*
X109260000Y-69330000D01*
X99240000Y-80060000D02*
X98910000Y-79820000D01*
X98910000Y-80300000D01*
X99240000Y-80060000D01*
G36*
X99240000Y-80060000D02*
G01*
X98910000Y-80300000D01*
X98910000Y-79820000D01*
X99240000Y-80060000D01*
G37*
%TO.C,Q2*%
X99140000Y-96060000D02*
X99140000Y-85790000D01*
X109260000Y-96060000D02*
X109260000Y-85790000D01*
X99240000Y-96520000D02*
X98910000Y-96280000D01*
X98910000Y-96760000D01*
X99240000Y-96520000D01*
G36*
X99240000Y-96520000D02*
G01*
X98910000Y-96760000D01*
X98910000Y-96280000D01*
X99240000Y-96520000D01*
G37*
%TO.C,C20*%
X110490000Y-101664420D02*
X110490000Y-101945580D01*
X111510000Y-101664420D02*
X111510000Y-101945580D01*
%TO.C,C23*%
X97490000Y-102584420D02*
X97490000Y-102865580D01*
X98510000Y-102584420D02*
X98510000Y-102865580D01*
%TO.C,R44*%
X97477500Y-93237258D02*
X97477500Y-92762742D01*
X98522500Y-93237258D02*
X98522500Y-92762742D01*
%TO.C,R51*%
X122977500Y-99237258D02*
X122977500Y-98762742D01*
X124022500Y-99237258D02*
X124022500Y-98762742D01*
%TO.C,C24*%
X109990000Y-70865580D02*
X109990000Y-70584420D01*
X111010000Y-70865580D02*
X111010000Y-70584420D01*
%TO.C,J11*%
D14*
X57500000Y-93000000D02*
X66500000Y-93000000D01*
X66500000Y-104000000D01*
X57500000Y-104000000D01*
X57500000Y-93000000D01*
%TO.C,C10*%
D13*
X86188748Y-82606667D02*
X87611252Y-82606667D01*
X86188748Y-85326667D02*
X87611252Y-85326667D01*
D15*
%TO.C,G\u002A\u002A\u002A*%
G36*
X91449038Y-103486570D02*
G01*
X91455581Y-103509744D01*
X91525261Y-103611765D01*
X91689714Y-103667762D01*
X91820219Y-103683969D01*
X91993468Y-103700648D01*
X92037408Y-103711051D01*
X91945011Y-103718645D01*
X91734808Y-103726091D01*
X91498535Y-103728782D01*
X91374199Y-103707226D01*
X91324138Y-103645907D01*
X91311908Y-103551865D01*
X91329620Y-103399842D01*
X91385978Y-103374955D01*
X91449038Y-103486570D01*
G37*
G36*
X86013830Y-109019286D02*
G01*
X86187944Y-109112270D01*
X86420054Y-109244031D01*
X86456112Y-109265045D01*
X86936657Y-109546018D01*
X86938092Y-110529101D01*
X86939527Y-111512184D01*
X86415044Y-111815838D01*
X85890560Y-112119492D01*
X85890560Y-110551782D01*
X85892492Y-110085385D01*
X85897893Y-109674217D01*
X85906167Y-109340208D01*
X85916720Y-109105286D01*
X85928957Y-108991382D01*
X85933064Y-108984071D01*
X86013830Y-109019286D01*
G37*
G36*
X92079573Y-109055344D02*
G01*
X92090715Y-109254550D01*
X92099769Y-109559775D01*
X92106141Y-109949102D01*
X92109237Y-110400617D01*
X92109439Y-110553728D01*
X92109439Y-112123385D01*
X91584955Y-111820997D01*
X91060471Y-111518610D01*
X91061907Y-110532314D01*
X91063342Y-109546018D01*
X91543887Y-109265045D01*
X91781428Y-109129270D01*
X91966055Y-109029543D01*
X92062416Y-108984855D01*
X92066935Y-108984071D01*
X92079573Y-109055344D01*
G37*
G36*
X85328613Y-108623073D02*
G01*
X85515929Y-108708420D01*
X85515929Y-110529450D01*
X85515339Y-111099195D01*
X85512638Y-111537360D01*
X85506433Y-111862219D01*
X85495328Y-112092041D01*
X85477929Y-112245100D01*
X85452840Y-112339668D01*
X85418668Y-112394014D01*
X85374017Y-112426413D01*
X85371002Y-112428043D01*
X85237438Y-112490320D01*
X85183686Y-112505605D01*
X85172413Y-112433929D01*
X85162268Y-112231896D01*
X85153668Y-111918999D01*
X85147028Y-111514733D01*
X85142766Y-111038592D01*
X85141297Y-110521666D01*
X85141297Y-108537727D01*
X85328613Y-108623073D01*
G37*
G36*
X92858702Y-110521666D02*
G01*
X92857170Y-111049282D01*
X92852853Y-111524103D01*
X92846168Y-111926637D01*
X92837531Y-112237389D01*
X92827357Y-112436865D01*
X92816313Y-112505605D01*
X92723480Y-112474138D01*
X92628997Y-112428043D01*
X92583679Y-112396374D01*
X92548923Y-112343843D01*
X92523333Y-112252178D01*
X92505516Y-112103108D01*
X92494075Y-111878360D01*
X92487618Y-111559663D01*
X92484748Y-111128745D01*
X92484072Y-110567335D01*
X92484070Y-110529450D01*
X92484070Y-108708420D01*
X92671386Y-108623073D01*
X92858702Y-108537727D01*
X92858702Y-110521666D01*
G37*
G36*
X89353562Y-101081377D02*
G01*
X89440672Y-101224196D01*
X89460030Y-101285399D01*
X89529645Y-101528909D01*
X90107742Y-101550792D01*
X90399048Y-101564728D01*
X90571496Y-101586113D01*
X90656053Y-101625315D01*
X90683686Y-101692703D01*
X90685840Y-101744352D01*
X90666128Y-101900475D01*
X90635889Y-101965979D01*
X90544029Y-101987224D01*
X90337207Y-102003977D01*
X90050296Y-102014030D01*
X89846812Y-102015930D01*
X89497637Y-102012016D01*
X89270720Y-101997426D01*
X89138602Y-101967887D01*
X89073828Y-101919128D01*
X89060749Y-101893615D01*
X89059592Y-101735204D01*
X89102277Y-101629648D01*
X89149869Y-101448229D01*
X89114101Y-101344794D01*
X89043633Y-101160550D01*
X89085903Y-101065009D01*
X89213939Y-101041889D01*
X89353562Y-101081377D01*
G37*
G36*
X87229193Y-111903848D02*
G01*
X87424724Y-111999516D01*
X87693215Y-112141214D01*
X88006300Y-112314421D01*
X88013145Y-112318290D01*
X88808233Y-112767847D01*
X88810459Y-113392233D01*
X88804503Y-113673031D01*
X88786699Y-113881991D01*
X88760408Y-113986210D01*
X88749216Y-113991643D01*
X88636062Y-113935132D01*
X88427284Y-113820104D01*
X88146406Y-113660428D01*
X87816949Y-113469976D01*
X87462436Y-113262618D01*
X87106389Y-113052226D01*
X86772330Y-112852671D01*
X86483782Y-112677822D01*
X86264267Y-112541552D01*
X86137307Y-112457731D01*
X86115339Y-112438471D01*
X86175982Y-112380116D01*
X86331459Y-112277887D01*
X86542091Y-112153955D01*
X86768197Y-112030493D01*
X86970099Y-111929670D01*
X87108117Y-111873659D01*
X87134987Y-111868732D01*
X87229193Y-111903848D01*
G37*
G36*
X90898077Y-111845364D02*
G01*
X91052916Y-111923078D01*
X91262080Y-112039195D01*
X91487667Y-112171103D01*
X91691774Y-112296187D01*
X91836501Y-112391835D01*
X91884660Y-112433993D01*
X91822882Y-112483129D01*
X91650609Y-112594635D01*
X91387432Y-112756496D01*
X91052943Y-112956694D01*
X90666732Y-113183214D01*
X90599621Y-113222155D01*
X90202417Y-113451708D01*
X89848609Y-113655088D01*
X89558974Y-113820444D01*
X89354287Y-113935920D01*
X89255323Y-113989664D01*
X89250949Y-113991643D01*
X89222310Y-113934456D01*
X89200956Y-113760370D01*
X89190250Y-113502288D01*
X89189662Y-113392233D01*
X89192008Y-112767847D01*
X90018673Y-112294922D01*
X90334490Y-112118225D01*
X90603245Y-111975343D01*
X90798646Y-111879716D01*
X90894402Y-111844784D01*
X90898077Y-111845364D01*
G37*
G36*
X91692087Y-102628357D02*
G01*
X91722347Y-102630222D01*
X91936020Y-102651639D01*
X92042457Y-102698617D01*
X92084241Y-102799789D01*
X92094258Y-102880275D01*
X92094134Y-103057940D01*
X92063039Y-103161248D01*
X91960684Y-103194398D01*
X91768536Y-103213168D01*
X91689906Y-103214750D01*
X91676095Y-103212532D01*
X91437433Y-103174198D01*
X91309181Y-103050539D01*
X91305577Y-102933441D01*
X91448579Y-102933441D01*
X91526647Y-103073028D01*
X91676095Y-103139163D01*
X91845086Y-103133142D01*
X91981781Y-103056256D01*
X92034513Y-102918824D01*
X91967957Y-102777215D01*
X91847365Y-102721076D01*
X91613534Y-102702435D01*
X91475940Y-102779798D01*
X91448579Y-102933441D01*
X91305577Y-102933441D01*
X91302724Y-102840766D01*
X91323935Y-102761343D01*
X91376880Y-102667235D01*
X91484924Y-102627735D01*
X91692087Y-102628357D01*
G37*
G36*
X91920561Y-101085596D02*
G01*
X92035124Y-101118503D01*
X92082137Y-101199333D01*
X92095684Y-101285399D01*
X92151779Y-101447572D01*
X92264268Y-101491446D01*
X92383293Y-101523785D01*
X92409144Y-101566372D01*
X92339596Y-101604419D01*
X92152108Y-101630839D01*
X91878420Y-101641275D01*
X91863517Y-101641299D01*
X91684857Y-101641299D01*
X91317890Y-101641299D01*
X91320302Y-101360325D01*
X91320823Y-101299607D01*
X91435103Y-101299607D01*
X91455248Y-101431470D01*
X91545648Y-101483726D01*
X91684857Y-101491446D01*
X91909843Y-101469651D01*
X92012130Y-101394493D01*
X92017748Y-101270321D01*
X91926500Y-101177083D01*
X91715453Y-101131023D01*
X91531654Y-101125811D01*
X91452667Y-101169134D01*
X91435147Y-101287057D01*
X91435103Y-101299607D01*
X91320823Y-101299607D01*
X91322713Y-101079352D01*
X91697345Y-101079352D01*
X91920561Y-101085596D01*
G37*
G36*
X88796157Y-106274731D02*
G01*
X88811614Y-106413425D01*
X88803017Y-106485035D01*
X88767721Y-106556203D01*
X88690317Y-106637885D01*
X88555396Y-106741035D01*
X88347549Y-106876609D01*
X88051369Y-107055560D01*
X87651445Y-107288845D01*
X87277244Y-107504278D01*
X86842498Y-107752444D01*
X86450344Y-107973528D01*
X86119607Y-108157143D01*
X85869113Y-108292899D01*
X85717688Y-108370410D01*
X85681720Y-108384661D01*
X85576990Y-108344654D01*
X85485028Y-108286336D01*
X85455261Y-108249770D01*
X85466923Y-108201466D01*
X85533145Y-108132386D01*
X85667062Y-108033489D01*
X85881808Y-107895735D01*
X86190516Y-107710085D01*
X86606319Y-107467497D01*
X87025427Y-107226052D01*
X87480286Y-106964868D01*
X87892541Y-106728269D01*
X88244289Y-106526520D01*
X88517625Y-106369888D01*
X88694644Y-106268638D01*
X88756489Y-106233525D01*
X88796157Y-106274731D01*
G37*
G36*
X92435316Y-112724975D02*
G01*
X92486550Y-112753658D01*
X92549891Y-112806263D01*
X92561242Y-112858230D01*
X92503192Y-112926313D01*
X92358328Y-113027265D01*
X92109240Y-113177839D01*
X91946523Y-113273255D01*
X91224085Y-113694962D01*
X90624062Y-114043896D01*
X90139991Y-114323750D01*
X89765411Y-114538217D01*
X89493862Y-114690989D01*
X89318881Y-114785758D01*
X89234008Y-114826218D01*
X89225322Y-114828319D01*
X89197922Y-114764397D01*
X89201070Y-114625591D01*
X89221617Y-114553452D01*
X89276396Y-114475852D01*
X89380705Y-114382177D01*
X89549842Y-114261812D01*
X89799105Y-114104144D01*
X90143792Y-113898559D01*
X90599200Y-113634443D01*
X90776309Y-113532678D01*
X91266554Y-113252347D01*
X91644239Y-113039818D01*
X91926251Y-112887398D01*
X92129478Y-112787396D01*
X92270807Y-112732120D01*
X92367124Y-112713877D01*
X92435316Y-112724975D01*
G37*
G36*
X85691793Y-112711843D02*
G01*
X85835176Y-112761774D01*
X86045051Y-112863988D01*
X86344104Y-113027806D01*
X86626961Y-113188892D01*
X87217120Y-113527935D01*
X87690184Y-113801129D01*
X88059098Y-114017089D01*
X88336808Y-114184433D01*
X88536257Y-114311779D01*
X88670392Y-114407744D01*
X88752156Y-114480944D01*
X88794495Y-114539998D01*
X88810353Y-114593523D01*
X88812684Y-114643902D01*
X88798663Y-114783466D01*
X88772407Y-114828319D01*
X88697528Y-114792312D01*
X88514764Y-114692480D01*
X88245318Y-114541106D01*
X87910391Y-114350473D01*
X87531187Y-114132863D01*
X87128906Y-113900561D01*
X86724751Y-113665848D01*
X86339925Y-113441007D01*
X85995628Y-113238323D01*
X85713064Y-113070077D01*
X85513434Y-112948553D01*
X85417940Y-112886034D01*
X85414227Y-112882828D01*
X85421072Y-112805934D01*
X85513754Y-112731548D01*
X85592215Y-112704875D01*
X85691793Y-112711843D01*
G37*
G36*
X89400623Y-106347425D02*
G01*
X89565075Y-106425490D01*
X89805150Y-106554252D01*
X90135782Y-106740514D01*
X90571902Y-106991079D01*
X90897810Y-107179386D01*
X91351295Y-107442245D01*
X91761289Y-107681134D01*
X92110100Y-107885645D01*
X92380037Y-108045369D01*
X92553407Y-108149896D01*
X92612065Y-108187975D01*
X92584098Y-108244020D01*
X92466795Y-108314170D01*
X92397219Y-108335508D01*
X92311416Y-108332959D01*
X92192163Y-108298537D01*
X92022236Y-108224258D01*
X91784410Y-108102136D01*
X91461461Y-107924186D01*
X91036165Y-107682423D01*
X90752540Y-107519449D01*
X90320889Y-107270667D01*
X89934445Y-107047490D01*
X89611522Y-106860532D01*
X89370435Y-106720407D01*
X89229498Y-106637728D01*
X89200409Y-106619943D01*
X89190414Y-106539983D01*
X89200409Y-106406075D01*
X89211688Y-106349382D01*
X89238862Y-106316174D01*
X89296863Y-106313254D01*
X89400623Y-106347425D01*
G37*
G36*
X91559852Y-99422330D02*
G01*
X91564440Y-99426960D01*
X91563808Y-99501528D01*
X91528761Y-99522402D01*
X91457136Y-99614327D01*
X91435103Y-99741446D01*
X91450599Y-99861942D01*
X91525850Y-99908041D01*
X91703996Y-99904724D01*
X91715453Y-99903786D01*
X91922695Y-99861414D01*
X92014609Y-99769004D01*
X92022530Y-99739657D01*
X91999619Y-99593318D01*
X91950397Y-99537684D01*
X91889302Y-99459326D01*
X91900577Y-99427545D01*
X91998704Y-99413808D01*
X92029528Y-99427893D01*
X92086017Y-99532950D01*
X92108591Y-99707670D01*
X92092754Y-99874783D01*
X92059488Y-99942970D01*
X91959651Y-99973740D01*
X91768758Y-99991328D01*
X91686284Y-99992921D01*
X91478333Y-99981722D01*
X91371870Y-99931566D01*
X91319198Y-99817611D01*
X91314427Y-99799264D01*
X91315777Y-99640211D01*
X91376560Y-99495439D01*
X91467633Y-99408346D01*
X91559852Y-99422330D01*
G37*
G36*
X91967454Y-101870288D02*
G01*
X92071026Y-101993060D01*
X92111684Y-102170132D01*
X92074112Y-102323236D01*
X92059488Y-102340610D01*
X91944141Y-102390010D01*
X91932114Y-102390561D01*
X91905077Y-102352088D01*
X91944601Y-102300650D01*
X92020968Y-102165061D01*
X92024360Y-102026276D01*
X91957342Y-101945147D01*
X91929453Y-101941004D01*
X91834959Y-102004618D01*
X91748557Y-102158973D01*
X91744127Y-102171254D01*
X91660428Y-102334272D01*
X91543972Y-102381258D01*
X91493287Y-102377302D01*
X91365955Y-102299828D01*
X91311518Y-102153350D01*
X91332454Y-101997410D01*
X91431238Y-101891551D01*
X91472566Y-101879103D01*
X91575716Y-101866889D01*
X91550356Y-101905938D01*
X91487219Y-101954980D01*
X91392290Y-102095560D01*
X91401578Y-102186491D01*
X91482099Y-102303265D01*
X91566595Y-102274407D01*
X91626539Y-102147051D01*
X91722451Y-101923918D01*
X91837965Y-101839164D01*
X91967454Y-101870288D01*
G37*
G36*
X92109439Y-100478188D02*
G01*
X92077556Y-100693745D01*
X91997050Y-100790014D01*
X91885805Y-100796556D01*
X91808970Y-100801074D01*
X91686990Y-100689918D01*
X91659881Y-100557219D01*
X91647264Y-100507489D01*
X91734808Y-100507489D01*
X91778702Y-100666998D01*
X91885805Y-100726582D01*
X91963735Y-100702156D01*
X92023603Y-100596203D01*
X91987101Y-100467010D01*
X91875609Y-100384027D01*
X91865068Y-100381650D01*
X91757641Y-100409919D01*
X91734808Y-100507489D01*
X91647264Y-100507489D01*
X91621211Y-100404806D01*
X91547492Y-100367552D01*
X91457440Y-100424010D01*
X91441219Y-100555199D01*
X91501736Y-100703847D01*
X91528761Y-100736564D01*
X91582751Y-100809301D01*
X91519023Y-100804383D01*
X91515382Y-100803284D01*
X91386828Y-100715832D01*
X91328450Y-100644066D01*
X91284582Y-100474511D01*
X91375981Y-100340827D01*
X91589962Y-100255080D01*
X91761214Y-100232326D01*
X92109439Y-100209489D01*
X92109439Y-100478188D01*
G37*
G36*
X92069425Y-104064081D02*
G01*
X92108560Y-104236971D01*
X92109439Y-104270491D01*
X92077591Y-104441942D01*
X92004182Y-104533590D01*
X91803833Y-104562017D01*
X91576814Y-104530556D01*
X91547492Y-104518339D01*
X91391256Y-104453241D01*
X91330653Y-104394838D01*
X91304328Y-104263717D01*
X91435103Y-104263717D01*
X91481952Y-104385757D01*
X91547492Y-104413570D01*
X91639021Y-104351104D01*
X91659881Y-104263717D01*
X91613032Y-104141678D01*
X91547492Y-104113865D01*
X91455963Y-104176331D01*
X91435103Y-104263717D01*
X91304328Y-104263717D01*
X91296141Y-104222936D01*
X91381206Y-104069019D01*
X91558420Y-103980148D01*
X91573876Y-103977533D01*
X91687542Y-103985092D01*
X91730439Y-104080889D01*
X91734808Y-104183580D01*
X91757190Y-104350431D01*
X91841122Y-104410557D01*
X91884660Y-104413570D01*
X91998729Y-104357469D01*
X92037860Y-104236551D01*
X91989600Y-104121891D01*
X91940855Y-104092903D01*
X91885536Y-104031334D01*
X91898407Y-104004231D01*
X91990804Y-103975688D01*
X92069425Y-104064081D01*
G37*
G36*
X91936592Y-104793347D02*
G01*
X92043975Y-104828234D01*
X92084636Y-104922035D01*
X92096567Y-105051857D01*
X92080073Y-105267628D01*
X91999492Y-105359579D01*
X91884660Y-105368417D01*
X91811715Y-105374031D01*
X91692527Y-105262512D01*
X91660273Y-105092328D01*
X91734808Y-105092328D01*
X91789930Y-105214402D01*
X91884660Y-105237759D01*
X92010082Y-105189761D01*
X92020725Y-105059897D01*
X91966816Y-104947186D01*
X91871112Y-104883714D01*
X91779269Y-104937354D01*
X91734998Y-105080764D01*
X91734808Y-105092328D01*
X91660273Y-105092328D01*
X91659881Y-105090258D01*
X91627077Y-104910777D01*
X91547492Y-104863127D01*
X91465050Y-104922428D01*
X91435288Y-105054603D01*
X91461452Y-105191060D01*
X91528761Y-105258720D01*
X91580298Y-105323706D01*
X91564440Y-105354162D01*
X91473014Y-105375059D01*
X91381110Y-105292460D01*
X91317871Y-105149761D01*
X91312440Y-104990362D01*
X91314427Y-104981858D01*
X91360047Y-104863880D01*
X91448816Y-104806754D01*
X91625714Y-104789051D01*
X91720921Y-104788201D01*
X91936592Y-104793347D01*
G37*
G36*
X91683059Y-98669495D02*
G01*
X91730700Y-98775134D01*
X91734808Y-98869027D01*
X91758357Y-99033558D01*
X91845978Y-99091487D01*
X91884660Y-99093806D01*
X92003481Y-99039349D01*
X92032858Y-98909191D01*
X91965204Y-98753151D01*
X91940855Y-98724794D01*
X91887720Y-98652402D01*
X91954201Y-98657778D01*
X91959586Y-98659384D01*
X92041044Y-98749613D01*
X92092729Y-98917393D01*
X92100713Y-99091261D01*
X92063039Y-99190157D01*
X91960684Y-99223307D01*
X91768536Y-99242077D01*
X91689906Y-99243658D01*
X91547492Y-99233310D01*
X91473575Y-99227939D01*
X91361678Y-99169022D01*
X91322713Y-99093806D01*
X91307502Y-98925222D01*
X91448623Y-98925222D01*
X91466788Y-99062609D01*
X91547492Y-99093806D01*
X91640232Y-99042087D01*
X91646361Y-98925222D01*
X91599325Y-98793458D01*
X91547492Y-98756638D01*
X91479880Y-98820364D01*
X91448623Y-98925222D01*
X91307502Y-98925222D01*
X91302461Y-98869359D01*
X91384195Y-98707531D01*
X91549542Y-98644263D01*
X91552541Y-98644248D01*
X91683059Y-98669495D01*
G37*
G36*
X90373051Y-99428926D02*
G01*
X90549011Y-99441033D01*
X90592182Y-99449223D01*
X90659281Y-99532714D01*
X90684193Y-99671739D01*
X90664113Y-99797640D01*
X90608278Y-99843068D01*
X90568986Y-99888934D01*
X90608278Y-99987995D01*
X90686121Y-100247273D01*
X90659753Y-100496423D01*
X90536394Y-100684338D01*
X90506846Y-100706158D01*
X90361489Y-100769044D01*
X90146491Y-100800689D01*
X89827875Y-100805115D01*
X89701389Y-100801543D01*
X89396027Y-100788856D01*
X89210580Y-100770377D01*
X89115169Y-100736126D01*
X89079915Y-100676127D01*
X89074926Y-100592331D01*
X89081788Y-100500300D01*
X89122426Y-100443358D01*
X89226916Y-100411332D01*
X89425337Y-100394049D01*
X89693067Y-100383254D01*
X89998949Y-100368830D01*
X90184178Y-100346914D01*
X90277954Y-100309831D01*
X90309477Y-100249907D01*
X90311209Y-100220798D01*
X90298136Y-100042417D01*
X90240264Y-99930856D01*
X90109614Y-99870738D01*
X89878207Y-99846687D01*
X89623880Y-99843068D01*
X89027509Y-99843068D01*
X89051217Y-99637021D01*
X89074926Y-99430974D01*
X89786725Y-99422475D01*
X90106126Y-99422314D01*
X90373051Y-99428926D01*
G37*
G36*
X89082536Y-107029404D02*
G01*
X89234817Y-107090409D01*
X89448979Y-107196709D01*
X89743591Y-107356460D01*
X90137223Y-107577822D01*
X90455728Y-107759037D01*
X90871572Y-107998232D01*
X91239782Y-108214112D01*
X91541622Y-108395354D01*
X91758358Y-108530635D01*
X91871254Y-108608633D01*
X91883207Y-108621723D01*
X91823371Y-108679678D01*
X91664101Y-108786707D01*
X91438043Y-108921107D01*
X91404197Y-108940160D01*
X91162088Y-109071006D01*
X90969984Y-109166445D01*
X90865638Y-109207840D01*
X90860981Y-109208293D01*
X90771910Y-109173038D01*
X90586385Y-109079145D01*
X90337311Y-108943627D01*
X90208930Y-108871125D01*
X89946210Y-108722755D01*
X89736959Y-108607776D01*
X89611912Y-108542924D01*
X89590788Y-108534514D01*
X89578566Y-108604096D01*
X89568911Y-108791474D01*
X89563085Y-109064598D01*
X89561946Y-109268392D01*
X89561946Y-110002269D01*
X89018731Y-110312788D01*
X88475516Y-110623308D01*
X88455326Y-108970203D01*
X88451475Y-108345829D01*
X88456644Y-107853581D01*
X88470674Y-107498202D01*
X88493404Y-107284435D01*
X88514005Y-107222068D01*
X88637445Y-107126152D01*
X88811288Y-107036567D01*
X88889341Y-107010641D01*
X88973568Y-107005534D01*
X89082536Y-107029404D01*
G37*
G36*
X90685840Y-97926205D02*
G01*
X90654640Y-98076096D01*
X90600170Y-98135834D01*
X90551971Y-98194346D01*
X90600170Y-98324468D01*
X90674041Y-98559466D01*
X90672466Y-98802305D01*
X90598500Y-98991005D01*
X90565612Y-99025385D01*
X90410640Y-99090400D01*
X90159360Y-99135044D01*
X89864339Y-99156042D01*
X89853586Y-99155819D01*
X89578144Y-99150120D01*
X89353340Y-99114006D01*
X89320529Y-99102932D01*
X89136120Y-98959415D01*
X89050966Y-98731525D01*
X89067261Y-98561359D01*
X89425451Y-98561359D01*
X89498726Y-98667284D01*
X89684902Y-98713148D01*
X89853586Y-98719175D01*
X90132317Y-98700624D01*
X90281292Y-98633989D01*
X90317235Y-98502796D01*
X90265730Y-98313208D01*
X90181886Y-98234029D01*
X89991797Y-98198521D01*
X89855063Y-98194691D01*
X89631492Y-98203368D01*
X89513485Y-98242429D01*
X89457146Y-98331419D01*
X89443931Y-98377748D01*
X89425451Y-98561359D01*
X89067261Y-98561359D01*
X89077268Y-98456862D01*
X89094441Y-98406256D01*
X89174298Y-98194691D01*
X88806175Y-98194691D01*
X88586865Y-98189541D01*
X88478401Y-98158220D01*
X88441799Y-98076924D01*
X88438053Y-97969912D01*
X88438053Y-97745133D01*
X89561946Y-97745133D01*
X90685840Y-97745133D01*
X90685840Y-97926205D01*
G37*
G36*
X90324137Y-96102405D02*
G01*
X90518175Y-96123091D01*
X90622471Y-96164425D01*
X90662554Y-96219070D01*
X90665171Y-96381114D01*
X90629615Y-96469285D01*
X90591726Y-96635344D01*
X90616643Y-96702870D01*
X90676120Y-96905268D01*
X90663474Y-97150380D01*
X90604912Y-97314307D01*
X90476229Y-97406607D01*
X90270770Y-97445412D01*
X90266184Y-97445070D01*
X90052340Y-97429118D01*
X89884746Y-97356120D01*
X89861617Y-97332998D01*
X89796047Y-97191792D01*
X89742828Y-96971582D01*
X89730309Y-96883440D01*
X89700073Y-96714897D01*
X90012651Y-96714897D01*
X90051661Y-96928165D01*
X90151053Y-97044460D01*
X90266184Y-97046604D01*
X90372086Y-96958046D01*
X90360622Y-96804801D01*
X90308573Y-96691240D01*
X90196024Y-96568103D01*
X90083501Y-96559792D01*
X90016848Y-96662643D01*
X90012651Y-96714897D01*
X89700073Y-96714897D01*
X89691159Y-96665208D01*
X89627518Y-96564356D01*
X89557251Y-96546313D01*
X89420092Y-96603541D01*
X89361650Y-96737358D01*
X89392355Y-96890966D01*
X89477075Y-96982973D01*
X89587769Y-97108141D01*
X89635010Y-97261829D01*
X89613816Y-97391700D01*
X89521078Y-97445428D01*
X89335581Y-97377724D01*
X89173305Y-97203126D01*
X89064926Y-96964409D01*
X89037463Y-96771092D01*
X89075575Y-96500529D01*
X89206984Y-96295377D01*
X89221372Y-96280666D01*
X89329784Y-96187667D01*
X89452259Y-96132459D01*
X89629925Y-96105456D01*
X89903913Y-96097073D01*
X90010450Y-96096756D01*
X90324137Y-96102405D01*
G37*
G36*
X90310412Y-102316979D02*
G01*
X90516008Y-102326034D01*
X90628255Y-102350330D01*
X90675405Y-102397400D01*
X90685710Y-102474776D01*
X90685840Y-102502950D01*
X90659296Y-102643746D01*
X90608278Y-102690266D01*
X90568986Y-102736132D01*
X90608278Y-102835193D01*
X90684078Y-103089135D01*
X90661098Y-103337892D01*
X90546206Y-103526454D01*
X90519316Y-103547669D01*
X90274570Y-103647402D01*
X90181921Y-103634161D01*
X90046998Y-103614879D01*
X89861353Y-103467505D01*
X89742389Y-103222685D01*
X89711799Y-102979867D01*
X89707750Y-102952508D01*
X90011504Y-102952508D01*
X90056857Y-103137195D01*
X90181921Y-103204174D01*
X90282500Y-103184295D01*
X90349040Y-103090762D01*
X90339008Y-102931866D01*
X90258810Y-102767023D01*
X90234390Y-102738004D01*
X90134832Y-102704395D01*
X90048970Y-102785746D01*
X90011521Y-102948645D01*
X90011504Y-102952508D01*
X89707750Y-102952508D01*
X89680530Y-102768596D01*
X89595563Y-102686321D01*
X89470157Y-102741121D01*
X89415078Y-102799060D01*
X89363386Y-102943773D01*
X89390796Y-103100182D01*
X89479367Y-103203126D01*
X89529532Y-103214750D01*
X89614476Y-103280005D01*
X89636873Y-103402066D01*
X89587498Y-103550632D01*
X89455512Y-103589393D01*
X89265118Y-103513645D01*
X89220367Y-103483032D01*
X89129315Y-103377474D01*
X89085033Y-103205107D01*
X89074926Y-102970064D01*
X89085876Y-102694632D01*
X89135039Y-102509303D01*
X89246888Y-102396444D01*
X89445893Y-102338424D01*
X89756525Y-102317611D01*
X89983215Y-102315635D01*
X90310412Y-102316979D01*
G37*
G36*
X89145286Y-103922364D02*
G01*
X89185366Y-104048700D01*
X89187315Y-104113865D01*
X89163022Y-104279348D01*
X89074582Y-104336874D01*
X89042512Y-104338644D01*
X88906515Y-104402461D01*
X88834075Y-104562412D01*
X88845197Y-104771247D01*
X88851015Y-104790935D01*
X88885343Y-104862691D01*
X88952919Y-104906017D01*
X89084208Y-104926345D01*
X89309674Y-104929105D01*
X89586595Y-104922056D01*
X90273746Y-104900591D01*
X90273746Y-104638349D01*
X90258336Y-104458539D01*
X90188506Y-104378238D01*
X90067699Y-104352398D01*
X89918389Y-104355212D01*
X89866095Y-104439185D01*
X89861651Y-104526194D01*
X89838486Y-104669228D01*
X89744079Y-104704757D01*
X89693067Y-104699755D01*
X89591999Y-104667779D01*
X89541797Y-104582509D01*
X89525400Y-104403605D01*
X89524483Y-104301181D01*
X89524483Y-103926549D01*
X89947122Y-103904323D01*
X90197373Y-103898845D01*
X90350745Y-103926320D01*
X90459252Y-104002753D01*
X90527800Y-104083011D01*
X90637295Y-104317483D01*
X90684557Y-104621181D01*
X90665046Y-104925029D01*
X90596307Y-105125369D01*
X90523360Y-105236012D01*
X90433954Y-105309957D01*
X90298615Y-105354592D01*
X90087869Y-105377308D01*
X89772240Y-105385494D01*
X89554827Y-105386464D01*
X89151472Y-105380458D01*
X88871404Y-105352355D01*
X88688332Y-105289082D01*
X88575961Y-105177565D01*
X88507999Y-105004733D01*
X88474433Y-104849280D01*
X88461477Y-104503784D01*
X88546948Y-104211686D01*
X88715182Y-103999934D01*
X88950516Y-103895474D01*
X89032537Y-103889086D01*
X89145286Y-103922364D01*
G37*
%TO.C,C9*%
D13*
X86188748Y-78806667D02*
X87611252Y-78806667D01*
X86188748Y-81526667D02*
X87611252Y-81526667D01*
%TO.C,C21*%
X110490000Y-85359420D02*
X110490000Y-85640580D01*
X111510000Y-85359420D02*
X111510000Y-85640580D01*
%TO.C,C17*%
X97265000Y-106311252D02*
X97265000Y-105788748D01*
X98735000Y-106311252D02*
X98735000Y-105788748D01*
%TO.C,Q6*%
X112140000Y-102050000D02*
X112140000Y-112320000D01*
X122260000Y-102050000D02*
X122260000Y-112320000D01*
X122160000Y-101590000D02*
X122490000Y-101830000D01*
X122490000Y-101350000D01*
X122160000Y-101590000D01*
G36*
X122490000Y-101830000D02*
G01*
X122160000Y-101590000D01*
X122490000Y-101350000D01*
X122490000Y-101830000D01*
G37*
%TO.C,R55*%
X85220000Y-66610000D02*
X96780000Y-66610000D01*
X85220000Y-73810000D02*
X96780000Y-73810000D01*
%TO.C,Q5*%
X112040000Y-85645000D02*
X112040000Y-95915000D01*
X122160000Y-85645000D02*
X122160000Y-95915000D01*
X122060000Y-85185000D02*
X122390000Y-85425000D01*
X122390000Y-84945000D01*
X122060000Y-85185000D01*
G36*
X122390000Y-85425000D02*
G01*
X122060000Y-85185000D01*
X122390000Y-84945000D01*
X122390000Y-85425000D01*
G37*
%TO.C,R50*%
X124477500Y-85737258D02*
X124477500Y-85262742D01*
X125522500Y-85737258D02*
X125522500Y-85262742D01*
%TO.C,R46*%
X97477500Y-76912258D02*
X97477500Y-76437742D01*
X98522500Y-76912258D02*
X98522500Y-76437742D01*
%TO.C,R45*%
X97477500Y-109932258D02*
X97477500Y-109457742D01*
X98522500Y-109932258D02*
X98522500Y-109457742D01*
%TO.C,R43*%
X97477500Y-80437742D02*
X97477500Y-80912258D01*
X98522500Y-80437742D02*
X98522500Y-80912258D01*
%TO.C,C25*%
X72700000Y-87604437D02*
X72700000Y-97060000D01*
X72700000Y-97060000D02*
X76650000Y-97060000D01*
X73764437Y-86540000D02*
X72700000Y-87604437D01*
X73764437Y-86540000D02*
X76650000Y-86540000D01*
X82155563Y-86540000D02*
X79270000Y-86540000D01*
X82155563Y-86540000D02*
X83220000Y-87604437D01*
X83220000Y-87604437D02*
X83220000Y-97060000D01*
X83220000Y-97060000D02*
X79270000Y-97060000D01*
%TO.C,J13*%
D14*
X127000000Y-87000000D02*
X132000000Y-87000000D01*
X132000000Y-96000000D01*
X127000000Y-96000000D01*
X127000000Y-87000000D01*
%TO.C,Q3*%
D13*
X99215000Y-112710000D02*
X99215000Y-102440000D01*
X109335000Y-112710000D02*
X109335000Y-102440000D01*
X99315000Y-113170000D02*
X98985000Y-112930000D01*
X98985000Y-113410000D01*
X99315000Y-113170000D01*
G36*
X99315000Y-113170000D02*
G01*
X98985000Y-113410000D01*
X98985000Y-112930000D01*
X99315000Y-113170000D01*
G37*
%TO.C,R52*%
X122977500Y-71272742D02*
X122977500Y-71747258D01*
X124022500Y-71272742D02*
X124022500Y-71747258D01*
%TO.C,C15*%
X92486252Y-74906667D02*
X91063748Y-74906667D01*
X92486252Y-77626667D02*
X91063748Y-77626667D01*
%TO.C,C13*%
X92597919Y-82640000D02*
X91175415Y-82640000D01*
X92597919Y-85360000D02*
X91175415Y-85360000D01*
%TO.C,Q4*%
X112040000Y-68970000D02*
X112040000Y-79240000D01*
X122160000Y-68970000D02*
X122160000Y-79240000D01*
X122060000Y-68510000D02*
X122390000Y-68750000D01*
X122390000Y-68270000D01*
X122060000Y-68510000D01*
G36*
X122390000Y-68750000D02*
G01*
X122060000Y-68510000D01*
X122390000Y-68270000D01*
X122390000Y-68750000D01*
G37*
%TO.C,C8*%
X86188748Y-74806667D02*
X87611252Y-74806667D01*
X86188748Y-77526667D02*
X87611252Y-77526667D01*
%TO.C,C27*%
X72700000Y-72004437D02*
X72700000Y-81460000D01*
X72700000Y-81460000D02*
X76650000Y-81460000D01*
X73764437Y-70940000D02*
X72700000Y-72004437D01*
X73764437Y-70940000D02*
X76650000Y-70940000D01*
X82155563Y-70940000D02*
X79270000Y-70940000D01*
X82155563Y-70940000D02*
X83220000Y-72004437D01*
X83220000Y-72004437D02*
X83220000Y-81460000D01*
X83220000Y-81460000D02*
X79270000Y-81460000D01*
%TO.C,C12*%
X92586252Y-86140000D02*
X91163748Y-86140000D01*
X92586252Y-88860000D02*
X91163748Y-88860000D01*
%TO.C,R54*%
X122977500Y-85737258D02*
X122977500Y-85262742D01*
X124022500Y-85737258D02*
X124022500Y-85262742D01*
%TO.C,R47*%
X97477500Y-95937742D02*
X97477500Y-96412258D01*
X98522500Y-95937742D02*
X98522500Y-96412258D01*
%TO.C,J10*%
D14*
X57500000Y-78500000D02*
X66500000Y-78500000D01*
X66500000Y-89500000D01*
X57500000Y-89500000D01*
X57500000Y-78500000D01*
%TO.C,C18*%
D13*
X101359420Y-65990000D02*
X101640580Y-65990000D01*
X101359420Y-67010000D02*
X101640580Y-67010000D01*
%TO.C,C19*%
X97490000Y-85559420D02*
X97490000Y-85840580D01*
X98510000Y-85559420D02*
X98510000Y-85840580D01*
%TO.C,J14*%
D14*
X127000000Y-99500000D02*
X132000000Y-99500000D01*
X132000000Y-108500000D01*
X127000000Y-108500000D01*
X127000000Y-99500000D01*
%TO.C,R48*%
D13*
X97477500Y-112587742D02*
X97477500Y-113062258D01*
X98522500Y-112587742D02*
X98522500Y-113062258D01*
%TO.C,J12*%
D14*
X127000000Y-75500000D02*
X132000000Y-75500000D01*
X132000000Y-84500000D01*
X127000000Y-84500000D01*
X127000000Y-75500000D01*
%TO.C,C11*%
D13*
X86188748Y-86140000D02*
X87611252Y-86140000D01*
X86188748Y-88860000D02*
X87611252Y-88860000D01*
%TO.C,R53*%
X122977500Y-101762742D02*
X122977500Y-102237258D01*
X124022500Y-101762742D02*
X124022500Y-102237258D01*
%TO.C,R49*%
X122877500Y-68572258D02*
X122877500Y-68097742D01*
X123922500Y-68572258D02*
X123922500Y-68097742D01*
%TO.C,D3*%
X66850000Y-86240000D02*
X66850000Y-92050000D01*
X71150000Y-86240000D02*
X66850000Y-86240000D01*
X71150000Y-86240000D02*
X71150000Y-92050000D01*
%TO.C,C14*%
X92474586Y-78773334D02*
X91052082Y-78773334D01*
X92474586Y-81493334D02*
X91052082Y-81493334D01*
%TO.C,C26*%
X72700000Y-103304437D02*
X72700000Y-112760000D01*
X72700000Y-112760000D02*
X76650000Y-112760000D01*
X73764437Y-102240000D02*
X72700000Y-103304437D01*
X73764437Y-102240000D02*
X76650000Y-102240000D01*
X82155563Y-102240000D02*
X79270000Y-102240000D01*
X82155563Y-102240000D02*
X83220000Y-103304437D01*
X83220000Y-103304437D02*
X83220000Y-112760000D01*
X83220000Y-112760000D02*
X79270000Y-112760000D01*
%TO.C,C22*%
X109990000Y-67865580D02*
X109990000Y-67584420D01*
X111010000Y-67865580D02*
X111010000Y-67584420D01*
%TD*%
M02*
