%TF.GenerationSoftware,KiCad,Pcbnew,10.0.4-rc1*%
%TF.CreationDate,2026-08-08T15:07:00+05:30*%
%TF.ProjectId,ESC_v2,4553435f-7632-42e6-9b69-6361645f7063,rev?*%
%TF.SameCoordinates,Original*%
%TF.FileFunction,Copper,L3,Inr*%
%TF.FilePolarity,Positive*%
%FSLAX46Y46*%
G04 Gerber Fmt 4.6, Leading zero omitted, Abs format (unit mm)*
G04 Created by KiCad (PCBNEW 10.0.4-rc1) date 2026-08-08 15:07:00*
%MOMM*%
%LPD*%
G01*
G04 APERTURE LIST*
%TA.AperFunction,ComponentPad*%
%ADD10C,0.700000*%
%TD*%
%TA.AperFunction,ComponentPad*%
%ADD11C,4.400000*%
%TD*%
%TA.AperFunction,ViaPad*%
%ADD12C,0.800000*%
%TD*%
%TA.AperFunction,ViaPad*%
%ADD13C,0.600000*%
%TD*%
%TA.AperFunction,Conductor*%
%ADD14C,0.300000*%
%TD*%
%TA.AperFunction,Conductor*%
%ADD15C,0.400000*%
%TD*%
%TA.AperFunction,Conductor*%
%ADD16C,0.200000*%
%TD*%
G04 APERTURE END LIST*
D10*
%TO.N,GND*%
%TO.C,H3*%
X125683274Y-112833274D03*
X126166548Y-111666548D03*
X126166548Y-114000000D03*
X127333274Y-111183274D03*
D11*
X127333274Y-112833274D03*
D10*
X127333274Y-114483274D03*
X128500000Y-111666548D03*
X128500000Y-114000000D03*
X128983274Y-112833274D03*
%TD*%
%TO.N,GND*%
%TO.C,H4*%
X63850000Y-112100000D03*
X64333274Y-110933274D03*
X64333274Y-113266726D03*
X65500000Y-110450000D03*
D11*
X65500000Y-112100000D03*
D10*
X65500000Y-113750000D03*
X66666726Y-110933274D03*
X66666726Y-113266726D03*
X67150000Y-112100000D03*
%TD*%
%TO.N,GND*%
%TO.C,H1*%
X63850000Y-70000000D03*
X64333274Y-68833274D03*
X64333274Y-71166726D03*
X65500000Y-68350000D03*
D11*
X65500000Y-70000000D03*
D10*
X65500000Y-71650000D03*
X66666726Y-68833274D03*
X66666726Y-71166726D03*
X67150000Y-70000000D03*
%TD*%
%TO.N,GND*%
%TO.C,H2*%
X125850000Y-69700000D03*
X126333274Y-68533274D03*
X126333274Y-70866726D03*
X127500000Y-68050000D03*
D11*
X127500000Y-69700000D03*
D10*
X127500000Y-71350000D03*
X128666726Y-68533274D03*
X128666726Y-70866726D03*
X129150000Y-69700000D03*
%TD*%
D12*
%TO.N,+VBAT*%
X104500000Y-91000000D03*
X107500000Y-85000000D03*
X106000000Y-91000000D03*
X107500000Y-86500000D03*
X101500000Y-105000000D03*
X102500000Y-75000000D03*
X101500000Y-88000000D03*
X107500000Y-89500000D03*
X104500000Y-106500000D03*
X102500000Y-69000000D03*
X107000000Y-73500000D03*
X107500000Y-103500000D03*
X106000000Y-105000000D03*
X101000000Y-70500000D03*
X107000000Y-75000000D03*
X103000000Y-106500000D03*
X103000000Y-105000000D03*
X64500000Y-81500000D03*
X101000000Y-75000000D03*
X106000000Y-89500000D03*
X64500000Y-83000000D03*
D13*
X78000000Y-87500000D03*
D12*
X106000000Y-108000000D03*
X103000000Y-103500000D03*
X104000000Y-70500000D03*
X106000000Y-85000000D03*
X105500000Y-73500000D03*
X101500000Y-102000000D03*
X101000000Y-69000000D03*
X106000000Y-102000000D03*
X103000000Y-85000000D03*
X104500000Y-89500000D03*
X107000000Y-69000000D03*
X102500000Y-73500000D03*
X101500000Y-106500000D03*
D13*
X68500000Y-77500000D03*
D12*
X103000000Y-86500000D03*
X102500000Y-70500000D03*
X93350000Y-87500000D03*
X61500000Y-84500000D03*
X63000000Y-87500000D03*
X63000000Y-84500000D03*
X104500000Y-108000000D03*
X104500000Y-85000000D03*
X64500000Y-87500000D03*
D13*
X78000000Y-88500000D03*
D12*
X107500000Y-108000000D03*
X63000000Y-78000000D03*
X63000000Y-80000000D03*
X107500000Y-88000000D03*
X61500000Y-80000000D03*
X61500000Y-81500000D03*
X61500000Y-78000000D03*
X107000000Y-72000000D03*
X104500000Y-88000000D03*
X103000000Y-88000000D03*
X63000000Y-81500000D03*
X64500000Y-84500000D03*
X105500000Y-70500000D03*
X107000000Y-70500000D03*
X101500000Y-89500000D03*
X104500000Y-103500000D03*
X104000000Y-73500000D03*
X61500000Y-75000000D03*
X63000000Y-86000000D03*
X101500000Y-108000000D03*
X104500000Y-86500000D03*
X106000000Y-88000000D03*
X104000000Y-69000000D03*
X103000000Y-89500000D03*
X103000000Y-102000000D03*
X104500000Y-105000000D03*
X107500000Y-91000000D03*
X102500000Y-72000000D03*
X103000000Y-108000000D03*
X101000000Y-72000000D03*
X106000000Y-103500000D03*
X101000000Y-73500000D03*
X64500000Y-75000000D03*
X64500000Y-86000000D03*
X104000000Y-75000000D03*
X104000000Y-72000000D03*
X107500000Y-105000000D03*
X64500000Y-76500000D03*
X61500000Y-87500000D03*
X101500000Y-85000000D03*
X61500000Y-86000000D03*
X103000000Y-91000000D03*
D13*
X68000000Y-78000000D03*
D12*
X107500000Y-102000000D03*
X101500000Y-91000000D03*
X106000000Y-86500000D03*
D13*
X78000000Y-86500000D03*
D12*
X63000000Y-75000000D03*
X64500000Y-80000000D03*
X64500000Y-78000000D03*
X63000000Y-76500000D03*
X104500000Y-102000000D03*
X101500000Y-86500000D03*
X107500000Y-106500000D03*
X101500000Y-103500000D03*
X82500000Y-106000000D03*
D13*
X69000000Y-78000000D03*
D12*
X63000000Y-83000000D03*
X61500000Y-83000000D03*
X61500000Y-76500000D03*
X105500000Y-72000000D03*
X105500000Y-69000000D03*
X106000000Y-106500000D03*
D13*
X69500000Y-77500000D03*
D12*
X105500000Y-75000000D03*
%TO.N,GND*%
X64500000Y-94500000D03*
X61500000Y-100500000D03*
X81500000Y-69500000D03*
X63000000Y-108000000D03*
D13*
X87000000Y-85000000D03*
X84000000Y-99000000D03*
D12*
X86000000Y-68000000D03*
X84500000Y-72500000D03*
X64500000Y-106500000D03*
X61500000Y-105000000D03*
X64500000Y-108000000D03*
X63000000Y-105000000D03*
X86000000Y-71000000D03*
D13*
X97512500Y-88000000D03*
D12*
X63000000Y-100500000D03*
D13*
X87000000Y-84000000D03*
D12*
X111000000Y-88000000D03*
X61500000Y-102000000D03*
X86000000Y-69500000D03*
X64500000Y-97500000D03*
D13*
X84500000Y-109000000D03*
D12*
X64500000Y-103500000D03*
X112000000Y-98500000D03*
D13*
X106000000Y-116000000D03*
X85500000Y-109000000D03*
D12*
X83000000Y-71000000D03*
X83000000Y-69500000D03*
D13*
X84500000Y-98000000D03*
D12*
X110000000Y-115500000D03*
D13*
X93500000Y-110500000D03*
X87000000Y-83000000D03*
D12*
X63000000Y-96000000D03*
X81500000Y-71000000D03*
D13*
X82500000Y-93500000D03*
X97500000Y-105000000D03*
D12*
X63000000Y-94500000D03*
X106500000Y-66500000D03*
X61500000Y-99000000D03*
X63000000Y-103500000D03*
X61500000Y-94500000D03*
D13*
X84000000Y-100000000D03*
D12*
X61500000Y-106500000D03*
X86000000Y-72500000D03*
D13*
X72500000Y-99000000D03*
D12*
X63000000Y-106500000D03*
D13*
X81500000Y-93500000D03*
D12*
X84500000Y-71000000D03*
D13*
X84500000Y-101000000D03*
D12*
X81500000Y-68000000D03*
X68300000Y-105250000D03*
X64500000Y-102000000D03*
X81500000Y-72500000D03*
X95500000Y-87500000D03*
D13*
X93500000Y-111500000D03*
X84710000Y-73410000D03*
D12*
X63000000Y-97500000D03*
X81500000Y-79500000D03*
X64500000Y-100500000D03*
X61500000Y-103500000D03*
X79000000Y-115500000D03*
D13*
X74000000Y-100000000D03*
X74000000Y-99000000D03*
D12*
X84500000Y-69500000D03*
D13*
X72500000Y-100000000D03*
D12*
X63000000Y-102000000D03*
D13*
X91000000Y-91020000D03*
D12*
X61500000Y-96000000D03*
X64500000Y-99000000D03*
X83000000Y-68000000D03*
X83000000Y-72500000D03*
X64500000Y-105000000D03*
X64500000Y-96000000D03*
X61500000Y-108000000D03*
X63000000Y-99000000D03*
X61500000Y-97500000D03*
X110500000Y-104500000D03*
D13*
X84500000Y-92500000D03*
D12*
X84500000Y-68000000D03*
%TO.N,PHASEA*%
X131000000Y-78500000D03*
X129500000Y-77000000D03*
X131000000Y-77000000D03*
X131000000Y-80000000D03*
X128000000Y-77000000D03*
X129500000Y-80000000D03*
D13*
X95000000Y-82000000D03*
D12*
X128000000Y-81500000D03*
D13*
X128000000Y-83500000D03*
D12*
X129500000Y-78500000D03*
X128000000Y-78500000D03*
X128000000Y-80000000D03*
D13*
X111500000Y-75000000D03*
D12*
X131000000Y-81500000D03*
D13*
X106000000Y-78000000D03*
D12*
X129500000Y-81500000D03*
%TO.N,PHASEB*%
X129500000Y-92500000D03*
X129500000Y-88000000D03*
X131000000Y-89500000D03*
X131000000Y-88000000D03*
D13*
X128000000Y-95000000D03*
D12*
X128000000Y-92500000D03*
D13*
X112000000Y-91500000D03*
X105000000Y-97000000D03*
X95000000Y-79500000D03*
D12*
X128000000Y-88000000D03*
X131000000Y-91000000D03*
X128000000Y-89500000D03*
X129500000Y-91000000D03*
X129500000Y-89500000D03*
X131000000Y-92500000D03*
X128000000Y-91000000D03*
D13*
%TO.N,GHB*%
X96000000Y-85000000D03*
%TO.N,GLC*%
X92486229Y-81849970D03*
X106650000Y-82350000D03*
X123500000Y-98325000D03*
D12*
%TO.N,Net-(Q4-S)*%
X97500000Y-71000000D03*
D13*
X97290000Y-73410000D03*
D12*
X117500000Y-103000000D03*
X115500000Y-68000000D03*
X114000000Y-85500000D03*
X118500000Y-68000000D03*
X116000000Y-102000000D03*
X117500000Y-102000000D03*
X118500000Y-69000000D03*
X119000000Y-102000000D03*
X114500000Y-102000000D03*
X115500000Y-84500000D03*
X114000000Y-70000000D03*
X118500000Y-85500000D03*
X96000000Y-71000000D03*
X118500000Y-86500000D03*
X118500000Y-70000000D03*
D13*
X96000000Y-72500000D03*
D12*
X117000000Y-68000000D03*
X114000000Y-68000000D03*
X119000000Y-103000000D03*
X116000000Y-103000000D03*
X118500000Y-84500000D03*
X115500000Y-70000000D03*
X97500000Y-68000000D03*
X119000000Y-101000000D03*
X117000000Y-84500000D03*
X117000000Y-86500000D03*
X114500000Y-101000000D03*
X97500000Y-72500000D03*
X117000000Y-85500000D03*
X115500000Y-69000000D03*
X94500000Y-68000000D03*
X114000000Y-69000000D03*
X96000000Y-69500000D03*
X114000000Y-86500000D03*
X96000000Y-72500000D03*
X116000000Y-101000000D03*
X115500000Y-85500000D03*
X115500000Y-86500000D03*
X117500000Y-101000000D03*
X114500000Y-103000000D03*
X114000000Y-84500000D03*
X96000000Y-68000000D03*
X117000000Y-70000000D03*
X97500000Y-69500000D03*
X94500000Y-72500000D03*
X117000000Y-69000000D03*
X94500000Y-69500000D03*
X94500000Y-71000000D03*
%TO.N,PHASEC*%
X131000000Y-102000000D03*
D13*
X105000000Y-110000000D03*
X128000000Y-107500000D03*
D12*
X128000000Y-100500000D03*
X129500000Y-103500000D03*
X129500000Y-105000000D03*
X131000000Y-105000000D03*
X128000000Y-102000000D03*
D13*
X95000000Y-77500000D03*
D12*
X131000000Y-100500000D03*
D13*
X111500000Y-108500000D03*
D12*
X129500000Y-100500000D03*
X131000000Y-103500000D03*
X129500000Y-102000000D03*
X128000000Y-103500000D03*
X128000000Y-105000000D03*
D13*
%TO.N,GLB*%
X95142125Y-84500000D03*
%TO.N,GHC*%
X96500000Y-86000000D03*
X96000000Y-108000000D03*
%TO.N,GHA*%
X98000000Y-81500000D03*
%TO.N,GLA*%
X112000000Y-66500000D03*
%TO.N,Net-(D5-K)*%
X94525021Y-80974979D03*
X95000000Y-100000000D03*
X101000000Y-99150000D03*
%TO.N,BEMFC*%
X95500000Y-111000000D03*
X89400000Y-91500000D03*
%TO.N,Net-(U4-FB)*%
X68500000Y-100500000D03*
X78000000Y-99500000D03*
%TO.N,5V*%
X80500000Y-114000000D03*
X80500000Y-100500000D03*
X74500000Y-107000000D03*
X81500000Y-100500000D03*
X77500000Y-107000000D03*
X81500000Y-103000000D03*
X76000000Y-107000000D03*
X80500000Y-103000000D03*
D12*
%TO.N,+12V*%
X109500000Y-82500000D03*
D13*
X74000000Y-91500000D03*
X71500000Y-86000000D03*
X72500000Y-85000000D03*
X75075000Y-91500000D03*
X74000000Y-90500000D03*
X72500000Y-86000000D03*
X75075000Y-90500000D03*
X71500000Y-85000000D03*
D12*
X87000000Y-79500000D03*
D13*
X73500000Y-69000000D03*
D12*
X87000000Y-81000000D03*
D13*
%TO.N,VOLTAGESENSE*%
X92500000Y-96000000D03*
%TO.N,AHIGH*%
X91500000Y-87000000D03*
X93500000Y-100500000D03*
X93500000Y-100500000D03*
%TO.N,BHIGH*%
X93000000Y-89500000D03*
X92500000Y-100000000D03*
%TO.N,BEMFB*%
X107500000Y-98500000D03*
X91000000Y-96000000D03*
%TO.N,+3.3V*%
X88000000Y-104000000D03*
X87000000Y-76000000D03*
D12*
X80600000Y-89112500D03*
D13*
X88000000Y-103000000D03*
X87000000Y-103000000D03*
X86000000Y-104000000D03*
X97000000Y-94000000D03*
D12*
X80500000Y-91000000D03*
D13*
X86000000Y-103000000D03*
D12*
X80600000Y-90000000D03*
D13*
X86000000Y-90500000D03*
X87000000Y-104000000D03*
%TO.N,Net-(D4-K)*%
X102500000Y-83500000D03*
X97000000Y-84000000D03*
%TO.N,CURRENT_SENS*%
X88500000Y-90500000D03*
X84000000Y-76000000D03*
%TO.N,Net-(D6-K)*%
X94000000Y-78000000D03*
X96000000Y-110000000D03*
%TO.N,BEMF_REF*%
X102500000Y-100000000D03*
X91000000Y-97000000D03*
%TO.N,TELEMTX*%
X96000000Y-112000000D03*
X96775000Y-115500000D03*
%TO.N,CHIGH*%
X91500000Y-88000000D03*
X91500000Y-99500000D03*
%TO.N,SWDIO*%
X98500000Y-100500000D03*
X94000000Y-116000000D03*
%TO.N,SWDCLK*%
X95000000Y-114000000D03*
X95107410Y-101500000D03*
%TD*%
%TO.N,PHASEB*%
D14*
X95000000Y-79500000D02*
X100000000Y-84500000D01*
X100000000Y-84500000D02*
X100000000Y-92500000D01*
X100000000Y-92500000D02*
X104500000Y-97000000D01*
X104500000Y-97000000D02*
X105000000Y-97000000D01*
%TO.N,GLC*%
X107350000Y-82350000D02*
X106650000Y-82350000D01*
X123325000Y-98325000D02*
X107350000Y-82350000D01*
X123500000Y-98325000D02*
X123325000Y-98325000D01*
%TO.N,PHASEC*%
X95000000Y-78580761D02*
X94350000Y-79230761D01*
X95000000Y-77500000D02*
X95000000Y-78580761D01*
X99000000Y-93500000D02*
X99500000Y-94000000D01*
X102000000Y-110000000D02*
X105000000Y-110000000D01*
X94350000Y-79230761D02*
X94350000Y-79850000D01*
X99500000Y-107500000D02*
X102000000Y-110000000D01*
X96350000Y-81850000D02*
X96350000Y-84350000D01*
X99000000Y-87000000D02*
X99000000Y-93500000D01*
X96350000Y-84350000D02*
X99000000Y-87000000D01*
X94350000Y-79850000D02*
X96350000Y-81850000D01*
X99500000Y-94000000D02*
X99500000Y-107500000D01*
%TO.N,GHC*%
X96500000Y-94419239D02*
X96350000Y-94269239D01*
X96500000Y-93580761D02*
X96500000Y-86000000D01*
X96500000Y-107500000D02*
X96500000Y-94419239D01*
X96000000Y-108000000D02*
X96500000Y-107500000D01*
X96350000Y-94269239D02*
X96350000Y-93730761D01*
X96350000Y-93730761D02*
X96500000Y-93580761D01*
%TO.N,Net-(D5-K)*%
X94000000Y-81500000D02*
X94525021Y-80974979D01*
X94850000Y-95435787D02*
X94650000Y-95235788D01*
X94650000Y-95235788D02*
X94650000Y-85523654D01*
X95000000Y-100000000D02*
X94850000Y-99850000D01*
X94850000Y-99850000D02*
X94850000Y-95435787D01*
X94000000Y-84873655D02*
X94000000Y-81500000D01*
X94650000Y-85523654D02*
X94000000Y-84873655D01*
%TO.N,BEMFC*%
X89400000Y-91500000D02*
X89400000Y-104900000D01*
X89400000Y-104900000D02*
X95500000Y-111000000D01*
%TO.N,Net-(U4-FB)*%
X77500000Y-99500000D02*
X75500000Y-101500000D01*
X69500000Y-101500000D02*
X68500000Y-100500000D01*
X75500000Y-101500000D02*
X69500000Y-101500000D01*
X78000000Y-99500000D02*
X77500000Y-99500000D01*
%TO.N,5V*%
X79500000Y-113000000D02*
X79500000Y-109000000D01*
X80500000Y-114000000D02*
X79500000Y-113000000D01*
X79500000Y-109000000D02*
X77500000Y-107000000D01*
%TO.N,+12V*%
D15*
X73500000Y-69000000D02*
X73500000Y-84000000D01*
X73500000Y-84000000D02*
X72500000Y-85000000D01*
%TO.N,AHIGH*%
D16*
X93400000Y-100600000D02*
X93500000Y-100500000D01*
X91751471Y-100600000D02*
X93400000Y-100600000D01*
X90400000Y-99248529D02*
X91751471Y-100600000D01*
X89000000Y-87500000D02*
X89000000Y-89500000D01*
X90000000Y-90500000D02*
X90000000Y-91363604D01*
X91500000Y-92863604D02*
X91500000Y-94651471D01*
X90400000Y-95751471D02*
X90400000Y-99248529D01*
X89500000Y-87000000D02*
X89000000Y-87500000D01*
X90000000Y-91363604D02*
X91500000Y-92863604D01*
X91500000Y-87000000D02*
X89500000Y-87000000D01*
X91500000Y-94651471D02*
X90400000Y-95751471D01*
X89000000Y-89500000D02*
X90000000Y-90500000D01*
%TO.N,BHIGH*%
X93100000Y-96248529D02*
X93000000Y-96348529D01*
X93000000Y-96348529D02*
X93000000Y-99500000D01*
X93100000Y-95751471D02*
X93100000Y-96248529D01*
X93000000Y-89500000D02*
X93000000Y-95651471D01*
X93000000Y-95651471D02*
X93100000Y-95751471D01*
X93000000Y-99500000D02*
X92500000Y-100000000D01*
%TO.N,+3.3V*%
X86000000Y-77000000D02*
X87000000Y-76000000D01*
X86000000Y-90500000D02*
X86000000Y-77000000D01*
%TO.N,CURRENT_SENS*%
X84000000Y-76000000D02*
X84600000Y-75400000D01*
X87248529Y-75400000D02*
X88500000Y-76651471D01*
X84600000Y-75400000D02*
X87248529Y-75400000D01*
X88500000Y-76651471D02*
X88500000Y-90500000D01*
%TO.N,Net-(D6-K)*%
D14*
X95500000Y-110000000D02*
X96000000Y-110000000D01*
X94150000Y-95442894D02*
X94350000Y-95642894D01*
X93500000Y-85080761D02*
X94150000Y-85730761D01*
X94000000Y-78000000D02*
X93500000Y-78500000D01*
X94350000Y-108850000D02*
X95500000Y-110000000D01*
X94150000Y-85730761D02*
X94150000Y-95442894D01*
X93500000Y-78500000D02*
X93500000Y-85080761D01*
X94350000Y-95642894D02*
X94350000Y-108850000D01*
%TO.N,CHIGH*%
D16*
X92500000Y-94500000D02*
X91900000Y-95100000D01*
X91900000Y-95100000D02*
X91900000Y-99100000D01*
X91500000Y-89500000D02*
X92500000Y-90500000D01*
X91900000Y-99100000D02*
X91500000Y-99500000D01*
X91500000Y-88000000D02*
X91600000Y-88100000D01*
X92500000Y-90500000D02*
X92500000Y-94500000D01*
X91500000Y-88000000D02*
X91500000Y-89500000D01*
%TO.N,SWDIO*%
X98500000Y-111500000D02*
X94000000Y-116000000D01*
X98500000Y-100500000D02*
X98500000Y-111500000D01*
%TO.N,SWDCLK*%
X95107410Y-108107410D02*
X96600000Y-109600000D01*
X96600000Y-112400000D02*
X95000000Y-114000000D01*
X95107410Y-101500000D02*
X95107410Y-108107410D01*
X96600000Y-109600000D02*
X96600000Y-112400000D01*
%TD*%
%TA.AperFunction,Conductor*%
%TO.N,GND*%
G36*
X111764849Y-65520185D02*
G01*
X111810604Y-65572989D01*
X111820548Y-65642147D01*
X111791523Y-65705703D01*
X111745262Y-65739061D01*
X111620827Y-65790602D01*
X111620814Y-65790609D01*
X111489711Y-65878210D01*
X111489707Y-65878213D01*
X111378213Y-65989707D01*
X111378210Y-65989711D01*
X111290609Y-66120814D01*
X111290602Y-66120827D01*
X111230264Y-66266498D01*
X111230261Y-66266510D01*
X111199500Y-66421153D01*
X111199500Y-66578846D01*
X111230261Y-66733489D01*
X111230264Y-66733501D01*
X111290602Y-66879172D01*
X111290609Y-66879185D01*
X111378210Y-67010288D01*
X111378213Y-67010292D01*
X111489707Y-67121786D01*
X111489711Y-67121789D01*
X111620814Y-67209390D01*
X111620827Y-67209397D01*
X111766498Y-67269735D01*
X111766503Y-67269737D01*
X111921153Y-67300499D01*
X111921156Y-67300500D01*
X111921158Y-67300500D01*
X112078844Y-67300500D01*
X112078845Y-67300499D01*
X112233497Y-67269737D01*
X112379179Y-67209394D01*
X112510289Y-67121789D01*
X112621789Y-67010289D01*
X112709394Y-66879179D01*
X112769737Y-66733497D01*
X112800500Y-66578842D01*
X112800500Y-66421158D01*
X112800500Y-66421155D01*
X112800499Y-66421153D01*
X112769738Y-66266510D01*
X112769737Y-66266503D01*
X112769735Y-66266498D01*
X112709397Y-66120827D01*
X112709390Y-66120814D01*
X112621789Y-65989711D01*
X112621786Y-65989707D01*
X112510292Y-65878213D01*
X112510288Y-65878210D01*
X112379185Y-65790609D01*
X112379172Y-65790602D01*
X112254738Y-65739061D01*
X112200334Y-65695221D01*
X112178269Y-65628926D01*
X112195548Y-65561227D01*
X112246685Y-65513616D01*
X112302190Y-65500500D01*
X130875500Y-65500500D01*
X130942539Y-65520185D01*
X130988294Y-65572989D01*
X130999500Y-65624500D01*
X130999500Y-75499793D01*
X130999500Y-75500207D01*
X130999793Y-75500500D01*
X131875500Y-75500500D01*
X131942539Y-75520185D01*
X131988294Y-75572989D01*
X131999500Y-75624500D01*
X131999500Y-76466225D01*
X131979815Y-76533264D01*
X131927011Y-76579019D01*
X131857853Y-76588963D01*
X131794297Y-76559938D01*
X131772398Y-76535117D01*
X131699461Y-76425961D01*
X131574038Y-76300538D01*
X131574034Y-76300535D01*
X131426553Y-76201990D01*
X131426540Y-76201983D01*
X131262667Y-76134106D01*
X131262658Y-76134103D01*
X131088694Y-76099500D01*
X131088691Y-76099500D01*
X130911309Y-76099500D01*
X130911306Y-76099500D01*
X130737341Y-76134103D01*
X130737332Y-76134106D01*
X130573459Y-76201983D01*
X130573446Y-76201990D01*
X130425965Y-76300535D01*
X130425961Y-76300538D01*
X130337681Y-76388819D01*
X130276358Y-76422304D01*
X130206666Y-76417320D01*
X130162319Y-76388819D01*
X130074038Y-76300538D01*
X130074034Y-76300535D01*
X129926553Y-76201990D01*
X129926540Y-76201983D01*
X129762667Y-76134106D01*
X129762658Y-76134103D01*
X129588694Y-76099500D01*
X129588691Y-76099500D01*
X129411309Y-76099500D01*
X129411306Y-76099500D01*
X129237341Y-76134103D01*
X129237332Y-76134106D01*
X129073459Y-76201983D01*
X129073446Y-76201990D01*
X128925965Y-76300535D01*
X128925961Y-76300538D01*
X128837681Y-76388819D01*
X128776358Y-76422304D01*
X128706666Y-76417320D01*
X128662319Y-76388819D01*
X128574038Y-76300538D01*
X128574034Y-76300535D01*
X128426553Y-76201990D01*
X128426540Y-76201983D01*
X128262667Y-76134106D01*
X128262658Y-76134103D01*
X128088694Y-76099500D01*
X128088691Y-76099500D01*
X127911309Y-76099500D01*
X127911306Y-76099500D01*
X127737341Y-76134103D01*
X127737332Y-76134106D01*
X127573459Y-76201983D01*
X127573446Y-76201990D01*
X127425965Y-76300535D01*
X127425961Y-76300538D01*
X127300538Y-76425961D01*
X127300535Y-76425965D01*
X127201990Y-76573446D01*
X127201983Y-76573459D01*
X127134106Y-76737332D01*
X127134103Y-76737341D01*
X127099500Y-76911304D01*
X127099500Y-77088695D01*
X127134103Y-77262658D01*
X127134106Y-77262667D01*
X127201983Y-77426540D01*
X127201990Y-77426553D01*
X127300535Y-77574034D01*
X127300538Y-77574038D01*
X127388819Y-77662319D01*
X127422304Y-77723642D01*
X127417320Y-77793334D01*
X127388819Y-77837681D01*
X127300538Y-77925961D01*
X127300535Y-77925965D01*
X127201990Y-78073446D01*
X127201983Y-78073459D01*
X127134106Y-78237332D01*
X127134103Y-78237341D01*
X127099500Y-78411304D01*
X127099500Y-78588695D01*
X127134103Y-78762658D01*
X127134106Y-78762667D01*
X127201983Y-78926540D01*
X127201990Y-78926553D01*
X127300535Y-79074034D01*
X127300538Y-79074038D01*
X127388819Y-79162319D01*
X127422304Y-79223642D01*
X127417320Y-79293334D01*
X127388819Y-79337681D01*
X127300538Y-79425961D01*
X127300535Y-79425965D01*
X127201990Y-79573446D01*
X127201983Y-79573459D01*
X127134106Y-79737332D01*
X127134103Y-79737341D01*
X127099500Y-79911304D01*
X127099500Y-80088695D01*
X127134103Y-80262658D01*
X127134106Y-80262667D01*
X127201983Y-80426540D01*
X127201990Y-80426553D01*
X127300535Y-80574034D01*
X127300538Y-80574038D01*
X127388819Y-80662319D01*
X127422304Y-80723642D01*
X127417320Y-80793334D01*
X127388819Y-80837681D01*
X127300538Y-80925961D01*
X127300535Y-80925965D01*
X127201990Y-81073446D01*
X127201983Y-81073459D01*
X127134106Y-81237332D01*
X127134103Y-81237341D01*
X127099500Y-81411304D01*
X127099500Y-81588695D01*
X127134103Y-81762658D01*
X127134106Y-81762667D01*
X127201983Y-81926540D01*
X127201990Y-81926553D01*
X127300535Y-82074034D01*
X127300538Y-82074038D01*
X127425961Y-82199461D01*
X127425965Y-82199464D01*
X127573446Y-82298009D01*
X127573459Y-82298016D01*
X127669221Y-82337681D01*
X127737334Y-82365894D01*
X127737336Y-82365894D01*
X127737341Y-82365896D01*
X127911304Y-82400499D01*
X127911307Y-82400500D01*
X127911309Y-82400500D01*
X128088693Y-82400500D01*
X128088694Y-82400499D01*
X128146682Y-82388964D01*
X128262658Y-82365896D01*
X128262661Y-82365894D01*
X128262666Y-82365894D01*
X128426547Y-82298013D01*
X128574035Y-82199464D01*
X128611180Y-82162319D01*
X128662319Y-82111181D01*
X128723642Y-82077696D01*
X128793334Y-82082680D01*
X128837681Y-82111181D01*
X128925961Y-82199461D01*
X128925965Y-82199464D01*
X129073446Y-82298009D01*
X129073459Y-82298016D01*
X129169221Y-82337681D01*
X129237334Y-82365894D01*
X129237336Y-82365894D01*
X129237341Y-82365896D01*
X129411304Y-82400499D01*
X129411307Y-82400500D01*
X129411309Y-82400500D01*
X129588693Y-82400500D01*
X129588694Y-82400499D01*
X129646682Y-82388964D01*
X129762658Y-82365896D01*
X129762661Y-82365894D01*
X129762666Y-82365894D01*
X129926547Y-82298013D01*
X130074035Y-82199464D01*
X130111180Y-82162319D01*
X130162319Y-82111181D01*
X130223642Y-82077696D01*
X130293334Y-82082680D01*
X130337681Y-82111181D01*
X130425961Y-82199461D01*
X130425965Y-82199464D01*
X130573446Y-82298009D01*
X130573459Y-82298016D01*
X130669221Y-82337681D01*
X130737334Y-82365894D01*
X130737336Y-82365894D01*
X130737341Y-82365896D01*
X130911304Y-82400499D01*
X130911307Y-82400500D01*
X130911309Y-82400500D01*
X131088693Y-82400500D01*
X131088694Y-82400499D01*
X131146682Y-82388964D01*
X131262658Y-82365896D01*
X131262661Y-82365894D01*
X131262666Y-82365894D01*
X131426547Y-82298013D01*
X131574035Y-82199464D01*
X131699464Y-82074035D01*
X131742274Y-82009965D01*
X131772398Y-81964883D01*
X131826010Y-81920078D01*
X131895335Y-81911371D01*
X131958363Y-81941526D01*
X131995082Y-82000969D01*
X131999500Y-82033774D01*
X131999500Y-84375500D01*
X131979815Y-84442539D01*
X131927011Y-84488294D01*
X131875500Y-84499500D01*
X130999792Y-84499500D01*
X130999500Y-84499792D01*
X130999500Y-86980193D01*
X130979815Y-87047232D01*
X130927011Y-87092987D01*
X130899692Y-87101810D01*
X130737340Y-87134104D01*
X130737332Y-87134106D01*
X130573459Y-87201983D01*
X130573446Y-87201990D01*
X130425965Y-87300535D01*
X130425961Y-87300538D01*
X130337681Y-87388819D01*
X130276358Y-87422304D01*
X130206666Y-87417320D01*
X130162319Y-87388819D01*
X130074038Y-87300538D01*
X130074034Y-87300535D01*
X129926553Y-87201990D01*
X129926540Y-87201983D01*
X129762667Y-87134106D01*
X129762658Y-87134103D01*
X129588694Y-87099500D01*
X129588691Y-87099500D01*
X129411309Y-87099500D01*
X129411306Y-87099500D01*
X129237341Y-87134103D01*
X129237332Y-87134106D01*
X129073459Y-87201983D01*
X129073446Y-87201990D01*
X128925965Y-87300535D01*
X128925961Y-87300538D01*
X128837681Y-87388819D01*
X128776358Y-87422304D01*
X128706666Y-87417320D01*
X128662319Y-87388819D01*
X128574038Y-87300538D01*
X128574034Y-87300535D01*
X128426553Y-87201990D01*
X128426540Y-87201983D01*
X128262667Y-87134106D01*
X128262658Y-87134103D01*
X128088694Y-87099500D01*
X128088691Y-87099500D01*
X127911309Y-87099500D01*
X127911306Y-87099500D01*
X127737341Y-87134103D01*
X127737332Y-87134106D01*
X127573459Y-87201983D01*
X127573446Y-87201990D01*
X127425965Y-87300535D01*
X127425961Y-87300538D01*
X127300538Y-87425961D01*
X127300535Y-87425965D01*
X127201990Y-87573446D01*
X127201983Y-87573459D01*
X127134106Y-87737332D01*
X127134103Y-87737341D01*
X127099500Y-87911304D01*
X127099500Y-88088695D01*
X127134103Y-88262658D01*
X127134106Y-88262667D01*
X127201983Y-88426540D01*
X127201990Y-88426553D01*
X127300535Y-88574034D01*
X127300538Y-88574038D01*
X127388819Y-88662319D01*
X127422304Y-88723642D01*
X127417320Y-88793334D01*
X127388819Y-88837681D01*
X127300538Y-88925961D01*
X127300535Y-88925965D01*
X127201990Y-89073446D01*
X127201983Y-89073459D01*
X127134106Y-89237332D01*
X127134103Y-89237341D01*
X127099500Y-89411304D01*
X127099500Y-89588695D01*
X127134103Y-89762658D01*
X127134106Y-89762667D01*
X127201983Y-89926540D01*
X127201990Y-89926553D01*
X127300535Y-90074034D01*
X127300538Y-90074038D01*
X127388819Y-90162319D01*
X127422304Y-90223642D01*
X127417320Y-90293334D01*
X127388819Y-90337681D01*
X127300538Y-90425961D01*
X127300535Y-90425965D01*
X127201990Y-90573446D01*
X127201983Y-90573459D01*
X127134106Y-90737332D01*
X127134103Y-90737341D01*
X127099500Y-90911304D01*
X127099500Y-91088695D01*
X127134103Y-91262658D01*
X127134106Y-91262667D01*
X127201983Y-91426540D01*
X127201990Y-91426553D01*
X127300535Y-91574034D01*
X127300538Y-91574038D01*
X127388819Y-91662319D01*
X127422304Y-91723642D01*
X127417320Y-91793334D01*
X127388819Y-91837681D01*
X127300538Y-91925961D01*
X127300535Y-91925965D01*
X127201990Y-92073446D01*
X127201983Y-92073459D01*
X127134106Y-92237332D01*
X127134103Y-92237341D01*
X127099500Y-92411304D01*
X127099500Y-92588695D01*
X127134103Y-92762658D01*
X127134106Y-92762667D01*
X127201983Y-92926540D01*
X127201990Y-92926553D01*
X127300535Y-93074034D01*
X127300538Y-93074038D01*
X127425961Y-93199461D01*
X127425965Y-93199464D01*
X127573446Y-93298009D01*
X127573459Y-93298016D01*
X127670877Y-93338367D01*
X127737334Y-93365894D01*
X127737336Y-93365894D01*
X127737341Y-93365896D01*
X127911304Y-93400499D01*
X127911307Y-93400500D01*
X127911309Y-93400500D01*
X128088693Y-93400500D01*
X128088694Y-93400499D01*
X128146682Y-93388964D01*
X128262658Y-93365896D01*
X128262661Y-93365894D01*
X128262666Y-93365894D01*
X128426547Y-93298013D01*
X128574035Y-93199464D01*
X128609798Y-93163701D01*
X128662319Y-93111181D01*
X128723642Y-93077696D01*
X128793334Y-93082680D01*
X128837681Y-93111181D01*
X128925961Y-93199461D01*
X128925965Y-93199464D01*
X129073446Y-93298009D01*
X129073459Y-93298016D01*
X129170877Y-93338367D01*
X129237334Y-93365894D01*
X129237336Y-93365894D01*
X129237341Y-93365896D01*
X129411304Y-93400499D01*
X129411307Y-93400500D01*
X129411309Y-93400500D01*
X129588693Y-93400500D01*
X129588694Y-93400499D01*
X129646682Y-93388964D01*
X129762658Y-93365896D01*
X129762661Y-93365894D01*
X129762666Y-93365894D01*
X129926547Y-93298013D01*
X130074035Y-93199464D01*
X130109798Y-93163701D01*
X130162319Y-93111181D01*
X130223642Y-93077696D01*
X130293334Y-93082680D01*
X130337681Y-93111181D01*
X130425961Y-93199461D01*
X130425965Y-93199464D01*
X130573446Y-93298009D01*
X130573459Y-93298016D01*
X130670877Y-93338367D01*
X130737334Y-93365894D01*
X130737336Y-93365894D01*
X130737341Y-93365896D01*
X130911304Y-93400499D01*
X130911307Y-93400500D01*
X130911309Y-93400500D01*
X131088693Y-93400500D01*
X131088694Y-93400499D01*
X131146682Y-93388964D01*
X131262658Y-93365896D01*
X131262661Y-93365894D01*
X131262666Y-93365894D01*
X131426547Y-93298013D01*
X131574035Y-93199464D01*
X131699464Y-93074035D01*
X131742274Y-93009965D01*
X131772398Y-92964883D01*
X131826010Y-92920078D01*
X131895335Y-92911371D01*
X131958363Y-92941526D01*
X131995082Y-93000969D01*
X131999500Y-93033774D01*
X131999500Y-95875500D01*
X131979815Y-95942539D01*
X131927011Y-95988294D01*
X131875500Y-95999500D01*
X130999792Y-95999500D01*
X130999500Y-95999792D01*
X130999500Y-99480193D01*
X130979815Y-99547232D01*
X130927011Y-99592987D01*
X130899692Y-99601810D01*
X130737340Y-99634104D01*
X130737332Y-99634106D01*
X130573459Y-99701983D01*
X130573446Y-99701990D01*
X130425965Y-99800535D01*
X130425961Y-99800538D01*
X130337681Y-99888819D01*
X130276358Y-99922304D01*
X130206666Y-99917320D01*
X130162319Y-99888819D01*
X130074038Y-99800538D01*
X130074034Y-99800535D01*
X129926553Y-99701990D01*
X129926540Y-99701983D01*
X129762667Y-99634106D01*
X129762658Y-99634103D01*
X129588694Y-99599500D01*
X129588691Y-99599500D01*
X129411309Y-99599500D01*
X129411306Y-99599500D01*
X129237341Y-99634103D01*
X129237332Y-99634106D01*
X129073459Y-99701983D01*
X129073446Y-99701990D01*
X128925965Y-99800535D01*
X128925961Y-99800538D01*
X128837681Y-99888819D01*
X128776358Y-99922304D01*
X128706666Y-99917320D01*
X128662319Y-99888819D01*
X128574038Y-99800538D01*
X128574034Y-99800535D01*
X128426553Y-99701990D01*
X128426540Y-99701983D01*
X128262667Y-99634106D01*
X128262658Y-99634103D01*
X128088694Y-99599500D01*
X128088691Y-99599500D01*
X127911309Y-99599500D01*
X127911306Y-99599500D01*
X127737341Y-99634103D01*
X127737332Y-99634106D01*
X127573459Y-99701983D01*
X127573446Y-99701990D01*
X127425965Y-99800535D01*
X127425961Y-99800538D01*
X127300538Y-99925961D01*
X127300535Y-99925965D01*
X127201990Y-100073446D01*
X127201983Y-100073459D01*
X127134106Y-100237332D01*
X127134103Y-100237341D01*
X127099500Y-100411304D01*
X127099500Y-100588695D01*
X127134103Y-100762658D01*
X127134106Y-100762667D01*
X127201983Y-100926540D01*
X127201990Y-100926553D01*
X127300535Y-101074034D01*
X127300538Y-101074038D01*
X127388819Y-101162319D01*
X127422304Y-101223642D01*
X127417320Y-101293334D01*
X127388819Y-101337681D01*
X127300538Y-101425961D01*
X127300535Y-101425965D01*
X127201990Y-101573446D01*
X127201983Y-101573459D01*
X127134106Y-101737332D01*
X127134103Y-101737341D01*
X127099500Y-101911304D01*
X127099500Y-102088695D01*
X127134103Y-102262658D01*
X127134106Y-102262667D01*
X127201983Y-102426540D01*
X127201990Y-102426553D01*
X127300535Y-102574034D01*
X127300538Y-102574038D01*
X127388819Y-102662319D01*
X127422304Y-102723642D01*
X127417320Y-102793334D01*
X127388819Y-102837681D01*
X127300538Y-102925961D01*
X127300535Y-102925965D01*
X127201990Y-103073446D01*
X127201983Y-103073459D01*
X127134106Y-103237332D01*
X127134103Y-103237341D01*
X127099500Y-103411304D01*
X127099500Y-103588695D01*
X127134103Y-103762658D01*
X127134106Y-103762667D01*
X127201983Y-103926540D01*
X127201990Y-103926553D01*
X127300535Y-104074034D01*
X127300538Y-104074038D01*
X127388819Y-104162319D01*
X127422304Y-104223642D01*
X127417320Y-104293334D01*
X127388819Y-104337681D01*
X127300538Y-104425961D01*
X127300535Y-104425965D01*
X127201990Y-104573446D01*
X127201983Y-104573459D01*
X127134106Y-104737332D01*
X127134103Y-104737341D01*
X127099500Y-104911304D01*
X127099500Y-105088695D01*
X127134103Y-105262658D01*
X127134106Y-105262667D01*
X127201983Y-105426540D01*
X127201990Y-105426553D01*
X127300535Y-105574034D01*
X127300538Y-105574038D01*
X127425961Y-105699461D01*
X127425965Y-105699464D01*
X127573446Y-105798009D01*
X127573459Y-105798016D01*
X127669221Y-105837681D01*
X127737334Y-105865894D01*
X127737336Y-105865894D01*
X127737341Y-105865896D01*
X127911304Y-105900499D01*
X127911307Y-105900500D01*
X127911309Y-105900500D01*
X128088693Y-105900500D01*
X128088694Y-105900499D01*
X128146682Y-105888964D01*
X128262658Y-105865896D01*
X128262661Y-105865894D01*
X128262666Y-105865894D01*
X128426547Y-105798013D01*
X128574035Y-105699464D01*
X128611180Y-105662319D01*
X128662319Y-105611181D01*
X128723642Y-105577696D01*
X128793334Y-105582680D01*
X128837681Y-105611181D01*
X128925961Y-105699461D01*
X128925965Y-105699464D01*
X129073446Y-105798009D01*
X129073459Y-105798016D01*
X129169221Y-105837681D01*
X129237334Y-105865894D01*
X129237336Y-105865894D01*
X129237341Y-105865896D01*
X129411304Y-105900499D01*
X129411307Y-105900500D01*
X129411309Y-105900500D01*
X129588693Y-105900500D01*
X129588694Y-105900499D01*
X129646682Y-105888964D01*
X129762658Y-105865896D01*
X129762661Y-105865894D01*
X129762666Y-105865894D01*
X129926547Y-105798013D01*
X130074035Y-105699464D01*
X130111180Y-105662319D01*
X130162319Y-105611181D01*
X130223642Y-105577696D01*
X130293334Y-105582680D01*
X130337681Y-105611181D01*
X130425961Y-105699461D01*
X130425965Y-105699464D01*
X130573446Y-105798009D01*
X130573459Y-105798016D01*
X130669221Y-105837681D01*
X130737334Y-105865894D01*
X130737336Y-105865894D01*
X130737341Y-105865896D01*
X130911304Y-105900499D01*
X130911307Y-105900500D01*
X130911309Y-105900500D01*
X131088693Y-105900500D01*
X131088694Y-105900499D01*
X131146682Y-105888964D01*
X131262658Y-105865896D01*
X131262661Y-105865894D01*
X131262666Y-105865894D01*
X131426547Y-105798013D01*
X131574035Y-105699464D01*
X131699464Y-105574035D01*
X131742274Y-105509965D01*
X131772398Y-105464883D01*
X131826010Y-105420078D01*
X131895335Y-105411371D01*
X131958363Y-105441526D01*
X131995082Y-105500969D01*
X131999500Y-105533774D01*
X131999500Y-108375500D01*
X131979815Y-108442539D01*
X131927011Y-108488294D01*
X131875500Y-108499500D01*
X130999792Y-108499500D01*
X130999500Y-108499792D01*
X130999500Y-116875500D01*
X130979815Y-116942539D01*
X130927011Y-116988294D01*
X130875500Y-116999500D01*
X94302190Y-116999500D01*
X94235151Y-116979815D01*
X94189396Y-116927011D01*
X94179452Y-116857853D01*
X94208477Y-116794297D01*
X94254738Y-116760939D01*
X94379172Y-116709397D01*
X94379172Y-116709396D01*
X94379179Y-116709394D01*
X94510289Y-116621789D01*
X94621789Y-116510289D01*
X94709394Y-116379179D01*
X94769737Y-116233497D01*
X94791958Y-116121786D01*
X94800638Y-116078150D01*
X94833023Y-116016239D01*
X94834519Y-116014715D01*
X95863236Y-114985997D01*
X95924556Y-114952515D01*
X95994248Y-114957499D01*
X96050181Y-114999371D01*
X96074598Y-115064835D01*
X96065476Y-115121132D01*
X96005263Y-115266503D01*
X96005261Y-115266510D01*
X95974500Y-115421153D01*
X95974500Y-115578846D01*
X96005261Y-115733489D01*
X96005264Y-115733501D01*
X96065602Y-115879172D01*
X96065609Y-115879185D01*
X96153210Y-116010288D01*
X96153213Y-116010292D01*
X96264707Y-116121786D01*
X96264711Y-116121789D01*
X96395814Y-116209390D01*
X96395827Y-116209397D01*
X96541498Y-116269735D01*
X96541503Y-116269737D01*
X96696153Y-116300499D01*
X96696156Y-116300500D01*
X96696158Y-116300500D01*
X96853844Y-116300500D01*
X96853845Y-116300499D01*
X97008497Y-116269737D01*
X97154179Y-116209394D01*
X97285289Y-116121789D01*
X97396789Y-116010289D01*
X97484394Y-115879179D01*
X97544737Y-115733497D01*
X97575500Y-115578842D01*
X97575500Y-115421158D01*
X97575500Y-115421155D01*
X97575499Y-115421153D01*
X97549531Y-115290606D01*
X97544737Y-115266503D01*
X97544735Y-115266498D01*
X97484397Y-115120827D01*
X97484390Y-115120814D01*
X97396789Y-114989711D01*
X97396786Y-114989707D01*
X97285292Y-114878213D01*
X97285288Y-114878210D01*
X97154185Y-114790609D01*
X97154172Y-114790602D01*
X97008501Y-114730264D01*
X97008489Y-114730261D01*
X96853845Y-114699500D01*
X96853842Y-114699500D01*
X96696158Y-114699500D01*
X96696155Y-114699500D01*
X96541510Y-114730261D01*
X96541503Y-114730263D01*
X96396132Y-114790476D01*
X96326663Y-114797944D01*
X96264184Y-114766668D01*
X96228532Y-114706579D01*
X96231027Y-114636754D01*
X96260997Y-114588237D01*
X98858506Y-111990727D01*
X98858511Y-111990724D01*
X98868714Y-111980520D01*
X98868716Y-111980520D01*
X98980520Y-111868716D01*
X99039532Y-111766503D01*
X99059577Y-111731785D01*
X99100501Y-111579057D01*
X99100501Y-111420943D01*
X99100501Y-111413348D01*
X99100500Y-111413330D01*
X99100500Y-108319808D01*
X99120185Y-108252769D01*
X99172989Y-108207014D01*
X99242147Y-108197070D01*
X99305703Y-108226095D01*
X99312181Y-108232127D01*
X101585325Y-110505272D01*
X101585326Y-110505273D01*
X101585329Y-110505275D01*
X101585331Y-110505277D01*
X101691873Y-110576465D01*
X101810256Y-110625501D01*
X101810260Y-110625501D01*
X101810261Y-110625502D01*
X101935928Y-110650500D01*
X101935931Y-110650500D01*
X104495065Y-110650500D01*
X104562104Y-110670185D01*
X104563909Y-110671366D01*
X104620821Y-110709394D01*
X104620823Y-110709395D01*
X104620827Y-110709397D01*
X104766498Y-110769735D01*
X104766503Y-110769737D01*
X104921153Y-110800499D01*
X104921156Y-110800500D01*
X104921158Y-110800500D01*
X105078844Y-110800500D01*
X105078845Y-110800499D01*
X105233497Y-110769737D01*
X105379179Y-110709394D01*
X105510289Y-110621789D01*
X105621789Y-110510289D01*
X105709394Y-110379179D01*
X105769737Y-110233497D01*
X105800500Y-110078842D01*
X105800500Y-109921158D01*
X105800500Y-109921155D01*
X105800499Y-109921153D01*
X105769738Y-109766510D01*
X105769737Y-109766503D01*
X105737654Y-109689046D01*
X105709397Y-109620827D01*
X105709390Y-109620814D01*
X105621789Y-109489711D01*
X105621786Y-109489707D01*
X105510292Y-109378213D01*
X105510288Y-109378210D01*
X105379185Y-109290609D01*
X105379172Y-109290602D01*
X105233501Y-109230264D01*
X105233489Y-109230261D01*
X105078845Y-109199500D01*
X105078842Y-109199500D01*
X104921158Y-109199500D01*
X104921155Y-109199500D01*
X104766510Y-109230261D01*
X104766498Y-109230264D01*
X104620827Y-109290602D01*
X104620820Y-109290606D01*
X104591928Y-109309911D01*
X104563955Y-109328602D01*
X104497279Y-109349480D01*
X104495065Y-109349500D01*
X102320808Y-109349500D01*
X102253769Y-109329815D01*
X102233127Y-109313181D01*
X101908347Y-108988401D01*
X101874862Y-108927078D01*
X101879846Y-108857386D01*
X101921718Y-108801453D01*
X101927117Y-108797631D01*
X102074035Y-108699464D01*
X102105720Y-108667779D01*
X102162319Y-108611181D01*
X102223642Y-108577696D01*
X102293334Y-108582680D01*
X102337681Y-108611181D01*
X102425961Y-108699461D01*
X102425965Y-108699464D01*
X102573446Y-108798009D01*
X102573459Y-108798016D01*
X102696363Y-108848923D01*
X102737334Y-108865894D01*
X102737336Y-108865894D01*
X102737341Y-108865896D01*
X102911304Y-108900499D01*
X102911307Y-108900500D01*
X102911309Y-108900500D01*
X103088693Y-108900500D01*
X103088694Y-108900499D01*
X103146682Y-108888964D01*
X103262658Y-108865896D01*
X103262661Y-108865894D01*
X103262666Y-108865894D01*
X103426547Y-108798013D01*
X103574035Y-108699464D01*
X103605720Y-108667779D01*
X103662319Y-108611181D01*
X103723642Y-108577696D01*
X103793334Y-108582680D01*
X103837681Y-108611181D01*
X103925961Y-108699461D01*
X103925965Y-108699464D01*
X104073446Y-108798009D01*
X104073459Y-108798016D01*
X104196363Y-108848923D01*
X104237334Y-108865894D01*
X104237336Y-108865894D01*
X104237341Y-108865896D01*
X104411304Y-108900499D01*
X104411307Y-108900500D01*
X104411309Y-108900500D01*
X104588693Y-108900500D01*
X104588694Y-108900499D01*
X104646682Y-108888964D01*
X104762658Y-108865896D01*
X104762661Y-108865894D01*
X104762666Y-108865894D01*
X104926547Y-108798013D01*
X105074035Y-108699464D01*
X105105720Y-108667779D01*
X105162319Y-108611181D01*
X105223642Y-108577696D01*
X105293334Y-108582680D01*
X105337681Y-108611181D01*
X105425961Y-108699461D01*
X105425965Y-108699464D01*
X105573446Y-108798009D01*
X105573459Y-108798016D01*
X105696363Y-108848923D01*
X105737334Y-108865894D01*
X105737336Y-108865894D01*
X105737341Y-108865896D01*
X105911304Y-108900499D01*
X105911307Y-108900500D01*
X105911309Y-108900500D01*
X106088693Y-108900500D01*
X106088694Y-108900499D01*
X106146682Y-108888964D01*
X106262658Y-108865896D01*
X106262661Y-108865894D01*
X106262666Y-108865894D01*
X106426547Y-108798013D01*
X106574035Y-108699464D01*
X106605720Y-108667779D01*
X106662319Y-108611181D01*
X106723642Y-108577696D01*
X106793334Y-108582680D01*
X106837681Y-108611181D01*
X106925961Y-108699461D01*
X106925965Y-108699464D01*
X107073446Y-108798009D01*
X107073459Y-108798016D01*
X107196363Y-108848923D01*
X107237334Y-108865894D01*
X107237336Y-108865894D01*
X107237341Y-108865896D01*
X107411304Y-108900499D01*
X107411307Y-108900500D01*
X107411309Y-108900500D01*
X107588693Y-108900500D01*
X107588694Y-108900499D01*
X107646682Y-108888964D01*
X107762658Y-108865896D01*
X107762661Y-108865894D01*
X107762666Y-108865894D01*
X107926547Y-108798013D01*
X108074035Y-108699464D01*
X108199464Y-108574035D01*
X108298013Y-108426547D01*
X108300245Y-108421158D01*
X108300247Y-108421153D01*
X110699500Y-108421153D01*
X110699500Y-108578846D01*
X110730261Y-108733489D01*
X110730264Y-108733501D01*
X110790602Y-108879172D01*
X110790609Y-108879185D01*
X110878210Y-109010288D01*
X110878213Y-109010292D01*
X110989707Y-109121786D01*
X110989711Y-109121789D01*
X111120814Y-109209390D01*
X111120827Y-109209397D01*
X111265798Y-109269445D01*
X111266503Y-109269737D01*
X111390738Y-109294449D01*
X111421153Y-109300499D01*
X111421156Y-109300500D01*
X111421158Y-109300500D01*
X111578844Y-109300500D01*
X111578845Y-109300499D01*
X111733497Y-109269737D01*
X111879179Y-109209394D01*
X112010289Y-109121789D01*
X112121789Y-109010289D01*
X112209394Y-108879179D01*
X112269737Y-108733497D01*
X112300500Y-108578842D01*
X112300500Y-108421158D01*
X112300500Y-108421155D01*
X112300499Y-108421153D01*
X112269738Y-108266510D01*
X112269737Y-108266503D01*
X112209794Y-108121786D01*
X112209397Y-108120827D01*
X112209390Y-108120814D01*
X112121789Y-107989711D01*
X112121786Y-107989707D01*
X112010292Y-107878213D01*
X112010288Y-107878210D01*
X111879185Y-107790609D01*
X111879172Y-107790602D01*
X111733501Y-107730264D01*
X111733489Y-107730261D01*
X111578845Y-107699500D01*
X111578842Y-107699500D01*
X111421158Y-107699500D01*
X111421155Y-107699500D01*
X111266510Y-107730261D01*
X111266498Y-107730264D01*
X111120827Y-107790602D01*
X111120814Y-107790609D01*
X110989711Y-107878210D01*
X110989707Y-107878213D01*
X110878213Y-107989707D01*
X110878210Y-107989711D01*
X110790609Y-108120814D01*
X110790602Y-108120827D01*
X110730264Y-108266498D01*
X110730261Y-108266510D01*
X110699500Y-108421153D01*
X108300247Y-108421153D01*
X108322424Y-108367614D01*
X108350223Y-108300499D01*
X108365894Y-108262666D01*
X108373169Y-108226095D01*
X108394110Y-108120814D01*
X108400500Y-108088691D01*
X108400500Y-107911309D01*
X108400500Y-107911306D01*
X108400499Y-107911304D01*
X108365896Y-107737341D01*
X108365893Y-107737332D01*
X108362965Y-107730264D01*
X108346179Y-107689738D01*
X108298016Y-107573459D01*
X108298009Y-107573446D01*
X108242453Y-107490301D01*
X108242449Y-107490297D01*
X108199464Y-107425965D01*
X108194652Y-107421153D01*
X127199500Y-107421153D01*
X127199500Y-107578846D01*
X127230261Y-107733489D01*
X127230264Y-107733501D01*
X127290602Y-107879172D01*
X127290609Y-107879185D01*
X127378210Y-108010288D01*
X127378213Y-108010292D01*
X127489707Y-108121786D01*
X127489711Y-108121789D01*
X127620814Y-108209390D01*
X127620827Y-108209397D01*
X127749432Y-108262666D01*
X127766503Y-108269737D01*
X127921153Y-108300499D01*
X127921156Y-108300500D01*
X127921158Y-108300500D01*
X128078844Y-108300500D01*
X128078845Y-108300499D01*
X128233497Y-108269737D01*
X128379179Y-108209394D01*
X128510289Y-108121789D01*
X128621789Y-108010289D01*
X128709394Y-107879179D01*
X128769737Y-107733497D01*
X128800500Y-107578842D01*
X128800500Y-107421158D01*
X128800500Y-107421155D01*
X128800499Y-107421153D01*
X128777033Y-107303182D01*
X128769737Y-107266503D01*
X128769735Y-107266498D01*
X128709397Y-107120827D01*
X128709390Y-107120814D01*
X128621789Y-106989711D01*
X128621786Y-106989707D01*
X128510292Y-106878213D01*
X128510288Y-106878210D01*
X128379185Y-106790609D01*
X128379172Y-106790602D01*
X128233501Y-106730264D01*
X128233489Y-106730261D01*
X128078845Y-106699500D01*
X128078842Y-106699500D01*
X127921158Y-106699500D01*
X127921155Y-106699500D01*
X127766510Y-106730261D01*
X127766498Y-106730264D01*
X127620827Y-106790602D01*
X127620814Y-106790609D01*
X127489711Y-106878210D01*
X127489707Y-106878213D01*
X127378213Y-106989707D01*
X127378210Y-106989711D01*
X127290609Y-107120814D01*
X127290602Y-107120827D01*
X127230264Y-107266498D01*
X127230261Y-107266510D01*
X127199500Y-107421153D01*
X108194652Y-107421153D01*
X108107966Y-107334467D01*
X108104987Y-107331015D01*
X108092343Y-107303182D01*
X108077696Y-107276358D01*
X108078030Y-107271676D01*
X108076089Y-107267402D01*
X108080499Y-107237156D01*
X108082680Y-107206666D01*
X108085610Y-107202106D01*
X108086171Y-107198263D01*
X108093478Y-107189863D01*
X108111181Y-107162319D01*
X108199461Y-107074038D01*
X108199464Y-107074035D01*
X108298013Y-106926547D01*
X108365894Y-106762666D01*
X108372340Y-106730263D01*
X108400499Y-106588695D01*
X108400500Y-106588693D01*
X108400500Y-106411306D01*
X108400499Y-106411304D01*
X108365896Y-106237341D01*
X108365893Y-106237332D01*
X108362965Y-106230264D01*
X108348923Y-106196363D01*
X108298016Y-106073459D01*
X108298009Y-106073446D01*
X108199464Y-105925965D01*
X108199461Y-105925961D01*
X108111181Y-105837681D01*
X108077696Y-105776358D01*
X108082680Y-105706666D01*
X108111181Y-105662319D01*
X108199461Y-105574038D01*
X108199464Y-105574035D01*
X108298013Y-105426547D01*
X108365894Y-105262666D01*
X108400500Y-105088691D01*
X108400500Y-104911309D01*
X108400500Y-104911306D01*
X108400499Y-104911304D01*
X108365896Y-104737341D01*
X108365893Y-104737332D01*
X108298016Y-104573459D01*
X108298009Y-104573446D01*
X108199464Y-104425965D01*
X108199461Y-104425961D01*
X108111181Y-104337681D01*
X108077696Y-104276358D01*
X108082680Y-104206666D01*
X108111181Y-104162319D01*
X108199461Y-104074038D01*
X108199464Y-104074035D01*
X108298013Y-103926547D01*
X108365894Y-103762666D01*
X108376492Y-103709390D01*
X108400499Y-103588695D01*
X108400500Y-103588693D01*
X108400500Y-103411306D01*
X108400499Y-103411304D01*
X108365896Y-103237341D01*
X108365893Y-103237332D01*
X108298016Y-103073459D01*
X108298009Y-103073446D01*
X108199464Y-102925965D01*
X108199461Y-102925961D01*
X108111181Y-102837681D01*
X108077696Y-102776358D01*
X108082680Y-102706666D01*
X108111181Y-102662319D01*
X108199461Y-102574038D01*
X108199464Y-102574035D01*
X108298013Y-102426547D01*
X108365894Y-102262666D01*
X108372340Y-102230263D01*
X108400499Y-102088695D01*
X108400500Y-102088693D01*
X108400500Y-101911306D01*
X108400499Y-101911304D01*
X108365896Y-101737341D01*
X108365893Y-101737332D01*
X108298016Y-101573459D01*
X108298009Y-101573446D01*
X108199464Y-101425965D01*
X108199461Y-101425961D01*
X108074038Y-101300538D01*
X108074034Y-101300535D01*
X107926553Y-101201990D01*
X107926540Y-101201983D01*
X107762667Y-101134106D01*
X107762658Y-101134103D01*
X107588694Y-101099500D01*
X107588691Y-101099500D01*
X107411309Y-101099500D01*
X107411306Y-101099500D01*
X107237341Y-101134103D01*
X107237332Y-101134106D01*
X107073459Y-101201983D01*
X107073446Y-101201990D01*
X106925965Y-101300535D01*
X106925961Y-101300538D01*
X106837681Y-101388819D01*
X106776358Y-101422304D01*
X106706666Y-101417320D01*
X106662319Y-101388819D01*
X106574038Y-101300538D01*
X106574034Y-101300535D01*
X106426553Y-101201990D01*
X106426540Y-101201983D01*
X106262667Y-101134106D01*
X106262658Y-101134103D01*
X106088694Y-101099500D01*
X106088691Y-101099500D01*
X105911309Y-101099500D01*
X105911306Y-101099500D01*
X105737341Y-101134103D01*
X105737332Y-101134106D01*
X105573459Y-101201983D01*
X105573446Y-101201990D01*
X105425965Y-101300535D01*
X105425961Y-101300538D01*
X105337681Y-101388819D01*
X105276358Y-101422304D01*
X105206666Y-101417320D01*
X105162319Y-101388819D01*
X105074038Y-101300538D01*
X105074034Y-101300535D01*
X104926553Y-101201990D01*
X104926540Y-101201983D01*
X104762667Y-101134106D01*
X104762658Y-101134103D01*
X104588694Y-101099500D01*
X104588691Y-101099500D01*
X104411309Y-101099500D01*
X104411306Y-101099500D01*
X104237341Y-101134103D01*
X104237332Y-101134106D01*
X104073459Y-101201983D01*
X104073446Y-101201990D01*
X103925965Y-101300535D01*
X103925961Y-101300538D01*
X103837681Y-101388819D01*
X103776358Y-101422304D01*
X103706666Y-101417320D01*
X103662319Y-101388819D01*
X103574038Y-101300538D01*
X103574034Y-101300535D01*
X103426553Y-101201990D01*
X103426540Y-101201983D01*
X103262667Y-101134106D01*
X103262658Y-101134103D01*
X103088694Y-101099500D01*
X103088691Y-101099500D01*
X102911309Y-101099500D01*
X102911306Y-101099500D01*
X102737341Y-101134103D01*
X102737332Y-101134106D01*
X102573459Y-101201983D01*
X102573446Y-101201990D01*
X102425965Y-101300535D01*
X102425961Y-101300538D01*
X102337681Y-101388819D01*
X102276358Y-101422304D01*
X102206666Y-101417320D01*
X102162319Y-101388819D01*
X102074038Y-101300538D01*
X102074034Y-101300535D01*
X101926553Y-101201990D01*
X101926540Y-101201983D01*
X101762667Y-101134106D01*
X101762658Y-101134103D01*
X101588694Y-101099500D01*
X101588691Y-101099500D01*
X101411309Y-101099500D01*
X101411306Y-101099500D01*
X101237341Y-101134103D01*
X101237332Y-101134106D01*
X101073459Y-101201983D01*
X101073446Y-101201990D01*
X100925965Y-101300535D01*
X100925961Y-101300538D01*
X100800538Y-101425961D01*
X100800535Y-101425965D01*
X100701990Y-101573446D01*
X100701983Y-101573459D01*
X100634106Y-101737332D01*
X100634103Y-101737341D01*
X100599500Y-101911304D01*
X100599500Y-102088695D01*
X100634103Y-102262658D01*
X100634106Y-102262667D01*
X100701983Y-102426540D01*
X100701990Y-102426553D01*
X100800535Y-102574034D01*
X100800538Y-102574038D01*
X100888819Y-102662319D01*
X100922304Y-102723642D01*
X100917320Y-102793334D01*
X100888819Y-102837681D01*
X100800538Y-102925961D01*
X100800535Y-102925965D01*
X100701990Y-103073446D01*
X100701983Y-103073459D01*
X100634106Y-103237332D01*
X100634103Y-103237341D01*
X100599500Y-103411304D01*
X100599500Y-103588695D01*
X100634103Y-103762658D01*
X100634106Y-103762667D01*
X100701983Y-103926540D01*
X100701990Y-103926553D01*
X100800535Y-104074034D01*
X100800538Y-104074038D01*
X100888819Y-104162319D01*
X100922304Y-104223642D01*
X100917320Y-104293334D01*
X100888819Y-104337681D01*
X100800538Y-104425961D01*
X100800535Y-104425965D01*
X100701990Y-104573446D01*
X100701983Y-104573459D01*
X100634106Y-104737332D01*
X100634103Y-104737341D01*
X100599500Y-104911304D01*
X100599500Y-105088695D01*
X100634103Y-105262658D01*
X100634106Y-105262667D01*
X100701983Y-105426540D01*
X100701990Y-105426553D01*
X100800535Y-105574034D01*
X100800538Y-105574038D01*
X100888819Y-105662319D01*
X100922304Y-105723642D01*
X100917320Y-105793334D01*
X100888819Y-105837681D01*
X100800538Y-105925961D01*
X100800535Y-105925965D01*
X100701990Y-106073446D01*
X100701983Y-106073459D01*
X100634106Y-106237332D01*
X100634103Y-106237341D01*
X100599500Y-106411304D01*
X100599500Y-106588695D01*
X100634103Y-106762658D01*
X100634106Y-106762667D01*
X100701983Y-106926540D01*
X100701990Y-106926553D01*
X100800535Y-107074034D01*
X100800538Y-107074038D01*
X100888819Y-107162319D01*
X100922304Y-107223642D01*
X100917320Y-107293334D01*
X100888819Y-107337681D01*
X100800538Y-107425961D01*
X100800535Y-107425965D01*
X100702381Y-107572862D01*
X100648768Y-107617667D01*
X100579443Y-107626374D01*
X100516416Y-107596219D01*
X100511598Y-107591652D01*
X100186819Y-107266873D01*
X100153334Y-107205550D01*
X100150500Y-107179192D01*
X100150500Y-100911304D01*
X113599500Y-100911304D01*
X113599500Y-101088695D01*
X113634103Y-101262658D01*
X113634106Y-101262667D01*
X113701983Y-101426540D01*
X113701990Y-101426553D01*
X113705037Y-101431113D01*
X113725912Y-101497792D01*
X113707425Y-101565171D01*
X113705037Y-101568887D01*
X113701990Y-101573446D01*
X113701983Y-101573459D01*
X113634106Y-101737332D01*
X113634103Y-101737341D01*
X113599500Y-101911304D01*
X113599500Y-102088695D01*
X113634103Y-102262658D01*
X113634106Y-102262667D01*
X113701983Y-102426540D01*
X113701990Y-102426553D01*
X113705037Y-102431113D01*
X113725912Y-102497792D01*
X113707425Y-102565171D01*
X113705037Y-102568887D01*
X113701990Y-102573446D01*
X113701983Y-102573459D01*
X113634106Y-102737332D01*
X113634103Y-102737341D01*
X113599500Y-102911304D01*
X113599500Y-103088695D01*
X113634103Y-103262658D01*
X113634106Y-103262667D01*
X113701983Y-103426540D01*
X113701990Y-103426553D01*
X113800535Y-103574034D01*
X113800538Y-103574038D01*
X113925961Y-103699461D01*
X113925965Y-103699464D01*
X114073446Y-103798009D01*
X114073459Y-103798016D01*
X114196363Y-103848923D01*
X114237334Y-103865894D01*
X114237336Y-103865894D01*
X114237341Y-103865896D01*
X114411304Y-103900499D01*
X114411307Y-103900500D01*
X114411309Y-103900500D01*
X114588693Y-103900500D01*
X114588694Y-103900499D01*
X114646682Y-103888964D01*
X114762658Y-103865896D01*
X114762661Y-103865894D01*
X114762666Y-103865894D01*
X114926547Y-103798013D01*
X115074035Y-103699464D01*
X115101199Y-103672300D01*
X115162319Y-103611181D01*
X115223642Y-103577696D01*
X115293334Y-103582680D01*
X115337681Y-103611181D01*
X115425961Y-103699461D01*
X115425965Y-103699464D01*
X115573446Y-103798009D01*
X115573459Y-103798016D01*
X115696363Y-103848923D01*
X115737334Y-103865894D01*
X115737336Y-103865894D01*
X115737341Y-103865896D01*
X115911304Y-103900499D01*
X115911307Y-103900500D01*
X115911309Y-103900500D01*
X116088693Y-103900500D01*
X116088694Y-103900499D01*
X116146682Y-103888964D01*
X116262658Y-103865896D01*
X116262661Y-103865894D01*
X116262666Y-103865894D01*
X116426547Y-103798013D01*
X116574035Y-103699464D01*
X116601199Y-103672300D01*
X116662319Y-103611181D01*
X116723642Y-103577696D01*
X116793334Y-103582680D01*
X116837681Y-103611181D01*
X116925961Y-103699461D01*
X116925965Y-103699464D01*
X117073446Y-103798009D01*
X117073459Y-103798016D01*
X117196363Y-103848923D01*
X117237334Y-103865894D01*
X117237336Y-103865894D01*
X117237341Y-103865896D01*
X117411304Y-103900499D01*
X117411307Y-103900500D01*
X117411309Y-103900500D01*
X117588693Y-103900500D01*
X117588694Y-103900499D01*
X117646682Y-103888964D01*
X117762658Y-103865896D01*
X117762661Y-103865894D01*
X117762666Y-103865894D01*
X117926547Y-103798013D01*
X118074035Y-103699464D01*
X118101199Y-103672300D01*
X118162319Y-103611181D01*
X118223642Y-103577696D01*
X118293334Y-103582680D01*
X118337681Y-103611181D01*
X118425961Y-103699461D01*
X118425965Y-103699464D01*
X118573446Y-103798009D01*
X118573459Y-103798016D01*
X118696363Y-103848923D01*
X118737334Y-103865894D01*
X118737336Y-103865894D01*
X118737341Y-103865896D01*
X118911304Y-103900499D01*
X118911307Y-103900500D01*
X118911309Y-103900500D01*
X119088693Y-103900500D01*
X119088694Y-103900499D01*
X119146682Y-103888964D01*
X119262658Y-103865896D01*
X119262661Y-103865894D01*
X119262666Y-103865894D01*
X119426547Y-103798013D01*
X119574035Y-103699464D01*
X119699464Y-103574035D01*
X119798013Y-103426547D01*
X119865894Y-103262666D01*
X119870932Y-103237341D01*
X119900499Y-103088695D01*
X119900500Y-103088693D01*
X119900500Y-102911306D01*
X119900499Y-102911304D01*
X119865896Y-102737341D01*
X119865893Y-102737332D01*
X119798015Y-102573457D01*
X119798014Y-102573455D01*
X119798013Y-102573453D01*
X119794965Y-102568892D01*
X119774086Y-102502217D01*
X119792569Y-102434837D01*
X119794962Y-102431113D01*
X119798013Y-102426547D01*
X119865894Y-102262666D01*
X119872340Y-102230263D01*
X119900499Y-102088695D01*
X119900500Y-102088693D01*
X119900500Y-101911306D01*
X119900499Y-101911304D01*
X119865896Y-101737341D01*
X119865893Y-101737332D01*
X119798015Y-101573457D01*
X119798014Y-101573455D01*
X119798013Y-101573453D01*
X119794965Y-101568892D01*
X119774086Y-101502217D01*
X119792569Y-101434837D01*
X119794962Y-101431113D01*
X119798013Y-101426547D01*
X119865894Y-101262666D01*
X119868414Y-101250000D01*
X119900499Y-101088695D01*
X119900500Y-101088693D01*
X119900500Y-100911306D01*
X119900499Y-100911304D01*
X119865896Y-100737341D01*
X119865893Y-100737332D01*
X119798016Y-100573459D01*
X119798009Y-100573446D01*
X119699464Y-100425965D01*
X119699461Y-100425961D01*
X119574038Y-100300538D01*
X119574034Y-100300535D01*
X119426553Y-100201990D01*
X119426540Y-100201983D01*
X119262667Y-100134106D01*
X119262658Y-100134103D01*
X119088694Y-100099500D01*
X119088691Y-100099500D01*
X118911309Y-100099500D01*
X118911306Y-100099500D01*
X118737341Y-100134103D01*
X118737332Y-100134106D01*
X118573459Y-100201983D01*
X118573446Y-100201990D01*
X118425965Y-100300535D01*
X118425961Y-100300538D01*
X118337681Y-100388819D01*
X118276358Y-100422304D01*
X118206666Y-100417320D01*
X118162319Y-100388819D01*
X118074038Y-100300538D01*
X118074034Y-100300535D01*
X117926553Y-100201990D01*
X117926540Y-100201983D01*
X117762667Y-100134106D01*
X117762658Y-100134103D01*
X117588694Y-100099500D01*
X117588691Y-100099500D01*
X117411309Y-100099500D01*
X117411306Y-100099500D01*
X117237341Y-100134103D01*
X117237332Y-100134106D01*
X117073459Y-100201983D01*
X117073446Y-100201990D01*
X116925965Y-100300535D01*
X116925961Y-100300538D01*
X116837681Y-100388819D01*
X116776358Y-100422304D01*
X116706666Y-100417320D01*
X116662319Y-100388819D01*
X116574038Y-100300538D01*
X116574034Y-100300535D01*
X116426553Y-100201990D01*
X116426540Y-100201983D01*
X116262667Y-100134106D01*
X116262658Y-100134103D01*
X116088694Y-100099500D01*
X116088691Y-100099500D01*
X115911309Y-100099500D01*
X115911306Y-100099500D01*
X115737341Y-100134103D01*
X115737332Y-100134106D01*
X115573459Y-100201983D01*
X115573446Y-100201990D01*
X115425965Y-100300535D01*
X115425961Y-100300538D01*
X115337681Y-100388819D01*
X115276358Y-100422304D01*
X115206666Y-100417320D01*
X115162319Y-100388819D01*
X115074038Y-100300538D01*
X115074034Y-100300535D01*
X114926553Y-100201990D01*
X114926540Y-100201983D01*
X114762667Y-100134106D01*
X114762658Y-100134103D01*
X114588694Y-100099500D01*
X114588691Y-100099500D01*
X114411309Y-100099500D01*
X114411306Y-100099500D01*
X114237341Y-100134103D01*
X114237332Y-100134106D01*
X114073459Y-100201983D01*
X114073446Y-100201990D01*
X113925965Y-100300535D01*
X113925961Y-100300538D01*
X113800538Y-100425961D01*
X113800535Y-100425965D01*
X113701990Y-100573446D01*
X113701983Y-100573459D01*
X113634106Y-100737332D01*
X113634103Y-100737341D01*
X113599500Y-100911304D01*
X100150500Y-100911304D01*
X100150500Y-99728269D01*
X100170185Y-99661230D01*
X100222989Y-99615475D01*
X100292147Y-99605531D01*
X100355703Y-99634556D01*
X100374292Y-99655626D01*
X100374347Y-99655581D01*
X100375609Y-99657119D01*
X100377603Y-99659379D01*
X100378212Y-99660291D01*
X100489707Y-99771786D01*
X100489711Y-99771789D01*
X100620814Y-99859390D01*
X100620827Y-99859397D01*
X100760668Y-99917320D01*
X100766503Y-99919737D01*
X100921153Y-99950499D01*
X100921156Y-99950500D01*
X100921158Y-99950500D01*
X101078844Y-99950500D01*
X101078845Y-99950499D01*
X101233497Y-99919737D01*
X101379179Y-99859394D01*
X101510289Y-99771789D01*
X101510290Y-99771787D01*
X101513856Y-99769405D01*
X101580533Y-99748527D01*
X101647913Y-99767011D01*
X101694604Y-99818990D01*
X101705780Y-99887960D01*
X101704365Y-99896696D01*
X101699500Y-99921156D01*
X101699500Y-100078846D01*
X101730261Y-100233489D01*
X101730264Y-100233501D01*
X101790602Y-100379172D01*
X101790609Y-100379185D01*
X101878210Y-100510288D01*
X101878213Y-100510292D01*
X101989707Y-100621786D01*
X101989711Y-100621789D01*
X102120814Y-100709390D01*
X102120827Y-100709397D01*
X102249432Y-100762666D01*
X102266503Y-100769737D01*
X102371418Y-100790606D01*
X102421153Y-100800499D01*
X102421156Y-100800500D01*
X102421158Y-100800500D01*
X102578844Y-100800500D01*
X102663805Y-100783600D01*
X102663805Y-100783599D01*
X102733497Y-100769737D01*
X102879179Y-100709394D01*
X103010289Y-100621789D01*
X103121789Y-100510289D01*
X103209394Y-100379179D01*
X103269737Y-100233497D01*
X103300500Y-100078842D01*
X103300500Y-99921158D01*
X103300500Y-99921156D01*
X103300500Y-99921155D01*
X103300499Y-99921153D01*
X103285586Y-99846182D01*
X103269737Y-99766503D01*
X103256062Y-99733489D01*
X103209397Y-99620827D01*
X103209390Y-99620814D01*
X103121789Y-99489711D01*
X103121786Y-99489707D01*
X103010292Y-99378213D01*
X103010288Y-99378210D01*
X102879185Y-99290609D01*
X102879172Y-99290602D01*
X102733501Y-99230264D01*
X102733489Y-99230261D01*
X102578845Y-99199500D01*
X102578842Y-99199500D01*
X102421158Y-99199500D01*
X102421155Y-99199500D01*
X102266510Y-99230261D01*
X102266498Y-99230264D01*
X102120827Y-99290602D01*
X102120814Y-99290609D01*
X101986143Y-99380594D01*
X101919465Y-99401472D01*
X101852085Y-99382987D01*
X101805395Y-99331008D01*
X101794219Y-99262038D01*
X101795635Y-99253299D01*
X101800500Y-99228843D01*
X101800500Y-99071155D01*
X101800499Y-99071153D01*
X101788392Y-99010288D01*
X101769737Y-98916503D01*
X101769735Y-98916498D01*
X101709397Y-98770827D01*
X101709390Y-98770814D01*
X101621789Y-98639711D01*
X101621786Y-98639707D01*
X101510289Y-98528210D01*
X101495259Y-98518168D01*
X101379185Y-98440609D01*
X101379172Y-98440602D01*
X101332217Y-98421153D01*
X106699500Y-98421153D01*
X106699500Y-98578846D01*
X106730261Y-98733489D01*
X106730264Y-98733501D01*
X106790602Y-98879172D01*
X106790609Y-98879185D01*
X106878210Y-99010288D01*
X106878213Y-99010292D01*
X106989707Y-99121786D01*
X106989711Y-99121789D01*
X107120814Y-99209390D01*
X107120827Y-99209397D01*
X107247916Y-99262038D01*
X107266503Y-99269737D01*
X107421153Y-99300499D01*
X107421156Y-99300500D01*
X107421158Y-99300500D01*
X107578844Y-99300500D01*
X107578845Y-99300499D01*
X107733497Y-99269737D01*
X107879179Y-99209394D01*
X108010289Y-99121789D01*
X108121789Y-99010289D01*
X108209394Y-98879179D01*
X108269737Y-98733497D01*
X108300500Y-98578842D01*
X108300500Y-98421158D01*
X108300500Y-98421155D01*
X108300499Y-98421153D01*
X108269738Y-98266510D01*
X108269737Y-98266503D01*
X108261308Y-98246153D01*
X108209397Y-98120827D01*
X108209390Y-98120814D01*
X108121789Y-97989711D01*
X108121786Y-97989707D01*
X108010292Y-97878213D01*
X108010288Y-97878210D01*
X107879185Y-97790609D01*
X107879172Y-97790602D01*
X107733501Y-97730264D01*
X107733489Y-97730261D01*
X107578845Y-97699500D01*
X107578842Y-97699500D01*
X107421158Y-97699500D01*
X107421155Y-97699500D01*
X107266510Y-97730261D01*
X107266498Y-97730264D01*
X107120827Y-97790602D01*
X107120814Y-97790609D01*
X106989711Y-97878210D01*
X106989707Y-97878213D01*
X106878213Y-97989707D01*
X106878210Y-97989711D01*
X106790609Y-98120814D01*
X106790602Y-98120827D01*
X106730264Y-98266498D01*
X106730261Y-98266510D01*
X106699500Y-98421153D01*
X101332217Y-98421153D01*
X101233501Y-98380264D01*
X101233489Y-98380261D01*
X101078845Y-98349500D01*
X101078842Y-98349500D01*
X100921158Y-98349500D01*
X100921155Y-98349500D01*
X100766510Y-98380261D01*
X100766498Y-98380264D01*
X100620827Y-98440602D01*
X100620814Y-98440609D01*
X100489711Y-98528210D01*
X100489707Y-98528213D01*
X100378213Y-98639707D01*
X100378206Y-98639716D01*
X100377597Y-98640628D01*
X100377155Y-98640997D01*
X100374347Y-98644419D01*
X100373697Y-98643886D01*
X100323982Y-98685429D01*
X100254656Y-98694132D01*
X100191631Y-98663973D01*
X100154916Y-98604527D01*
X100150500Y-98571730D01*
X100150500Y-93935931D01*
X100147560Y-93921153D01*
X100139496Y-93880613D01*
X100145722Y-93811024D01*
X100188584Y-93755846D01*
X100254474Y-93732600D01*
X100322471Y-93748667D01*
X100348794Y-93768741D01*
X104085326Y-97505273D01*
X104085329Y-97505275D01*
X104085331Y-97505277D01*
X104191873Y-97576465D01*
X104310256Y-97625501D01*
X104310260Y-97625501D01*
X104310261Y-97625502D01*
X104435928Y-97650500D01*
X104435931Y-97650500D01*
X104495065Y-97650500D01*
X104562104Y-97670185D01*
X104563909Y-97671366D01*
X104620821Y-97709394D01*
X104620823Y-97709395D01*
X104620827Y-97709397D01*
X104766498Y-97769735D01*
X104766503Y-97769737D01*
X104921153Y-97800499D01*
X104921156Y-97800500D01*
X104921158Y-97800500D01*
X105078844Y-97800500D01*
X105078845Y-97800499D01*
X105233497Y-97769737D01*
X105379179Y-97709394D01*
X105510289Y-97621789D01*
X105621789Y-97510289D01*
X105709394Y-97379179D01*
X105769737Y-97233497D01*
X105800500Y-97078842D01*
X105800500Y-96921158D01*
X105800500Y-96921155D01*
X105800499Y-96921153D01*
X105769738Y-96766510D01*
X105769737Y-96766503D01*
X105769735Y-96766498D01*
X105709397Y-96620827D01*
X105709390Y-96620814D01*
X105621789Y-96489711D01*
X105621786Y-96489707D01*
X105510292Y-96378213D01*
X105510288Y-96378210D01*
X105379185Y-96290609D01*
X105379172Y-96290602D01*
X105233501Y-96230264D01*
X105233489Y-96230261D01*
X105078845Y-96199500D01*
X105078842Y-96199500D01*
X104921158Y-96199500D01*
X104921155Y-96199500D01*
X104766505Y-96230261D01*
X104766498Y-96230264D01*
X104760810Y-96232620D01*
X104691340Y-96240084D01*
X104628863Y-96208806D01*
X104625683Y-96205737D01*
X100686819Y-92266873D01*
X100653334Y-92205550D01*
X100650500Y-92179192D01*
X100650500Y-91723362D01*
X100670185Y-91656323D01*
X100722989Y-91610568D01*
X100792147Y-91600624D01*
X100855703Y-91629649D01*
X100862181Y-91635681D01*
X100925961Y-91699461D01*
X100925965Y-91699464D01*
X101073446Y-91798009D01*
X101073459Y-91798016D01*
X101169221Y-91837681D01*
X101237334Y-91865894D01*
X101237336Y-91865894D01*
X101237341Y-91865896D01*
X101411304Y-91900499D01*
X101411307Y-91900500D01*
X101411309Y-91900500D01*
X101588693Y-91900500D01*
X101588694Y-91900499D01*
X101646682Y-91888964D01*
X101762658Y-91865896D01*
X101762661Y-91865894D01*
X101762666Y-91865894D01*
X101926547Y-91798013D01*
X102074035Y-91699464D01*
X102117176Y-91656323D01*
X102162319Y-91611181D01*
X102223642Y-91577696D01*
X102293334Y-91582680D01*
X102337681Y-91611181D01*
X102425961Y-91699461D01*
X102425965Y-91699464D01*
X102573446Y-91798009D01*
X102573459Y-91798016D01*
X102669221Y-91837681D01*
X102737334Y-91865894D01*
X102737336Y-91865894D01*
X102737341Y-91865896D01*
X102911304Y-91900499D01*
X102911307Y-91900500D01*
X102911309Y-91900500D01*
X103088693Y-91900500D01*
X103088694Y-91900499D01*
X103146682Y-91888964D01*
X103262658Y-91865896D01*
X103262661Y-91865894D01*
X103262666Y-91865894D01*
X103426547Y-91798013D01*
X103574035Y-91699464D01*
X103617176Y-91656323D01*
X103662319Y-91611181D01*
X103723642Y-91577696D01*
X103793334Y-91582680D01*
X103837681Y-91611181D01*
X103925961Y-91699461D01*
X103925965Y-91699464D01*
X104073446Y-91798009D01*
X104073459Y-91798016D01*
X104169221Y-91837681D01*
X104237334Y-91865894D01*
X104237336Y-91865894D01*
X104237341Y-91865896D01*
X104411304Y-91900499D01*
X104411307Y-91900500D01*
X104411309Y-91900500D01*
X104588693Y-91900500D01*
X104588694Y-91900499D01*
X104646682Y-91888964D01*
X104762658Y-91865896D01*
X104762661Y-91865894D01*
X104762666Y-91865894D01*
X104926547Y-91798013D01*
X105074035Y-91699464D01*
X105117176Y-91656323D01*
X105162319Y-91611181D01*
X105223642Y-91577696D01*
X105293334Y-91582680D01*
X105337681Y-91611181D01*
X105425961Y-91699461D01*
X105425965Y-91699464D01*
X105573446Y-91798009D01*
X105573459Y-91798016D01*
X105669221Y-91837681D01*
X105737334Y-91865894D01*
X105737336Y-91865894D01*
X105737341Y-91865896D01*
X105911304Y-91900499D01*
X105911307Y-91900500D01*
X105911309Y-91900500D01*
X106088693Y-91900500D01*
X106088694Y-91900499D01*
X106146682Y-91888964D01*
X106262658Y-91865896D01*
X106262661Y-91865894D01*
X106262666Y-91865894D01*
X106426547Y-91798013D01*
X106574035Y-91699464D01*
X106617176Y-91656323D01*
X106662319Y-91611181D01*
X106723642Y-91577696D01*
X106793334Y-91582680D01*
X106837681Y-91611181D01*
X106925961Y-91699461D01*
X106925965Y-91699464D01*
X107073446Y-91798009D01*
X107073459Y-91798016D01*
X107169221Y-91837681D01*
X107237334Y-91865894D01*
X107237336Y-91865894D01*
X107237341Y-91865896D01*
X107411304Y-91900499D01*
X107411307Y-91900500D01*
X107411309Y-91900500D01*
X107588693Y-91900500D01*
X107588694Y-91900499D01*
X107646682Y-91888964D01*
X107762658Y-91865896D01*
X107762661Y-91865894D01*
X107762666Y-91865894D01*
X107926547Y-91798013D01*
X108074035Y-91699464D01*
X108199464Y-91574035D01*
X108298013Y-91426547D01*
X108300245Y-91421158D01*
X108300247Y-91421153D01*
X111199500Y-91421153D01*
X111199500Y-91578846D01*
X111230261Y-91733489D01*
X111230264Y-91733501D01*
X111290602Y-91879172D01*
X111290609Y-91879185D01*
X111378210Y-92010288D01*
X111378213Y-92010292D01*
X111489707Y-92121786D01*
X111489711Y-92121789D01*
X111620814Y-92209390D01*
X111620827Y-92209397D01*
X111766498Y-92269735D01*
X111766503Y-92269737D01*
X111921153Y-92300499D01*
X111921156Y-92300500D01*
X111921158Y-92300500D01*
X112078844Y-92300500D01*
X112078845Y-92300499D01*
X112233497Y-92269737D01*
X112379179Y-92209394D01*
X112510289Y-92121789D01*
X112621789Y-92010289D01*
X112709394Y-91879179D01*
X112769737Y-91733497D01*
X112800500Y-91578842D01*
X112800500Y-91421158D01*
X112800500Y-91421155D01*
X112800499Y-91421153D01*
X112798553Y-91411371D01*
X112769737Y-91266503D01*
X112746080Y-91209390D01*
X112709397Y-91120827D01*
X112709390Y-91120814D01*
X112621789Y-90989711D01*
X112621786Y-90989707D01*
X112510292Y-90878213D01*
X112510288Y-90878210D01*
X112379185Y-90790609D01*
X112379172Y-90790602D01*
X112233501Y-90730264D01*
X112233489Y-90730261D01*
X112078845Y-90699500D01*
X112078842Y-90699500D01*
X111921158Y-90699500D01*
X111921155Y-90699500D01*
X111766510Y-90730261D01*
X111766498Y-90730264D01*
X111620827Y-90790602D01*
X111620814Y-90790609D01*
X111489711Y-90878210D01*
X111489707Y-90878213D01*
X111378213Y-90989707D01*
X111378210Y-90989711D01*
X111290609Y-91120814D01*
X111290602Y-91120827D01*
X111230264Y-91266498D01*
X111230261Y-91266510D01*
X111199500Y-91421153D01*
X108300247Y-91421153D01*
X108322424Y-91367614D01*
X108354054Y-91291250D01*
X108365894Y-91262666D01*
X108376492Y-91209390D01*
X108400499Y-91088695D01*
X108400500Y-91088693D01*
X108400500Y-90911306D01*
X108400499Y-90911304D01*
X108365896Y-90737341D01*
X108365893Y-90737332D01*
X108362965Y-90730264D01*
X108304478Y-90589060D01*
X108298016Y-90573459D01*
X108298009Y-90573446D01*
X108199464Y-90425965D01*
X108199461Y-90425961D01*
X108111181Y-90337681D01*
X108077696Y-90276358D01*
X108082680Y-90206666D01*
X108111181Y-90162319D01*
X108199461Y-90074038D01*
X108199464Y-90074035D01*
X108298013Y-89926547D01*
X108365894Y-89762666D01*
X108370932Y-89737341D01*
X108400499Y-89588695D01*
X108400500Y-89588693D01*
X108400500Y-89411306D01*
X108400499Y-89411304D01*
X108365896Y-89237341D01*
X108365893Y-89237332D01*
X108298016Y-89073459D01*
X108298009Y-89073446D01*
X108199464Y-88925965D01*
X108199461Y-88925961D01*
X108111181Y-88837681D01*
X108077696Y-88776358D01*
X108082680Y-88706666D01*
X108111181Y-88662319D01*
X108199461Y-88574038D01*
X108199464Y-88574035D01*
X108298013Y-88426547D01*
X108365894Y-88262666D01*
X108369090Y-88246603D01*
X108400499Y-88088695D01*
X108400500Y-88088693D01*
X108400500Y-87911306D01*
X108400499Y-87911304D01*
X108365896Y-87737341D01*
X108365893Y-87737332D01*
X108298016Y-87573459D01*
X108298009Y-87573446D01*
X108199464Y-87425965D01*
X108199461Y-87425961D01*
X108111181Y-87337681D01*
X108077696Y-87276358D01*
X108082680Y-87206666D01*
X108111181Y-87162319D01*
X108199461Y-87074038D01*
X108199464Y-87074035D01*
X108298013Y-86926547D01*
X108365894Y-86762666D01*
X108368414Y-86750000D01*
X108400499Y-86588695D01*
X108400500Y-86588693D01*
X108400500Y-86411306D01*
X108400499Y-86411304D01*
X108365896Y-86237341D01*
X108365893Y-86237332D01*
X108362965Y-86230264D01*
X108317636Y-86120827D01*
X108298016Y-86073459D01*
X108298009Y-86073446D01*
X108199464Y-85925965D01*
X108199461Y-85925961D01*
X108111181Y-85837681D01*
X108077696Y-85776358D01*
X108082680Y-85706666D01*
X108111181Y-85662319D01*
X108199461Y-85574038D01*
X108199464Y-85574035D01*
X108298013Y-85426547D01*
X108365894Y-85262666D01*
X108368414Y-85250000D01*
X108400499Y-85088695D01*
X108400500Y-85088693D01*
X108400500Y-84911306D01*
X108400499Y-84911304D01*
X108365896Y-84737341D01*
X108365893Y-84737332D01*
X108298016Y-84573459D01*
X108298014Y-84573455D01*
X108298013Y-84573453D01*
X108298009Y-84573447D01*
X108281625Y-84548926D01*
X108260747Y-84482249D01*
X108279231Y-84414869D01*
X108331210Y-84368178D01*
X108400180Y-84357002D01*
X108464244Y-84384887D01*
X108472408Y-84392354D01*
X122794802Y-98714748D01*
X122810223Y-98733538D01*
X122878210Y-98835289D01*
X122989707Y-98946786D01*
X122989711Y-98946789D01*
X123120814Y-99034390D01*
X123120827Y-99034397D01*
X123266498Y-99094735D01*
X123266503Y-99094737D01*
X123402487Y-99121786D01*
X123421153Y-99125499D01*
X123421156Y-99125500D01*
X123421158Y-99125500D01*
X123578844Y-99125500D01*
X123578845Y-99125499D01*
X123733497Y-99094737D01*
X123879179Y-99034394D01*
X124010289Y-98946789D01*
X124121789Y-98835289D01*
X124209394Y-98704179D01*
X124269737Y-98558497D01*
X124300500Y-98403842D01*
X124300500Y-98246158D01*
X124300500Y-98246155D01*
X124300499Y-98246153D01*
X124275570Y-98120827D01*
X124269737Y-98091503D01*
X124227572Y-97989707D01*
X124209397Y-97945827D01*
X124209390Y-97945814D01*
X124121789Y-97814711D01*
X124121786Y-97814707D01*
X124010292Y-97703213D01*
X124010288Y-97703210D01*
X123879185Y-97615609D01*
X123879172Y-97615602D01*
X123733501Y-97555264D01*
X123733489Y-97555261D01*
X123578845Y-97524500D01*
X123578842Y-97524500D01*
X123495808Y-97524500D01*
X123428769Y-97504815D01*
X123408127Y-97488181D01*
X120841099Y-94921153D01*
X127199500Y-94921153D01*
X127199500Y-95078846D01*
X127230261Y-95233489D01*
X127230263Y-95233497D01*
X127235460Y-95246043D01*
X127290602Y-95379172D01*
X127290609Y-95379185D01*
X127378210Y-95510288D01*
X127378213Y-95510292D01*
X127489707Y-95621786D01*
X127489711Y-95621789D01*
X127620814Y-95709390D01*
X127620827Y-95709397D01*
X127766498Y-95769735D01*
X127766503Y-95769737D01*
X127921153Y-95800499D01*
X127921156Y-95800500D01*
X127921158Y-95800500D01*
X128078844Y-95800500D01*
X128078845Y-95800499D01*
X128233497Y-95769737D01*
X128379179Y-95709394D01*
X128510289Y-95621789D01*
X128621789Y-95510289D01*
X128709394Y-95379179D01*
X128712485Y-95371718D01*
X128762182Y-95251736D01*
X128769737Y-95233497D01*
X128800500Y-95078842D01*
X128800500Y-94921158D01*
X128800500Y-94921155D01*
X128800499Y-94921153D01*
X128769738Y-94766510D01*
X128769737Y-94766503D01*
X128737504Y-94688685D01*
X128709397Y-94620827D01*
X128709390Y-94620814D01*
X128621789Y-94489711D01*
X128621786Y-94489707D01*
X128510292Y-94378213D01*
X128510288Y-94378210D01*
X128379185Y-94290609D01*
X128379172Y-94290602D01*
X128233501Y-94230264D01*
X128233489Y-94230261D01*
X128078845Y-94199500D01*
X128078842Y-94199500D01*
X127921158Y-94199500D01*
X127921155Y-94199500D01*
X127766510Y-94230261D01*
X127766498Y-94230264D01*
X127620827Y-94290602D01*
X127620814Y-94290609D01*
X127489711Y-94378210D01*
X127489707Y-94378213D01*
X127378213Y-94489707D01*
X127378210Y-94489711D01*
X127290609Y-94620814D01*
X127290602Y-94620827D01*
X127230264Y-94766498D01*
X127230261Y-94766510D01*
X127199500Y-94921153D01*
X120841099Y-94921153D01*
X113392354Y-87472408D01*
X113358869Y-87411085D01*
X113363853Y-87341393D01*
X113405725Y-87285460D01*
X113471189Y-87261043D01*
X113539462Y-87275895D01*
X113548926Y-87281625D01*
X113573447Y-87298009D01*
X113573453Y-87298013D01*
X113573455Y-87298014D01*
X113573459Y-87298016D01*
X113669221Y-87337681D01*
X113737334Y-87365894D01*
X113737336Y-87365894D01*
X113737341Y-87365896D01*
X113911304Y-87400499D01*
X113911307Y-87400500D01*
X113911309Y-87400500D01*
X114088693Y-87400500D01*
X114088694Y-87400499D01*
X114147415Y-87388819D01*
X114262658Y-87365896D01*
X114262661Y-87365894D01*
X114262666Y-87365894D01*
X114426547Y-87298013D01*
X114574035Y-87199464D01*
X114614437Y-87159062D01*
X114662319Y-87111181D01*
X114723642Y-87077696D01*
X114793334Y-87082680D01*
X114837681Y-87111181D01*
X114925961Y-87199461D01*
X114925965Y-87199464D01*
X115073446Y-87298009D01*
X115073459Y-87298016D01*
X115169221Y-87337681D01*
X115237334Y-87365894D01*
X115237336Y-87365894D01*
X115237341Y-87365896D01*
X115411304Y-87400499D01*
X115411307Y-87400500D01*
X115411309Y-87400500D01*
X115588693Y-87400500D01*
X115588694Y-87400499D01*
X115647415Y-87388819D01*
X115762658Y-87365896D01*
X115762661Y-87365894D01*
X115762666Y-87365894D01*
X115926547Y-87298013D01*
X116074035Y-87199464D01*
X116114437Y-87159062D01*
X116162319Y-87111181D01*
X116223642Y-87077696D01*
X116293334Y-87082680D01*
X116337681Y-87111181D01*
X116425961Y-87199461D01*
X116425965Y-87199464D01*
X116573446Y-87298009D01*
X116573459Y-87298016D01*
X116669221Y-87337681D01*
X116737334Y-87365894D01*
X116737336Y-87365894D01*
X116737341Y-87365896D01*
X116911304Y-87400499D01*
X116911307Y-87400500D01*
X116911309Y-87400500D01*
X117088693Y-87400500D01*
X117088694Y-87400499D01*
X117147415Y-87388819D01*
X117262658Y-87365896D01*
X117262661Y-87365894D01*
X117262666Y-87365894D01*
X117426547Y-87298013D01*
X117574035Y-87199464D01*
X117614437Y-87159062D01*
X117662319Y-87111181D01*
X117723642Y-87077696D01*
X117793334Y-87082680D01*
X117837681Y-87111181D01*
X117925961Y-87199461D01*
X117925965Y-87199464D01*
X118073446Y-87298009D01*
X118073459Y-87298016D01*
X118169221Y-87337681D01*
X118237334Y-87365894D01*
X118237336Y-87365894D01*
X118237341Y-87365896D01*
X118411304Y-87400499D01*
X118411307Y-87400500D01*
X118411309Y-87400500D01*
X118588693Y-87400500D01*
X118588694Y-87400499D01*
X118647415Y-87388819D01*
X118762658Y-87365896D01*
X118762661Y-87365894D01*
X118762666Y-87365894D01*
X118926547Y-87298013D01*
X119074035Y-87199464D01*
X119199464Y-87074035D01*
X119298013Y-86926547D01*
X119365894Y-86762666D01*
X119368414Y-86750000D01*
X119400499Y-86588695D01*
X119400500Y-86588693D01*
X119400500Y-86411306D01*
X119400499Y-86411304D01*
X119365896Y-86237341D01*
X119365893Y-86237332D01*
X119362965Y-86230264D01*
X119317633Y-86120821D01*
X119298015Y-86073457D01*
X119298014Y-86073455D01*
X119298013Y-86073453D01*
X119294965Y-86068892D01*
X119274086Y-86002217D01*
X119292569Y-85934837D01*
X119294962Y-85931113D01*
X119298013Y-85926547D01*
X119365894Y-85762666D01*
X119367131Y-85756450D01*
X119400499Y-85588695D01*
X119400500Y-85588693D01*
X119400500Y-85411306D01*
X119400499Y-85411304D01*
X119365896Y-85237341D01*
X119365893Y-85237333D01*
X119334822Y-85162319D01*
X119298015Y-85073457D01*
X119298014Y-85073455D01*
X119298013Y-85073453D01*
X119294965Y-85068892D01*
X119274086Y-85002217D01*
X119292569Y-84934837D01*
X119294962Y-84931113D01*
X119298013Y-84926547D01*
X119365894Y-84762666D01*
X119370932Y-84737341D01*
X119400499Y-84588695D01*
X119400500Y-84588693D01*
X119400500Y-84411306D01*
X119400499Y-84411304D01*
X119365896Y-84237341D01*
X119365893Y-84237332D01*
X119362965Y-84230264D01*
X119323135Y-84134103D01*
X119298016Y-84073459D01*
X119298009Y-84073446D01*
X119199464Y-83925965D01*
X119199461Y-83925961D01*
X119074038Y-83800538D01*
X119074034Y-83800535D01*
X118926553Y-83701990D01*
X118926540Y-83701983D01*
X118762667Y-83634106D01*
X118762658Y-83634103D01*
X118588694Y-83599500D01*
X118588691Y-83599500D01*
X118411309Y-83599500D01*
X118411306Y-83599500D01*
X118237341Y-83634103D01*
X118237332Y-83634106D01*
X118073459Y-83701983D01*
X118073446Y-83701990D01*
X117925965Y-83800535D01*
X117925961Y-83800538D01*
X117837681Y-83888819D01*
X117776358Y-83922304D01*
X117706666Y-83917320D01*
X117662319Y-83888819D01*
X117574038Y-83800538D01*
X117574034Y-83800535D01*
X117426553Y-83701990D01*
X117426540Y-83701983D01*
X117262667Y-83634106D01*
X117262658Y-83634103D01*
X117088694Y-83599500D01*
X117088691Y-83599500D01*
X116911309Y-83599500D01*
X116911306Y-83599500D01*
X116737341Y-83634103D01*
X116737332Y-83634106D01*
X116573459Y-83701983D01*
X116573446Y-83701990D01*
X116425965Y-83800535D01*
X116425961Y-83800538D01*
X116337681Y-83888819D01*
X116276358Y-83922304D01*
X116206666Y-83917320D01*
X116162319Y-83888819D01*
X116074038Y-83800538D01*
X116074034Y-83800535D01*
X115926553Y-83701990D01*
X115926540Y-83701983D01*
X115762667Y-83634106D01*
X115762658Y-83634103D01*
X115588694Y-83599500D01*
X115588691Y-83599500D01*
X115411309Y-83599500D01*
X115411306Y-83599500D01*
X115237341Y-83634103D01*
X115237332Y-83634106D01*
X115073459Y-83701983D01*
X115073446Y-83701990D01*
X114925965Y-83800535D01*
X114925961Y-83800538D01*
X114837681Y-83888819D01*
X114776358Y-83922304D01*
X114706666Y-83917320D01*
X114662319Y-83888819D01*
X114574038Y-83800538D01*
X114574034Y-83800535D01*
X114426553Y-83701990D01*
X114426540Y-83701983D01*
X114262667Y-83634106D01*
X114262658Y-83634103D01*
X114088694Y-83599500D01*
X114088691Y-83599500D01*
X113911309Y-83599500D01*
X113911306Y-83599500D01*
X113737341Y-83634103D01*
X113737332Y-83634106D01*
X113573459Y-83701983D01*
X113573446Y-83701990D01*
X113425965Y-83800535D01*
X113425961Y-83800538D01*
X113300538Y-83925961D01*
X113300535Y-83925965D01*
X113201990Y-84073446D01*
X113201983Y-84073459D01*
X113134106Y-84237332D01*
X113134103Y-84237341D01*
X113099500Y-84411304D01*
X113099500Y-84588695D01*
X113134103Y-84762658D01*
X113134106Y-84762667D01*
X113201983Y-84926540D01*
X113201990Y-84926553D01*
X113205037Y-84931113D01*
X113225912Y-84997792D01*
X113207425Y-85065171D01*
X113205037Y-85068887D01*
X113201990Y-85073446D01*
X113201983Y-85073459D01*
X113134106Y-85237332D01*
X113134103Y-85237341D01*
X113099500Y-85411304D01*
X113099500Y-85588695D01*
X113134103Y-85762658D01*
X113134106Y-85762667D01*
X113201983Y-85926540D01*
X113201990Y-85926553D01*
X113205037Y-85931113D01*
X113225912Y-85997792D01*
X113207425Y-86065171D01*
X113205037Y-86068887D01*
X113201990Y-86073446D01*
X113201983Y-86073459D01*
X113134106Y-86237332D01*
X113134103Y-86237341D01*
X113099500Y-86411304D01*
X113099500Y-86588695D01*
X113134103Y-86762658D01*
X113134106Y-86762667D01*
X113201983Y-86926540D01*
X113201990Y-86926553D01*
X113218374Y-86951073D01*
X113239252Y-87017751D01*
X113220767Y-87085131D01*
X113168788Y-87131821D01*
X113099818Y-87142997D01*
X113035755Y-87115111D01*
X113027591Y-87107645D01*
X109528990Y-83609044D01*
X109495505Y-83547721D01*
X109500489Y-83478029D01*
X109542361Y-83422096D01*
X109544476Y-83421153D01*
X127199500Y-83421153D01*
X127199500Y-83578846D01*
X127230261Y-83733489D01*
X127230264Y-83733501D01*
X127290602Y-83879172D01*
X127290609Y-83879185D01*
X127378210Y-84010288D01*
X127378213Y-84010292D01*
X127489707Y-84121786D01*
X127489711Y-84121789D01*
X127620814Y-84209390D01*
X127620827Y-84209397D01*
X127766498Y-84269735D01*
X127766503Y-84269737D01*
X127921153Y-84300499D01*
X127921156Y-84300500D01*
X127921158Y-84300500D01*
X128078844Y-84300500D01*
X128078845Y-84300499D01*
X128233497Y-84269737D01*
X128357499Y-84218374D01*
X128379172Y-84209397D01*
X128379172Y-84209396D01*
X128379179Y-84209394D01*
X128510289Y-84121789D01*
X128621789Y-84010289D01*
X128709394Y-83879179D01*
X128769737Y-83733497D01*
X128800500Y-83578842D01*
X128800500Y-83421158D01*
X128800500Y-83421155D01*
X128800499Y-83421153D01*
X128791903Y-83377938D01*
X128769737Y-83266503D01*
X128768144Y-83262658D01*
X128709397Y-83120827D01*
X128709390Y-83120814D01*
X128621789Y-82989711D01*
X128621786Y-82989707D01*
X128510292Y-82878213D01*
X128510288Y-82878210D01*
X128379185Y-82790609D01*
X128379172Y-82790602D01*
X128233501Y-82730264D01*
X128233489Y-82730261D01*
X128078845Y-82699500D01*
X128078842Y-82699500D01*
X127921158Y-82699500D01*
X127921155Y-82699500D01*
X127766510Y-82730261D01*
X127766498Y-82730264D01*
X127620827Y-82790602D01*
X127620814Y-82790609D01*
X127489711Y-82878210D01*
X127489707Y-82878213D01*
X127378213Y-82989707D01*
X127378210Y-82989711D01*
X127290609Y-83120814D01*
X127290602Y-83120827D01*
X127230264Y-83266498D01*
X127230261Y-83266510D01*
X127199500Y-83421153D01*
X109544476Y-83421153D01*
X109592478Y-83399746D01*
X109700750Y-83378210D01*
X109762658Y-83365896D01*
X109762661Y-83365894D01*
X109762666Y-83365894D01*
X109845374Y-83331635D01*
X109920532Y-83300505D01*
X109926540Y-83298016D01*
X109926540Y-83298015D01*
X109926547Y-83298013D01*
X110074035Y-83199464D01*
X110199464Y-83074035D01*
X110298013Y-82926547D01*
X110365894Y-82762666D01*
X110370932Y-82737341D01*
X110400499Y-82588695D01*
X110400500Y-82588693D01*
X110400500Y-82411306D01*
X110400499Y-82411304D01*
X110365896Y-82237341D01*
X110365893Y-82237332D01*
X110298016Y-82073459D01*
X110298009Y-82073446D01*
X110199464Y-81925965D01*
X110199461Y-81925961D01*
X110074038Y-81800538D01*
X110074034Y-81800535D01*
X109926553Y-81701990D01*
X109926540Y-81701983D01*
X109762667Y-81634106D01*
X109762658Y-81634103D01*
X109588694Y-81599500D01*
X109588691Y-81599500D01*
X109411309Y-81599500D01*
X109411306Y-81599500D01*
X109237341Y-81634103D01*
X109237332Y-81634106D01*
X109073459Y-81701983D01*
X109073446Y-81701990D01*
X108925965Y-81800535D01*
X108925961Y-81800538D01*
X108800538Y-81925961D01*
X108800535Y-81925965D01*
X108701990Y-82073446D01*
X108701983Y-82073459D01*
X108634106Y-82237332D01*
X108634104Y-82237340D01*
X108600253Y-82407519D01*
X108567868Y-82469430D01*
X108507152Y-82504004D01*
X108437383Y-82500264D01*
X108390955Y-82471008D01*
X107764673Y-81844726D01*
X107764669Y-81844723D01*
X107658127Y-81773535D01*
X107631889Y-81762667D01*
X107539744Y-81724499D01*
X107539738Y-81724497D01*
X107414071Y-81699500D01*
X107414069Y-81699500D01*
X107154935Y-81699500D01*
X107087896Y-81679815D01*
X107086090Y-81678633D01*
X107029179Y-81640606D01*
X107029172Y-81640602D01*
X106883501Y-81580264D01*
X106883489Y-81580261D01*
X106728845Y-81549500D01*
X106728842Y-81549500D01*
X106571158Y-81549500D01*
X106571155Y-81549500D01*
X106416510Y-81580261D01*
X106416498Y-81580264D01*
X106270827Y-81640602D01*
X106270814Y-81640609D01*
X106139711Y-81728210D01*
X106139707Y-81728213D01*
X106028213Y-81839707D01*
X106028210Y-81839711D01*
X105940609Y-81970814D01*
X105940602Y-81970827D01*
X105880264Y-82116498D01*
X105880261Y-82116510D01*
X105849500Y-82271153D01*
X105849500Y-82428846D01*
X105880261Y-82583489D01*
X105880264Y-82583501D01*
X105940602Y-82729172D01*
X105940609Y-82729185D01*
X106028210Y-82860288D01*
X106028213Y-82860292D01*
X106139707Y-82971786D01*
X106139711Y-82971789D01*
X106270814Y-83059390D01*
X106270827Y-83059397D01*
X106341560Y-83088695D01*
X106416503Y-83119737D01*
X106571153Y-83150499D01*
X106571156Y-83150500D01*
X106571158Y-83150500D01*
X106728844Y-83150500D01*
X106728845Y-83150499D01*
X106883497Y-83119737D01*
X107029179Y-83059394D01*
X107029183Y-83059390D01*
X107030603Y-83058803D01*
X107100072Y-83051334D01*
X107162552Y-83082609D01*
X107165737Y-83085683D01*
X108107645Y-84027591D01*
X108141130Y-84088914D01*
X108136146Y-84158606D01*
X108094274Y-84214539D01*
X108028810Y-84238956D01*
X107960537Y-84224104D01*
X107951073Y-84218374D01*
X107926553Y-84201990D01*
X107926540Y-84201983D01*
X107762667Y-84134106D01*
X107762658Y-84134103D01*
X107588694Y-84099500D01*
X107588691Y-84099500D01*
X107411309Y-84099500D01*
X107411306Y-84099500D01*
X107237341Y-84134103D01*
X107237332Y-84134106D01*
X107073459Y-84201983D01*
X107073446Y-84201990D01*
X106925965Y-84300535D01*
X106925961Y-84300538D01*
X106837681Y-84388819D01*
X106776358Y-84422304D01*
X106706666Y-84417320D01*
X106662319Y-84388819D01*
X106574038Y-84300538D01*
X106574034Y-84300535D01*
X106426553Y-84201990D01*
X106426540Y-84201983D01*
X106262667Y-84134106D01*
X106262658Y-84134103D01*
X106088694Y-84099500D01*
X106088691Y-84099500D01*
X105911309Y-84099500D01*
X105911306Y-84099500D01*
X105737341Y-84134103D01*
X105737332Y-84134106D01*
X105573459Y-84201983D01*
X105573446Y-84201990D01*
X105425965Y-84300535D01*
X105425961Y-84300538D01*
X105337681Y-84388819D01*
X105276358Y-84422304D01*
X105206666Y-84417320D01*
X105162319Y-84388819D01*
X105074038Y-84300538D01*
X105074034Y-84300535D01*
X104926553Y-84201990D01*
X104926540Y-84201983D01*
X104762667Y-84134106D01*
X104762658Y-84134103D01*
X104588694Y-84099500D01*
X104588691Y-84099500D01*
X104411309Y-84099500D01*
X104411306Y-84099500D01*
X104237341Y-84134103D01*
X104237332Y-84134106D01*
X104073459Y-84201983D01*
X104073446Y-84201990D01*
X103925965Y-84300535D01*
X103925961Y-84300538D01*
X103837681Y-84388819D01*
X103776358Y-84422304D01*
X103706666Y-84417320D01*
X103662319Y-84388819D01*
X103574038Y-84300538D01*
X103574034Y-84300535D01*
X103426553Y-84201990D01*
X103426540Y-84201983D01*
X103262667Y-84134106D01*
X103262655Y-84134103D01*
X103247299Y-84131048D01*
X103185390Y-84098661D01*
X103150818Y-84037944D01*
X103154560Y-83968175D01*
X103168390Y-83940545D01*
X103209394Y-83879179D01*
X103269737Y-83733497D01*
X103300500Y-83578842D01*
X103300500Y-83421158D01*
X103300500Y-83421155D01*
X103300499Y-83421153D01*
X103291903Y-83377938D01*
X103269737Y-83266503D01*
X103268144Y-83262658D01*
X103209397Y-83120827D01*
X103209390Y-83120814D01*
X103121789Y-82989711D01*
X103121786Y-82989707D01*
X103010292Y-82878213D01*
X103010288Y-82878210D01*
X102879185Y-82790609D01*
X102879172Y-82790602D01*
X102733501Y-82730264D01*
X102733489Y-82730261D01*
X102578845Y-82699500D01*
X102578842Y-82699500D01*
X102421158Y-82699500D01*
X102421155Y-82699500D01*
X102266510Y-82730261D01*
X102266498Y-82730264D01*
X102120827Y-82790602D01*
X102120814Y-82790609D01*
X101989711Y-82878210D01*
X101989707Y-82878213D01*
X101878213Y-82989707D01*
X101878210Y-82989711D01*
X101790609Y-83120814D01*
X101790602Y-83120827D01*
X101730264Y-83266498D01*
X101730261Y-83266510D01*
X101699500Y-83421153D01*
X101699500Y-83578846D01*
X101730261Y-83733489D01*
X101730264Y-83733501D01*
X101790602Y-83879172D01*
X101790609Y-83879184D01*
X101825017Y-83930679D01*
X101845895Y-83997356D01*
X101827411Y-84064736D01*
X101775432Y-84111427D01*
X101706462Y-84122603D01*
X101697724Y-84121187D01*
X101588695Y-84099500D01*
X101588691Y-84099500D01*
X101411309Y-84099500D01*
X101411306Y-84099500D01*
X101237341Y-84134103D01*
X101237332Y-84134106D01*
X101073459Y-84201983D01*
X101073446Y-84201990D01*
X100925965Y-84300535D01*
X100837778Y-84388722D01*
X100776454Y-84422206D01*
X100706763Y-84417222D01*
X100650829Y-84375350D01*
X100628480Y-84325232D01*
X100625501Y-84310256D01*
X100576465Y-84191873D01*
X100560640Y-84168189D01*
X100560640Y-84168188D01*
X100505278Y-84085332D01*
X100505272Y-84085325D01*
X98613693Y-82193747D01*
X98580208Y-82132424D01*
X98585192Y-82062732D01*
X98613694Y-82018383D01*
X98621789Y-82010289D01*
X98709394Y-81879179D01*
X98769737Y-81733497D01*
X98800500Y-81578842D01*
X98800500Y-81421158D01*
X98800500Y-81421155D01*
X98800499Y-81421153D01*
X98769738Y-81266510D01*
X98769737Y-81266503D01*
X98757654Y-81237332D01*
X98709397Y-81120827D01*
X98709390Y-81120814D01*
X98621789Y-80989711D01*
X98621786Y-80989707D01*
X98510292Y-80878213D01*
X98510288Y-80878210D01*
X98379185Y-80790609D01*
X98379172Y-80790602D01*
X98233501Y-80730264D01*
X98233489Y-80730261D01*
X98078845Y-80699500D01*
X98078842Y-80699500D01*
X97921158Y-80699500D01*
X97921155Y-80699500D01*
X97766510Y-80730261D01*
X97766498Y-80730264D01*
X97620827Y-80790602D01*
X97620814Y-80790609D01*
X97489711Y-80878210D01*
X97489710Y-80878210D01*
X97481611Y-80886310D01*
X97420286Y-80919792D01*
X97350595Y-80914805D01*
X97306252Y-80886306D01*
X95817015Y-79397069D01*
X95783530Y-79335746D01*
X95783093Y-79333652D01*
X95769737Y-79266503D01*
X95709724Y-79121617D01*
X95709397Y-79120827D01*
X95709390Y-79120814D01*
X95621789Y-78989711D01*
X95621786Y-78989707D01*
X95618796Y-78986717D01*
X95609216Y-78969173D01*
X95595593Y-78954541D01*
X95592812Y-78939132D01*
X95585311Y-78925394D01*
X95586736Y-78905456D01*
X95583187Y-78885781D01*
X95590073Y-78858802D01*
X95590295Y-78855702D01*
X95591895Y-78851636D01*
X95609917Y-78808127D01*
X95625501Y-78770505D01*
X95627062Y-78762658D01*
X95650500Y-78644832D01*
X95650500Y-78004935D01*
X95655018Y-77988704D01*
X95654587Y-77973360D01*
X95666900Y-77946026D01*
X95668340Y-77940856D01*
X95669810Y-77938419D01*
X95681347Y-77921153D01*
X105199500Y-77921153D01*
X105199500Y-78078846D01*
X105230261Y-78233489D01*
X105230264Y-78233501D01*
X105290602Y-78379172D01*
X105290609Y-78379185D01*
X105378210Y-78510288D01*
X105378213Y-78510292D01*
X105489707Y-78621786D01*
X105489711Y-78621789D01*
X105620814Y-78709390D01*
X105620827Y-78709397D01*
X105749432Y-78762666D01*
X105766503Y-78769737D01*
X105908635Y-78798009D01*
X105921153Y-78800499D01*
X105921156Y-78800500D01*
X105921158Y-78800500D01*
X106078844Y-78800500D01*
X106078845Y-78800499D01*
X106233497Y-78769737D01*
X106379179Y-78709394D01*
X106510289Y-78621789D01*
X106621789Y-78510289D01*
X106709394Y-78379179D01*
X106769737Y-78233497D01*
X106800500Y-78078842D01*
X106800500Y-77921158D01*
X106800500Y-77921155D01*
X106800499Y-77921153D01*
X106783079Y-77833579D01*
X106769737Y-77766503D01*
X106726583Y-77662319D01*
X106709397Y-77620827D01*
X106709390Y-77620814D01*
X106621789Y-77489711D01*
X106621786Y-77489707D01*
X106510292Y-77378213D01*
X106510288Y-77378210D01*
X106379185Y-77290609D01*
X106379172Y-77290602D01*
X106233501Y-77230264D01*
X106233489Y-77230261D01*
X106078845Y-77199500D01*
X106078842Y-77199500D01*
X105921158Y-77199500D01*
X105921155Y-77199500D01*
X105766510Y-77230261D01*
X105766498Y-77230264D01*
X105620827Y-77290602D01*
X105620814Y-77290609D01*
X105489711Y-77378210D01*
X105489707Y-77378213D01*
X105378213Y-77489707D01*
X105378210Y-77489711D01*
X105290609Y-77620814D01*
X105290602Y-77620827D01*
X105230264Y-77766498D01*
X105230261Y-77766510D01*
X105199500Y-77921153D01*
X95681347Y-77921153D01*
X95709394Y-77879179D01*
X95769737Y-77733497D01*
X95800500Y-77578842D01*
X95800500Y-77421158D01*
X95800500Y-77421155D01*
X95800499Y-77421153D01*
X95783895Y-77337681D01*
X95769737Y-77266503D01*
X95762002Y-77247828D01*
X95709397Y-77120827D01*
X95709390Y-77120814D01*
X95621789Y-76989711D01*
X95621786Y-76989707D01*
X95510292Y-76878213D01*
X95510288Y-76878210D01*
X95379185Y-76790609D01*
X95379172Y-76790602D01*
X95233501Y-76730264D01*
X95233489Y-76730261D01*
X95078845Y-76699500D01*
X95078842Y-76699500D01*
X94921158Y-76699500D01*
X94921155Y-76699500D01*
X94766510Y-76730261D01*
X94766498Y-76730264D01*
X94620827Y-76790602D01*
X94620814Y-76790609D01*
X94489711Y-76878210D01*
X94489707Y-76878213D01*
X94378213Y-76989707D01*
X94378210Y-76989711D01*
X94290609Y-77120814D01*
X94290603Y-77120826D01*
X94283319Y-77138411D01*
X94239477Y-77192814D01*
X94173182Y-77214877D01*
X94144568Y-77212573D01*
X94078846Y-77199500D01*
X94078842Y-77199500D01*
X93921158Y-77199500D01*
X93921155Y-77199500D01*
X93766510Y-77230261D01*
X93766498Y-77230264D01*
X93620827Y-77290602D01*
X93620814Y-77290609D01*
X93489711Y-77378210D01*
X93489707Y-77378213D01*
X93378213Y-77489707D01*
X93378210Y-77489711D01*
X93290609Y-77620814D01*
X93290602Y-77620827D01*
X93230264Y-77766498D01*
X93230261Y-77766508D01*
X93216920Y-77833579D01*
X93184535Y-77895490D01*
X93182985Y-77897068D01*
X92994722Y-78085332D01*
X92940760Y-78166093D01*
X92923535Y-78191871D01*
X92874499Y-78310255D01*
X92874497Y-78310261D01*
X92849500Y-78435928D01*
X92849500Y-80954952D01*
X92829815Y-81021991D01*
X92777011Y-81067746D01*
X92707853Y-81077690D01*
X92701309Y-81076569D01*
X92565074Y-81049470D01*
X92565071Y-81049470D01*
X92407387Y-81049470D01*
X92407384Y-81049470D01*
X92252739Y-81080231D01*
X92252727Y-81080234D01*
X92107056Y-81140572D01*
X92107043Y-81140579D01*
X91975940Y-81228180D01*
X91975936Y-81228183D01*
X91864442Y-81339677D01*
X91864439Y-81339681D01*
X91776838Y-81470784D01*
X91776831Y-81470797D01*
X91716493Y-81616468D01*
X91716490Y-81616480D01*
X91685729Y-81771123D01*
X91685729Y-81928816D01*
X91716490Y-82083459D01*
X91716493Y-82083471D01*
X91776831Y-82229142D01*
X91776838Y-82229155D01*
X91864439Y-82360258D01*
X91864442Y-82360262D01*
X91975936Y-82471756D01*
X91975940Y-82471759D01*
X92107043Y-82559360D01*
X92107056Y-82559367D01*
X92222088Y-82607014D01*
X92252732Y-82619707D01*
X92407382Y-82650469D01*
X92407385Y-82650470D01*
X92407387Y-82650470D01*
X92565072Y-82650470D01*
X92599303Y-82643660D01*
X92701310Y-82623370D01*
X92770899Y-82629597D01*
X92826077Y-82672459D01*
X92849322Y-82738349D01*
X92849500Y-82744987D01*
X92849500Y-85144830D01*
X92867901Y-85237334D01*
X92872938Y-85262658D01*
X92874499Y-85270505D01*
X92907776Y-85350844D01*
X92923535Y-85388888D01*
X92990550Y-85489184D01*
X92994726Y-85495434D01*
X92994727Y-85495435D01*
X93463181Y-85963888D01*
X93496666Y-86025211D01*
X93499500Y-86051569D01*
X93499500Y-86475500D01*
X93479815Y-86542539D01*
X93427011Y-86588294D01*
X93375500Y-86599500D01*
X93261306Y-86599500D01*
X93087341Y-86634103D01*
X93087332Y-86634106D01*
X92923459Y-86701983D01*
X92923446Y-86701990D01*
X92775965Y-86800535D01*
X92775961Y-86800538D01*
X92650538Y-86925961D01*
X92650535Y-86925965D01*
X92551990Y-87073446D01*
X92551983Y-87073459D01*
X92539061Y-87104658D01*
X92495220Y-87159062D01*
X92428926Y-87181127D01*
X92361227Y-87163848D01*
X92313616Y-87112711D01*
X92300500Y-87057206D01*
X92300500Y-86921155D01*
X92300499Y-86921153D01*
X92283895Y-86837681D01*
X92269737Y-86766503D01*
X92241969Y-86699464D01*
X92209397Y-86620827D01*
X92209390Y-86620814D01*
X92121789Y-86489711D01*
X92121786Y-86489707D01*
X92010292Y-86378213D01*
X92010288Y-86378210D01*
X91879185Y-86290609D01*
X91879172Y-86290602D01*
X91733501Y-86230264D01*
X91733489Y-86230261D01*
X91578845Y-86199500D01*
X91578842Y-86199500D01*
X91421158Y-86199500D01*
X91421155Y-86199500D01*
X91266510Y-86230261D01*
X91266498Y-86230264D01*
X91120827Y-86290602D01*
X91120814Y-86290609D01*
X90989125Y-86378602D01*
X90922447Y-86399480D01*
X90920234Y-86399500D01*
X89586670Y-86399500D01*
X89586654Y-86399499D01*
X89579058Y-86399499D01*
X89420943Y-86399499D01*
X89268216Y-86440423D01*
X89268214Y-86440424D01*
X89260366Y-86442527D01*
X89259739Y-86440190D01*
X89202472Y-86446342D01*
X89139996Y-86415061D01*
X89104349Y-86354969D01*
X89100500Y-86324314D01*
X89100500Y-76572413D01*
X89099587Y-76569004D01*
X89090010Y-76533264D01*
X89059577Y-76419686D01*
X89030149Y-76368716D01*
X88980520Y-76282755D01*
X88868716Y-76170951D01*
X88868715Y-76170950D01*
X88864385Y-76166620D01*
X88864374Y-76166610D01*
X87736119Y-75038355D01*
X87736117Y-75038352D01*
X87617246Y-74919481D01*
X87617245Y-74919480D01*
X87530433Y-74869360D01*
X87530433Y-74869359D01*
X87530429Y-74869358D01*
X87480314Y-74840423D01*
X87327586Y-74799499D01*
X87169472Y-74799499D01*
X87161876Y-74799499D01*
X87161860Y-74799500D01*
X84679057Y-74799500D01*
X84520943Y-74799500D01*
X84368215Y-74840423D01*
X84368214Y-74840423D01*
X84368212Y-74840424D01*
X84368209Y-74840425D01*
X84318096Y-74869359D01*
X84318095Y-74869360D01*
X84274689Y-74894420D01*
X84231285Y-74919479D01*
X84231282Y-74919481D01*
X84119480Y-75031283D01*
X84119480Y-75031284D01*
X84119478Y-75031286D01*
X84044849Y-75105915D01*
X83985337Y-75165427D01*
X83924014Y-75198911D01*
X83921848Y-75199362D01*
X83766508Y-75230261D01*
X83766498Y-75230264D01*
X83620827Y-75290602D01*
X83620814Y-75290609D01*
X83489711Y-75378210D01*
X83489707Y-75378213D01*
X83378213Y-75489707D01*
X83378210Y-75489711D01*
X83290609Y-75620814D01*
X83290602Y-75620827D01*
X83230264Y-75766498D01*
X83230261Y-75766510D01*
X83199500Y-75921153D01*
X83199500Y-76078846D01*
X83230261Y-76233489D01*
X83230264Y-76233501D01*
X83290602Y-76379172D01*
X83290609Y-76379185D01*
X83378210Y-76510288D01*
X83378213Y-76510292D01*
X83489707Y-76621786D01*
X83489711Y-76621789D01*
X83620814Y-76709390D01*
X83620827Y-76709397D01*
X83766498Y-76769735D01*
X83766503Y-76769737D01*
X83921153Y-76800499D01*
X83921156Y-76800500D01*
X83921158Y-76800500D01*
X84078844Y-76800500D01*
X84078845Y-76800499D01*
X84233497Y-76769737D01*
X84379179Y-76709394D01*
X84510289Y-76621789D01*
X84621789Y-76510289D01*
X84709394Y-76379179D01*
X84769737Y-76233497D01*
X84776006Y-76201983D01*
X84796231Y-76100308D01*
X84828616Y-76038397D01*
X84889332Y-76003823D01*
X84917848Y-76000500D01*
X85850902Y-76000500D01*
X85917941Y-76020185D01*
X85963696Y-76072989D01*
X85973640Y-76142147D01*
X85944615Y-76205703D01*
X85938583Y-76212181D01*
X85519481Y-76631282D01*
X85519479Y-76631285D01*
X85474385Y-76709392D01*
X85474384Y-76709393D01*
X85440423Y-76768214D01*
X85440423Y-76768215D01*
X85399499Y-76920943D01*
X85399499Y-76920945D01*
X85399499Y-77089046D01*
X85399500Y-77089059D01*
X85399500Y-89920234D01*
X85379815Y-89987273D01*
X85378602Y-89989125D01*
X85290609Y-90120814D01*
X85290602Y-90120827D01*
X85230264Y-90266498D01*
X85230261Y-90266510D01*
X85199500Y-90421153D01*
X85199500Y-90578846D01*
X85230261Y-90733489D01*
X85230264Y-90733501D01*
X85290602Y-90879172D01*
X85290609Y-90879185D01*
X85378210Y-91010288D01*
X85378213Y-91010292D01*
X85489707Y-91121786D01*
X85489711Y-91121789D01*
X85620814Y-91209390D01*
X85620827Y-91209397D01*
X85749432Y-91262666D01*
X85766503Y-91269737D01*
X85921153Y-91300499D01*
X85921156Y-91300500D01*
X85921158Y-91300500D01*
X86078844Y-91300500D01*
X86078845Y-91300499D01*
X86233497Y-91269737D01*
X86379179Y-91209394D01*
X86510289Y-91121789D01*
X86621789Y-91010289D01*
X86709394Y-90879179D01*
X86769737Y-90733497D01*
X86800500Y-90578842D01*
X86800500Y-90421158D01*
X86800500Y-90421155D01*
X86800499Y-90421153D01*
X86800457Y-90420943D01*
X86769737Y-90266503D01*
X86726583Y-90162319D01*
X86709397Y-90120827D01*
X86709390Y-90120814D01*
X86621398Y-89989125D01*
X86600520Y-89922447D01*
X86600500Y-89920234D01*
X86600500Y-81989770D01*
X86620185Y-81922731D01*
X86672989Y-81876976D01*
X86742147Y-81867032D01*
X86748682Y-81868151D01*
X86793047Y-81876976D01*
X86911306Y-81900500D01*
X86911309Y-81900500D01*
X87088693Y-81900500D01*
X87088694Y-81900499D01*
X87146682Y-81888964D01*
X87262658Y-81865896D01*
X87262661Y-81865894D01*
X87262666Y-81865894D01*
X87426547Y-81798013D01*
X87574035Y-81699464D01*
X87608983Y-81664516D01*
X87687819Y-81585681D01*
X87749142Y-81552196D01*
X87818834Y-81557180D01*
X87874767Y-81599052D01*
X87899184Y-81664516D01*
X87899500Y-81673362D01*
X87899500Y-89920234D01*
X87879815Y-89987273D01*
X87878602Y-89989125D01*
X87790609Y-90120814D01*
X87790602Y-90120827D01*
X87730264Y-90266498D01*
X87730261Y-90266510D01*
X87699500Y-90421153D01*
X87699500Y-90578846D01*
X87730261Y-90733489D01*
X87730264Y-90733501D01*
X87790602Y-90879172D01*
X87790609Y-90879185D01*
X87878210Y-91010288D01*
X87878213Y-91010292D01*
X87989707Y-91121786D01*
X87989711Y-91121789D01*
X88120814Y-91209390D01*
X88120827Y-91209397D01*
X88249432Y-91262666D01*
X88266503Y-91269737D01*
X88421153Y-91300499D01*
X88421156Y-91300500D01*
X88475500Y-91300500D01*
X88542539Y-91320185D01*
X88588294Y-91372989D01*
X88599500Y-91424500D01*
X88599500Y-91578846D01*
X88630261Y-91733489D01*
X88630264Y-91733501D01*
X88690602Y-91879172D01*
X88690606Y-91879179D01*
X88728602Y-91936044D01*
X88749480Y-92002721D01*
X88749500Y-92004935D01*
X88749500Y-102318059D01*
X88729815Y-102385098D01*
X88677011Y-102430853D01*
X88607853Y-102440797D01*
X88544297Y-102411772D01*
X88537819Y-102405740D01*
X88510292Y-102378213D01*
X88510288Y-102378210D01*
X88379185Y-102290609D01*
X88379172Y-102290602D01*
X88233501Y-102230264D01*
X88233489Y-102230261D01*
X88078845Y-102199500D01*
X88078842Y-102199500D01*
X87921158Y-102199500D01*
X87921155Y-102199500D01*
X87766510Y-102230261D01*
X87766498Y-102230264D01*
X87620827Y-102290602D01*
X87620814Y-102290609D01*
X87568891Y-102325304D01*
X87502214Y-102346182D01*
X87434833Y-102327698D01*
X87431109Y-102325304D01*
X87379185Y-102290609D01*
X87379172Y-102290602D01*
X87233501Y-102230264D01*
X87233489Y-102230261D01*
X87078845Y-102199500D01*
X87078842Y-102199500D01*
X86921158Y-102199500D01*
X86921155Y-102199500D01*
X86766510Y-102230261D01*
X86766498Y-102230264D01*
X86620827Y-102290602D01*
X86620814Y-102290609D01*
X86568891Y-102325304D01*
X86502214Y-102346182D01*
X86434833Y-102327698D01*
X86431109Y-102325304D01*
X86379185Y-102290609D01*
X86379172Y-102290602D01*
X86233501Y-102230264D01*
X86233489Y-102230261D01*
X86078845Y-102199500D01*
X86078842Y-102199500D01*
X85921158Y-102199500D01*
X85921155Y-102199500D01*
X85766510Y-102230261D01*
X85766498Y-102230264D01*
X85620827Y-102290602D01*
X85620814Y-102290609D01*
X85489711Y-102378210D01*
X85489707Y-102378213D01*
X85378213Y-102489707D01*
X85378210Y-102489711D01*
X85290609Y-102620814D01*
X85290602Y-102620827D01*
X85230264Y-102766498D01*
X85230261Y-102766510D01*
X85199500Y-102921153D01*
X85199500Y-103078846D01*
X85230261Y-103233489D01*
X85230264Y-103233501D01*
X85290602Y-103379172D01*
X85290609Y-103379185D01*
X85325304Y-103431109D01*
X85346182Y-103497786D01*
X85327698Y-103565167D01*
X85325304Y-103568891D01*
X85290609Y-103620814D01*
X85290602Y-103620827D01*
X85230264Y-103766498D01*
X85230261Y-103766510D01*
X85199500Y-103921153D01*
X85199500Y-104078846D01*
X85230261Y-104233489D01*
X85230264Y-104233501D01*
X85290602Y-104379172D01*
X85290609Y-104379185D01*
X85378210Y-104510288D01*
X85378213Y-104510292D01*
X85489707Y-104621786D01*
X85489711Y-104621789D01*
X85620814Y-104709390D01*
X85620827Y-104709397D01*
X85766498Y-104769735D01*
X85766503Y-104769737D01*
X85921153Y-104800499D01*
X85921156Y-104800500D01*
X85921158Y-104800500D01*
X86078844Y-104800500D01*
X86078845Y-104800499D01*
X86233497Y-104769737D01*
X86379179Y-104709394D01*
X86431110Y-104674694D01*
X86497785Y-104653816D01*
X86565165Y-104672300D01*
X86568863Y-104674676D01*
X86620821Y-104709394D01*
X86620823Y-104709395D01*
X86620825Y-104709396D01*
X86766498Y-104769735D01*
X86766503Y-104769737D01*
X86921153Y-104800499D01*
X86921156Y-104800500D01*
X86921158Y-104800500D01*
X87078844Y-104800500D01*
X87078845Y-104800499D01*
X87233497Y-104769737D01*
X87379179Y-104709394D01*
X87431110Y-104674694D01*
X87497785Y-104653816D01*
X87565165Y-104672300D01*
X87568863Y-104674676D01*
X87620821Y-104709394D01*
X87620823Y-104709395D01*
X87620825Y-104709396D01*
X87766498Y-104769735D01*
X87766503Y-104769737D01*
X87921153Y-104800499D01*
X87921156Y-104800500D01*
X87921158Y-104800500D01*
X88078844Y-104800500D01*
X88078845Y-104800499D01*
X88233497Y-104769737D01*
X88379179Y-104709394D01*
X88510289Y-104621789D01*
X88510292Y-104621786D01*
X88537819Y-104594260D01*
X88599142Y-104560775D01*
X88668834Y-104565759D01*
X88724767Y-104607631D01*
X88749184Y-104673095D01*
X88749500Y-104681941D01*
X88749500Y-104964069D01*
X88749500Y-104964071D01*
X88749499Y-104964071D01*
X88770371Y-105068993D01*
X88770371Y-105068994D01*
X88774497Y-105089737D01*
X88774498Y-105089742D01*
X88774499Y-105089744D01*
X88823535Y-105208127D01*
X88859977Y-105262667D01*
X88894726Y-105314673D01*
X88894727Y-105314674D01*
X94682984Y-111102930D01*
X94716469Y-111164253D01*
X94716920Y-111166420D01*
X94730261Y-111233489D01*
X94730264Y-111233501D01*
X94790602Y-111379172D01*
X94790609Y-111379185D01*
X94878210Y-111510288D01*
X94878213Y-111510292D01*
X94989707Y-111621786D01*
X94989711Y-111621789D01*
X95120817Y-111709392D01*
X95120819Y-111709393D01*
X95120821Y-111709394D01*
X95138409Y-111716679D01*
X95192812Y-111760520D01*
X95214877Y-111826814D01*
X95212573Y-111855431D01*
X95199500Y-111921153D01*
X95199500Y-112078846D01*
X95230261Y-112233489D01*
X95230264Y-112233501D01*
X95290602Y-112379172D01*
X95290609Y-112379185D01*
X95378210Y-112510288D01*
X95378213Y-112510292D01*
X95421661Y-112553740D01*
X95455146Y-112615063D01*
X95450162Y-112684755D01*
X95421661Y-112729102D01*
X94985339Y-113165425D01*
X94924016Y-113198910D01*
X94921850Y-113199361D01*
X94766508Y-113230261D01*
X94766498Y-113230264D01*
X94620827Y-113290602D01*
X94620814Y-113290609D01*
X94489711Y-113378210D01*
X94489707Y-113378213D01*
X94378213Y-113489707D01*
X94378210Y-113489711D01*
X94290609Y-113620814D01*
X94290602Y-113620827D01*
X94230264Y-113766498D01*
X94230261Y-113766510D01*
X94199500Y-113921153D01*
X94199500Y-114078846D01*
X94230261Y-114233489D01*
X94230264Y-114233501D01*
X94290602Y-114379172D01*
X94290609Y-114379185D01*
X94378210Y-114510288D01*
X94378213Y-114510292D01*
X94421661Y-114553740D01*
X94455146Y-114615063D01*
X94450162Y-114684755D01*
X94421661Y-114729102D01*
X93985339Y-115165425D01*
X93924016Y-115198910D01*
X93921850Y-115199361D01*
X93766508Y-115230261D01*
X93766498Y-115230264D01*
X93620827Y-115290602D01*
X93620814Y-115290609D01*
X93489711Y-115378210D01*
X93489707Y-115378213D01*
X93378213Y-115489707D01*
X93378210Y-115489711D01*
X93290609Y-115620814D01*
X93290602Y-115620827D01*
X93230264Y-115766498D01*
X93230261Y-115766510D01*
X93199500Y-115921153D01*
X93199500Y-116078846D01*
X93230261Y-116233489D01*
X93230264Y-116233501D01*
X93290602Y-116379172D01*
X93290609Y-116379185D01*
X93378210Y-116510288D01*
X93378213Y-116510292D01*
X93489707Y-116621786D01*
X93489711Y-116621789D01*
X93620814Y-116709390D01*
X93620827Y-116709397D01*
X93745262Y-116760939D01*
X93799666Y-116804779D01*
X93821731Y-116871074D01*
X93804452Y-116938773D01*
X93753315Y-116986384D01*
X93697810Y-116999500D01*
X59624500Y-116999500D01*
X59557461Y-116979815D01*
X59511706Y-116927011D01*
X59500500Y-116875500D01*
X59500500Y-106921153D01*
X73699500Y-106921153D01*
X73699500Y-107078846D01*
X73730261Y-107233489D01*
X73730264Y-107233501D01*
X73790602Y-107379172D01*
X73790609Y-107379185D01*
X73878210Y-107510288D01*
X73878213Y-107510292D01*
X73989707Y-107621786D01*
X73989711Y-107621789D01*
X74120814Y-107709390D01*
X74120827Y-107709397D01*
X74266498Y-107769735D01*
X74266503Y-107769737D01*
X74421153Y-107800499D01*
X74421156Y-107800500D01*
X74421158Y-107800500D01*
X74578844Y-107800500D01*
X74578845Y-107800499D01*
X74733497Y-107769737D01*
X74879179Y-107709394D01*
X75010289Y-107621789D01*
X75121789Y-107510289D01*
X75135145Y-107490301D01*
X75146898Y-107472712D01*
X75200510Y-107427906D01*
X75269835Y-107419199D01*
X75332862Y-107449353D01*
X75353102Y-107472712D01*
X75378207Y-107510284D01*
X75378213Y-107510292D01*
X75489707Y-107621786D01*
X75489711Y-107621789D01*
X75620814Y-107709390D01*
X75620827Y-107709397D01*
X75766498Y-107769735D01*
X75766503Y-107769737D01*
X75921153Y-107800499D01*
X75921156Y-107800500D01*
X75921158Y-107800500D01*
X76078844Y-107800500D01*
X76078845Y-107800499D01*
X76233497Y-107769737D01*
X76379179Y-107709394D01*
X76510289Y-107621789D01*
X76621789Y-107510289D01*
X76635145Y-107490301D01*
X76646898Y-107472712D01*
X76700510Y-107427906D01*
X76769835Y-107419199D01*
X76832862Y-107449353D01*
X76853102Y-107472712D01*
X76878207Y-107510284D01*
X76878213Y-107510292D01*
X76989707Y-107621786D01*
X76989711Y-107621789D01*
X77120814Y-107709390D01*
X77120827Y-107709397D01*
X77191558Y-107738694D01*
X77266503Y-107769737D01*
X77333581Y-107783079D01*
X77395490Y-107815463D01*
X77397070Y-107817015D01*
X78813181Y-109233126D01*
X78846666Y-109294449D01*
X78849500Y-109320807D01*
X78849500Y-113064069D01*
X78849500Y-113064071D01*
X78849499Y-113064071D01*
X78874497Y-113189738D01*
X78874499Y-113189744D01*
X78916277Y-113290606D01*
X78923535Y-113308127D01*
X78994723Y-113414669D01*
X78994726Y-113414673D01*
X78994727Y-113414674D01*
X79682984Y-114102930D01*
X79716469Y-114164253D01*
X79716920Y-114166420D01*
X79730261Y-114233489D01*
X79730264Y-114233501D01*
X79790602Y-114379172D01*
X79790609Y-114379185D01*
X79878210Y-114510288D01*
X79878213Y-114510292D01*
X79989707Y-114621786D01*
X79989711Y-114621789D01*
X80120814Y-114709390D01*
X80120827Y-114709397D01*
X80266498Y-114769735D01*
X80266503Y-114769737D01*
X80408308Y-114797944D01*
X80421153Y-114800499D01*
X80421156Y-114800500D01*
X80421158Y-114800500D01*
X80578844Y-114800500D01*
X80578845Y-114800499D01*
X80733497Y-114769737D01*
X80879179Y-114709394D01*
X81010289Y-114621789D01*
X81121789Y-114510289D01*
X81209394Y-114379179D01*
X81269737Y-114233497D01*
X81300500Y-114078842D01*
X81300500Y-113921158D01*
X81300500Y-113921155D01*
X81300499Y-113921153D01*
X81269738Y-113766510D01*
X81269737Y-113766503D01*
X81269735Y-113766498D01*
X81209397Y-113620827D01*
X81209390Y-113620814D01*
X81121789Y-113489711D01*
X81121786Y-113489707D01*
X81010292Y-113378213D01*
X81010288Y-113378210D01*
X80879185Y-113290609D01*
X80879172Y-113290602D01*
X80733501Y-113230264D01*
X80733489Y-113230261D01*
X80666420Y-113216920D01*
X80604509Y-113184535D01*
X80602930Y-113182984D01*
X80186819Y-112766873D01*
X80153334Y-112705550D01*
X80150500Y-112679192D01*
X80150500Y-108935928D01*
X80125502Y-108810261D01*
X80125501Y-108810260D01*
X80125501Y-108810256D01*
X80076465Y-108691873D01*
X80076464Y-108691872D01*
X80076461Y-108691866D01*
X80005277Y-108585332D01*
X79973683Y-108553738D01*
X79914669Y-108494724D01*
X78317015Y-106897070D01*
X78283530Y-106835747D01*
X78283095Y-106833660D01*
X78269737Y-106766503D01*
X78241968Y-106699461D01*
X78209397Y-106620827D01*
X78209390Y-106620814D01*
X78121789Y-106489711D01*
X78121786Y-106489707D01*
X78010292Y-106378213D01*
X78010288Y-106378210D01*
X77879185Y-106290609D01*
X77879172Y-106290602D01*
X77733501Y-106230264D01*
X77733489Y-106230261D01*
X77578845Y-106199500D01*
X77578842Y-106199500D01*
X77421158Y-106199500D01*
X77421155Y-106199500D01*
X77266510Y-106230261D01*
X77266498Y-106230264D01*
X77120827Y-106290602D01*
X77120814Y-106290609D01*
X76989711Y-106378210D01*
X76989707Y-106378213D01*
X76878213Y-106489707D01*
X76853102Y-106527289D01*
X76799489Y-106572093D01*
X76730164Y-106580800D01*
X76667137Y-106550645D01*
X76646898Y-106527289D01*
X76621786Y-106489707D01*
X76510292Y-106378213D01*
X76510288Y-106378210D01*
X76379185Y-106290609D01*
X76379172Y-106290602D01*
X76233501Y-106230264D01*
X76233489Y-106230261D01*
X76078845Y-106199500D01*
X76078842Y-106199500D01*
X75921158Y-106199500D01*
X75921155Y-106199500D01*
X75766510Y-106230261D01*
X75766498Y-106230264D01*
X75620827Y-106290602D01*
X75620814Y-106290609D01*
X75489711Y-106378210D01*
X75489707Y-106378213D01*
X75378213Y-106489707D01*
X75353102Y-106527289D01*
X75299489Y-106572093D01*
X75230164Y-106580800D01*
X75167137Y-106550645D01*
X75146898Y-106527289D01*
X75121786Y-106489707D01*
X75010292Y-106378213D01*
X75010288Y-106378210D01*
X74879185Y-106290609D01*
X74879172Y-106290602D01*
X74733501Y-106230264D01*
X74733489Y-106230261D01*
X74578845Y-106199500D01*
X74578842Y-106199500D01*
X74421158Y-106199500D01*
X74421155Y-106199500D01*
X74266510Y-106230261D01*
X74266498Y-106230264D01*
X74120827Y-106290602D01*
X74120814Y-106290609D01*
X73989711Y-106378210D01*
X73989707Y-106378213D01*
X73878213Y-106489707D01*
X73878210Y-106489711D01*
X73790609Y-106620814D01*
X73790602Y-106620827D01*
X73730264Y-106766498D01*
X73730261Y-106766510D01*
X73699500Y-106921153D01*
X59500500Y-106921153D01*
X59500500Y-105911304D01*
X81599500Y-105911304D01*
X81599500Y-106088695D01*
X81634103Y-106262658D01*
X81634106Y-106262667D01*
X81701983Y-106426540D01*
X81701990Y-106426553D01*
X81800535Y-106574034D01*
X81800538Y-106574038D01*
X81925961Y-106699461D01*
X81925965Y-106699464D01*
X82073446Y-106798009D01*
X82073459Y-106798016D01*
X82164552Y-106835747D01*
X82237334Y-106865894D01*
X82237336Y-106865894D01*
X82237341Y-106865896D01*
X82411304Y-106900499D01*
X82411307Y-106900500D01*
X82411309Y-106900500D01*
X82588693Y-106900500D01*
X82588694Y-106900499D01*
X82646682Y-106888964D01*
X82762658Y-106865896D01*
X82762661Y-106865894D01*
X82762666Y-106865894D01*
X82926547Y-106798013D01*
X83074035Y-106699464D01*
X83199464Y-106574035D01*
X83298013Y-106426547D01*
X83365894Y-106262666D01*
X83370932Y-106237341D01*
X83400499Y-106088695D01*
X83400500Y-106088693D01*
X83400500Y-105911306D01*
X83400499Y-105911304D01*
X83365896Y-105737341D01*
X83365893Y-105737332D01*
X83298016Y-105573459D01*
X83298009Y-105573446D01*
X83199464Y-105425965D01*
X83199461Y-105425961D01*
X83074038Y-105300538D01*
X83074034Y-105300535D01*
X82926553Y-105201990D01*
X82926540Y-105201983D01*
X82762667Y-105134106D01*
X82762658Y-105134103D01*
X82588694Y-105099500D01*
X82588691Y-105099500D01*
X82411309Y-105099500D01*
X82411306Y-105099500D01*
X82237341Y-105134103D01*
X82237332Y-105134106D01*
X82073459Y-105201983D01*
X82073446Y-105201990D01*
X81925965Y-105300535D01*
X81925961Y-105300538D01*
X81800538Y-105425961D01*
X81800535Y-105425965D01*
X81701990Y-105573446D01*
X81701983Y-105573459D01*
X81634106Y-105737332D01*
X81634103Y-105737341D01*
X81599500Y-105911304D01*
X59500500Y-105911304D01*
X59500500Y-103999793D01*
X59500207Y-103999500D01*
X58124500Y-103999500D01*
X58057461Y-103979815D01*
X58011706Y-103927011D01*
X58000500Y-103875500D01*
X58000500Y-102921153D01*
X79699500Y-102921153D01*
X79699500Y-103078846D01*
X79730261Y-103233489D01*
X79730264Y-103233501D01*
X79790602Y-103379172D01*
X79790609Y-103379185D01*
X79878210Y-103510288D01*
X79878213Y-103510292D01*
X79989707Y-103621786D01*
X79989711Y-103621789D01*
X80120814Y-103709390D01*
X80120827Y-103709397D01*
X80249432Y-103762666D01*
X80266503Y-103769737D01*
X80408635Y-103798009D01*
X80421153Y-103800499D01*
X80421156Y-103800500D01*
X80421158Y-103800500D01*
X80578844Y-103800500D01*
X80578845Y-103800499D01*
X80733497Y-103769737D01*
X80879179Y-103709394D01*
X80931110Y-103674694D01*
X80997785Y-103653816D01*
X81065165Y-103672300D01*
X81068863Y-103674676D01*
X81120821Y-103709394D01*
X81120823Y-103709395D01*
X81120825Y-103709396D01*
X81249432Y-103762666D01*
X81266503Y-103769737D01*
X81408635Y-103798009D01*
X81421153Y-103800499D01*
X81421156Y-103800500D01*
X81421158Y-103800500D01*
X81578844Y-103800500D01*
X81578845Y-103800499D01*
X81733497Y-103769737D01*
X81879179Y-103709394D01*
X82010289Y-103621789D01*
X82121789Y-103510289D01*
X82209394Y-103379179D01*
X82269737Y-103233497D01*
X82300500Y-103078842D01*
X82300500Y-102921158D01*
X82300500Y-102921155D01*
X82300499Y-102921153D01*
X82283895Y-102837681D01*
X82269737Y-102766503D01*
X82226583Y-102662319D01*
X82209397Y-102620827D01*
X82209390Y-102620814D01*
X82121789Y-102489711D01*
X82121786Y-102489707D01*
X82010292Y-102378213D01*
X82010288Y-102378210D01*
X81879185Y-102290609D01*
X81879172Y-102290602D01*
X81733501Y-102230264D01*
X81733489Y-102230261D01*
X81578845Y-102199500D01*
X81578842Y-102199500D01*
X81421158Y-102199500D01*
X81421155Y-102199500D01*
X81266510Y-102230261D01*
X81266498Y-102230264D01*
X81120827Y-102290602D01*
X81120814Y-102290609D01*
X81068891Y-102325304D01*
X81002214Y-102346182D01*
X80934833Y-102327698D01*
X80931109Y-102325304D01*
X80879185Y-102290609D01*
X80879172Y-102290602D01*
X80733501Y-102230264D01*
X80733489Y-102230261D01*
X80578845Y-102199500D01*
X80578842Y-102199500D01*
X80421158Y-102199500D01*
X80421155Y-102199500D01*
X80266510Y-102230261D01*
X80266498Y-102230264D01*
X80120827Y-102290602D01*
X80120814Y-102290609D01*
X79989711Y-102378210D01*
X79989707Y-102378213D01*
X79878213Y-102489707D01*
X79878210Y-102489711D01*
X79790609Y-102620814D01*
X79790602Y-102620827D01*
X79730264Y-102766498D01*
X79730261Y-102766510D01*
X79699500Y-102921153D01*
X58000500Y-102921153D01*
X58000500Y-100421153D01*
X67699500Y-100421153D01*
X67699500Y-100578846D01*
X67730261Y-100733489D01*
X67730264Y-100733501D01*
X67790602Y-100879172D01*
X67790609Y-100879185D01*
X67878210Y-101010288D01*
X67878213Y-101010292D01*
X67989707Y-101121786D01*
X67989711Y-101121789D01*
X68120814Y-101209390D01*
X68120827Y-101209397D01*
X68208230Y-101245599D01*
X68266503Y-101269737D01*
X68333580Y-101283079D01*
X68395488Y-101315461D01*
X68397068Y-101317014D01*
X69085325Y-102005272D01*
X69085332Y-102005278D01*
X69191863Y-102076459D01*
X69191867Y-102076461D01*
X69191874Y-102076466D01*
X69247484Y-102099500D01*
X69310256Y-102125501D01*
X69310260Y-102125501D01*
X69310261Y-102125502D01*
X69435928Y-102150500D01*
X69435931Y-102150500D01*
X75564071Y-102150500D01*
X75648615Y-102133682D01*
X75689744Y-102125501D01*
X75808127Y-102076465D01*
X75817416Y-102070257D01*
X75819315Y-102068990D01*
X75875306Y-102031578D01*
X75914669Y-102005277D01*
X77498790Y-100421153D01*
X79699500Y-100421153D01*
X79699500Y-100578846D01*
X79730261Y-100733489D01*
X79730264Y-100733501D01*
X79790602Y-100879172D01*
X79790609Y-100879185D01*
X79878210Y-101010288D01*
X79878213Y-101010292D01*
X79989707Y-101121786D01*
X79989711Y-101121789D01*
X80120814Y-101209390D01*
X80120827Y-101209397D01*
X80249432Y-101262666D01*
X80266503Y-101269737D01*
X80421153Y-101300499D01*
X80421156Y-101300500D01*
X80421158Y-101300500D01*
X80578844Y-101300500D01*
X80578845Y-101300499D01*
X80733497Y-101269737D01*
X80879179Y-101209394D01*
X80931110Y-101174694D01*
X80997785Y-101153816D01*
X81065165Y-101172300D01*
X81068863Y-101174676D01*
X81120821Y-101209394D01*
X81120823Y-101209395D01*
X81120825Y-101209396D01*
X81249432Y-101262666D01*
X81266503Y-101269737D01*
X81421153Y-101300499D01*
X81421156Y-101300500D01*
X81421158Y-101300500D01*
X81578844Y-101300500D01*
X81578845Y-101300499D01*
X81733497Y-101269737D01*
X81879179Y-101209394D01*
X82010289Y-101121789D01*
X82121789Y-101010289D01*
X82209394Y-100879179D01*
X82269737Y-100733497D01*
X82300500Y-100578842D01*
X82300500Y-100421158D01*
X82300500Y-100421155D01*
X82300499Y-100421153D01*
X82276507Y-100300538D01*
X82269737Y-100266503D01*
X82209794Y-100121786D01*
X82209397Y-100120827D01*
X82209390Y-100120814D01*
X82121789Y-99989711D01*
X82121786Y-99989707D01*
X82010292Y-99878213D01*
X82010288Y-99878210D01*
X81879185Y-99790609D01*
X81879172Y-99790602D01*
X81733501Y-99730264D01*
X81733489Y-99730261D01*
X81578845Y-99699500D01*
X81578842Y-99699500D01*
X81421158Y-99699500D01*
X81421155Y-99699500D01*
X81266510Y-99730261D01*
X81266498Y-99730264D01*
X81120827Y-99790602D01*
X81120814Y-99790609D01*
X81068891Y-99825304D01*
X81002214Y-99846182D01*
X80934833Y-99827698D01*
X80931109Y-99825304D01*
X80879185Y-99790609D01*
X80879172Y-99790602D01*
X80733501Y-99730264D01*
X80733489Y-99730261D01*
X80578845Y-99699500D01*
X80578842Y-99699500D01*
X80421158Y-99699500D01*
X80421155Y-99699500D01*
X80266510Y-99730261D01*
X80266498Y-99730264D01*
X80120827Y-99790602D01*
X80120814Y-99790609D01*
X79989711Y-99878210D01*
X79989707Y-99878213D01*
X79878213Y-99989707D01*
X79878210Y-99989711D01*
X79790609Y-100120814D01*
X79790602Y-100120827D01*
X79730264Y-100266498D01*
X79730261Y-100266510D01*
X79699500Y-100421153D01*
X77498790Y-100421153D01*
X77625684Y-100294259D01*
X77687005Y-100260776D01*
X77756696Y-100265760D01*
X77760786Y-100267369D01*
X77766503Y-100269737D01*
X77766508Y-100269738D01*
X77766511Y-100269739D01*
X77921153Y-100300499D01*
X77921156Y-100300500D01*
X77921158Y-100300500D01*
X78078844Y-100300500D01*
X78078845Y-100300499D01*
X78089179Y-100298443D01*
X78114287Y-100293450D01*
X78114292Y-100293449D01*
X78199800Y-100276439D01*
X78233497Y-100269737D01*
X78379179Y-100209394D01*
X78510289Y-100121789D01*
X78621789Y-100010289D01*
X78709394Y-99879179D01*
X78769737Y-99733497D01*
X78800500Y-99578842D01*
X78800500Y-99421158D01*
X78800500Y-99421155D01*
X78800499Y-99421153D01*
X78785036Y-99343417D01*
X78769737Y-99266503D01*
X78764268Y-99253299D01*
X78709397Y-99120827D01*
X78709390Y-99120814D01*
X78621789Y-98989711D01*
X78621786Y-98989707D01*
X78510292Y-98878213D01*
X78510288Y-98878210D01*
X78379185Y-98790609D01*
X78379172Y-98790602D01*
X78233501Y-98730264D01*
X78233489Y-98730261D01*
X78078845Y-98699500D01*
X78078842Y-98699500D01*
X77921158Y-98699500D01*
X77921155Y-98699500D01*
X77766510Y-98730261D01*
X77766498Y-98730264D01*
X77620827Y-98790602D01*
X77620820Y-98790606D01*
X77591928Y-98809911D01*
X77563955Y-98828602D01*
X77497279Y-98849480D01*
X77495065Y-98849500D01*
X77435929Y-98849500D01*
X77310261Y-98874497D01*
X77310255Y-98874499D01*
X77191875Y-98923533D01*
X77191866Y-98923538D01*
X77085331Y-98994723D01*
X77085327Y-98994726D01*
X75266873Y-100813181D01*
X75205550Y-100846666D01*
X75179192Y-100849500D01*
X69820808Y-100849500D01*
X69753769Y-100829815D01*
X69733127Y-100813181D01*
X69317015Y-100397069D01*
X69283530Y-100335746D01*
X69283093Y-100333652D01*
X69269737Y-100266503D01*
X69209794Y-100121786D01*
X69209397Y-100120827D01*
X69209390Y-100120814D01*
X69121789Y-99989711D01*
X69121786Y-99989707D01*
X69010292Y-99878213D01*
X69010288Y-99878210D01*
X68879185Y-99790609D01*
X68879172Y-99790602D01*
X68733501Y-99730264D01*
X68733489Y-99730261D01*
X68578845Y-99699500D01*
X68578842Y-99699500D01*
X68421158Y-99699500D01*
X68421155Y-99699500D01*
X68266510Y-99730261D01*
X68266498Y-99730264D01*
X68120827Y-99790602D01*
X68120814Y-99790609D01*
X67989711Y-99878210D01*
X67989707Y-99878213D01*
X67878213Y-99989707D01*
X67878210Y-99989711D01*
X67790609Y-100120814D01*
X67790602Y-100120827D01*
X67730264Y-100266498D01*
X67730261Y-100266510D01*
X67699500Y-100421153D01*
X58000500Y-100421153D01*
X58000500Y-93124500D01*
X58020185Y-93057461D01*
X58072989Y-93011706D01*
X58124500Y-93000500D01*
X59500207Y-93000500D01*
X59500500Y-93000207D01*
X59500500Y-90421153D01*
X73199500Y-90421153D01*
X73199500Y-90578846D01*
X73230261Y-90733489D01*
X73230264Y-90733501D01*
X73290602Y-90879172D01*
X73290609Y-90879185D01*
X73325304Y-90931109D01*
X73346182Y-90997786D01*
X73327698Y-91065167D01*
X73325304Y-91068891D01*
X73290609Y-91120814D01*
X73290602Y-91120827D01*
X73230264Y-91266498D01*
X73230261Y-91266510D01*
X73199500Y-91421153D01*
X73199500Y-91578846D01*
X73230261Y-91733489D01*
X73230264Y-91733501D01*
X73290602Y-91879172D01*
X73290609Y-91879185D01*
X73378210Y-92010288D01*
X73378213Y-92010292D01*
X73489707Y-92121786D01*
X73489711Y-92121789D01*
X73620814Y-92209390D01*
X73620827Y-92209397D01*
X73766498Y-92269735D01*
X73766503Y-92269737D01*
X73921153Y-92300499D01*
X73921156Y-92300500D01*
X73921158Y-92300500D01*
X74078844Y-92300500D01*
X74078845Y-92300499D01*
X74233497Y-92269737D01*
X74379179Y-92209394D01*
X74389964Y-92202188D01*
X74468609Y-92149639D01*
X74535286Y-92128761D01*
X74602666Y-92147245D01*
X74606391Y-92149639D01*
X74695814Y-92209390D01*
X74695827Y-92209397D01*
X74841498Y-92269735D01*
X74841503Y-92269737D01*
X74996153Y-92300499D01*
X74996156Y-92300500D01*
X74996158Y-92300500D01*
X75153844Y-92300500D01*
X75153845Y-92300499D01*
X75308497Y-92269737D01*
X75454179Y-92209394D01*
X75585289Y-92121789D01*
X75696789Y-92010289D01*
X75784394Y-91879179D01*
X75844737Y-91733497D01*
X75875500Y-91578842D01*
X75875500Y-91421158D01*
X75875500Y-91421155D01*
X75875499Y-91421153D01*
X75873553Y-91411371D01*
X75844737Y-91266503D01*
X75821080Y-91209390D01*
X75784396Y-91120825D01*
X75784394Y-91120822D01*
X75784394Y-91120821D01*
X75749694Y-91068889D01*
X75744864Y-91053465D01*
X75735518Y-91040273D01*
X75734637Y-91020806D01*
X75728816Y-91002215D01*
X75733058Y-90985878D01*
X75732362Y-90970475D01*
X75743811Y-90944471D01*
X75745559Y-90937741D01*
X75747516Y-90934369D01*
X75762928Y-90911304D01*
X79599500Y-90911304D01*
X79599500Y-91088695D01*
X79634103Y-91262658D01*
X79634106Y-91262667D01*
X79701983Y-91426540D01*
X79701990Y-91426553D01*
X79800535Y-91574034D01*
X79800538Y-91574038D01*
X79925961Y-91699461D01*
X79925965Y-91699464D01*
X80073446Y-91798009D01*
X80073459Y-91798016D01*
X80169221Y-91837681D01*
X80237334Y-91865894D01*
X80237336Y-91865894D01*
X80237341Y-91865896D01*
X80411304Y-91900499D01*
X80411307Y-91900500D01*
X80411309Y-91900500D01*
X80588693Y-91900500D01*
X80588694Y-91900499D01*
X80646682Y-91888964D01*
X80762658Y-91865896D01*
X80762661Y-91865894D01*
X80762666Y-91865894D01*
X80926547Y-91798013D01*
X81074035Y-91699464D01*
X81199464Y-91574035D01*
X81298013Y-91426547D01*
X81365894Y-91262666D01*
X81376492Y-91209390D01*
X81400499Y-91088695D01*
X81400500Y-91088693D01*
X81400500Y-90911306D01*
X81400499Y-90911304D01*
X81394109Y-90879179D01*
X81365894Y-90737334D01*
X81324081Y-90636387D01*
X81316612Y-90566918D01*
X81335540Y-90520044D01*
X81345313Y-90505416D01*
X81398013Y-90426547D01*
X81465894Y-90262666D01*
X81468414Y-90250000D01*
X81500499Y-90088695D01*
X81500500Y-90088693D01*
X81500500Y-89911306D01*
X81500499Y-89911304D01*
X81465896Y-89737341D01*
X81465893Y-89737332D01*
X81410541Y-89603700D01*
X81403073Y-89534233D01*
X81410542Y-89508798D01*
X81465894Y-89375166D01*
X81483316Y-89287583D01*
X81500499Y-89201195D01*
X81500500Y-89201193D01*
X81500500Y-89023806D01*
X81500499Y-89023804D01*
X81465896Y-88849841D01*
X81465893Y-88849832D01*
X81398016Y-88685959D01*
X81398009Y-88685946D01*
X81299464Y-88538465D01*
X81299461Y-88538461D01*
X81174038Y-88413038D01*
X81174034Y-88413035D01*
X81026553Y-88314490D01*
X81026540Y-88314483D01*
X80862667Y-88246606D01*
X80862658Y-88246603D01*
X80688694Y-88212000D01*
X80688691Y-88212000D01*
X80511309Y-88212000D01*
X80511306Y-88212000D01*
X80337341Y-88246603D01*
X80337332Y-88246606D01*
X80173459Y-88314483D01*
X80173446Y-88314490D01*
X80025965Y-88413035D01*
X80025961Y-88413038D01*
X79900538Y-88538461D01*
X79900535Y-88538465D01*
X79801990Y-88685946D01*
X79801983Y-88685959D01*
X79734106Y-88849832D01*
X79734103Y-88849841D01*
X79699500Y-89023804D01*
X79699500Y-89201195D01*
X79734103Y-89375158D01*
X79734106Y-89375167D01*
X79789457Y-89508798D01*
X79796926Y-89578268D01*
X79789457Y-89603702D01*
X79734106Y-89737332D01*
X79734103Y-89737341D01*
X79699500Y-89911304D01*
X79699500Y-90088695D01*
X79734103Y-90262658D01*
X79734105Y-90262662D01*
X79734106Y-90262666D01*
X79746809Y-90293334D01*
X79775919Y-90363613D01*
X79783387Y-90433082D01*
X79764460Y-90479954D01*
X79701989Y-90573448D01*
X79701983Y-90573459D01*
X79634106Y-90737332D01*
X79634103Y-90737341D01*
X79599500Y-90911304D01*
X75762928Y-90911304D01*
X75784394Y-90879179D01*
X75844737Y-90733497D01*
X75875500Y-90578842D01*
X75875500Y-90421158D01*
X75875500Y-90421155D01*
X75875499Y-90421153D01*
X75875457Y-90420943D01*
X75844737Y-90266503D01*
X75801583Y-90162319D01*
X75784397Y-90120827D01*
X75784390Y-90120814D01*
X75696789Y-89989711D01*
X75696786Y-89989707D01*
X75585292Y-89878213D01*
X75585288Y-89878210D01*
X75454185Y-89790609D01*
X75454172Y-89790602D01*
X75308501Y-89730264D01*
X75308489Y-89730261D01*
X75153845Y-89699500D01*
X75153842Y-89699500D01*
X74996158Y-89699500D01*
X74996155Y-89699500D01*
X74841510Y-89730261D01*
X74841498Y-89730264D01*
X74695827Y-89790602D01*
X74695816Y-89790608D01*
X74606390Y-89850361D01*
X74539713Y-89871238D01*
X74472333Y-89852753D01*
X74468610Y-89850361D01*
X74379183Y-89790608D01*
X74379172Y-89790602D01*
X74233501Y-89730264D01*
X74233489Y-89730261D01*
X74078845Y-89699500D01*
X74078842Y-89699500D01*
X73921158Y-89699500D01*
X73921155Y-89699500D01*
X73766510Y-89730261D01*
X73766498Y-89730264D01*
X73620827Y-89790602D01*
X73620814Y-89790609D01*
X73489711Y-89878210D01*
X73489707Y-89878213D01*
X73378213Y-89989707D01*
X73378210Y-89989711D01*
X73290609Y-90120814D01*
X73290602Y-90120827D01*
X73230264Y-90266498D01*
X73230261Y-90266510D01*
X73199500Y-90421153D01*
X59500500Y-90421153D01*
X59500500Y-89499793D01*
X59500207Y-89499500D01*
X58124500Y-89499500D01*
X58057461Y-89479815D01*
X58011706Y-89427011D01*
X58000500Y-89375500D01*
X58000500Y-78624500D01*
X58020185Y-78557461D01*
X58072989Y-78511706D01*
X58124500Y-78500500D01*
X59500207Y-78500500D01*
X59500500Y-78500207D01*
X59500500Y-74911304D01*
X60599500Y-74911304D01*
X60599500Y-75088695D01*
X60634103Y-75262658D01*
X60634106Y-75262667D01*
X60701983Y-75426540D01*
X60701990Y-75426553D01*
X60800535Y-75574034D01*
X60800538Y-75574038D01*
X60888819Y-75662319D01*
X60922304Y-75723642D01*
X60917320Y-75793334D01*
X60888819Y-75837681D01*
X60800538Y-75925961D01*
X60800535Y-75925965D01*
X60701990Y-76073446D01*
X60701983Y-76073459D01*
X60634106Y-76237332D01*
X60634103Y-76237341D01*
X60599500Y-76411304D01*
X60599500Y-76588695D01*
X60634103Y-76762658D01*
X60634106Y-76762667D01*
X60701983Y-76926540D01*
X60701990Y-76926553D01*
X60800535Y-77074034D01*
X60800538Y-77074038D01*
X60888819Y-77162319D01*
X60922304Y-77223642D01*
X60917320Y-77293334D01*
X60888819Y-77337681D01*
X60800538Y-77425961D01*
X60800535Y-77425965D01*
X60701990Y-77573446D01*
X60701983Y-77573459D01*
X60634106Y-77737332D01*
X60634103Y-77737341D01*
X60599500Y-77911304D01*
X60599500Y-78088695D01*
X60634103Y-78262658D01*
X60634106Y-78262667D01*
X60701983Y-78426540D01*
X60701990Y-78426553D01*
X60800535Y-78574034D01*
X60800538Y-78574038D01*
X60925961Y-78699461D01*
X60925965Y-78699464D01*
X61073446Y-78798009D01*
X61073459Y-78798016D01*
X61196363Y-78848923D01*
X61237334Y-78865894D01*
X61257594Y-78869924D01*
X61300118Y-78878383D01*
X61362028Y-78910768D01*
X61396603Y-78971484D01*
X61392863Y-79041253D01*
X61351996Y-79097925D01*
X61300118Y-79121617D01*
X61237340Y-79134104D01*
X61237332Y-79134106D01*
X61073459Y-79201983D01*
X61073446Y-79201990D01*
X60925965Y-79300535D01*
X60925961Y-79300538D01*
X60800538Y-79425961D01*
X60800535Y-79425965D01*
X60701990Y-79573446D01*
X60701983Y-79573459D01*
X60634106Y-79737332D01*
X60634103Y-79737341D01*
X60599500Y-79911304D01*
X60599500Y-80088695D01*
X60634103Y-80262658D01*
X60634106Y-80262667D01*
X60701983Y-80426540D01*
X60701990Y-80426553D01*
X60800535Y-80574034D01*
X60800538Y-80574038D01*
X60888819Y-80662319D01*
X60922304Y-80723642D01*
X60917320Y-80793334D01*
X60888819Y-80837681D01*
X60800538Y-80925961D01*
X60800535Y-80925965D01*
X60701990Y-81073446D01*
X60701983Y-81073459D01*
X60634106Y-81237332D01*
X60634103Y-81237341D01*
X60599500Y-81411304D01*
X60599500Y-81588695D01*
X60634103Y-81762658D01*
X60634106Y-81762667D01*
X60701983Y-81926540D01*
X60701990Y-81926553D01*
X60800535Y-82074034D01*
X60800538Y-82074038D01*
X60888819Y-82162319D01*
X60922304Y-82223642D01*
X60917320Y-82293334D01*
X60888819Y-82337681D01*
X60800538Y-82425961D01*
X60800535Y-82425965D01*
X60701990Y-82573446D01*
X60701983Y-82573459D01*
X60634106Y-82737332D01*
X60634103Y-82737341D01*
X60599500Y-82911304D01*
X60599500Y-83088695D01*
X60634103Y-83262658D01*
X60634106Y-83262667D01*
X60701983Y-83426540D01*
X60701990Y-83426553D01*
X60800535Y-83574034D01*
X60800538Y-83574038D01*
X60888819Y-83662319D01*
X60922304Y-83723642D01*
X60917320Y-83793334D01*
X60888819Y-83837681D01*
X60800538Y-83925961D01*
X60800535Y-83925965D01*
X60701990Y-84073446D01*
X60701983Y-84073459D01*
X60634106Y-84237332D01*
X60634103Y-84237341D01*
X60599500Y-84411304D01*
X60599500Y-84588695D01*
X60634103Y-84762658D01*
X60634106Y-84762667D01*
X60701983Y-84926540D01*
X60701990Y-84926553D01*
X60800535Y-85074034D01*
X60800538Y-85074038D01*
X60888819Y-85162319D01*
X60922304Y-85223642D01*
X60917320Y-85293334D01*
X60888819Y-85337681D01*
X60800538Y-85425961D01*
X60800535Y-85425965D01*
X60701990Y-85573446D01*
X60701983Y-85573459D01*
X60634106Y-85737332D01*
X60634103Y-85737341D01*
X60599500Y-85911304D01*
X60599500Y-86088695D01*
X60634103Y-86262658D01*
X60634106Y-86262667D01*
X60701983Y-86426540D01*
X60701990Y-86426553D01*
X60800535Y-86574034D01*
X60800538Y-86574038D01*
X60888819Y-86662319D01*
X60922304Y-86723642D01*
X60917320Y-86793334D01*
X60888819Y-86837681D01*
X60800538Y-86925961D01*
X60800535Y-86925965D01*
X60701990Y-87073446D01*
X60701983Y-87073459D01*
X60634106Y-87237332D01*
X60634103Y-87237341D01*
X60599500Y-87411304D01*
X60599500Y-87588695D01*
X60634103Y-87762658D01*
X60634106Y-87762667D01*
X60701983Y-87926540D01*
X60701990Y-87926553D01*
X60800535Y-88074034D01*
X60800538Y-88074038D01*
X60925961Y-88199461D01*
X60925965Y-88199464D01*
X61073446Y-88298009D01*
X61073459Y-88298016D01*
X61113232Y-88314490D01*
X61237334Y-88365894D01*
X61237336Y-88365894D01*
X61237341Y-88365896D01*
X61411304Y-88400499D01*
X61411307Y-88400500D01*
X61411309Y-88400500D01*
X61588693Y-88400500D01*
X61588694Y-88400499D01*
X61649501Y-88388404D01*
X61762658Y-88365896D01*
X61762661Y-88365894D01*
X61762666Y-88365894D01*
X61926547Y-88298013D01*
X62074035Y-88199464D01*
X62074038Y-88199461D01*
X62162319Y-88111181D01*
X62223642Y-88077696D01*
X62293334Y-88082680D01*
X62337681Y-88111181D01*
X62425961Y-88199461D01*
X62425965Y-88199464D01*
X62573446Y-88298009D01*
X62573459Y-88298016D01*
X62613232Y-88314490D01*
X62737334Y-88365894D01*
X62737336Y-88365894D01*
X62737341Y-88365896D01*
X62911304Y-88400499D01*
X62911307Y-88400500D01*
X62911309Y-88400500D01*
X63088693Y-88400500D01*
X63088694Y-88400499D01*
X63149501Y-88388404D01*
X63262658Y-88365896D01*
X63262661Y-88365894D01*
X63262666Y-88365894D01*
X63426547Y-88298013D01*
X63574035Y-88199464D01*
X63574038Y-88199461D01*
X63662319Y-88111181D01*
X63723642Y-88077696D01*
X63793334Y-88082680D01*
X63837681Y-88111181D01*
X63925961Y-88199461D01*
X63925965Y-88199464D01*
X64073446Y-88298009D01*
X64073459Y-88298016D01*
X64113232Y-88314490D01*
X64237334Y-88365894D01*
X64237336Y-88365894D01*
X64237341Y-88365896D01*
X64411304Y-88400499D01*
X64411307Y-88400500D01*
X64411309Y-88400500D01*
X64588693Y-88400500D01*
X64588694Y-88400499D01*
X64649501Y-88388404D01*
X64762658Y-88365896D01*
X64762661Y-88365894D01*
X64762666Y-88365894D01*
X64926547Y-88298013D01*
X65074035Y-88199464D01*
X65199464Y-88074035D01*
X65298013Y-87926547D01*
X65365894Y-87762666D01*
X65370270Y-87740670D01*
X65400499Y-87588695D01*
X65400500Y-87588693D01*
X65400500Y-87411306D01*
X65400499Y-87411304D01*
X65365896Y-87237341D01*
X65365893Y-87237332D01*
X65298016Y-87073459D01*
X65298009Y-87073446D01*
X65199464Y-86925965D01*
X65199461Y-86925961D01*
X65111181Y-86837681D01*
X65077696Y-86776358D01*
X65082680Y-86706666D01*
X65111181Y-86662319D01*
X65199461Y-86574038D01*
X65199464Y-86574035D01*
X65298013Y-86426547D01*
X65365894Y-86262666D01*
X65370932Y-86237341D01*
X65400499Y-86088695D01*
X65400500Y-86088693D01*
X65400500Y-85911306D01*
X65400499Y-85911304D01*
X65365896Y-85737341D01*
X65365893Y-85737332D01*
X65362965Y-85730264D01*
X65334822Y-85662319D01*
X65298016Y-85573459D01*
X65298009Y-85573446D01*
X65199464Y-85425965D01*
X65199461Y-85425961D01*
X65111181Y-85337681D01*
X65077696Y-85276358D01*
X65082680Y-85206666D01*
X65111181Y-85162319D01*
X65199461Y-85074038D01*
X65199464Y-85074035D01*
X65298013Y-84926547D01*
X65300247Y-84921153D01*
X70699500Y-84921153D01*
X70699500Y-85078846D01*
X70730261Y-85233489D01*
X70730264Y-85233501D01*
X70790602Y-85379172D01*
X70790609Y-85379185D01*
X70825304Y-85431109D01*
X70846182Y-85497786D01*
X70827698Y-85565167D01*
X70825304Y-85568891D01*
X70790609Y-85620814D01*
X70790602Y-85620827D01*
X70730264Y-85766498D01*
X70730261Y-85766510D01*
X70699500Y-85921153D01*
X70699500Y-86078846D01*
X70730261Y-86233489D01*
X70730264Y-86233501D01*
X70790602Y-86379172D01*
X70790609Y-86379185D01*
X70878210Y-86510288D01*
X70878213Y-86510292D01*
X70989707Y-86621786D01*
X70989711Y-86621789D01*
X71120814Y-86709390D01*
X71120827Y-86709397D01*
X71249432Y-86762666D01*
X71266503Y-86769737D01*
X71421153Y-86800499D01*
X71421156Y-86800500D01*
X71421158Y-86800500D01*
X71578844Y-86800500D01*
X71578845Y-86800499D01*
X71733497Y-86769737D01*
X71879179Y-86709394D01*
X71931110Y-86674694D01*
X71997785Y-86653816D01*
X72065165Y-86672300D01*
X72068863Y-86674676D01*
X72120821Y-86709394D01*
X72120823Y-86709395D01*
X72120825Y-86709396D01*
X72249432Y-86762666D01*
X72266503Y-86769737D01*
X72421153Y-86800499D01*
X72421156Y-86800500D01*
X72421158Y-86800500D01*
X72578844Y-86800500D01*
X72578845Y-86800499D01*
X72733497Y-86769737D01*
X72879179Y-86709394D01*
X73010289Y-86621789D01*
X73121789Y-86510289D01*
X73181348Y-86421153D01*
X77199500Y-86421153D01*
X77199500Y-86578846D01*
X77230261Y-86733489D01*
X77230264Y-86733501D01*
X77290602Y-86879172D01*
X77290609Y-86879185D01*
X77325304Y-86931109D01*
X77346182Y-86997786D01*
X77327698Y-87065167D01*
X77325304Y-87068891D01*
X77290609Y-87120814D01*
X77290602Y-87120827D01*
X77230264Y-87266498D01*
X77230261Y-87266510D01*
X77199500Y-87421153D01*
X77199500Y-87578846D01*
X77230261Y-87733489D01*
X77230264Y-87733501D01*
X77290602Y-87879172D01*
X77290609Y-87879185D01*
X77325304Y-87931109D01*
X77346182Y-87997786D01*
X77327698Y-88065167D01*
X77325304Y-88068891D01*
X77290609Y-88120814D01*
X77290602Y-88120827D01*
X77230264Y-88266498D01*
X77230261Y-88266510D01*
X77199500Y-88421153D01*
X77199500Y-88578846D01*
X77230261Y-88733489D01*
X77230264Y-88733501D01*
X77290602Y-88879172D01*
X77290609Y-88879185D01*
X77378210Y-89010288D01*
X77378213Y-89010292D01*
X77489707Y-89121786D01*
X77489711Y-89121789D01*
X77620814Y-89209390D01*
X77620827Y-89209397D01*
X77758695Y-89266503D01*
X77766503Y-89269737D01*
X77921153Y-89300499D01*
X77921156Y-89300500D01*
X77921158Y-89300500D01*
X78078844Y-89300500D01*
X78078845Y-89300499D01*
X78233497Y-89269737D01*
X78379179Y-89209394D01*
X78510289Y-89121789D01*
X78621789Y-89010289D01*
X78709394Y-88879179D01*
X78769737Y-88733497D01*
X78800500Y-88578842D01*
X78800500Y-88421158D01*
X78800500Y-88421155D01*
X78800499Y-88421153D01*
X78792148Y-88379172D01*
X78769737Y-88266503D01*
X78768144Y-88262658D01*
X78709396Y-88120825D01*
X78709394Y-88120822D01*
X78709394Y-88120821D01*
X78674694Y-88068889D01*
X78653816Y-88002215D01*
X78672300Y-87934835D01*
X78674676Y-87931136D01*
X78709394Y-87879179D01*
X78769737Y-87733497D01*
X78800500Y-87578842D01*
X78800500Y-87421158D01*
X78800500Y-87421155D01*
X78800499Y-87421153D01*
X78792150Y-87379179D01*
X78769737Y-87266503D01*
X78741968Y-87199461D01*
X78709396Y-87120825D01*
X78709394Y-87120822D01*
X78709394Y-87120821D01*
X78674694Y-87068889D01*
X78653816Y-87002215D01*
X78672300Y-86934835D01*
X78674676Y-86931136D01*
X78709394Y-86879179D01*
X78769737Y-86733497D01*
X78800500Y-86578842D01*
X78800500Y-86421158D01*
X78800500Y-86421155D01*
X78800499Y-86421153D01*
X78783111Y-86333740D01*
X78769737Y-86266503D01*
X78756062Y-86233489D01*
X78709397Y-86120827D01*
X78709390Y-86120814D01*
X78621789Y-85989711D01*
X78621786Y-85989707D01*
X78510292Y-85878213D01*
X78510288Y-85878210D01*
X78379185Y-85790609D01*
X78379172Y-85790602D01*
X78233501Y-85730264D01*
X78233489Y-85730261D01*
X78078845Y-85699500D01*
X78078842Y-85699500D01*
X77921158Y-85699500D01*
X77921155Y-85699500D01*
X77766510Y-85730261D01*
X77766498Y-85730264D01*
X77620827Y-85790602D01*
X77620814Y-85790609D01*
X77489711Y-85878210D01*
X77489707Y-85878213D01*
X77378213Y-85989707D01*
X77378210Y-85989711D01*
X77290609Y-86120814D01*
X77290602Y-86120827D01*
X77230264Y-86266498D01*
X77230261Y-86266510D01*
X77199500Y-86421153D01*
X73181348Y-86421153D01*
X73209394Y-86379179D01*
X73269737Y-86233497D01*
X73300500Y-86078842D01*
X73300500Y-85921158D01*
X73300500Y-85921155D01*
X73300499Y-85921153D01*
X73283895Y-85837681D01*
X73269737Y-85766503D01*
X73257654Y-85737332D01*
X73209396Y-85620825D01*
X73209394Y-85620822D01*
X73209394Y-85620821D01*
X73174694Y-85568889D01*
X73171204Y-85557745D01*
X73163774Y-85548733D01*
X73160954Y-85525011D01*
X73153816Y-85502215D01*
X73156695Y-85489184D01*
X73155527Y-85479352D01*
X73163057Y-85460397D01*
X73166297Y-85445741D01*
X73169992Y-85438146D01*
X73209394Y-85379179D01*
X73269737Y-85233497D01*
X73269844Y-85232956D01*
X73272254Y-85228005D01*
X73277840Y-85221867D01*
X73296069Y-85194586D01*
X74044114Y-84446543D01*
X74120775Y-84331811D01*
X74123471Y-84325304D01*
X74159237Y-84238956D01*
X74173580Y-84204328D01*
X74188157Y-84131048D01*
X74200500Y-84068996D01*
X74200500Y-69425316D01*
X74209939Y-69377864D01*
X74257658Y-69262658D01*
X74269737Y-69233497D01*
X74300500Y-69078842D01*
X74300500Y-68921158D01*
X74300500Y-68921155D01*
X74300499Y-68921153D01*
X74282700Y-68831674D01*
X74269737Y-68766503D01*
X74226583Y-68662319D01*
X74209397Y-68620827D01*
X74209390Y-68620814D01*
X74121789Y-68489711D01*
X74121786Y-68489707D01*
X74010292Y-68378213D01*
X74010288Y-68378210D01*
X73879185Y-68290609D01*
X73879172Y-68290602D01*
X73733501Y-68230264D01*
X73733489Y-68230261D01*
X73578845Y-68199500D01*
X73578842Y-68199500D01*
X73421158Y-68199500D01*
X73421155Y-68199500D01*
X73266510Y-68230261D01*
X73266498Y-68230264D01*
X73120827Y-68290602D01*
X73120814Y-68290609D01*
X72989711Y-68378210D01*
X72989707Y-68378213D01*
X72878213Y-68489707D01*
X72878210Y-68489711D01*
X72790609Y-68620814D01*
X72790602Y-68620827D01*
X72730264Y-68766498D01*
X72730261Y-68766510D01*
X72699500Y-68921153D01*
X72699500Y-69078846D01*
X72730261Y-69233489D01*
X72730264Y-69233501D01*
X72790061Y-69377864D01*
X72799500Y-69425316D01*
X72799500Y-83658480D01*
X72779815Y-83725519D01*
X72763181Y-83746161D01*
X72305412Y-84203929D01*
X72302297Y-84206148D01*
X72301205Y-84207944D01*
X72288146Y-84216232D01*
X72271990Y-84227747D01*
X72267038Y-84230156D01*
X72266503Y-84230263D01*
X72120821Y-84290606D01*
X72061861Y-84330001D01*
X72054259Y-84333701D01*
X72027810Y-84338167D01*
X72002214Y-84346182D01*
X71993882Y-84343896D01*
X71985364Y-84345335D01*
X71960701Y-84334794D01*
X71934833Y-84327698D01*
X71931109Y-84325304D01*
X71879185Y-84290609D01*
X71879172Y-84290602D01*
X71733501Y-84230264D01*
X71733489Y-84230261D01*
X71578845Y-84199500D01*
X71578842Y-84199500D01*
X71421158Y-84199500D01*
X71421155Y-84199500D01*
X71266510Y-84230261D01*
X71266498Y-84230264D01*
X71120827Y-84290602D01*
X71120814Y-84290609D01*
X70989711Y-84378210D01*
X70989707Y-84378213D01*
X70878213Y-84489707D01*
X70878210Y-84489711D01*
X70790609Y-84620814D01*
X70790602Y-84620827D01*
X70730264Y-84766498D01*
X70730261Y-84766510D01*
X70699500Y-84921153D01*
X65300247Y-84921153D01*
X65365894Y-84762666D01*
X65370932Y-84737341D01*
X65400499Y-84588695D01*
X65400500Y-84588693D01*
X65400500Y-84411306D01*
X65400499Y-84411304D01*
X65365896Y-84237341D01*
X65365893Y-84237332D01*
X65362965Y-84230264D01*
X65323135Y-84134103D01*
X65298016Y-84073459D01*
X65298009Y-84073446D01*
X65199464Y-83925965D01*
X65199461Y-83925961D01*
X65111181Y-83837681D01*
X65077696Y-83776358D01*
X65082680Y-83706666D01*
X65111181Y-83662319D01*
X65199461Y-83574038D01*
X65199464Y-83574035D01*
X65298013Y-83426547D01*
X65365894Y-83262666D01*
X65372340Y-83230263D01*
X65394324Y-83119738D01*
X65400500Y-83088691D01*
X65400500Y-82911309D01*
X65400500Y-82911306D01*
X65400499Y-82911304D01*
X65365896Y-82737341D01*
X65365893Y-82737332D01*
X65362965Y-82730264D01*
X65339022Y-82672459D01*
X65298016Y-82573459D01*
X65298009Y-82573446D01*
X65199464Y-82425965D01*
X65199461Y-82425961D01*
X65111181Y-82337681D01*
X65077696Y-82276358D01*
X65082680Y-82206666D01*
X65111181Y-82162319D01*
X65199461Y-82074038D01*
X65199464Y-82074035D01*
X65298013Y-81926547D01*
X65365894Y-81762666D01*
X65371696Y-81733501D01*
X65400499Y-81588695D01*
X65400500Y-81588693D01*
X65400500Y-81411306D01*
X65400499Y-81411304D01*
X65365896Y-81237341D01*
X65365893Y-81237332D01*
X65362103Y-81228183D01*
X65325816Y-81140576D01*
X65298016Y-81073459D01*
X65298009Y-81073446D01*
X65199464Y-80925965D01*
X65199461Y-80925961D01*
X65111181Y-80837681D01*
X65077696Y-80776358D01*
X65082680Y-80706666D01*
X65111181Y-80662319D01*
X65199461Y-80574038D01*
X65199464Y-80574035D01*
X65298013Y-80426547D01*
X65365894Y-80262666D01*
X65368414Y-80250000D01*
X65400499Y-80088695D01*
X65400500Y-80088693D01*
X65400500Y-79911306D01*
X65400499Y-79911304D01*
X65365896Y-79737341D01*
X65365893Y-79737332D01*
X65298016Y-79573459D01*
X65298009Y-79573446D01*
X65199464Y-79425965D01*
X65199461Y-79425961D01*
X65074038Y-79300538D01*
X65074034Y-79300535D01*
X64926553Y-79201990D01*
X64926540Y-79201983D01*
X64762667Y-79134106D01*
X64762658Y-79134103D01*
X64699882Y-79121617D01*
X64637971Y-79089232D01*
X64603397Y-79028517D01*
X64607136Y-78958747D01*
X64648003Y-78902075D01*
X64699882Y-78878383D01*
X64762658Y-78865896D01*
X64762661Y-78865894D01*
X64762666Y-78865894D01*
X64926547Y-78798013D01*
X65074035Y-78699464D01*
X65199464Y-78574035D01*
X65298013Y-78426547D01*
X65365894Y-78262666D01*
X65367982Y-78252172D01*
X65400499Y-78088695D01*
X65400500Y-78088693D01*
X65400500Y-77921153D01*
X67199500Y-77921153D01*
X67199500Y-78078846D01*
X67230261Y-78233489D01*
X67230264Y-78233501D01*
X67290602Y-78379172D01*
X67290609Y-78379185D01*
X67378210Y-78510288D01*
X67378213Y-78510292D01*
X67489707Y-78621786D01*
X67489711Y-78621789D01*
X67620814Y-78709390D01*
X67620827Y-78709397D01*
X67749432Y-78762666D01*
X67766503Y-78769737D01*
X67908635Y-78798009D01*
X67921153Y-78800499D01*
X67921156Y-78800500D01*
X67921158Y-78800500D01*
X68078844Y-78800500D01*
X68078845Y-78800499D01*
X68233497Y-78769737D01*
X68379179Y-78709394D01*
X68431110Y-78674694D01*
X68497785Y-78653816D01*
X68565165Y-78672300D01*
X68568863Y-78674676D01*
X68620821Y-78709394D01*
X68620823Y-78709395D01*
X68620825Y-78709396D01*
X68749432Y-78762666D01*
X68766503Y-78769737D01*
X68908635Y-78798009D01*
X68921153Y-78800499D01*
X68921156Y-78800500D01*
X68921158Y-78800500D01*
X69078844Y-78800500D01*
X69078845Y-78800499D01*
X69233497Y-78769737D01*
X69379179Y-78709394D01*
X69510289Y-78621789D01*
X69621789Y-78510289D01*
X69709394Y-78379179D01*
X69739467Y-78306572D01*
X69783305Y-78252172D01*
X69806565Y-78239470D01*
X69879179Y-78209394D01*
X70010289Y-78121789D01*
X70121789Y-78010289D01*
X70209394Y-77879179D01*
X70269737Y-77733497D01*
X70300500Y-77578842D01*
X70300500Y-77421158D01*
X70300500Y-77421155D01*
X70300499Y-77421153D01*
X70283895Y-77337681D01*
X70269737Y-77266503D01*
X70262002Y-77247828D01*
X70209397Y-77120827D01*
X70209390Y-77120814D01*
X70121789Y-76989711D01*
X70121786Y-76989707D01*
X70010292Y-76878213D01*
X70010288Y-76878210D01*
X69879185Y-76790609D01*
X69879172Y-76790602D01*
X69733501Y-76730264D01*
X69733489Y-76730261D01*
X69578845Y-76699500D01*
X69578842Y-76699500D01*
X69421158Y-76699500D01*
X69421155Y-76699500D01*
X69266510Y-76730261D01*
X69266498Y-76730264D01*
X69120827Y-76790602D01*
X69120814Y-76790609D01*
X69068891Y-76825304D01*
X69002214Y-76846182D01*
X68934833Y-76827698D01*
X68931109Y-76825304D01*
X68879185Y-76790609D01*
X68879172Y-76790602D01*
X68733501Y-76730264D01*
X68733489Y-76730261D01*
X68578845Y-76699500D01*
X68578842Y-76699500D01*
X68421158Y-76699500D01*
X68421155Y-76699500D01*
X68266510Y-76730261D01*
X68266498Y-76730264D01*
X68120827Y-76790602D01*
X68120814Y-76790609D01*
X67989711Y-76878210D01*
X67989707Y-76878213D01*
X67878213Y-76989707D01*
X67878210Y-76989711D01*
X67790609Y-77120814D01*
X67790606Y-77120820D01*
X67760532Y-77193425D01*
X67716690Y-77247828D01*
X67693425Y-77260532D01*
X67620820Y-77290606D01*
X67620814Y-77290609D01*
X67489711Y-77378210D01*
X67489707Y-77378213D01*
X67378213Y-77489707D01*
X67378210Y-77489711D01*
X67290609Y-77620814D01*
X67290602Y-77620827D01*
X67230264Y-77766498D01*
X67230261Y-77766510D01*
X67199500Y-77921153D01*
X65400500Y-77921153D01*
X65400500Y-77911306D01*
X65400499Y-77911304D01*
X65365896Y-77737341D01*
X65365893Y-77737332D01*
X65298016Y-77573459D01*
X65298009Y-77573446D01*
X65199464Y-77425965D01*
X65199461Y-77425961D01*
X65111181Y-77337681D01*
X65077696Y-77276358D01*
X65082680Y-77206666D01*
X65111181Y-77162319D01*
X65199461Y-77074038D01*
X65199464Y-77074035D01*
X65298013Y-76926547D01*
X65365894Y-76762666D01*
X65370932Y-76737341D01*
X65400499Y-76588695D01*
X65400500Y-76588693D01*
X65400500Y-76411306D01*
X65400499Y-76411304D01*
X65365896Y-76237341D01*
X65365893Y-76237332D01*
X65298016Y-76073459D01*
X65298009Y-76073446D01*
X65199464Y-75925965D01*
X65199461Y-75925961D01*
X65111181Y-75837681D01*
X65077696Y-75776358D01*
X65082680Y-75706666D01*
X65111181Y-75662319D01*
X65199461Y-75574038D01*
X65199464Y-75574035D01*
X65298013Y-75426547D01*
X65365894Y-75262666D01*
X65371696Y-75233501D01*
X65400499Y-75088695D01*
X65400500Y-75088693D01*
X65400500Y-74911306D01*
X65400499Y-74911304D01*
X65365896Y-74737341D01*
X65365893Y-74737332D01*
X65298016Y-74573459D01*
X65298009Y-74573446D01*
X65199464Y-74425965D01*
X65199461Y-74425961D01*
X65074038Y-74300538D01*
X65074034Y-74300535D01*
X64926553Y-74201990D01*
X64926540Y-74201983D01*
X64762667Y-74134106D01*
X64762658Y-74134103D01*
X64588694Y-74099500D01*
X64588691Y-74099500D01*
X64411309Y-74099500D01*
X64411306Y-74099500D01*
X64237341Y-74134103D01*
X64237332Y-74134106D01*
X64073459Y-74201983D01*
X64073446Y-74201990D01*
X63925965Y-74300535D01*
X63925961Y-74300538D01*
X63837681Y-74388819D01*
X63776358Y-74422304D01*
X63706666Y-74417320D01*
X63662319Y-74388819D01*
X63574038Y-74300538D01*
X63574034Y-74300535D01*
X63426553Y-74201990D01*
X63426540Y-74201983D01*
X63262667Y-74134106D01*
X63262658Y-74134103D01*
X63088694Y-74099500D01*
X63088691Y-74099500D01*
X62911309Y-74099500D01*
X62911306Y-74099500D01*
X62737341Y-74134103D01*
X62737332Y-74134106D01*
X62573459Y-74201983D01*
X62573446Y-74201990D01*
X62425965Y-74300535D01*
X62425961Y-74300538D01*
X62337681Y-74388819D01*
X62276358Y-74422304D01*
X62206666Y-74417320D01*
X62162319Y-74388819D01*
X62074038Y-74300538D01*
X62074034Y-74300535D01*
X61926553Y-74201990D01*
X61926540Y-74201983D01*
X61762667Y-74134106D01*
X61762658Y-74134103D01*
X61588694Y-74099500D01*
X61588691Y-74099500D01*
X61411309Y-74099500D01*
X61411306Y-74099500D01*
X61237341Y-74134103D01*
X61237332Y-74134106D01*
X61073459Y-74201983D01*
X61073446Y-74201990D01*
X60925965Y-74300535D01*
X60925961Y-74300538D01*
X60800538Y-74425961D01*
X60800535Y-74425965D01*
X60701990Y-74573446D01*
X60701983Y-74573459D01*
X60634106Y-74737332D01*
X60634103Y-74737341D01*
X60599500Y-74911304D01*
X59500500Y-74911304D01*
X59500500Y-67911304D01*
X93599500Y-67911304D01*
X93599500Y-68088695D01*
X93634103Y-68262658D01*
X93634106Y-68262667D01*
X93701983Y-68426540D01*
X93701990Y-68426553D01*
X93800535Y-68574034D01*
X93800538Y-68574038D01*
X93888819Y-68662319D01*
X93922304Y-68723642D01*
X93917320Y-68793334D01*
X93888819Y-68837681D01*
X93800538Y-68925961D01*
X93800535Y-68925965D01*
X93701990Y-69073446D01*
X93701983Y-69073459D01*
X93634106Y-69237332D01*
X93634103Y-69237341D01*
X93599500Y-69411304D01*
X93599500Y-69588695D01*
X93634103Y-69762658D01*
X93634106Y-69762667D01*
X93701983Y-69926540D01*
X93701990Y-69926553D01*
X93800535Y-70074034D01*
X93800538Y-70074038D01*
X93888819Y-70162319D01*
X93922304Y-70223642D01*
X93917320Y-70293334D01*
X93888819Y-70337681D01*
X93800538Y-70425961D01*
X93800535Y-70425965D01*
X93701990Y-70573446D01*
X93701983Y-70573459D01*
X93634106Y-70737332D01*
X93634103Y-70737341D01*
X93599500Y-70911304D01*
X93599500Y-71088695D01*
X93634103Y-71262658D01*
X93634106Y-71262667D01*
X93701983Y-71426540D01*
X93701990Y-71426553D01*
X93800535Y-71574034D01*
X93800538Y-71574038D01*
X93888819Y-71662319D01*
X93922304Y-71723642D01*
X93917320Y-71793334D01*
X93888819Y-71837681D01*
X93800538Y-71925961D01*
X93800535Y-71925965D01*
X93701990Y-72073446D01*
X93701983Y-72073459D01*
X93634106Y-72237332D01*
X93634103Y-72237341D01*
X93599500Y-72411304D01*
X93599500Y-72588695D01*
X93634103Y-72762658D01*
X93634106Y-72762667D01*
X93701983Y-72926540D01*
X93701990Y-72926553D01*
X93800535Y-73074034D01*
X93800538Y-73074038D01*
X93925961Y-73199461D01*
X93925965Y-73199464D01*
X94073446Y-73298009D01*
X94073459Y-73298016D01*
X94153468Y-73331156D01*
X94237334Y-73365894D01*
X94237336Y-73365894D01*
X94237341Y-73365896D01*
X94411304Y-73400499D01*
X94411307Y-73400500D01*
X94411309Y-73400500D01*
X94588693Y-73400500D01*
X94588694Y-73400499D01*
X94646682Y-73388964D01*
X94762658Y-73365896D01*
X94762661Y-73365894D01*
X94762666Y-73365894D01*
X94926547Y-73298013D01*
X95074035Y-73199464D01*
X95112786Y-73160713D01*
X95162319Y-73111181D01*
X95223642Y-73077696D01*
X95293334Y-73082680D01*
X95337681Y-73111181D01*
X95425961Y-73199461D01*
X95425965Y-73199464D01*
X95573446Y-73298009D01*
X95573459Y-73298016D01*
X95653468Y-73331156D01*
X95737334Y-73365894D01*
X95737336Y-73365894D01*
X95737341Y-73365896D01*
X95911304Y-73400499D01*
X95911307Y-73400500D01*
X95911309Y-73400500D01*
X96088693Y-73400500D01*
X96088694Y-73400499D01*
X96146682Y-73388964D01*
X96262658Y-73365896D01*
X96262661Y-73365894D01*
X96262666Y-73365894D01*
X96318048Y-73342953D01*
X96387517Y-73335485D01*
X96449996Y-73366760D01*
X96485648Y-73426849D01*
X96489500Y-73457515D01*
X96489500Y-73488846D01*
X96520261Y-73643489D01*
X96520264Y-73643501D01*
X96580602Y-73789172D01*
X96580609Y-73789185D01*
X96668210Y-73920288D01*
X96668213Y-73920292D01*
X96779707Y-74031786D01*
X96779711Y-74031789D01*
X96910814Y-74119390D01*
X96910827Y-74119397D01*
X97056498Y-74179735D01*
X97056503Y-74179737D01*
X97211153Y-74210499D01*
X97211156Y-74210500D01*
X97211158Y-74210500D01*
X97368844Y-74210500D01*
X97368845Y-74210499D01*
X97523497Y-74179737D01*
X97669179Y-74119394D01*
X97800289Y-74031789D01*
X97911789Y-73920289D01*
X97999394Y-73789179D01*
X98059737Y-73643497D01*
X98090500Y-73488842D01*
X98090500Y-73331158D01*
X98078849Y-73272587D01*
X98085076Y-73202996D01*
X98112783Y-73160715D01*
X98199464Y-73074035D01*
X98298013Y-72926547D01*
X98365894Y-72762666D01*
X98368414Y-72750000D01*
X98400499Y-72588695D01*
X98400500Y-72588693D01*
X98400500Y-72411306D01*
X98400499Y-72411304D01*
X98365896Y-72237341D01*
X98365893Y-72237332D01*
X98298016Y-72073459D01*
X98298009Y-72073446D01*
X98199464Y-71925965D01*
X98199461Y-71925961D01*
X98111181Y-71837681D01*
X98077696Y-71776358D01*
X98082680Y-71706666D01*
X98111181Y-71662319D01*
X98199461Y-71574038D01*
X98199464Y-71574035D01*
X98298013Y-71426547D01*
X98365894Y-71262666D01*
X98368414Y-71250000D01*
X98400499Y-71088695D01*
X98400500Y-71088693D01*
X98400500Y-70911306D01*
X98400499Y-70911304D01*
X98365896Y-70737341D01*
X98365893Y-70737332D01*
X98298016Y-70573459D01*
X98298009Y-70573446D01*
X98199464Y-70425965D01*
X98199461Y-70425961D01*
X98111181Y-70337681D01*
X98077696Y-70276358D01*
X98082680Y-70206666D01*
X98111181Y-70162319D01*
X98199461Y-70074038D01*
X98199464Y-70074035D01*
X98298013Y-69926547D01*
X98365894Y-69762666D01*
X98368414Y-69750000D01*
X98400499Y-69588695D01*
X98400500Y-69588693D01*
X98400500Y-69411306D01*
X98400499Y-69411304D01*
X98365896Y-69237341D01*
X98365893Y-69237332D01*
X98298016Y-69073459D01*
X98298009Y-69073446D01*
X98236115Y-68980816D01*
X98236112Y-68980813D01*
X98199464Y-68925965D01*
X98184803Y-68911304D01*
X100099500Y-68911304D01*
X100099500Y-69088695D01*
X100134103Y-69262658D01*
X100134106Y-69262667D01*
X100201983Y-69426540D01*
X100201990Y-69426553D01*
X100300535Y-69574034D01*
X100300538Y-69574038D01*
X100388819Y-69662319D01*
X100422304Y-69723642D01*
X100417320Y-69793334D01*
X100388819Y-69837681D01*
X100300538Y-69925961D01*
X100300535Y-69925965D01*
X100201990Y-70073446D01*
X100201983Y-70073459D01*
X100134106Y-70237332D01*
X100134103Y-70237341D01*
X100099500Y-70411304D01*
X100099500Y-70588695D01*
X100134103Y-70762658D01*
X100134106Y-70762667D01*
X100201983Y-70926540D01*
X100201990Y-70926553D01*
X100300535Y-71074034D01*
X100300538Y-71074038D01*
X100388819Y-71162319D01*
X100422304Y-71223642D01*
X100417320Y-71293334D01*
X100388819Y-71337681D01*
X100300538Y-71425961D01*
X100300535Y-71425965D01*
X100201990Y-71573446D01*
X100201983Y-71573459D01*
X100134106Y-71737332D01*
X100134103Y-71737341D01*
X100099500Y-71911304D01*
X100099500Y-72088695D01*
X100134103Y-72262658D01*
X100134106Y-72262667D01*
X100201983Y-72426540D01*
X100201990Y-72426553D01*
X100300535Y-72574034D01*
X100300538Y-72574038D01*
X100388819Y-72662319D01*
X100422304Y-72723642D01*
X100417320Y-72793334D01*
X100388819Y-72837681D01*
X100300538Y-72925961D01*
X100300535Y-72925965D01*
X100201990Y-73073446D01*
X100201983Y-73073459D01*
X100134106Y-73237332D01*
X100134103Y-73237341D01*
X100099500Y-73411304D01*
X100099500Y-73588695D01*
X100134103Y-73762658D01*
X100134106Y-73762667D01*
X100201983Y-73926540D01*
X100201990Y-73926553D01*
X100300535Y-74074034D01*
X100300538Y-74074038D01*
X100388819Y-74162319D01*
X100422304Y-74223642D01*
X100417320Y-74293334D01*
X100388819Y-74337681D01*
X100300538Y-74425961D01*
X100300535Y-74425965D01*
X100201990Y-74573446D01*
X100201983Y-74573459D01*
X100134106Y-74737332D01*
X100134103Y-74737341D01*
X100099500Y-74911304D01*
X100099500Y-75088695D01*
X100134103Y-75262658D01*
X100134106Y-75262667D01*
X100201983Y-75426540D01*
X100201990Y-75426553D01*
X100300535Y-75574034D01*
X100300538Y-75574038D01*
X100425961Y-75699461D01*
X100425965Y-75699464D01*
X100573446Y-75798009D01*
X100573459Y-75798016D01*
X100669221Y-75837681D01*
X100737334Y-75865894D01*
X100737336Y-75865894D01*
X100737341Y-75865896D01*
X100911304Y-75900499D01*
X100911307Y-75900500D01*
X100911309Y-75900500D01*
X101088693Y-75900500D01*
X101088694Y-75900499D01*
X101146682Y-75888964D01*
X101262658Y-75865896D01*
X101262661Y-75865894D01*
X101262666Y-75865894D01*
X101426547Y-75798013D01*
X101574035Y-75699464D01*
X101611180Y-75662319D01*
X101662319Y-75611181D01*
X101723642Y-75577696D01*
X101793334Y-75582680D01*
X101837681Y-75611181D01*
X101925961Y-75699461D01*
X101925965Y-75699464D01*
X102073446Y-75798009D01*
X102073459Y-75798016D01*
X102169221Y-75837681D01*
X102237334Y-75865894D01*
X102237336Y-75865894D01*
X102237341Y-75865896D01*
X102411304Y-75900499D01*
X102411307Y-75900500D01*
X102411309Y-75900500D01*
X102588693Y-75900500D01*
X102588694Y-75900499D01*
X102646682Y-75888964D01*
X102762658Y-75865896D01*
X102762661Y-75865894D01*
X102762666Y-75865894D01*
X102926547Y-75798013D01*
X103074035Y-75699464D01*
X103111180Y-75662319D01*
X103162319Y-75611181D01*
X103223642Y-75577696D01*
X103293334Y-75582680D01*
X103337681Y-75611181D01*
X103425961Y-75699461D01*
X103425965Y-75699464D01*
X103573446Y-75798009D01*
X103573459Y-75798016D01*
X103669221Y-75837681D01*
X103737334Y-75865894D01*
X103737336Y-75865894D01*
X103737341Y-75865896D01*
X103911304Y-75900499D01*
X103911307Y-75900500D01*
X103911309Y-75900500D01*
X104088693Y-75900500D01*
X104088694Y-75900499D01*
X104146682Y-75888964D01*
X104262658Y-75865896D01*
X104262661Y-75865894D01*
X104262666Y-75865894D01*
X104426547Y-75798013D01*
X104574035Y-75699464D01*
X104611180Y-75662319D01*
X104662319Y-75611181D01*
X104723642Y-75577696D01*
X104793334Y-75582680D01*
X104837681Y-75611181D01*
X104925961Y-75699461D01*
X104925965Y-75699464D01*
X105073446Y-75798009D01*
X105073459Y-75798016D01*
X105169221Y-75837681D01*
X105237334Y-75865894D01*
X105237336Y-75865894D01*
X105237341Y-75865896D01*
X105411304Y-75900499D01*
X105411307Y-75900500D01*
X105411309Y-75900500D01*
X105588693Y-75900500D01*
X105588694Y-75900499D01*
X105646682Y-75888964D01*
X105762658Y-75865896D01*
X105762661Y-75865894D01*
X105762666Y-75865894D01*
X105926547Y-75798013D01*
X106074035Y-75699464D01*
X106111180Y-75662319D01*
X106162319Y-75611181D01*
X106223642Y-75577696D01*
X106293334Y-75582680D01*
X106337681Y-75611181D01*
X106425961Y-75699461D01*
X106425965Y-75699464D01*
X106573446Y-75798009D01*
X106573459Y-75798016D01*
X106669221Y-75837681D01*
X106737334Y-75865894D01*
X106737336Y-75865894D01*
X106737341Y-75865896D01*
X106911304Y-75900499D01*
X106911307Y-75900500D01*
X106911309Y-75900500D01*
X107088693Y-75900500D01*
X107088694Y-75900499D01*
X107146682Y-75888964D01*
X107262658Y-75865896D01*
X107262661Y-75865894D01*
X107262666Y-75865894D01*
X107426547Y-75798013D01*
X107574035Y-75699464D01*
X107699464Y-75574035D01*
X107798013Y-75426547D01*
X107865894Y-75262666D01*
X107871696Y-75233501D01*
X107900499Y-75088695D01*
X107900500Y-75088693D01*
X107900500Y-74921153D01*
X110699500Y-74921153D01*
X110699500Y-75078846D01*
X110730261Y-75233489D01*
X110730264Y-75233501D01*
X110790602Y-75379172D01*
X110790609Y-75379185D01*
X110878210Y-75510288D01*
X110878213Y-75510292D01*
X110989707Y-75621786D01*
X110989711Y-75621789D01*
X111120814Y-75709390D01*
X111120827Y-75709397D01*
X111218853Y-75750000D01*
X111266503Y-75769737D01*
X111408635Y-75798009D01*
X111421153Y-75800499D01*
X111421156Y-75800500D01*
X111421158Y-75800500D01*
X111578844Y-75800500D01*
X111578845Y-75800499D01*
X111733497Y-75769737D01*
X111879179Y-75709394D01*
X112010289Y-75621789D01*
X112121789Y-75510289D01*
X112209394Y-75379179D01*
X112269737Y-75233497D01*
X112300500Y-75078842D01*
X112300500Y-74921158D01*
X112300500Y-74921155D01*
X112300499Y-74921153D01*
X112284441Y-74840424D01*
X112269737Y-74766503D01*
X112257654Y-74737332D01*
X112209397Y-74620827D01*
X112209390Y-74620814D01*
X112121789Y-74489711D01*
X112121786Y-74489707D01*
X112010292Y-74378213D01*
X112010288Y-74378210D01*
X111879185Y-74290609D01*
X111879172Y-74290602D01*
X111733501Y-74230264D01*
X111733489Y-74230261D01*
X111578845Y-74199500D01*
X111578842Y-74199500D01*
X111421158Y-74199500D01*
X111421155Y-74199500D01*
X111266510Y-74230261D01*
X111266498Y-74230264D01*
X111120827Y-74290602D01*
X111120814Y-74290609D01*
X110989711Y-74378210D01*
X110989707Y-74378213D01*
X110878213Y-74489707D01*
X110878210Y-74489711D01*
X110790609Y-74620814D01*
X110790602Y-74620827D01*
X110730264Y-74766498D01*
X110730261Y-74766510D01*
X110699500Y-74921153D01*
X107900500Y-74921153D01*
X107900500Y-74911306D01*
X107900499Y-74911304D01*
X107865896Y-74737341D01*
X107865893Y-74737332D01*
X107798016Y-74573459D01*
X107798009Y-74573446D01*
X107699464Y-74425965D01*
X107699461Y-74425961D01*
X107611181Y-74337681D01*
X107577696Y-74276358D01*
X107582680Y-74206666D01*
X107611181Y-74162319D01*
X107699461Y-74074038D01*
X107699464Y-74074035D01*
X107798013Y-73926547D01*
X107865894Y-73762666D01*
X107900500Y-73588691D01*
X107900500Y-73411309D01*
X107900500Y-73411306D01*
X107900499Y-73411304D01*
X107865896Y-73237341D01*
X107865893Y-73237332D01*
X107798016Y-73073459D01*
X107798009Y-73073446D01*
X107699464Y-72925965D01*
X107699461Y-72925961D01*
X107611181Y-72837681D01*
X107577696Y-72776358D01*
X107582680Y-72706666D01*
X107611181Y-72662319D01*
X107699461Y-72574038D01*
X107699464Y-72574035D01*
X107798013Y-72426547D01*
X107865894Y-72262666D01*
X107870932Y-72237341D01*
X107900499Y-72088695D01*
X107900500Y-72088693D01*
X107900500Y-71911306D01*
X107900499Y-71911304D01*
X107865896Y-71737341D01*
X107865893Y-71737332D01*
X107798016Y-71573459D01*
X107798009Y-71573446D01*
X107699464Y-71425965D01*
X107699461Y-71425961D01*
X107611181Y-71337681D01*
X107577696Y-71276358D01*
X107582680Y-71206666D01*
X107611181Y-71162319D01*
X107699461Y-71074038D01*
X107699464Y-71074035D01*
X107798013Y-70926547D01*
X107865894Y-70762666D01*
X107870932Y-70737341D01*
X107900499Y-70588695D01*
X107900500Y-70588693D01*
X107900500Y-70411306D01*
X107900499Y-70411304D01*
X107865896Y-70237341D01*
X107865893Y-70237332D01*
X107798016Y-70073459D01*
X107798009Y-70073446D01*
X107699464Y-69925965D01*
X107699461Y-69925961D01*
X107611181Y-69837681D01*
X107577696Y-69776358D01*
X107582680Y-69706666D01*
X107611181Y-69662319D01*
X107699461Y-69574038D01*
X107699464Y-69574035D01*
X107798013Y-69426547D01*
X107865894Y-69262666D01*
X107870932Y-69237341D01*
X107900499Y-69088695D01*
X107900500Y-69088693D01*
X107900500Y-68911306D01*
X107900499Y-68911304D01*
X107865896Y-68737341D01*
X107865893Y-68737332D01*
X107798016Y-68573459D01*
X107798009Y-68573446D01*
X107699464Y-68425965D01*
X107699461Y-68425961D01*
X107574038Y-68300538D01*
X107574034Y-68300535D01*
X107426553Y-68201990D01*
X107426540Y-68201983D01*
X107262667Y-68134106D01*
X107262658Y-68134103D01*
X107088694Y-68099500D01*
X107088691Y-68099500D01*
X106911309Y-68099500D01*
X106911306Y-68099500D01*
X106737341Y-68134103D01*
X106737332Y-68134106D01*
X106573459Y-68201983D01*
X106573446Y-68201990D01*
X106425965Y-68300535D01*
X106425961Y-68300538D01*
X106337681Y-68388819D01*
X106276358Y-68422304D01*
X106206666Y-68417320D01*
X106162319Y-68388819D01*
X106074038Y-68300538D01*
X106074034Y-68300535D01*
X105926553Y-68201990D01*
X105926540Y-68201983D01*
X105762667Y-68134106D01*
X105762658Y-68134103D01*
X105588694Y-68099500D01*
X105588691Y-68099500D01*
X105411309Y-68099500D01*
X105411306Y-68099500D01*
X105237341Y-68134103D01*
X105237332Y-68134106D01*
X105073459Y-68201983D01*
X105073446Y-68201990D01*
X104925965Y-68300535D01*
X104925961Y-68300538D01*
X104837681Y-68388819D01*
X104776358Y-68422304D01*
X104706666Y-68417320D01*
X104662319Y-68388819D01*
X104574038Y-68300538D01*
X104574034Y-68300535D01*
X104426553Y-68201990D01*
X104426540Y-68201983D01*
X104262667Y-68134106D01*
X104262658Y-68134103D01*
X104088694Y-68099500D01*
X104088691Y-68099500D01*
X103911309Y-68099500D01*
X103911306Y-68099500D01*
X103737341Y-68134103D01*
X103737332Y-68134106D01*
X103573459Y-68201983D01*
X103573446Y-68201990D01*
X103425965Y-68300535D01*
X103425961Y-68300538D01*
X103337681Y-68388819D01*
X103276358Y-68422304D01*
X103206666Y-68417320D01*
X103162319Y-68388819D01*
X103074038Y-68300538D01*
X103074034Y-68300535D01*
X102926553Y-68201990D01*
X102926540Y-68201983D01*
X102762667Y-68134106D01*
X102762658Y-68134103D01*
X102588694Y-68099500D01*
X102588691Y-68099500D01*
X102411309Y-68099500D01*
X102411306Y-68099500D01*
X102237341Y-68134103D01*
X102237332Y-68134106D01*
X102073459Y-68201983D01*
X102073446Y-68201990D01*
X101925965Y-68300535D01*
X101925961Y-68300538D01*
X101837681Y-68388819D01*
X101776358Y-68422304D01*
X101706666Y-68417320D01*
X101662319Y-68388819D01*
X101574038Y-68300538D01*
X101574034Y-68300535D01*
X101426553Y-68201990D01*
X101426540Y-68201983D01*
X101262667Y-68134106D01*
X101262658Y-68134103D01*
X101088694Y-68099500D01*
X101088691Y-68099500D01*
X100911309Y-68099500D01*
X100911306Y-68099500D01*
X100737341Y-68134103D01*
X100737332Y-68134106D01*
X100573459Y-68201983D01*
X100573446Y-68201990D01*
X100425965Y-68300535D01*
X100425961Y-68300538D01*
X100300538Y-68425961D01*
X100300535Y-68425965D01*
X100201990Y-68573446D01*
X100201983Y-68573459D01*
X100134106Y-68737332D01*
X100134103Y-68737341D01*
X100099500Y-68911304D01*
X98184803Y-68911304D01*
X98108278Y-68834779D01*
X98105560Y-68831674D01*
X98092546Y-68803553D01*
X98077696Y-68776358D01*
X98077999Y-68772120D01*
X98076215Y-68768266D01*
X98080469Y-68737575D01*
X98082680Y-68706666D01*
X98085324Y-68702550D01*
X98085809Y-68699058D01*
X98092831Y-68690870D01*
X98111181Y-68662319D01*
X98199461Y-68574038D01*
X98199464Y-68574035D01*
X98298013Y-68426547D01*
X98299771Y-68422304D01*
X98350207Y-68300538D01*
X98365894Y-68262666D01*
X98372340Y-68230263D01*
X98400499Y-68088695D01*
X98400500Y-68088693D01*
X98400500Y-67911306D01*
X98400499Y-67911304D01*
X113099500Y-67911304D01*
X113099500Y-68088695D01*
X113134103Y-68262658D01*
X113134106Y-68262667D01*
X113201983Y-68426540D01*
X113201990Y-68426553D01*
X113205037Y-68431113D01*
X113225912Y-68497792D01*
X113207425Y-68565171D01*
X113205037Y-68568887D01*
X113201990Y-68573446D01*
X113201983Y-68573459D01*
X113134106Y-68737332D01*
X113134103Y-68737341D01*
X113099500Y-68911304D01*
X113099500Y-69088695D01*
X113134103Y-69262658D01*
X113134106Y-69262667D01*
X113201983Y-69426540D01*
X113201990Y-69426553D01*
X113205037Y-69431113D01*
X113225912Y-69497792D01*
X113207425Y-69565171D01*
X113205037Y-69568887D01*
X113201990Y-69573446D01*
X113201983Y-69573459D01*
X113134106Y-69737332D01*
X113134103Y-69737341D01*
X113099500Y-69911304D01*
X113099500Y-70088695D01*
X113134103Y-70262658D01*
X113134106Y-70262667D01*
X113201983Y-70426540D01*
X113201990Y-70426553D01*
X113300535Y-70574034D01*
X113300538Y-70574038D01*
X113425961Y-70699461D01*
X113425965Y-70699464D01*
X113573446Y-70798009D01*
X113573459Y-70798016D01*
X113696363Y-70848923D01*
X113737334Y-70865894D01*
X113737336Y-70865894D01*
X113737341Y-70865896D01*
X113911304Y-70900499D01*
X113911307Y-70900500D01*
X113911309Y-70900500D01*
X114088693Y-70900500D01*
X114088694Y-70900499D01*
X114146682Y-70888964D01*
X114262658Y-70865896D01*
X114262661Y-70865894D01*
X114262666Y-70865894D01*
X114426547Y-70798013D01*
X114574035Y-70699464D01*
X114574038Y-70699461D01*
X114662319Y-70611181D01*
X114723642Y-70577696D01*
X114793334Y-70582680D01*
X114837681Y-70611181D01*
X114925961Y-70699461D01*
X114925965Y-70699464D01*
X115073446Y-70798009D01*
X115073459Y-70798016D01*
X115196363Y-70848923D01*
X115237334Y-70865894D01*
X115237336Y-70865894D01*
X115237341Y-70865896D01*
X115411304Y-70900499D01*
X115411307Y-70900500D01*
X115411309Y-70900500D01*
X115588693Y-70900500D01*
X115588694Y-70900499D01*
X115646682Y-70888964D01*
X115762658Y-70865896D01*
X115762661Y-70865894D01*
X115762666Y-70865894D01*
X115926547Y-70798013D01*
X116074035Y-70699464D01*
X116074038Y-70699461D01*
X116162319Y-70611181D01*
X116223642Y-70577696D01*
X116293334Y-70582680D01*
X116337681Y-70611181D01*
X116425961Y-70699461D01*
X116425965Y-70699464D01*
X116573446Y-70798009D01*
X116573459Y-70798016D01*
X116696363Y-70848923D01*
X116737334Y-70865894D01*
X116737336Y-70865894D01*
X116737341Y-70865896D01*
X116911304Y-70900499D01*
X116911307Y-70900500D01*
X116911309Y-70900500D01*
X117088693Y-70900500D01*
X117088694Y-70900499D01*
X117146682Y-70888964D01*
X117262658Y-70865896D01*
X117262661Y-70865894D01*
X117262666Y-70865894D01*
X117426547Y-70798013D01*
X117574035Y-70699464D01*
X117574038Y-70699461D01*
X117662319Y-70611181D01*
X117723642Y-70577696D01*
X117793334Y-70582680D01*
X117837681Y-70611181D01*
X117925961Y-70699461D01*
X117925965Y-70699464D01*
X118073446Y-70798009D01*
X118073459Y-70798016D01*
X118196363Y-70848923D01*
X118237334Y-70865894D01*
X118237336Y-70865894D01*
X118237341Y-70865896D01*
X118411304Y-70900499D01*
X118411307Y-70900500D01*
X118411309Y-70900500D01*
X118588693Y-70900500D01*
X118588694Y-70900499D01*
X118646682Y-70888964D01*
X118762658Y-70865896D01*
X118762661Y-70865894D01*
X118762666Y-70865894D01*
X118926547Y-70798013D01*
X119074035Y-70699464D01*
X119199464Y-70574035D01*
X119298013Y-70426547D01*
X119365894Y-70262666D01*
X119368414Y-70250000D01*
X119400499Y-70088695D01*
X119400500Y-70088693D01*
X119400500Y-69911306D01*
X119400499Y-69911304D01*
X119365896Y-69737341D01*
X119365893Y-69737332D01*
X119298015Y-69573457D01*
X119298014Y-69573455D01*
X119298013Y-69573453D01*
X119294965Y-69568892D01*
X119274086Y-69502217D01*
X119292569Y-69434837D01*
X119294962Y-69431113D01*
X119298013Y-69426547D01*
X119365894Y-69262666D01*
X119370932Y-69237341D01*
X119400499Y-69088695D01*
X119400500Y-69088693D01*
X119400500Y-68911306D01*
X119400499Y-68911304D01*
X119365896Y-68737341D01*
X119365893Y-68737332D01*
X119298015Y-68573457D01*
X119298014Y-68573455D01*
X119298013Y-68573453D01*
X119294965Y-68568892D01*
X119274086Y-68502217D01*
X119292569Y-68434837D01*
X119294962Y-68431113D01*
X119298013Y-68426547D01*
X119365894Y-68262666D01*
X119372340Y-68230263D01*
X119400499Y-68088695D01*
X119400500Y-68088693D01*
X119400500Y-67911306D01*
X119400499Y-67911304D01*
X119365896Y-67737341D01*
X119365893Y-67737332D01*
X119298016Y-67573459D01*
X119298009Y-67573446D01*
X119199464Y-67425965D01*
X119199461Y-67425961D01*
X119074038Y-67300538D01*
X119074034Y-67300535D01*
X118926553Y-67201990D01*
X118926540Y-67201983D01*
X118762667Y-67134106D01*
X118762658Y-67134103D01*
X118588694Y-67099500D01*
X118588691Y-67099500D01*
X118411309Y-67099500D01*
X118411306Y-67099500D01*
X118237341Y-67134103D01*
X118237332Y-67134106D01*
X118073459Y-67201983D01*
X118073446Y-67201990D01*
X117925965Y-67300535D01*
X117925961Y-67300538D01*
X117837681Y-67388819D01*
X117776358Y-67422304D01*
X117706666Y-67417320D01*
X117662319Y-67388819D01*
X117574038Y-67300538D01*
X117574034Y-67300535D01*
X117426553Y-67201990D01*
X117426540Y-67201983D01*
X117262667Y-67134106D01*
X117262658Y-67134103D01*
X117088694Y-67099500D01*
X117088691Y-67099500D01*
X116911309Y-67099500D01*
X116911306Y-67099500D01*
X116737341Y-67134103D01*
X116737332Y-67134106D01*
X116573459Y-67201983D01*
X116573446Y-67201990D01*
X116425965Y-67300535D01*
X116425961Y-67300538D01*
X116337681Y-67388819D01*
X116276358Y-67422304D01*
X116206666Y-67417320D01*
X116162319Y-67388819D01*
X116074038Y-67300538D01*
X116074034Y-67300535D01*
X115926553Y-67201990D01*
X115926540Y-67201983D01*
X115762667Y-67134106D01*
X115762658Y-67134103D01*
X115588694Y-67099500D01*
X115588691Y-67099500D01*
X115411309Y-67099500D01*
X115411306Y-67099500D01*
X115237341Y-67134103D01*
X115237332Y-67134106D01*
X115073459Y-67201983D01*
X115073446Y-67201990D01*
X114925965Y-67300535D01*
X114925961Y-67300538D01*
X114837681Y-67388819D01*
X114776358Y-67422304D01*
X114706666Y-67417320D01*
X114662319Y-67388819D01*
X114574038Y-67300538D01*
X114574034Y-67300535D01*
X114426553Y-67201990D01*
X114426540Y-67201983D01*
X114262667Y-67134106D01*
X114262658Y-67134103D01*
X114088694Y-67099500D01*
X114088691Y-67099500D01*
X113911309Y-67099500D01*
X113911306Y-67099500D01*
X113737341Y-67134103D01*
X113737332Y-67134106D01*
X113573459Y-67201983D01*
X113573446Y-67201990D01*
X113425965Y-67300535D01*
X113425961Y-67300538D01*
X113300538Y-67425961D01*
X113300535Y-67425965D01*
X113201990Y-67573446D01*
X113201983Y-67573459D01*
X113134106Y-67737332D01*
X113134103Y-67737341D01*
X113099500Y-67911304D01*
X98400499Y-67911304D01*
X98365896Y-67737341D01*
X98365893Y-67737332D01*
X98298016Y-67573459D01*
X98298009Y-67573446D01*
X98199464Y-67425965D01*
X98199461Y-67425961D01*
X98074038Y-67300538D01*
X98074034Y-67300535D01*
X97926553Y-67201990D01*
X97926540Y-67201983D01*
X97762667Y-67134106D01*
X97762658Y-67134103D01*
X97588694Y-67099500D01*
X97588691Y-67099500D01*
X97411309Y-67099500D01*
X97411306Y-67099500D01*
X97237341Y-67134103D01*
X97237332Y-67134106D01*
X97073459Y-67201983D01*
X97073446Y-67201990D01*
X96925965Y-67300535D01*
X96925961Y-67300538D01*
X96837681Y-67388819D01*
X96776358Y-67422304D01*
X96706666Y-67417320D01*
X96662319Y-67388819D01*
X96574038Y-67300538D01*
X96574034Y-67300535D01*
X96426553Y-67201990D01*
X96426540Y-67201983D01*
X96262667Y-67134106D01*
X96262658Y-67134103D01*
X96088694Y-67099500D01*
X96088691Y-67099500D01*
X95911309Y-67099500D01*
X95911306Y-67099500D01*
X95737341Y-67134103D01*
X95737332Y-67134106D01*
X95573459Y-67201983D01*
X95573446Y-67201990D01*
X95425965Y-67300535D01*
X95425961Y-67300538D01*
X95337681Y-67388819D01*
X95276358Y-67422304D01*
X95206666Y-67417320D01*
X95162319Y-67388819D01*
X95074038Y-67300538D01*
X95074034Y-67300535D01*
X94926553Y-67201990D01*
X94926540Y-67201983D01*
X94762667Y-67134106D01*
X94762658Y-67134103D01*
X94588694Y-67099500D01*
X94588691Y-67099500D01*
X94411309Y-67099500D01*
X94411306Y-67099500D01*
X94237341Y-67134103D01*
X94237332Y-67134106D01*
X94073459Y-67201983D01*
X94073446Y-67201990D01*
X93925965Y-67300535D01*
X93925961Y-67300538D01*
X93800538Y-67425961D01*
X93800535Y-67425965D01*
X93701990Y-67573446D01*
X93701983Y-67573459D01*
X93634106Y-67737332D01*
X93634103Y-67737341D01*
X93599500Y-67911304D01*
X59500500Y-67911304D01*
X59500500Y-65624500D01*
X59520185Y-65557461D01*
X59572989Y-65511706D01*
X59624500Y-65500500D01*
X111697810Y-65500500D01*
X111764849Y-65520185D01*
G37*
%TD.AperFunction*%
%TA.AperFunction,Conductor*%
G36*
X97331544Y-86300017D02*
G01*
X97341593Y-86298391D01*
X97364824Y-86308509D01*
X97389381Y-86314776D01*
X97402359Y-86324857D01*
X97405650Y-86326291D01*
X97407208Y-86328624D01*
X97413794Y-86333740D01*
X98313181Y-87233127D01*
X98346666Y-87294450D01*
X98349500Y-87320808D01*
X98349500Y-93564070D01*
X98357424Y-93603903D01*
X98365348Y-93643738D01*
X98369913Y-93666689D01*
X98374499Y-93689744D01*
X98423534Y-93808125D01*
X98494726Y-93914673D01*
X98494727Y-93914674D01*
X98813181Y-94233127D01*
X98846666Y-94294450D01*
X98849500Y-94320808D01*
X98849500Y-99602242D01*
X98829815Y-99669281D01*
X98777011Y-99715036D01*
X98707853Y-99724980D01*
X98701309Y-99723859D01*
X98578846Y-99699500D01*
X98578842Y-99699500D01*
X98421158Y-99699500D01*
X98421155Y-99699500D01*
X98266510Y-99730261D01*
X98266498Y-99730264D01*
X98120827Y-99790602D01*
X98120814Y-99790609D01*
X97989711Y-99878210D01*
X97989707Y-99878213D01*
X97878213Y-99989707D01*
X97878210Y-99989711D01*
X97790609Y-100120814D01*
X97790602Y-100120827D01*
X97730264Y-100266498D01*
X97730261Y-100266510D01*
X97699500Y-100421153D01*
X97699500Y-100578846D01*
X97730261Y-100733489D01*
X97730264Y-100733501D01*
X97790602Y-100879172D01*
X97790609Y-100879185D01*
X97878602Y-101010874D01*
X97899480Y-101077551D01*
X97899500Y-101079765D01*
X97899500Y-111199903D01*
X97879815Y-111266942D01*
X97863181Y-111287584D01*
X97412181Y-111738584D01*
X97350858Y-111772069D01*
X97281166Y-111767085D01*
X97225233Y-111725213D01*
X97200816Y-111659749D01*
X97200500Y-111650903D01*
X97200500Y-109689059D01*
X97200501Y-109689046D01*
X97200501Y-109520945D01*
X97200501Y-109520943D01*
X97159577Y-109368215D01*
X97124885Y-109308127D01*
X97080520Y-109231284D01*
X96968716Y-109119480D01*
X96968715Y-109119479D01*
X96964385Y-109115149D01*
X96964374Y-109115139D01*
X96578337Y-108729102D01*
X96544852Y-108667779D01*
X96549836Y-108598087D01*
X96578337Y-108553740D01*
X96621789Y-108510289D01*
X96709394Y-108379179D01*
X96769737Y-108233497D01*
X96783079Y-108166416D01*
X96815463Y-108104509D01*
X96816901Y-108103043D01*
X97005277Y-107914669D01*
X97076465Y-107808127D01*
X97105225Y-107738694D01*
X97125501Y-107689744D01*
X97133682Y-107648615D01*
X97150500Y-107564071D01*
X97150500Y-94886878D01*
X97170185Y-94819839D01*
X97222989Y-94774084D01*
X97227930Y-94772215D01*
X97227869Y-94772068D01*
X97241288Y-94766510D01*
X97379179Y-94709394D01*
X97510289Y-94621789D01*
X97621789Y-94510289D01*
X97709394Y-94379179D01*
X97769737Y-94233497D01*
X97800500Y-94078842D01*
X97800500Y-93921158D01*
X97800500Y-93921155D01*
X97800499Y-93921153D01*
X97778440Y-93810256D01*
X97769737Y-93766503D01*
X97755694Y-93732600D01*
X97709397Y-93620827D01*
X97709390Y-93620814D01*
X97621789Y-93489711D01*
X97621786Y-93489707D01*
X97510292Y-93378213D01*
X97510288Y-93378210D01*
X97379185Y-93290609D01*
X97379172Y-93290602D01*
X97227870Y-93227932D01*
X97228879Y-93225494D01*
X97180008Y-93193416D01*
X97151598Y-93129583D01*
X97150500Y-93113121D01*
X97150500Y-86504935D01*
X97155211Y-86488349D01*
X97154925Y-86472104D01*
X97167885Y-86443731D01*
X97169018Y-86439746D01*
X97170171Y-86437879D01*
X97209394Y-86379179D01*
X97215378Y-86364730D01*
X97220631Y-86356232D01*
X97239488Y-86339300D01*
X97255388Y-86319569D01*
X97265045Y-86316354D01*
X97272620Y-86309553D01*
X97297635Y-86305504D01*
X97321681Y-86297500D01*
X97331544Y-86300017D01*
G37*
%TD.AperFunction*%
%TA.AperFunction,Conductor*%
G36*
X95451018Y-85608011D02*
G01*
X95457858Y-85607921D01*
X95490154Y-85622157D01*
X95491788Y-85623177D01*
X95620821Y-85709394D01*
X95647897Y-85720609D01*
X95656610Y-85726047D01*
X95703059Y-85778241D01*
X95713917Y-85847262D01*
X95712573Y-85855431D01*
X95699500Y-85921153D01*
X95699500Y-86078846D01*
X95730261Y-86233489D01*
X95730264Y-86233501D01*
X95790602Y-86379172D01*
X95790604Y-86379175D01*
X95790606Y-86379179D01*
X95828602Y-86436044D01*
X95849480Y-86502721D01*
X95849500Y-86504935D01*
X95849500Y-93271328D01*
X95829815Y-93338367D01*
X95828602Y-93340219D01*
X95788325Y-93400496D01*
X95788326Y-93400497D01*
X95773534Y-93422635D01*
X95724499Y-93541016D01*
X95724497Y-93541022D01*
X95699500Y-93666689D01*
X95699500Y-94333310D01*
X95716682Y-94419686D01*
X95716682Y-94419687D01*
X95724496Y-94458976D01*
X95724498Y-94458981D01*
X95773535Y-94577367D01*
X95828602Y-94659781D01*
X95849480Y-94726458D01*
X95849500Y-94728671D01*
X95849500Y-99421730D01*
X95829815Y-99488769D01*
X95777011Y-99534524D01*
X95707853Y-99544468D01*
X95644297Y-99515443D01*
X95636268Y-99507833D01*
X95628560Y-99499845D01*
X95621789Y-99489711D01*
X95536038Y-99403960D01*
X95535268Y-99403162D01*
X95519558Y-99373129D01*
X95503334Y-99343417D01*
X95503157Y-99341775D01*
X95502883Y-99341251D01*
X95502982Y-99340143D01*
X95500500Y-99317059D01*
X95500500Y-95371715D01*
X95475502Y-95246047D01*
X95475501Y-95246045D01*
X95475501Y-95246043D01*
X95470304Y-95233497D01*
X95444397Y-95170952D01*
X95426465Y-95127660D01*
X95385552Y-95066429D01*
X95355276Y-95021116D01*
X95336819Y-95002659D01*
X95303334Y-94941336D01*
X95300500Y-94914978D01*
X95300500Y-85727350D01*
X95302817Y-85719456D01*
X95301539Y-85711328D01*
X95312518Y-85686419D01*
X95320185Y-85660311D01*
X95326401Y-85654924D01*
X95329721Y-85647394D01*
X95352424Y-85632375D01*
X95372989Y-85614556D01*
X95381131Y-85613385D01*
X95387995Y-85608845D01*
X95415210Y-85608485D01*
X95442147Y-85604612D01*
X95451018Y-85608011D01*
G37*
%TD.AperFunction*%
%TA.AperFunction,Conductor*%
G36*
X90680484Y-87620185D02*
G01*
X90726239Y-87672989D01*
X90736183Y-87742147D01*
X90731159Y-87760411D01*
X90732031Y-87760676D01*
X90730261Y-87766510D01*
X90699500Y-87921153D01*
X90699500Y-88078846D01*
X90730261Y-88233489D01*
X90730264Y-88233501D01*
X90790602Y-88379172D01*
X90790609Y-88379185D01*
X90878602Y-88510874D01*
X90899480Y-88577551D01*
X90899500Y-88579765D01*
X90899500Y-89413330D01*
X90899499Y-89413348D01*
X90899499Y-89579054D01*
X90899498Y-89579054D01*
X90940423Y-89731785D01*
X90969358Y-89781900D01*
X90969359Y-89781904D01*
X90969360Y-89781904D01*
X91019479Y-89868714D01*
X91019481Y-89868717D01*
X91138349Y-89987585D01*
X91138355Y-89987590D01*
X91863181Y-90712416D01*
X91896666Y-90773739D01*
X91899500Y-90800097D01*
X91899500Y-92114507D01*
X91879815Y-92181546D01*
X91827011Y-92227301D01*
X91757853Y-92237245D01*
X91694297Y-92208220D01*
X91687819Y-92202188D01*
X90636819Y-91151188D01*
X90603334Y-91089865D01*
X90600500Y-91063507D01*
X90600500Y-90589060D01*
X90600501Y-90589047D01*
X90600501Y-90420944D01*
X90585139Y-90363613D01*
X90559577Y-90268216D01*
X90549060Y-90250000D01*
X90480524Y-90131290D01*
X90480518Y-90131282D01*
X89636819Y-89287583D01*
X89603334Y-89226260D01*
X89600500Y-89199902D01*
X89600500Y-87800098D01*
X89609144Y-87770660D01*
X89615668Y-87740670D01*
X89619423Y-87735653D01*
X89620185Y-87733059D01*
X89636819Y-87712416D01*
X89712418Y-87636818D01*
X89773742Y-87603334D01*
X89800099Y-87600500D01*
X90613445Y-87600500D01*
X90680484Y-87620185D01*
G37*
%TD.AperFunction*%
%TD*%
M02*
